<?xml version="1.0" standalone="no"?>
<!DOCTYPE svg PUBLIC "-//W3C//DTD SVG 1.1//EN" "http://www.w3.org/Graphics/SVG/1.1/DTD/svg11.dtd" >
<svg xmlns="http://www.w3.org/2000/svg" xmlns:xlink="http://www.w3.org/1999/xlink" version="1.1">
<metadata>
Created by FontForge 20190801 at Mon Nov  4 14:52:39 2019
 By www-data
Copyright (c) 2019 by Daniel Hernandez &#38; Rodrigo Fuenzalida. All rights reserved.
</metadata>
<defs>
<font id="BiennaleMedium" horiz-adv-x="0" >
  <font-face 
    font-family="BiennaleMedium"
    font-weight="500"
    font-stretch="normal"
    units-per-em="1000"
    panose-1="0 0 6 0 0 0 0 0 0 0"
    ascent="800"
    descent="-200"
    x-height="527"
    cap-height="695"
    bbox="-736 -265 2207 967"
    underline-thickness="50"
    underline-position="-100"
    unicode-range="U+0020-FB02"
  />
<missing-glyph horiz-adv-x="630" 
d="M100 730h430v-730h-430v730zM165 695l150 -287l150 287h-300zM293 365l-153 292v-584zM338 365l152 -292v584zM315 322l-150 -287h300z" />
    <glyph glyph-name="fi" unicode="fi" horiz-adv-x="529" 
d="M312 659q-47 0 -73.5 -28t-26.5 -79v-25h252v-527h-105v436h-147v-436h-105v436h-91v91h91v15q0 94 52.5 147t149.5 53h155v-83h-152z" />
    <glyph glyph-name="fl" unicode="fl" horiz-adv-x="550" 
d="M485 731v-731h-106v647h-67q-47 0 -73.5 -27.5t-26.5 -78.5v-19h100v-86h-100v-436h-105v436h-91v91h91v4q0 94 52.5 147t149.5 53h176z" />
    <glyph glyph-name=".notdef" horiz-adv-x="630" 
d="M100 730h430v-730h-430v730zM165 695l150 -287l150 287h-300zM293 365l-153 292v-584zM338 365l152 -292v584zM315 322l-150 -287h300z" />
    <glyph glyph-name=".null" 
 />
    <glyph glyph-name="nonmarkingreturn" horiz-adv-x="333" 
 />
    <glyph glyph-name="space" unicode=" " horiz-adv-x="216" 
 />
    <glyph glyph-name="exclam" unicode="!" horiz-adv-x="254" 
d="M84 219l-18 512h122l-19 -512h-85zM127 -9q-28 0 -47 18.5t-19 46.5q0 29 19 48t47 19q29 0 47.5 -19t18.5 -48q0 -28 -19 -46.5t-47 -18.5z" />
    <glyph glyph-name="quotedbl" unicode="&#x22;" horiz-adv-x="345" 
d="M57 485l-8 230h94l-9 -230h-77zM211 485l-7 230h92l-8 -230h-77z" />
    <glyph glyph-name="numbersign" unicode="#" horiz-adv-x="691" 
d="M663 441h-123l-48 -176h103v-82h-125l-50 -183h-89l50 183h-161l-50 -183h-87l50 183h-104v82h126l49 176h-106v82h128l47 172h86l-47 -172h162l47 172h88l-47 -172h101v-82zM403 265l49 176h-162l-48 -176h161z" />
    <glyph glyph-name="dollar" unicode="$" horiz-adv-x="496" 
d="M459 182q0 -67 -43.5 -113t-119.5 -58v-92h-86v90q-68 8 -116 47t-67 104l92 36q12 -50 47 -77.5t87 -27.5q49 0 78 23.5t29 64.5q0 42 -31.5 69t-76 43t-89.5 35t-76.5 58.5t-31.5 100.5q0 68 41.5 112.5t115.5 54.5v91h86v-92q59 -10 98.5 -44t53.5 -88l-92 -35
q-23 88 -110 88q-46 0 -71.5 -22t-25.5 -57q0 -39 31.5 -64.5t77 -41t91 -35.5t77 -62.5t31.5 -107.5z" />
    <glyph glyph-name="percent" unicode="%" horiz-adv-x="755" 
d="M184 381q-68 0 -113 46.5t-45 114.5q0 67 45 113.5t113 46.5t112.5 -46.5t44.5 -113.5q0 -68 -44.5 -114.5t-112.5 -46.5zM136 0l400 695h84l-401 -695h-83zM184 449q37 0 62 26.5t25 66.5q0 39 -25 66t-62 27q-38 0 -63 -27t-25 -66q0 -40 25 -66.5t63 -26.5zM572 -7
q-68 0 -113 46t-45 114q0 67 45 114t113 47t112.5 -46.5t44.5 -114.5t-44.5 -114t-112.5 -46zM572 60q38 0 63 26.5t25 66.5q0 39 -25.5 66t-62.5 27q-38 0 -63 -27t-25 -66q0 -40 25 -66.5t63 -26.5z" />
    <glyph glyph-name="ampersand" unicode="&#x26;" horiz-adv-x="675" 
d="M657 0h-117l-59 59q-78 -69 -198 -69q-102 0 -172.5 57t-70.5 145q0 124 121 192q-48 64 -48 137q0 79 57.5 130.5t151.5 51.5q93 0 152 -52t68 -139h-110q-6 40 -34.5 65t-76.5 25q-44 0 -72.5 -26.5t-28.5 -62.5t19 -64t78 -91q13 -13 20 -21l139 -147q50 73 53 185
l100 -40q-7 -134 -83 -218zM284 84q73 0 127 44l-177 175q-3 2 -5.5 5t-5.5 6l-5 5q-70 -46 -70 -116q0 -51 40.5 -85t95.5 -34z" />
    <glyph glyph-name="quotesingle" unicode="'" horiz-adv-x="191" 
d="M57 485l-8 230h94l-9 -230h-77z" />
    <glyph glyph-name="parenleft" unicode="(" horiz-adv-x="328" 
d="M252 -113q-96 71 -154.5 185.5t-58.5 263.5t58.5 263.5t154.5 185.5l69 -69q-181 -145 -181 -380q0 -237 181 -380z" />
    <glyph glyph-name="parenright" unicode=")" horiz-adv-x="328" 
d="M75 -113l-69 69q181 142 181 380q0 237 -181 380l69 69q96 -71 154.5 -185.5t58.5 -263.5t-58.5 -263.5t-154.5 -185.5z" />
    <glyph glyph-name="asterisk" unicode="*" horiz-adv-x="410" 
d="M166 389l8 110l-93 -63l-39 71l105 50l-105 51l39 70l93 -63l-8 116h78l-8 -116l93 63l39 -70l-104 -51l104 -50l-39 -71l-93 63l8 -110h-78z" />
    <glyph glyph-name="plus" unicode="+" horiz-adv-x="489" 
d="M459 363v-91h-167v-186h-94v186h-168v91h168v183h94v-183h167z" />
    <glyph glyph-name="comma" unicode="," horiz-adv-x="210" 
d="M105 123q28 0 47 -18.5t19 -48.5q0 -26 -21 -70l-48 -95h-62l52 104q-53 9 -53 62q0 29 19 47.5t47 18.5z" />
    <glyph glyph-name="hyphen" unicode="-" horiz-adv-x="381" 
d="M57 206v87h266v-87h-266z" />
    <glyph glyph-name="period" unicode="." horiz-adv-x="215" 
d="M107 -9q-28 0 -47 18.5t-19 46.5q0 29 19 48t47 19q29 0 47.5 -19t18.5 -48q0 -28 -19 -46.5t-47 -18.5z" />
    <glyph glyph-name="slash" unicode="/" horiz-adv-x="351" 
d="M32 -50l193 761h92l-191 -761h-94z" />
    <glyph glyph-name="zero" unicode="0" horiz-adv-x="696" 
d="M348 -11q-138 0 -219.5 96.5t-81.5 262.5q0 168 81 262.5t220 94.5t220 -94.5t81 -262.5q0 -166 -81.5 -262.5t-219.5 -96.5zM348 89q88 0 140.5 68.5t52.5 189.5t-52.5 189.5t-140.5 68.5t-140.5 -68.5t-52.5 -189.5t52.5 -189.5t140.5 -68.5z" />
    <glyph glyph-name="one" unicode="1" horiz-adv-x="380" 
d="M264 88h90v-88h-311v88h116v423h-113v88h113v96h105v-607z" />
    <glyph glyph-name="two" unicode="2" horiz-adv-x="556" 
d="M189 89h326v-89h-479v70l251 252q108 104 108 186q0 47 -33 77t-87 30q-50 0 -87 -28.5t-52 -82.5l-100 33q19 77 84.5 123t154.5 46q103 0 165 -53.5t62 -140.5q0 -115 -133 -241z" />
    <glyph glyph-name="three" unicode="3" horiz-adv-x="570" 
d="M309 411q95 0 156.5 -58t61.5 -149q0 -93 -70 -154.5t-179 -61.5q-96 0 -165 43.5t-90 113.5l97 39q14 -47 55.5 -76t99.5 -29q64 0 103 37t39 95q0 59 -39 93.5t-96 34.5h-97v72l199 200h-329v84h448v-84l-195 -200h1z" />
    <glyph glyph-name="four" unicode="4" horiz-adv-x="591" 
d="M560 244v-84h-85v-160h-105v160h-351v76l352 458h104v-450h85zM371 244v312l-240 -312h240z" />
    <glyph glyph-name="five" unicode="5" horiz-adv-x="557" 
d="M269 432q113 0 181.5 -60.5t68.5 -160.5q0 -99 -68.5 -161t-183.5 -62q-91 0 -155 41.5t-89 118.5l97 39q13 -51 53 -79.5t95 -28.5q64 0 103.5 37.5t39.5 95.5q0 59 -40 97.5t-105 38.5h-181l19 347h372v-84h-282l-10 -179h85z" />
    <glyph glyph-name="six" unicode="6" horiz-adv-x="575" 
d="M293 462q110 0 181 -64.5t71 -169.5q0 -106 -72 -173t-181 -67q-110 0 -183.5 67.5t-73.5 171.5q0 90 63 172l226 296h124l-180 -234q8 1 25 1zM292 79q63 0 104 42t41 106q0 65 -41 107t-104 42t-106 -42.5t-43 -106.5q0 -63 43 -105.5t106 -42.5z" />
    <glyph glyph-name="seven" unicode="7" horiz-adv-x="493" 
d="M15 695h457v-81l-242 -614h-118l242 605h-339v90z" />
    <glyph glyph-name="eight" unicode="8" horiz-adv-x="575" 
d="M391 369q61 -20 100.5 -68.5t39.5 -113.5q0 -88 -68.5 -143.5t-174.5 -55.5q-107 0 -175.5 55.5t-68.5 143.5q0 65 38.5 114t98.5 69q-49 19 -78.5 59.5t-29.5 97.5q0 77 58 127.5t157 50.5q98 0 156 -50.5t58 -128.5q0 -57 -30.5 -97.5t-80.5 -59.5zM288 619
q-50 0 -82 -30t-32 -75q0 -46 32 -76.5t82 -30.5q49 0 81 30.5t32 76.5q0 45 -31.5 75t-81.5 30zM288 75q62 0 99.5 35t37.5 90t-38 91t-99 36q-62 0 -100 -36t-38 -91t37.5 -90t100.5 -35z" />
    <glyph glyph-name="nine" unicode="9" horiz-adv-x="574" 
d="M283 707q110 0 183.5 -67.5t73.5 -171.5q0 -90 -63 -172l-226 -296h-123l179 234q-8 -1 -25 -1q-110 0 -181 64.5t-71 169.5q0 106 72 173t181 67zM283 319q64 0 106.5 42.5t42.5 106.5q0 63 -42.5 105.5t-106.5 42.5q-62 0 -103.5 -42t-41.5 -106q0 -65 41 -107t104 -42
z" />
    <glyph glyph-name="colon" unicode=":" horiz-adv-x="239" 
d="M120 328q-28 0 -47 19t-19 47t19 47t47 19t47 -19t19 -47t-19 -47t-47 -19zM120 -9q-28 0 -47 18.5t-19 46.5q0 29 18.5 48t47.5 19t47.5 -19t18.5 -48q0 -28 -19 -46.5t-47 -18.5z" />
    <glyph glyph-name="semicolon" unicode=";" horiz-adv-x="241" 
d="M120 324q-28 0 -47 19t-19 47t19 47t47 19t47 -19t19 -47t-19 -47t-47 -19zM121 123q28 0 47 -18.5t19 -48.5q0 -29 -21 -70l-47 -95h-63l52 104q-23 4 -37.5 20t-14.5 42q0 29 19 47.5t46 18.5z" />
    <glyph glyph-name="less" unicode="&#x3c;" horiz-adv-x="422" 
d="M371 536v-97l-238 -136l238 -136v-98l-343 201v67z" />
    <glyph glyph-name="equal" unicode="=" horiz-adv-x="543" 
d="M62 372v91h419v-91h-419zM62 139v90h419v-90h-419z" />
    <glyph glyph-name="greater" unicode="&#x3e;" horiz-adv-x="422" 
d="M51 536l343 -199v-67l-343 -201v98l239 136l-239 136v97z" />
    <glyph glyph-name="question" unicode="?" horiz-adv-x="461" 
d="M152 219v41q0 45 17 81t41.5 60t49.5 45.5t42 48.5t17 58q0 41 -24 64t-66 23q-40 0 -68.5 -26t-36.5 -66l-99 32q14 73 71.5 117t139.5 44q90 0 141.5 -47t51.5 -130q0 -46 -19 -82.5t-46.5 -61t-54.5 -47.5t-46 -52.5t-19 -65.5v-36h-92zM199 -9q-28 0 -47 18.5
t-19 46.5q0 29 19 48t47 19q29 0 47.5 -19t18.5 -47q0 -29 -18.5 -47.5t-47.5 -18.5z" />
    <glyph glyph-name="at" unicode="@" horiz-adv-x="793" 
d="M397 582q159 0 257.5 -96.5t98.5 -244.5q0 -76 -42.5 -126.5t-103.5 -50.5q-81 0 -102 67q-40 -73 -131 -73q-69 0 -115 50t-46 123t45 123t116 50q84 0 126 -67v56h63v-210q0 -50 43 -50q34 0 53.5 28t19.5 80q0 118 -77.5 195.5t-204.5 77.5q-126 0 -206 -81t-80 -200
q0 -124 76.5 -200t205.5 -76q115 0 164 62l45 -53q-72 -77 -209 -77q-161 0 -258.5 95.5t-97.5 248.5q0 149 100.5 249t259.5 100zM387 131q42 0 69 28.5t27 71.5q0 44 -27 72.5t-69 28.5q-40 0 -67.5 -29t-27.5 -72t26.5 -71.5t68.5 -28.5z" />
    <glyph glyph-name="A" unicode="A" horiz-adv-x="634" 
d="M523 0l-64 182h-283l-64 -182h-105l246 695h128l247 -695h-105zM207 269h221l-110 314z" />
    <glyph glyph-name="B" unicode="B" horiz-adv-x="623" 
d="M456 369q60 -21 93.5 -66.5t33.5 -108.5q0 -89 -59.5 -141.5t-164.5 -52.5h-283v695h290q91 0 142 -46t51 -123q0 -52 -28 -93t-75 -64zM453 506q0 47 -29.5 75t-84.5 28h-158v-206h155q51 0 84 28.5t33 74.5zM345 86q63 0 97.5 30.5t34.5 85.5q0 54 -36 84.5t-97 30.5
h-163v-231h164z" />
    <glyph glyph-name="C" unicode="C" horiz-adv-x="731" 
d="M392 -12q-152 0 -251.5 101t-99.5 258t99.5 258.5t249.5 101.5q122 0 203.5 -62.5t114.5 -160.5l-102 -41q-52 163 -218 163q-104 0 -171.5 -72t-67.5 -187t67.5 -186.5t173.5 -71.5q164 0 216 163l102 -41q-34 -100 -114.5 -161.5t-201.5 -61.5z" />
    <glyph glyph-name="D" unicode="D" horiz-adv-x="720" 
d="M334 695q152 0 248 -95t96 -252t-96 -252.5t-248 -95.5h-258v695h258zM331 94q106 0 173 68.5t67 184.5t-67 185t-173 69h-149v-507h149z" />
    <glyph glyph-name="E" unicode="E" horiz-adv-x="564" 
d="M182 93h344v-93h-450v695h444v-93h-338v-198h304v-92h-304v-219z" />
    <glyph glyph-name="F" unicode="F" horiz-adv-x="542" 
d="M518 602h-336v-202h300v-93h-300v-307h-106v695h442v-93z" />
    <glyph glyph-name="G" unicode="G" horiz-adv-x="771" 
d="M737 365q0 -172 -97.5 -274.5t-247.5 -102.5q-152 0 -251.5 101.5t-99.5 257.5q0 157 99.5 258.5t250.5 101.5q119 0 200 -59t117 -153l-102 -42q-55 153 -217 153q-106 0 -173 -72.5t-67 -188.5q0 -117 69 -189t182 -72q92 0 154 51.5t81 147.5h-246v82h348z" />
    <glyph glyph-name="H" unicode="H" horiz-adv-x="688" 
d="M506 695h106v-695h-106v311h-324v-311h-106v695h106v-289h324v289z" />
    <glyph glyph-name="I" unicode="I" horiz-adv-x="258" 
d="M76 0v695h106v-695h-106z" />
    <glyph glyph-name="J" unicode="J" horiz-adv-x="336" 
d="M19 0v94h44q46 0 71.5 28t25.5 79v494h106v-495q0 -94 -51 -147t-144 -53h-52z" />
    <glyph glyph-name="K" unicode="K" horiz-adv-x="623" 
d="M630 0h-125l-323 334v-334h-106v695h106v-310l301 310h124l-316 -333z" />
    <glyph glyph-name="L" unicode="L" horiz-adv-x="534" 
d="M182 95h339v-95h-445v695h106v-600z" />
    <glyph glyph-name="M" unicode="M" horiz-adv-x="842" 
d="M787 0h-99l-38 545l-185 -518h-88l-185 516l-38 -543h-99l48 695h100v-1l23 1l195 -544l195 544l24 -1v1h98z" />
    <glyph glyph-name="N" unicode="N" horiz-adv-x="688" 
d="M507 695h106v-695h-89l-342 511v-511h-106v695h88l343 -513v513z" />
    <glyph glyph-name="O" unicode="O" horiz-adv-x="789" 
d="M395 -12q-151 0 -253 102.5t-102 256.5q0 155 102 257.5t253 102.5t252.5 -102.5t101.5 -257.5q0 -154 -101.5 -256.5t-252.5 -102.5zM395 89q108 0 177 72.5t69 185.5q0 114 -68.5 186.5t-177.5 72.5t-178 -72.5t-69 -186.5q0 -113 69 -185.5t178 -72.5z" />
    <glyph glyph-name="P" unicode="P" horiz-adv-x="599" 
d="M343 695q106 0 168.5 -56.5t62.5 -151.5t-62.5 -151t-168.5 -56h-161v-280h-106v695h267zM337 373q62 0 95.5 31t33.5 83t-33.5 83.5t-95.5 31.5h-155v-229h155z" />
    <glyph glyph-name="Q" unicode="Q" horiz-adv-x="789" 
d="M749 347q0 -95 -41.5 -174t-114.5 -127l137 -130l-72 -77l-169 161q-43 -12 -94 -12q-151 0 -253 102.5t-102 256.5q0 155 102 257.5t253 102.5t252.5 -102.5t101.5 -257.5zM148 347q0 -113 69 -185.5t178 -72.5q108 0 177 72.5t69 185.5q0 114 -68.5 186.5t-177.5 72.5
t-178 -72.5t-69 -186.5z" />
    <glyph glyph-name="R" unicode="R" horiz-adv-x="612" 
d="M461 0l-227 302h-53v-302h-105v695h267q105 0 168 -54.5t63 -142.5q0 -86 -62 -140.5t-165 -55.5l234 -302h-120zM181 602v-223h159q61 0 95.5 30t34.5 81t-34.5 81.5t-95.5 30.5h-159z" />
    <glyph glyph-name="S" unicode="S" horiz-adv-x="563" 
d="M278 -11q-96 0 -162 44.5t-89 125.5l100 38q15 -55 56.5 -85.5t103.5 -30.5q60 0 95 26.5t35 72.5q0 34 -20 59t-51.5 40.5t-69.5 28.5t-76.5 29t-70 37.5t-51.5 58t-20 85.5q0 84 61 136t166 52q89 0 148.5 -40t79.5 -110l-100 -38q-29 97 -133 97q-55 0 -85.5 -24.5
t-30.5 -63.5q0 -32 20 -55.5t51.5 -38t70 -27.5t77 -29.5t70 -39.5t51.5 -62t20 -92q0 -88 -66.5 -141t-179.5 -53z" />
    <glyph glyph-name="T" unicode="T" horiz-adv-x="561" 
d="M548 695v-95h-214v-600h-106v600h-215v95h535z" />
    <glyph glyph-name="U" unicode="U" horiz-adv-x="672" 
d="M498 695h106v-433q0 -118 -69.5 -196t-197.5 -78q-129 0 -199 77.5t-70 196.5v433h107v-433q0 -77 42 -125.5t120 -48.5q77 0 119 48.5t42 125.5v433z" />
    <glyph glyph-name="V" unicode="V" horiz-adv-x="641" 
d="M526 695h110l-251 -695h-129l-251 695h111l205 -571z" />
    <glyph glyph-name="W" unicode="W" horiz-adv-x="887" 
d="M769 695h105l-164 -695h-123l-143 550l-144 -550h-122l-164 695h104l123 -567l146 567h114l146 -567z" />
    <glyph glyph-name="X" unicode="X" horiz-adv-x="639" 
d="M639 0h-122l-201 279l-196 -279h-121l259 360l-243 336h122l188 -261l180 261h122l-242 -344z" />
    <glyph glyph-name="Y" unicode="Y" horiz-adv-x="626" 
d="M623 695l-257 -410v-285h-106v285l-257 410h119l191 -320l191 320h119z" />
    <glyph glyph-name="Z" unicode="Z" horiz-adv-x="560" 
d="M533 95l2 -95h-508v73l366 529h-358v93h494v-74l-370 -526h374z" />
    <glyph glyph-name="bracketleft" unicode="[" horiz-adv-x="306" 
d="M282 696h-108v-720h108v-89h-208v898h208v-89z" />
    <glyph glyph-name="backslash" unicode="\" horiz-adv-x="353" 
d="M227 -50l-194 761h93l195 -761h-94z" />
    <glyph glyph-name="bracketright" unicode="]" horiz-adv-x="306" 
d="M25 785h207v-898h-207v89h107v720h-107v89z" />
    <glyph glyph-name="asciicircum" unicode="^" horiz-adv-x="491" 
d="M456 370h-104l-107 185l-105 -185h-104l174 297h65z" />
    <glyph glyph-name="underscore" unicode="_" horiz-adv-x="522" 
d="M25 -109v86h471v-86h-471z" />
    <glyph glyph-name="grave" unicode="`" horiz-adv-x="298" 
d="M253 588l-223 130l48 77l218 -139z" />
    <glyph glyph-name="a" unicode="a" horiz-adv-x="645" 
d="M482 527h98v-527h-98v86q-64 -98 -186 -98q-113 0 -186.5 78.5t-73.5 197.5q0 117 73.5 192.5t186.5 75.5q123 0 186 -94v89zM309 82q75 0 122 51t47 131t-47 130.5t-122 50.5q-72 0 -120 -52t-48 -129q0 -79 47.5 -130.5t120.5 -51.5z" />
    <glyph glyph-name="b" unicode="b" horiz-adv-x="645" 
d="M351 538q113 0 185.5 -78t72.5 -196q0 -119 -73.5 -197.5t-186.5 -78.5q-120 0 -186 93v-81h-98v731h106v-276q67 83 180 83zM336 82q73 0 120.5 51.5t47.5 130.5q0 77 -48 129t-120 52q-75 0 -122.5 -50.5t-47.5 -130.5t47.5 -131t122.5 -51z" />
    <glyph glyph-name="c" unicode="c" horiz-adv-x="575" 
d="M308 -12q-117 0 -195 78.5t-78 196.5q0 117 77.5 196t194.5 79q93 0 158.5 -49t86.5 -118l-95 -38q-14 51 -53 80.5t-94 29.5q-73 0 -121 -50t-48 -130t48 -130t121 -50q56 0 96 29t54 80l95 -38q-21 -68 -87 -117t-160 -49z" />
    <glyph glyph-name="d" unicode="d" horiz-adv-x="645" 
d="M474 731h106v-731h-98v82q-65 -94 -186 -94q-113 0 -186.5 78.5t-73.5 197.5q0 118 72.5 196t184.5 78q114 0 181 -84v277zM309 82q75 0 122 51t47 131t-47 130.5t-122 50.5q-72 0 -120 -52t-48 -129q0 -79 47.5 -130.5t120.5 -51.5z" />
    <glyph glyph-name="e" unicode="e" horiz-adv-x="594" 
d="M136 228q12 -67 59.5 -106.5t114.5 -39.5q110 0 147 84l87 -55q-70 -123 -237 -123q-123 0 -199.5 78t-76.5 197q0 115 78 195.5t190 80.5q118 0 191 -78.5t73 -185.5q0 -27 -2 -47h-425zM137 309h322q-10 66 -52.5 105t-103.5 39q-63 0 -108.5 -38.5t-57.5 -105.5z" />
    <glyph glyph-name="f" unicode="f" horiz-adv-x="354" 
d="M312 659q-47 0 -73.5 -28t-26.5 -79v-25h131v-91h-131v-436h-105v436h-91v91h91v15q0 94 52.5 147t149.5 53h35v-83h-32z" />
    <glyph glyph-name="g" unicode="g" horiz-adv-x="644" 
d="M482 527h98v-455q0 -120 -74 -191.5t-203 -71.5q-200 0 -256 159l90 35q37 -105 167 -105q82 0 130 44.5t48 120.5v42q-65 -96 -186 -96q-112 0 -186 76t-74 188q0 111 74 188t186 77q122 0 186 -95v84zM308 91q73 0 120.5 50t47.5 127t-47 127t-120 50q-72 0 -120 -51
t-48 -126q0 -76 47.5 -126.5t119.5 -50.5z" />
    <glyph glyph-name="h" unicode="h" horiz-adv-x="610" 
d="M339 539q98 0 155 -58t57 -156v-325h-106v306q0 65 -36.5 102t-99.5 36q-58 0 -97.5 -36.5t-40.5 -86.5v-321h-106v731h106v-263q62 71 168 71z" />
    <glyph glyph-name="i" unicode="i" horiz-adv-x="235" 
d="M118 618q-33 0 -55 20.5t-22 53.5t22 54.5t55 21.5t55 -21.5t22 -54.5t-22 -53.5t-55 -20.5zM65 0v527h106v-527h-106z" />
    <glyph glyph-name="j" unicode="j" horiz-adv-x="237" 
d="M122 618q-33 0 -55 20.5t-22 53.5t22 54.5t55 21.5q32 0 54 -21.5t22 -54.5t-21.5 -53.5t-54.5 -20.5zM-44 -183l-1 92h11q45 0 73 30t28 79v509h105v-508q0 -92 -54 -147t-140 -55h-22z" />
    <glyph glyph-name="k" unicode="k" horiz-adv-x="520" 
d="M525 0h-118l-236 255v-255h-106v731h106v-422l227 218h121l-244 -243z" />
    <glyph glyph-name="l" unicode="l" horiz-adv-x="235" 
d="M65 0v731h106v-731h-106z" />
    <glyph glyph-name="m" unicode="m" horiz-adv-x="951" 
d="M688 539q96 0 150 -59.5t54 -153.5v-326h-105v307q0 61 -33.5 99.5t-92.5 37.5q-57 0 -92.5 -36.5t-36.5 -81.5v-326h-106v307q0 61 -33.5 99.5t-92.5 37.5q-57 0 -92.5 -36.5t-36.5 -81.5v-326h-106v527h100v-67q59 79 166 79q126 0 174 -97q23 43 70 70t113 27z" />
    <glyph glyph-name="n" unicode="n" horiz-adv-x="610" 
d="M339 539q98 0 155 -58t57 -156v-325h-106v306q0 65 -36.5 102t-99.5 36q-58 0 -97.5 -36.5t-40.5 -86.5v-321h-106v527h100v-67q62 79 174 79z" />
    <glyph glyph-name="o" unicode="o" horiz-adv-x="625" 
d="M312 -12q-121 0 -199 78.5t-78 196.5q0 119 78 197t199 78q122 0 200 -78t78 -197t-78 -197t-200 -78zM313 83q76 0 123.5 50.5t47.5 129.5q0 80 -47.5 130.5t-123.5 50.5t-124 -50.5t-48 -130.5q0 -78 48 -129t124 -51z" />
    <glyph glyph-name="p" unicode="p" horiz-adv-x="645" 
d="M351 538q113 0 185.5 -78.5t72.5 -196.5t-74 -196.5t-186 -78.5q-113 0 -178 82v-249h-106v706h98v-83q67 94 188 94zM336 82q72 0 120 51.5t48 129.5q0 79 -47.5 130.5t-120.5 51.5q-75 0 -122.5 -51t-47.5 -131t47 -130.5t123 -50.5z" />
    <glyph glyph-name="q" unicode="q" horiz-adv-x="645" 
d="M482 527h98v-706h-106v249q-66 -82 -178 -82t-186 78.5t-74 196.5t72.5 196.5t184.5 78.5q122 0 189 -94v83zM309 82q76 0 122.5 50.5t46.5 130.5t-47 131t-122 51q-73 0 -120.5 -51.5t-47.5 -130.5q0 -78 48 -129.5t120 -51.5z" />
    <glyph glyph-name="r" unicode="r" horiz-adv-x="343" 
d="M165 460q28 36 70 57.5t92 21.5v-99q-70 -1 -113 -38t-43 -93v-309h-106v527h100v-67z" />
    <glyph glyph-name="s" unicode="s" horiz-adv-x="483" 
d="M243 -12q-85 0 -143 34t-79 98l96 37q25 -82 129 -82q45 0 71 18t26 50q0 31 -30.5 51.5t-74 33t-87.5 28t-74.5 48.5t-30.5 83q0 70 53.5 110.5t144.5 40.5q75 0 125.5 -29t67.5 -82l-96 -37q-24 64 -99 64q-40 0 -62 -16.5t-22 -44.5q0 -25 22 -42t55 -25.5t71.5 -21.5
t71.5 -28.5t55 -47.5t22 -77q0 -76 -57.5 -119.5t-154.5 -43.5z" />
    <glyph glyph-name="t" unicode="t" horiz-adv-x="380" 
d="M288 0q-88 0 -135 49t-47 135v252h-94v91h51q49 0 49 51v85h103v-136h147v-91h-151v-241q0 -49 25.5 -75.5t72.5 -26.5h59v-93h-80z" />
    <glyph glyph-name="u" unicode="u" horiz-adv-x="600" 
d="M430 527h105v-527h-99v67q-62 -79 -169 -79q-99 0 -153.5 59t-54.5 154v326h105v-313q0 -60 36 -96t96 -35q58 0 95.5 35.5t38.5 83.5v325z" />
    <glyph glyph-name="v" unicode="v" horiz-adv-x="549" 
d="M433 527h110l-208 -527h-121l-208 527h110l159 -426z" />
    <glyph glyph-name="w" unicode="w" horiz-adv-x="789" 
d="M669 527h109l-141 -527h-125l-117 411l-115 -411h-125l-143 527h109l101 -425l114 425h119l114 -421z" />
    <glyph glyph-name="x" unicode="x" horiz-adv-x="532" 
d="M532 0h-117l-152 198l-154 -198h-112l209 272l-196 255h117l144 -187l142 187h114l-199 -262z" />
    <glyph glyph-name="y" unicode="y" horiz-adv-x="550" 
d="M434 527h110l-208 -527l-70 -179h-104l72 179h-30l-196 527h109l153 -440z" />
    <glyph glyph-name="z" unicode="z" horiz-adv-x="476" 
d="M156 86h296v-86h-427v76l287 365h-274v86h403v-79z" />
    <glyph glyph-name="braceleft" unicode="{" horiz-adv-x="320" 
d="M265 -113q-75 0 -117.5 45.5t-42.5 130.5v155q0 38 -20.5 55.5t-50.5 17.5h-20v90h20q30 0 50.5 17.5t20.5 55.5v155q0 85 42.5 130t117.5 45h28v-88h-14q-36 0 -55 -23t-19 -65v-152q0 -86 -77 -120q77 -34 77 -120v-152q0 -41 19.5 -64.5t54.5 -23.5h14v-89h-28z" />
    <glyph glyph-name="bar" unicode="|" horiz-adv-x="229" 
d="M74 -89v806h81v-806h-81z" />
    <glyph glyph-name="braceright" unicode="}" horiz-adv-x="320" 
d="M27 -113v89h14q35 0 55 23.5t20 64.5v152q0 86 76 120q-76 34 -76 120v152q0 41 -19.5 64.5t-55.5 23.5h-14v88h28q75 0 117.5 -45t42.5 -130v-155q0 -38 20.5 -55.5t50.5 -17.5h20v-90h-20q-30 0 -50.5 -17.5t-20.5 -55.5v-155q0 -85 -42.5 -130.5t-117.5 -45.5h-28z
" />
    <glyph glyph-name="asciitilde" unicode="~" horiz-adv-x="524" 
d="M355 241q-42 0 -92 27t-81 27q-58 0 -81 -38l-52 57q40 69 121 69q42 0 92 -27t80 -27q58 0 81 39l53 -58q-42 -69 -121 -69z" />
    <glyph glyph-name="uni00A0" unicode="&#xa0;" horiz-adv-x="216" 
 />
    <glyph glyph-name="exclamdown" unicode="&#xa1;" horiz-adv-x="243" 
d="M121 402q-28 0 -46.5 19t-18.5 47t18.5 47t46.5 19q29 0 48 -19t19 -47t-19 -47t-48 -19zM61 -179l18 484h85l18 -484h-121z" />
    <glyph glyph-name="cent" unicode="&#xa2;" horiz-adv-x="531" 
d="M499 236q-16 -51 -62 -92t-114 -52v-92h-87v91q-87 15 -141.5 81t-54.5 158t54 159t142 81v91h87v-92q66 -11 112 -52.5t62 -92.5l-92 -36q-13 43 -45.5 67.5t-78.5 24.5q-61 0 -101 -41.5t-40 -108.5q0 -66 40 -107t101 -41q48 0 81 24.5t45 66.5z" />
    <glyph glyph-name="sterling" unicode="&#xa3;" horiz-adv-x="557" 
d="M215 281v-188h295v-93h-401v281h-76v93h76v90q0 89 58 149.5t152 60.5q86 0 138.5 -40t69.5 -107l-91 -35q-26 89 -112 89q-53 0 -81 -33.5t-28 -83.5v-90h204v-93h-204z" />
    <glyph glyph-name="currency" unicode="&#xa4;" horiz-adv-x="570" 
d="M506 330q0 -67 -36 -122l52 -53l-61 -61l-53 54q-56 -35 -123 -35t-122 34l-54 -53l-61 61l53 53q-37 52 -37 122t37 124l-53 53l61 61l53 -54q56 35 123 35q66 0 122 -35l54 54l61 -61l-53 -53q37 -54 37 -124zM285 198q55 0 91.5 37.5t36.5 94.5q0 58 -36.5 95.5
t-91.5 37.5t-91.5 -37.5t-36.5 -95.5q0 -57 37 -94.5t91 -37.5z" />
    <glyph glyph-name="yen" unicode="&#xa5;" horiz-adv-x="588" 
d="M566 660l-208 -361h114v-70h-126v-66h126v-70h-126v-93h-105v93h-126v70h126v66h-126v70h115l-207 361h114l158 -294l157 294h114z" />
    <glyph glyph-name="brokenbar" unicode="&#xa6;" horiz-adv-x="229" 
d="M74 396v321h81v-321h-81zM74 -89v321h81v-321h-81z" />
    <glyph glyph-name="section" unicode="&#xa7;" horiz-adv-x="509" 
d="M394 158q57 -40 57 -112q0 -78 -55 -122t-145 -44q-173 0 -214 127l86 33q27 -85 126 -85q45 0 73.5 22t28.5 59q0 36 -31 59t-76 37t-89.5 30.5t-75.5 51t-31 87.5q0 89 87 130q-66 39 -66 116q0 72 52 112.5t141 40.5q149 0 185 -110l-86 -34q-25 67 -99 67
q-44 0 -68.5 -19t-24.5 -52q0 -35 31 -56.5t75 -34t88 -28.5t75 -51t31 -90q0 -89 -75 -134zM148 310q0 -14 3.5 -25.5t14 -21t18 -15.5t26.5 -14t26.5 -11t32.5 -11.5t32 -10.5q67 16 67 82q0 22 -9.5 38.5t-31.5 29t-38.5 19t-50.5 17.5q-44 -3 -67 -24t-23 -53z" />
    <glyph glyph-name="dieresis" unicode="&#xa8;" horiz-adv-x="389" 
d="M103 620q-30 0 -51.5 21t-21.5 53q0 31 22 51t53 20q30 0 51 -21t21 -52t-21.5 -51.5t-52.5 -20.5zM313 620q-30 0 -51.5 21t-21.5 53q0 31 22 51t53 20q30 0 51.5 -21t21.5 -52t-21.5 -51.5t-53.5 -20.5z" />
    <glyph glyph-name="copyright" unicode="&#xa9;" horiz-adv-x="765" 
d="M383 -12q-151 0 -246 96t-95 246q0 147 95.5 245t245.5 98t245 -98t95 -245q0 -151 -94.5 -246.5t-245.5 -95.5zM383 56q117 0 193 76t76 198q0 117 -77 196t-192 79q-116 0 -193 -79t-77 -196q0 -122 76.5 -198t193.5 -76zM386 140q-81 0 -135 54.5t-54 136.5
q0 81 54 136t135 55q64 0 109 -34t60 -83l-74 -26q-19 67 -94 67q-47 0 -77.5 -32t-30.5 -83t30.5 -83t78.5 -32q74 0 95 67l74 -27q-15 -48 -60 -82t-111 -34z" />
    <glyph glyph-name="ordfeminine" unicode="&#xaa;" horiz-adv-x="395" 
d="M285 818h57v-292h-57v51q-38 -59 -112 -59q-60 0 -101.5 43.5t-41.5 110.5t41.5 110t101.5 43q76 0 112 -56v49zM186 588q37 0 59.5 23.5t22.5 60.5q0 36 -22.5 60t-59.5 24q-35 0 -58 -24t-23 -60t23 -60t58 -24z" />
    <glyph glyph-name="guillemotleft" unicode="&#xab;" horiz-adv-x="476" 
d="M145 79l-112 169l112 168h100l-112 -168l112 -169h-100zM325 79l-112 169l112 168h100l-112 -168l112 -169h-100z" />
    <glyph glyph-name="logicalnot" unicode="&#xac;" horiz-adv-x="535" 
d="M52 379h418v-250h-99v160h-319v90z" />
    <glyph glyph-name="registered" unicode="&#xae;" horiz-adv-x="506" 
d="M254 726q89 0 149.5 -61.5t60.5 -151.5q0 -89 -61 -150t-149 -61q-90 0 -151.5 61t-61.5 150q0 90 61.5 151.5t151.5 61.5zM254 347q70 0 117.5 47.5t47.5 118.5t-47.5 119t-117.5 48q-71 0 -119.5 -48t-48.5 -119t48.5 -118.5t119.5 -47.5zM340 566q0 -27 -16 -43.5
t-43 -19.5l64 -94h-46l-62 93h-11v-93h-42v220h85q31 0 51 -17t20 -46zM226 596v-60h37q35 0 35 30t-35 30h-37z" />
    <glyph glyph-name="macron" unicode="&#xaf;" horiz-adv-x="326" 
d="M30 651v84h306v-84h-306z" />
    <glyph glyph-name="degree" unicode="&#xb0;" horiz-adv-x="376" 
d="M188 400q-67 0 -110 42t-43 107t43.5 107.5t109.5 42.5t109.5 -42.5t43.5 -106.5q0 -66 -43 -108t-110 -42zM188 465q36 0 59.5 23.5t23.5 60.5q0 36 -24 60.5t-59 24.5t-59 -24.5t-24 -60.5q0 -37 23.5 -60.5t59.5 -23.5z" />
    <glyph glyph-name="plusminus" unicode="&#xb1;" horiz-adv-x="524" 
d="M309 434h163v-91h-163v-173h-94v173h-163v91h163v171h94v-171zM52 30v91h420v-91h-420z" />
    <glyph glyph-name="uni00B2" unicode="&#xb2;" horiz-adv-x="342" 
d="M148 405h144v-58h-243v45l117 118q50 48 50 86q0 20 -13.5 32.5t-34.5 12.5q-46 0 -57 -50l-65 21q8 39 42 63.5t82 24.5q54 0 85 -27t31 -73q0 -59 -66 -122z" />
    <glyph glyph-name="uni00B3" unicode="&#xb3;" horiz-adv-x="324" 
d="M185 554q44 -2 72 -31t28 -72q0 -48 -35.5 -79t-90.5 -31q-48 0 -82 21.5t-44 55.5l63 25q13 -43 62 -43q26 0 41.5 15.5t15.5 39.5q0 25 -16 39.5t-40 14.5h-49v45l88 86h-149v55h222v-54z" />
    <glyph glyph-name="acute" unicode="&#xb4;" horiz-adv-x="284" 
d="M73 588l-43 68l218 139l48 -77z" />
    <glyph glyph-name="paragraph" unicode="&#xb6;" horiz-adv-x="624" 
d="M542 695v-795h-59v706h-45v-706h-59v706h-46v-326h-76q-106 0 -169 56.5t-63 150.5q0 95 63 151.5t169 56.5h285z" />
    <glyph glyph-name="periodcentered" unicode="&#xb7;" horiz-adv-x="231" 
d="M115 262q-28 0 -47 18.5t-19 46.5q0 29 19 48t47 19q29 0 47.5 -19t18.5 -48q0 -28 -19 -46.5t-47 -18.5z" />
    <glyph glyph-name="cedilla" unicode="&#xb8;" horiz-adv-x="258" 
d="M144 -241q-75 0 -114 47l37 44q25 -31 64 -31q25 0 40.5 14t15.5 35t-16 36t-42 15h-17l-7 7l35 87h66l-26 -63q37 -2 60.5 -27.5t23.5 -63.5q0 -43 -33 -71.5t-87 -28.5z" />
    <glyph glyph-name="uni00B9" unicode="&#xb9;" horiz-adv-x="282" 
d="M192 408h53v-61h-195v61h69v175h-67v62h67v50h73v-287z" />
    <glyph glyph-name="ordmasculine" unicode="&#xba;" horiz-adv-x="371" 
d="M185 518q-68 0 -111.5 44t-43.5 110t43.5 110.5t111.5 44.5q69 0 112.5 -44.5t43.5 -110.5t-43.5 -110t-112.5 -44zM185 586q38 0 60 24t22 62t-22 62t-60 24t-60 -24t-22 -62t22 -62t60 -24z" />
    <glyph glyph-name="guillemotright" unicode="&#xbb;" horiz-adv-x="476" 
d="M50 79l112 169l-112 168h100l112 -168l-112 -169h-100zM231 79l112 169l-112 168h100l112 -168l-112 -169h-100z" />
    <glyph glyph-name="onequarter" unicode="&#xbc;" horiz-adv-x="644" 
d="M231 347h-194v61h69v175h-67v62h67v50h73v-287h52v-61zM482 695h80l-366 -695h-79zM612 125v-51h-38v-74h-68v74h-162v51l162 223h68v-223h38zM506 125v144l-105 -144h105z" />
    <glyph glyph-name="onehalf" unicode="&#xbd;" horiz-adv-x="679" 
d="M231 347h-194v61h69v175h-67v62h67v50h73v-287h52v-61zM479 695h80l-366 -695h-79zM503 58h144v-58h-243v45l117 118q50 48 50 86q0 20 -13 32.5t-35 12.5q-45 0 -57 -50l-65 21q8 39 42 63.5t82 24.5q54 0 85 -27t31 -73q0 -61 -66 -122z" />
    <glyph glyph-name="threequarters" unicode="&#xbe;" horiz-adv-x="658" 
d="M278 451q0 -48 -35.5 -79t-90.5 -31q-48 0 -82 21.5t-44 55.5l63 25q13 -43 62 -43q26 0 42 15.5t16 39.5q0 25 -16 39.5t-40 14.5h-50v45l89 86h-149v55h221v-54l-86 -87q44 -2 72 -31t28 -72zM499 695h81l-366 -695h-80zM619 125v-51h-37v-74h-69v74h-162v51l163 223
h68v-223h37zM514 125v145l-106 -145h106z" />
    <glyph glyph-name="questiondown" unicode="&#xbf;" horiz-adv-x="459" 
d="M261 401q-29 0 -48 19t-19 48q0 28 19.5 47t47.5 19t46.5 -19t18.5 -47q0 -29 -18.5 -48t-46.5 -19zM224 -189q-90 0 -141.5 45t-51.5 123q0 45 19 81t46 60t54.5 46t46.5 50.5t19 62.5v26h92v-31q0 -43 -17 -77.5t-41.5 -57t-49.5 -42.5t-42 -45t-17 -54
q0 -41 23.5 -63.5t65.5 -22.5q41 0 69.5 26t36.5 66l99 -32q-14 -73 -71.5 -117t-139.5 -44z" />
    <glyph glyph-name="Agrave" unicode="&#xc0;" horiz-adv-x="634" 
d="M462 834l-24 -77l-266 87l26 87zM523 0l-64 182h-283l-64 -182h-105l246 695h128l247 -695h-105zM207 269h221l-110 314z" />
    <glyph glyph-name="Aacute" unicode="&#xc1;" horiz-adv-x="634" 
d="M472 844l-266 -87l-24 77l263 97zM523 0l-64 182h-283l-64 -182h-105l246 695h128l247 -695h-105zM207 269h221l-110 314z" />
    <glyph glyph-name="Acircumflex" unicode="&#xc2;" horiz-adv-x="634" 
d="M317 852l-83 -87h-96l137 156h86l135 -156h-97zM523 0l-64 182h-283l-64 -182h-105l246 695h128l247 -695h-105zM207 269h221l-110 314z" />
    <glyph glyph-name="Atilde" unicode="&#xc3;" horiz-adv-x="634" 
d="M262 819q-42 0 -52 -46l-74 31q10 41 40 72t77 31q34 0 71 -25t57 -25q41 0 53 46l74 -31q-11 -43 -40.5 -73t-77.5 -30q-35 0 -71 25t-57 25zM523 0l-64 182h-283l-64 -182h-105l246 695h128l247 -695h-105zM207 269h221l-110 314z" />
    <glyph glyph-name="Adieresis" unicode="&#xc4;" horiz-adv-x="634" 
d="M207 769q-31 0 -52.5 21.5t-21.5 53.5t22 52.5t54 20.5q31 0 52 -21.5t21 -53.5q0 -31 -21.5 -52t-53.5 -21zM424 769q-31 0 -52.5 21.5t-21.5 53.5t22 52.5t54 20.5q31 0 52.5 -21.5t21.5 -53.5q0 -31 -22 -52t-54 -21zM523 0l-64 182h-283l-64 -182h-105l246 695h128
l247 -695h-105zM207 269h221l-110 314z" />
    <glyph glyph-name="Aring" unicode="&#xc5;" horiz-adv-x="634" 
d="M317 710q-50 0 -82.5 30.5t-32.5 78.5q0 47 32.5 78t82.5 31t82 -31t32 -78q0 -48 -32 -78.5t-82 -30.5zM317 868q-22 0 -36.5 -14t-14.5 -35t14.5 -35t36.5 -14t36 14t14 35t-14 35t-36 14zM523 0l-64 182h-283l-64 -182h-105l246 695h128l247 -695h-105zM207 269h221
l-110 314z" />
    <glyph glyph-name="AE" unicode="&#xc6;" horiz-adv-x="932" 
d="M551 93h344v-93h-450v179h-252l-95 -179h-112l363 695h540v-93h-338v-198h303v-92h-303v-219zM241 269h204v333h-28z" />
    <glyph glyph-name="Ccedilla" unicode="&#xc7;" horiz-adv-x="731" 
d="M390 89q164 0 217 163l101 -41q-31 -93 -103.5 -153t-180.5 -69l-16 -39q37 -2 60.5 -27.5t23.5 -63.5q0 -43 -33 -71.5t-87 -28.5q-75 0 -114 47l37 44q25 -31 64 -31q25 0 40.5 14t15.5 35t-16 36t-42 15h-17l-7 7l26 63q-139 12 -228.5 111.5t-89.5 246.5
q0 157 100 258.5t250 101.5q121 0 202.5 -62.5t114.5 -160.5l-101 -41q-54 163 -219 163q-104 0 -171.5 -72t-67.5 -187t67.5 -186.5t173.5 -71.5z" />
    <glyph glyph-name="Egrave" unicode="&#xc8;" horiz-adv-x="564" 
d="M444 834l-25 -77l-266 87l27 87zM182 93h344v-93h-450v695h444v-93h-338v-198h304v-92h-304v-219z" />
    <glyph glyph-name="Eacute" unicode="&#xc9;" horiz-adv-x="564" 
d="M454 844l-267 -87l-24 77l264 97zM182 93h344v-93h-450v695h444v-93h-338v-198h304v-92h-304v-219z" />
    <glyph glyph-name="Ecircumflex" unicode="&#xca;" horiz-adv-x="564" 
d="M298 852l-82 -87h-97l137 156h86l135 -156h-96zM182 93h344v-93h-450v695h444v-93h-338v-198h304v-92h-304v-219z" />
    <glyph glyph-name="Edieresis" unicode="&#xcb;" horiz-adv-x="564" 
d="M188 769q-31 0 -52.5 21.5t-21.5 53.5t22 52.5t54 20.5q31 0 52.5 -21.5t21.5 -53.5q0 -31 -22 -52t-54 -21zM405 769q-31 0 -52.5 21.5t-21.5 53.5t22 52.5t54 20.5q31 0 52.5 -21.5t21.5 -53.5q0 -31 -22 -52t-54 -21zM182 93h344v-93h-450v695h444v-93h-338v-198h304
v-92h-304v-219z" />
    <glyph glyph-name="Igrave" unicode="&#xcc;" horiz-adv-x="258" 
d="M251 757l-267 87l27 87l264 -97zM76 0v695h106v-695h-106z" />
    <glyph glyph-name="Iacute" unicode="&#xcd;" horiz-adv-x="258" 
d="M18 757l-24 77l264 97l27 -87zM76 0v695h106v-695h-106z" />
    <glyph glyph-name="Icircumflex" unicode="&#xce;" horiz-adv-x="258" 
d="M174 921l134 -156h-96l-83 88l-82 -88h-97l138 156h86zM76 0v695h106v-695h-106z" />
    <glyph glyph-name="Idieresis" unicode="&#xcf;" horiz-adv-x="258" 
d="M20 769q-31 0 -53 21.5t-22 53.5t22.5 52.5t54.5 20.5q30 0 51.5 -21.5t21.5 -53.5q0 -31 -22 -52t-53 -21zM237 769q-31 0 -52.5 21.5t-21.5 53.5t22 52.5t53 20.5t52.5 -21.5t21.5 -53.5q0 -31 -21.5 -52t-53.5 -21zM76 0v695h106v-695h-106z" />
    <glyph glyph-name="Eth" unicode="&#xd0;" horiz-adv-x="729" 
d="M343 695q152 0 248 -95t96 -252t-96 -252.5t-248 -95.5h-258v321h-68v74h68v300h258zM340 94q106 0 173 68.5t67 184.5t-67 185t-173 69h-149v-206h155v-74h-155v-227h149z" />
    <glyph glyph-name="Ntilde" unicode="&#xd1;" horiz-adv-x="688" 
d="M280 819q-42 0 -52 -46l-74 31q10 41 40 72t78 31q34 0 70.5 -25t57.5 -25q42 0 52 46l74 -31q-10 -43 -39.5 -73t-77.5 -30q-35 0 -71.5 25t-57.5 25zM507 695h106v-695h-89l-342 511v-511h-106v695h88l343 -513v513z" />
    <glyph glyph-name="Ograve" unicode="&#xd2;" horiz-adv-x="789" 
d="M516 757l-267 87l27 87l264 -97zM395 -12q-151 0 -253 102.5t-102 256.5q0 155 102 257.5t253 102.5t252.5 -102.5t101.5 -257.5q0 -154 -101.5 -256.5t-252.5 -102.5zM395 89q108 0 177 72.5t69 185.5q0 114 -68.5 186.5t-177.5 72.5t-178 -72.5t-69 -186.5
q0 -113 69 -185.5t178 -72.5z" />
    <glyph glyph-name="Oacute" unicode="&#xd3;" horiz-adv-x="789" 
d="M283 757l-24 77l264 97l27 -87zM395 -12q-151 0 -253 102.5t-102 256.5q0 155 102 257.5t253 102.5t252.5 -102.5t101.5 -257.5q0 -154 -101.5 -256.5t-252.5 -102.5zM395 89q108 0 177 72.5t69 185.5q0 114 -68.5 186.5t-177.5 72.5t-178 -72.5t-69 -186.5
q0 -113 69 -185.5t178 -72.5z" />
    <glyph glyph-name="Ocircumflex" unicode="&#xd4;" horiz-adv-x="789" 
d="M395 852l-83 -87h-96l137 156h86l135 -156h-97zM395 707q151 0 252.5 -102.5t101.5 -257.5q0 -154 -101.5 -256.5t-252.5 -102.5t-253 102.5t-102 256.5q0 155 102 257.5t253 102.5zM395 89q108 0 177 72.5t69 185.5q0 114 -68.5 186.5t-177.5 72.5t-178 -72.5
t-69 -186.5q0 -113 69 -185.5t178 -72.5z" />
    <glyph glyph-name="Otilde" unicode="&#xd5;" horiz-adv-x="789" 
d="M468 769q-36 0 -72 25t-56 25q-42 0 -52 -46l-74 31q10 41 40 72t77 31q34 0 71 -25t57 -25q42 0 52 46l75 -31q-11 -43 -40.5 -73t-77.5 -30zM395 -12q-151 0 -253 102.5t-102 256.5q0 155 102 257.5t253 102.5t252.5 -102.5t101.5 -257.5q0 -154 -101.5 -256.5
t-252.5 -102.5zM395 89q108 0 177 72.5t69 185.5q0 114 -68.5 186.5t-177.5 72.5t-178 -72.5t-69 -186.5q0 -113 69 -185.5t178 -72.5z" />
    <glyph glyph-name="Odieresis" unicode="&#xd6;" horiz-adv-x="789" 
d="M285 769q-31 0 -52.5 21.5t-21.5 53.5t22 52.5t54 20.5q31 0 52 -21.5t21 -53.5q0 -31 -21.5 -52t-53.5 -21zM502 769q-31 0 -52.5 21.5t-21.5 53.5t22 52.5t53 20.5q32 0 53.5 -21.5t21.5 -53.5q0 -31 -22 -52t-54 -21zM395 -12q-151 0 -253 102.5t-102 256.5
q0 155 102 257.5t253 102.5t252.5 -102.5t101.5 -257.5q0 -154 -101.5 -256.5t-252.5 -102.5zM395 89q108 0 177 72.5t69 185.5q0 114 -68.5 186.5t-177.5 72.5t-178 -72.5t-69 -186.5q0 -113 69 -185.5t178 -72.5z" />
    <glyph glyph-name="multiply" unicode="&#xd7;" horiz-adv-x="497" 
d="M452 452l-137 -136l137 -136l-67 -66l-136 136l-137 -136l-66 66l136 136l-136 136l66 67l137 -136l136 136z" />
    <glyph glyph-name="Oslash" unicode="&#xd8;" horiz-adv-x="792" 
d="M672 579q79 -96 79 -232q0 -154 -102 -256.5t-253 -102.5q-118 0 -212 67l-70 -75l-63 60l70 75q-79 98 -79 232q0 155 101.5 257.5t252.5 102.5q120 0 213 -68l70 75l62 -60zM150 347q0 -88 44 -154l345 371q-61 42 -143 42q-109 0 -177.5 -72.5t-68.5 -186.5zM396 89
q108 0 177.5 72.5t69.5 185.5q0 89 -44 155l-344 -371q61 -42 141 -42z" />
    <glyph glyph-name="Ugrave" unicode="&#xd9;" horiz-adv-x="672" 
d="M482 834l-24 -77l-267 87l27 87zM498 695h106v-433q0 -118 -69.5 -196t-197.5 -78q-129 0 -199 77.5t-70 196.5v433h107v-433q0 -77 42 -125.5t120 -48.5q77 0 119 48.5t42 125.5v433z" />
    <glyph glyph-name="Uacute" unicode="&#xda;" horiz-adv-x="672" 
d="M492 844l-267 -87l-24 77l264 97zM498 695h106v-433q0 -118 -69.5 -196t-197.5 -78q-129 0 -199 77.5t-70 196.5v433h107v-433q0 -77 42 -125.5t120 -48.5q77 0 119 48.5t42 125.5v433z" />
    <glyph glyph-name="Ucircumflex" unicode="&#xdb;" horiz-adv-x="672" 
d="M337 852l-83 -87h-96l137 156h86l135 -156h-97zM498 695h106v-433q0 -118 -69.5 -196t-197.5 -78q-129 0 -199 77.5t-70 196.5v433h107v-433q0 -77 42 -125.5t120 -48.5q77 0 119 48.5t42 125.5v433z" />
    <glyph glyph-name="Udieresis" unicode="&#xdc;" horiz-adv-x="672" 
d="M227 769q-31 0 -52.5 21.5t-21.5 53.5t22 52.5t54 20.5q31 0 52 -21.5t21 -53.5q0 -31 -21.5 -52t-53.5 -21zM444 769q-31 0 -52.5 21.5t-21.5 53.5t22 52.5t53 20.5q32 0 53.5 -21.5t21.5 -53.5q0 -31 -22 -52t-54 -21zM498 695h106v-433q0 -118 -69.5 -196t-197.5 -78
q-129 0 -199 77.5t-70 196.5v433h107v-433q0 -77 42 -125.5t120 -48.5q77 0 119 48.5t42 125.5v433z" />
    <glyph glyph-name="Yacute" unicode="&#xdd;" horiz-adv-x="626" 
d="M469 844l-266 -87l-24 77l263 97zM623 695l-257 -410v-285h-106v285l-257 410h119l191 -320l191 320h119z" />
    <glyph glyph-name="Thorn" unicode="&#xde;" horiz-adv-x="610" 
d="M343 560q106 0 168.5 -56t62.5 -151t-62.5 -151.5t-168.5 -56.5h-161v-145h-106v695h106v-135h161zM337 239q62 0 95.5 31t33.5 83t-33.5 83t-95.5 31h-155v-228h155z" />
    <glyph glyph-name="germandbls" unicode="&#xdf;" horiz-adv-x="617" 
d="M448 390q59 -19 96.5 -73t37.5 -125q0 -95 -61 -149.5t-159 -54.5q-119 0 -164 96l24 78q32 -85 126 -85q57 0 92 35t35 92q0 61 -40 99.5t-115 38.5v84q59 0 92 34.5t33 81.5q0 50 -35 81t-92 31q-68 0 -107.5 -42t-39.5 -116v-496h-106v491q0 116 69 183.5t190 67.5
q104 0 166 -53.5t62 -135.5q0 -54 -28.5 -99t-75.5 -64z" />
    <glyph glyph-name="agrave" unicode="&#xe0;" horiz-adv-x="645" 
d="M445 656l-43 -68l-223 130l48 77zM482 527h98v-527h-98v86q-64 -98 -186 -98q-113 0 -186.5 78.5t-73.5 197.5q0 117 73.5 192.5t186.5 75.5q123 0 186 -94v89zM309 82q75 0 122 51t47 131t-47 130.5t-122 50.5q-72 0 -120 -52t-48 -129q0 -79 47.5 -130.5t120.5 -51.5z
" />
    <glyph glyph-name="aacute" unicode="&#xe1;" horiz-adv-x="645" 
d="M457 718l-223 -130l-43 68l218 139zM482 527h98v-527h-98v86q-64 -98 -186 -98q-113 0 -186.5 78.5t-73.5 197.5q0 117 73.5 192.5t186.5 75.5q123 0 186 -94v89zM309 82q75 0 122 51t47 131t-47 130.5t-122 50.5q-72 0 -120 -52t-48 -129q0 -79 47.5 -130.5t120.5 -51.5
z" />
    <glyph glyph-name="acircumflex" unicode="&#xe2;" horiz-adv-x="645" 
d="M322 712l-83 -105h-95l134 171h91l131 -171h-94zM482 527h98v-527h-98v86q-64 -98 -186 -98q-113 0 -186.5 78.5t-73.5 197.5q0 117 73.5 192.5t186.5 75.5q123 0 186 -94v89zM309 82q75 0 122 51t47 131t-47 130.5t-122 50.5q-72 0 -120 -52t-48 -129q0 -79 47.5 -130.5
t120.5 -51.5z" />
    <glyph glyph-name="atilde" unicode="&#xe3;" horiz-adv-x="645" 
d="M266 674q-41 0 -51 -46l-73 31q10 42 37 72.5t72 30.5q32 0 68 -25t58 -25q41 0 51 46l74 -31q-27 -103 -110 -103q-34 0 -70 25t-56 25zM482 527h98v-527h-98v86q-64 -98 -186 -98q-113 0 -186.5 78.5t-73.5 197.5q0 117 73.5 192.5t186.5 75.5q123 0 186 -94v89z
M309 82q75 0 122 51t47 131t-47 130.5t-122 50.5q-72 0 -120 -52t-48 -129q0 -79 47.5 -130.5t120.5 -51.5z" />
    <glyph glyph-name="adieresis" unicode="&#xe4;" horiz-adv-x="645" 
d="M216 620q-30 0 -51.5 21t-21.5 53q0 31 22 51t53 20q30 0 51 -21t21 -52t-21.5 -51.5t-52.5 -20.5zM426 620q-30 0 -51.5 21t-21.5 53q0 31 22 51t53 20q30 0 51.5 -21t21.5 -52t-22 -51.5t-53 -20.5zM482 527h98v-527h-98v86q-64 -98 -186 -98q-113 0 -186.5 78.5
t-73.5 197.5q0 117 73.5 192.5t186.5 75.5q123 0 186 -94v89zM309 82q75 0 122 51t47 131t-47 130.5t-122 50.5q-72 0 -120 -52t-48 -129q0 -79 47.5 -130.5t120.5 -51.5z" />
    <glyph glyph-name="aring" unicode="&#xe5;" horiz-adv-x="645" 
d="M322 577q-50 0 -82 30.5t-32 79.5q0 47 32.5 78t81.5 31q50 0 82 -31t32 -78q0 -49 -32 -79.5t-82 -30.5zM322 735q-22 0 -36 -14t-14 -34q0 -22 14 -36t36 -14t36 14t14 36q0 20 -14 34t-36 14zM482 527h98v-527h-98v86q-64 -98 -186 -98q-113 0 -186.5 78.5
t-73.5 197.5q0 117 73.5 192.5t186.5 75.5q123 0 186 -94v89zM309 82q75 0 122 51t47 131t-47 130.5t-122 50.5q-72 0 -120 -52t-48 -129q0 -79 47.5 -130.5t120.5 -51.5z" />
    <glyph glyph-name="ae" unicode="&#xe6;" horiz-adv-x="1054" 
d="M595 234q9 -74 55.5 -117.5t114.5 -43.5q119 0 160 95l87 -37q-60 -143 -228 -143q-141 0 -204 103v-91h-98v86q-64 -98 -186 -98q-113 0 -186.5 78.5t-73.5 197.5q0 117 74 195.5t186 78.5q122 0 186 -97v86h98v-96q63 107 194 107q112 0 179 -77t67 -186q0 -21 -2 -41
h-423zM595 298h330q-7 74 -50.5 118t-111.5 44q-69 0 -114.5 -44t-53.5 -118zM309 82q75 0 122 51t47 131t-47 130.5t-122 50.5q-72 0 -120 -52t-48 -129q0 -79 47.5 -130.5t120.5 -51.5z" />
    <glyph glyph-name="ccedilla" unicode="&#xe7;" horiz-adv-x="575" 
d="M555 154q-19 -60 -74 -107t-135 -57l-17 -40q37 -2 60.5 -27.5t23.5 -63.5q0 -43 -33 -71.5t-87 -28.5q-75 0 -114 47l37 44q25 -31 64 -31q25 0 40.5 14t15.5 35t-16 36t-42 15h-17l-7 7l25 63q-106 11 -175 87.5t-69 186.5q0 117 77.5 196t194.5 79q93 0 158.5 -49
t86.5 -118l-95 -38q-14 51 -53 80.5t-94 29.5q-73 0 -121 -50t-48 -130t48 -130t121 -50q56 0 96 29t54 80z" />
    <glyph glyph-name="egrave" unicode="&#xe8;" horiz-adv-x="593" 
d="M425 655l-42 -68l-224 130l48 77zM136 228q12 -67 59.5 -106.5t114.5 -39.5q110 0 147 84l87 -55q-70 -123 -237 -123q-123 0 -199.5 78t-76.5 197q0 115 78 195.5t190 80.5q118 0 191 -78.5t73 -185.5q0 -27 -2 -47h-425zM137 309h322q-10 66 -52.5 105t-103.5 39
q-63 0 -108.5 -38.5t-57.5 -105.5z" />
    <glyph glyph-name="eacute" unicode="&#xe9;" horiz-adv-x="593" 
d="M438 717l-224 -130l-43 68l219 139zM136 228q12 -67 59.5 -106.5t114.5 -39.5q110 0 147 84l87 -55q-70 -123 -237 -123q-123 0 -199.5 78t-76.5 197q0 115 78 195.5t190 80.5q118 0 191 -78.5t73 -185.5q0 -27 -2 -47h-425zM137 309h322q-10 66 -52.5 105t-103.5 39
q-63 0 -108.5 -38.5t-57.5 -105.5z" />
    <glyph glyph-name="ecircumflex" unicode="&#xea;" horiz-adv-x="593" 
d="M303 712l-84 -106h-94l134 171h90l131 -171h-94zM136 228q12 -67 59.5 -106.5t114.5 -39.5q110 0 147 84l87 -55q-70 -123 -237 -123q-123 0 -199.5 78t-76.5 197q0 115 78 195.5t190 80.5q118 0 191 -78.5t73 -185.5q0 -27 -2 -47h-425zM137 309h322q-10 66 -52.5 105
t-103.5 39q-63 0 -108.5 -38.5t-57.5 -105.5z" />
    <glyph glyph-name="edieresis" unicode="&#xeb;" horiz-adv-x="593" 
d="M196 619q-30 0 -51.5 21t-21.5 53q0 31 22 51t53 20q30 0 51 -21t21 -52t-21.5 -51.5t-52.5 -20.5zM407 619q-31 0 -52 21t-21 53q0 31 21.5 51t52.5 20q30 0 51.5 -21t21.5 -52t-21.5 -51.5t-52.5 -20.5zM136 228q12 -67 59.5 -106.5t114.5 -39.5q110 0 147 84l87 -55
q-70 -123 -237 -123q-123 0 -199.5 78t-76.5 197q0 115 78 195.5t190 80.5q118 0 191 -78.5t73 -185.5q0 -27 -2 -47h-425zM137 309h322q-10 66 -52.5 105t-103.5 39q-63 0 -108.5 -38.5t-57.5 -105.5z" />
    <glyph glyph-name="igrave" unicode="&#xec;" horiz-adv-x="235" 
d="M198 588l-224 129l48 78l219 -139zM65 0v527h106v-527h-106z" />
    <glyph glyph-name="iacute" unicode="&#xed;" horiz-adv-x="235" 
d="M29 588l-42 68l218 139l48 -78zM65 0v527h106v-527h-106z" />
    <glyph glyph-name="icircumflex" unicode="&#xee;" horiz-adv-x="235" 
d="M164 777l131 -170h-94l-83 106l-84 -106h-94l134 170h90zM65 0v527h106v-527h-106z" />
    <glyph glyph-name="idieresis" unicode="&#xef;" horiz-adv-x="235" 
d="M12 620q-31 0 -52 20.5t-21 52.5q0 31 21.5 51.5t52.5 20.5q30 0 51 -21.5t21 -52.5q0 -30 -21.5 -50.5t-51.5 -20.5zM222 620q-30 0 -51.5 20.5t-21.5 52.5q0 31 21.5 51.5t52.5 20.5t52 -21.5t21 -52.5q0 -30 -21.5 -50.5t-52.5 -20.5zM65 0v527h106v-527h-106z" />
    <glyph glyph-name="eth" unicode="&#xf0;" horiz-adv-x="629" 
d="M344 719q114 -66 180 -180.5t66 -251.5q0 -140 -76.5 -219.5t-201.5 -79.5q-120 0 -198.5 77t-78.5 190q0 114 78 191t196 77q88 0 143 -49q-54 114 -179 175l-106 -106l-53 53l83 83q-79 22 -160 22l42 87q102 0 193 -34l78 78l53 -54zM313 83q76 0 123.5 48.5
t47.5 126.5q0 73 -48 122t-123 49q-76 0 -124 -49.5t-48 -124.5q0 -73 48.5 -122.5t123.5 -49.5z" />
    <glyph glyph-name="ntilde" unicode="&#xf1;" horiz-adv-x="610" 
d="M258 673q-41 0 -51 -46l-74 31q10 43 37 73t73 30q32 0 68 -25t58 -25q40 0 50 46l74 -31q-25 -103 -109 -103q-34 0 -70 25t-56 25zM339 539q98 0 155 -58t57 -156v-325h-106v306q0 65 -36.5 102t-99.5 36q-58 0 -97.5 -36.5t-40.5 -86.5v-321h-106v527h100v-67
q62 79 174 79z" />
    <glyph glyph-name="ograve" unicode="&#xf2;" horiz-adv-x="625" 
d="M395 587l-224 130l48 77l218 -139zM312 -12q-121 0 -199 78.5t-78 196.5q0 119 78 197t199 78q122 0 200 -78t78 -197t-78 -197t-200 -78zM313 83q76 0 123.5 50.5t47.5 129.5q0 80 -47.5 130.5t-123.5 50.5t-124 -50.5t-48 -130.5q0 -78 48 -129t124 -51z" />
    <glyph glyph-name="oacute" unicode="&#xf3;" horiz-adv-x="625" 
d="M226 587l-43 68l219 139l48 -77zM312 -12q-121 0 -199 78.5t-78 196.5q0 119 78 197t199 78q122 0 200 -78t78 -197t-78 -197t-200 -78zM313 83q76 0 123.5 50.5t47.5 129.5q0 80 -47.5 130.5t-123.5 50.5t-124 -50.5t-48 -130.5q0 -78 48 -129t124 -51z" />
    <glyph glyph-name="ocircumflex" unicode="&#xf4;" horiz-adv-x="625" 
d="M315 712l-84 -106h-94l134 171h90l131 -171h-94zM312 538q122 0 200 -78t78 -197t-78 -197t-200 -78q-121 0 -199 78.5t-78 196.5q0 119 78 197t199 78zM313 83q76 0 123.5 50.5t47.5 129.5q0 80 -47.5 130.5t-123.5 50.5t-124 -50.5t-48 -130.5q0 -78 48 -129t124 -51z
" />
    <glyph glyph-name="otilde" unicode="&#xf5;" horiz-adv-x="625" 
d="M385 623q-34 0 -70 25t-56 25q-41 0 -51 -46l-74 31q10 43 37 73t73 30q32 0 68 -25t58 -25q40 0 50 46l74 -31q-25 -103 -109 -103zM312 -12q-121 0 -199 78.5t-78 196.5q0 119 78 197t199 78q122 0 200 -78t78 -197t-78 -197t-200 -78zM313 83q76 0 123.5 50.5
t47.5 129.5q0 80 -47.5 130.5t-123.5 50.5t-124 -50.5t-48 -130.5q0 -78 48 -129t124 -51z" />
    <glyph glyph-name="odieresis" unicode="&#xf6;" horiz-adv-x="625" 
d="M208 619q-30 0 -51.5 21t-21.5 53q0 31 22 51t53 20q30 0 51 -21t21 -52t-21.5 -51.5t-52.5 -20.5zM419 619q-31 0 -52 21t-21 53q0 31 21.5 51t52.5 20q30 0 51.5 -21t21.5 -52t-21.5 -51.5t-52.5 -20.5zM312 -12q-121 0 -199 78.5t-78 196.5q0 119 78 197t199 78
q122 0 200 -78t78 -197t-78 -197t-200 -78zM313 83q76 0 123.5 50.5t47.5 129.5q0 80 -47.5 130.5t-123.5 50.5t-124 -50.5t-48 -130.5q0 -78 48 -129t124 -51z" />
    <glyph glyph-name="divide" unicode="&#xf7;" horiz-adv-x="521" 
d="M263 441q-28 0 -47 19t-19 47q0 29 19 48t47 19t47 -19t19 -48q0 -28 -19 -47t-47 -19zM51 269v90h419v-90h-419zM264 47q-28 0 -47 19t-19 47q0 29 18.5 48t47.5 19t47.5 -19t18.5 -48q0 -28 -19 -47t-47 -19z" />
    <glyph glyph-name="oslash" unicode="&#xf8;" horiz-adv-x="644" 
d="M621 474l-65 -57q43 -68 43 -154q0 -119 -78.5 -197t-199.5 -78q-108 0 -182 63l-65 -57l-51 57l65 57q-44 69 -44 155q0 119 78 197t199 78q110 0 186 -65l65 57zM150 263q0 -47 18 -85l263 229q-45 37 -109 37q-76 0 -124 -50.5t-48 -130.5zM493 263q0 45 -17 84
l-261 -229q46 -35 107 -35q76 0 123.5 50.5t47.5 129.5z" />
    <glyph glyph-name="ugrave" unicode="&#xf9;" horiz-adv-x="600" 
d="M413 656l-42 -68l-224 130l48 77zM430 527h105v-527h-99v67q-62 -79 -169 -79q-99 0 -153.5 59t-54.5 154v326h105v-313q0 -60 36 -96t96 -35q58 0 95.5 35.5t38.5 83.5v325z" />
    <glyph glyph-name="uacute" unicode="&#xfa;" horiz-adv-x="600" 
d="M426 718l-224 -130l-43 68l219 139zM430 527h105v-527h-99v67q-62 -79 -169 -79q-99 0 -153.5 59t-54.5 154v326h105v-313q0 -60 36 -96t96 -35q58 0 95.5 35.5t38.5 83.5v325z" />
    <glyph glyph-name="ucircumflex" unicode="&#xfb;" horiz-adv-x="600" 
d="M290 712l-83 -105h-94l134 171h90l131 -171h-94zM430 527h105v-527h-99v67q-62 -79 -169 -79q-99 0 -153.5 59t-54.5 154v326h105v-313q0 -60 36 -96t96 -35q58 0 95.5 35.5t38.5 83.5v325z" />
    <glyph glyph-name="udieresis" unicode="&#xfc;" horiz-adv-x="600" 
d="M184 620q-30 0 -51.5 21t-21.5 53q0 31 22 51t53 20q30 0 51 -21t21 -52t-21.5 -51.5t-52.5 -20.5zM395 620q-31 0 -52 21t-21 53q0 31 21.5 51t52.5 20q30 0 51.5 -21t21.5 -52t-21.5 -51.5t-52.5 -20.5zM430 527h105v-527h-99v67q-62 -79 -169 -79q-99 0 -153.5 59
t-54.5 154v326h105v-313q0 -60 36 -96t96 -35q58 0 95.5 35.5t38.5 83.5v325z" />
    <glyph glyph-name="yacute" unicode="&#xfd;" horiz-adv-x="550" 
d="M410 718l-223 -130l-43 68l218 139zM434 527h110l-208 -527l-70 -179h-104l72 179h-30l-196 527h109l153 -440z" />
    <glyph glyph-name="thorn" unicode="&#xfe;" horiz-adv-x="645" 
d="M351 538q113 0 185.5 -78.5t72.5 -196.5t-74 -196.5t-186 -78.5q-113 0 -178 82v-249h-106v910h106v-277q67 84 180 84zM336 83q72 0 119.5 51.5t47.5 128.5q0 78 -47.5 129.5t-119.5 51.5q-75 0 -122 -50.5t-47 -130.5t47 -130t122 -50z" />
    <glyph glyph-name="ydieresis" unicode="&#xff;" horiz-adv-x="550" 
d="M169 620q-30 0 -51.5 21t-21.5 53q0 31 22 51t53 20q30 0 51 -21t21 -52t-21.5 -51.5t-52.5 -20.5zM379 620q-30 0 -51.5 21t-21.5 53q0 31 22 51t53 20q30 0 51.5 -21t21.5 -52t-22 -51.5t-53 -20.5zM434 527h110l-208 -527l-70 -179h-104l72 179h-30l-196 527h109
l153 -440z" />
    <glyph glyph-name="Amacron" unicode="&#x100;" horiz-adv-x="634" 
d="M479 887v-87h-325v87h325zM523 0l-64 182h-283l-64 -182h-105l246 695h128l247 -695h-105zM207 269h221l-110 314z" />
    <glyph glyph-name="amacron" unicode="&#x101;" horiz-adv-x="645" 
d="M475 735v-84h-306v84h306zM482 527h98v-527h-98v86q-64 -98 -186 -98q-113 0 -186.5 78.5t-73.5 197.5q0 117 73.5 192.5t186.5 75.5q123 0 186 -94v89zM309 82q75 0 122 51t47 131t-47 130.5t-122 50.5q-72 0 -120 -52t-48 -129q0 -79 47.5 -130.5t120.5 -51.5z" />
    <glyph glyph-name="Abreve" unicode="&#x102;" horiz-adv-x="634" 
d="M316 765q-73 0 -116.5 44.5t-43.5 111.5h87q0 -33 19.5 -54.5t53.5 -21.5t54 21.5t20 54.5h87q0 -67 -44 -111.5t-117 -44.5zM523 0l-64 182h-283l-64 -182h-105l246 695h128l247 -695h-105zM207 269h221l-110 314z" />
    <glyph glyph-name="abreve" unicode="&#x103;" horiz-adv-x="645" 
d="M322 607q-75 0 -119.5 47t-44.5 124h84q0 -43 22 -67t58 -24t58 24t22 67h84q0 -77 -44.5 -124t-119.5 -47zM482 527h98v-527h-98v86q-64 -98 -186 -98q-113 0 -186.5 78.5t-73.5 197.5q0 117 73.5 192.5t186.5 75.5q123 0 186 -94v89zM309 82q75 0 122 51t47 131
t-47 130.5t-122 50.5q-72 0 -120 -52t-48 -129q0 -79 47.5 -130.5t120.5 -51.5z" />
    <glyph glyph-name="Aogonek" unicode="&#x104;" horiz-adv-x="634" 
d="M626 -144l39 -50q-32 -37 -97 -37q-48 0 -77.5 27t-29.5 69q0 63 86 133l3 2h-27l-64 182h-283l-64 -182h-105l246 695h128l247 -695l-37 -36q-49 -50 -49 -83q0 -19 11.5 -31t29.5 -12q28 0 43 18zM207 269h221l-110 314z" />
    <glyph glyph-name="aogonek" unicode="&#x105;" horiz-adv-x="645" 
d="M578 -144l40 -50q-34 -37 -98 -37q-48 0 -77 27t-29 69q0 63 85 133l3 2h-20v86q-64 -98 -186 -98q-113 0 -186.5 78.5t-73.5 197.5q0 117 73.5 192.5t186.5 75.5q123 0 186 -94v89h98v-527l-37 -36q-49 -50 -49 -83q0 -19 11.5 -31t30.5 -12q27 0 42 18zM309 82
q75 0 122 51t47 131t-47 130.5t-122 50.5q-72 0 -120 -52t-48 -129q0 -79 47.5 -130.5t120.5 -51.5z" />
    <glyph glyph-name="Cacute" unicode="&#x106;" horiz-adv-x="731" 
d="M273 757l-24 77l264 97l27 -87zM392 -12q-152 0 -251.5 101t-99.5 258t99.5 258.5t249.5 101.5q122 0 203.5 -62.5t114.5 -160.5l-102 -41q-52 163 -218 163q-104 0 -171.5 -72t-67.5 -187t67.5 -186.5t173.5 -71.5q164 0 216 163l102 -41q-34 -100 -114.5 -161.5
t-201.5 -61.5z" />
    <glyph glyph-name="cacute" unicode="&#x107;" horiz-adv-x="575" 
d="M220 588l-43 68l218 139l48 -77zM308 -12q-117 0 -195 78.5t-78 196.5q0 117 77.5 196t194.5 79q93 0 158.5 -49t86.5 -118l-95 -38q-14 51 -53 80.5t-94 29.5q-73 0 -121 -50t-48 -130t48 -130t121 -50q56 0 96 29t54 80l95 -38q-21 -68 -87 -117t-160 -49z" />
    <glyph glyph-name="Cdotaccent" unicode="&#x10a;" horiz-adv-x="731" 
d="M384 769q-31 0 -52.5 21t-21.5 54q0 32 21.5 52t54.5 20q31 0 52 -21t21 -53q0 -31 -21.5 -52t-53.5 -21zM392 -12q-152 0 -251.5 101t-99.5 258t99.5 258.5t249.5 101.5q122 0 203.5 -62.5t114.5 -160.5l-102 -41q-52 163 -218 163q-104 0 -171.5 -72t-67.5 -187
t67.5 -186.5t173.5 -71.5q164 0 216 163l102 -41q-34 -100 -114.5 -161.5t-201.5 -61.5z" />
    <glyph glyph-name="cdotaccent" unicode="&#x10b;" horiz-adv-x="575" 
d="M308 618q-33 0 -55 21t-22 54q0 32 22.5 53.5t54.5 21.5q33 0 55 -21.5t22 -53.5q0 -33 -22 -54t-55 -21zM308 -12q-117 0 -195 78.5t-78 196.5q0 117 77.5 196t194.5 79q93 0 158.5 -49t86.5 -118l-95 -38q-14 51 -53 80.5t-94 29.5q-73 0 -121 -50t-48 -130t48 -130
t121 -50q56 0 96 29t54 80l95 -38q-21 -68 -87 -117t-160 -49z" />
    <glyph glyph-name="Ccaron" unicode="&#x10c;" horiz-adv-x="731" 
d="M429 765h-86l-138 156h97l83 -87l82 87h97zM390 89q164 0 216 163l102 -41q-34 -100 -114.5 -161.5t-201.5 -61.5q-152 0 -251.5 101t-99.5 258t99.5 258.5t249.5 101.5q122 0 203.5 -62.5t114.5 -160.5l-102 -41q-52 163 -218 163q-104 0 -171.5 -72t-67.5 -187
t67.5 -186.5t173.5 -71.5z" />
    <glyph glyph-name="ccaron" unicode="&#x10d;" horiz-adv-x="575" 
d="M355 607h-91l-134 171h95l83 -105l84 105h94zM460 192l95 -38q-21 -68 -87 -117t-160 -49q-117 0 -195 78.5t-78 196.5q0 117 77.5 196t194.5 79q93 0 158.5 -49t86.5 -118l-95 -38q-14 51 -53 80.5t-94 29.5q-73 0 -121 -50t-48 -130t48 -130t121 -50q56 0 96 29t54 80z
" />
    <glyph glyph-name="Dcaron" unicode="&#x10e;" horiz-adv-x="720" 
d="M383 765h-86l-138 155h97l82 -87l83 87h96zM334 695q152 0 248 -95t96 -252t-96 -252.5t-248 -95.5h-258v695h258zM331 94q106 0 173 68.5t67 184.5t-67 185t-173 69h-149v-507h149z" />
    <glyph glyph-name="dcaron" unicode="&#x10f;" horiz-adv-x="712" 
d="M474 454v277h106v-731h-98v82q-65 -94 -186 -94q-113 0 -186.5 78.5t-73.5 197.5q0 118 72.5 196t184.5 78q114 0 181 -84zM665 731h77l-28 -234h-69zM309 82q75 0 122 51t47 131t-47 130.5t-122 50.5q-72 0 -120 -52t-48 -129q0 -79 47.5 -130.5t120.5 -51.5z" />
    <glyph glyph-name="Dcroat" unicode="&#x110;" horiz-adv-x="729" 
d="M343 695q152 0 248 -95t96 -252t-96 -252.5t-248 -95.5h-258v321h-68v74h68v300h258zM340 94q106 0 173 68.5t67 184.5t-67 185t-173 69h-149v-206h155v-74h-155v-227h149z" />
    <glyph glyph-name="dcroat" unicode="&#x111;" horiz-adv-x="645" 
d="M650 662v-74h-70v-588h-98v82q-65 -94 -186 -94q-113 0 -186.5 78.5t-73.5 197.5q0 118 72.5 196t184.5 78q114 0 181 -84v134h-153v74h153v69h106v-69h70zM309 82q75 0 122 51t47 131t-47 130.5t-122 50.5q-72 0 -120 -52t-48 -129q0 -79 47.5 -130.5t120.5 -51.5z" />
    <glyph glyph-name="Emacron" unicode="&#x112;" horiz-adv-x="564" 
d="M460 887v-87h-325v87h325zM182 93h344v-93h-450v695h444v-93h-338v-198h304v-92h-304v-219z" />
    <glyph glyph-name="emacron" unicode="&#x113;" horiz-adv-x="593" 
d="M455 734v-84h-305v84h305zM136 228q12 -67 59.5 -106.5t114.5 -39.5q110 0 147 84l87 -55q-70 -123 -237 -123q-123 0 -199.5 78t-76.5 197q0 115 78 195.5t190 80.5q118 0 191 -78.5t73 -185.5q0 -27 -2 -47h-425zM137 309h322q-10 66 -52.5 105t-103.5 39
q-63 0 -108.5 -38.5t-57.5 -105.5z" />
    <glyph glyph-name="Edotaccent" unicode="&#x116;" horiz-adv-x="564" 
d="M298 769q-31 0 -53 21.5t-22 53.5t22 52t54 20q31 0 52 -21t21 -53q0 -31 -21 -52t-53 -21zM182 93h344v-93h-450v695h444v-93h-338v-198h304v-92h-304v-219z" />
    <glyph glyph-name="edotaccent" unicode="&#x117;" horiz-adv-x="593" 
d="M303 617q-33 0 -55 21t-22 54q0 32 22.5 53.5t54.5 21.5t54.5 -21.5t22.5 -53.5q0 -33 -22 -54t-55 -21zM136 228q12 -67 59.5 -106.5t114.5 -39.5q110 0 147 84l87 -55q-70 -123 -237 -123q-123 0 -199.5 78t-76.5 197q0 115 78 195.5t190 80.5q118 0 191 -78.5
t73 -185.5q0 -27 -2 -47h-425zM137 309h322q-10 66 -52.5 105t-103.5 39q-63 0 -108.5 -38.5t-57.5 -105.5z" />
    <glyph glyph-name="Eogonek" unicode="&#x118;" horiz-adv-x="564" 
d="M525 -144l39 -50q-32 -37 -98 -37q-48 0 -77 27t-29 69q0 63 86 133l3 2h-373v695h444v-93h-338v-198h304v-92h-304v-219h344v-93l-36 -36q-49 -50 -49 -83q0 -19 11.5 -31t29.5 -12q28 0 43 18z" />
    <glyph glyph-name="eogonek" unicode="&#x119;" horiz-adv-x="593" 
d="M136 228q12 -67 59.5 -106.5t114.5 -39.5q110 0 147 84l87 -55q-44 -77 -126 -106l-30 -30q-50 -50 -50 -83q0 -19 12 -31t30 -12q26 0 43 18l39 -50q-32 -37 -98 -37q-48 0 -77 27t-29 69q0 54 61 112h-12q-123 0 -199.5 78t-76.5 197q0 115 78 195.5t190 80.5
q118 0 191 -78.5t73 -185.5q0 -27 -2 -47h-425zM137 309h322q-10 66 -52.5 105t-103.5 39q-63 0 -108.5 -38.5t-57.5 -105.5z" />
    <glyph glyph-name="Ecaron" unicode="&#x11a;" horiz-adv-x="564" 
d="M342 765h-86l-137 156h97l82 -87l83 87h96zM182 93h344v-93h-450v695h444v-93h-338v-198h304v-92h-304v-219z" />
    <glyph glyph-name="ecaron" unicode="&#x11b;" horiz-adv-x="593" 
d="M349 606h-90l-134 171h94l84 -106l83 106h94zM136 228q12 -67 59.5 -106.5t114.5 -39.5q110 0 147 84l87 -55q-70 -123 -237 -123q-123 0 -199.5 78t-76.5 197q0 115 78 195.5t190 80.5q118 0 191 -78.5t73 -185.5q0 -27 -2 -47h-425zM137 309h322q-10 66 -52.5 105
t-103.5 39q-63 0 -108.5 -38.5t-57.5 -105.5z" />
    <glyph glyph-name="Gbreve" unicode="&#x11e;" horiz-adv-x="771" 
d="M389 765q-73 0 -116.5 44.5t-43.5 111.5h87q0 -33 19.5 -54.5t53.5 -21.5t53.5 21.5t19.5 54.5h87q0 -67 -43.5 -111.5t-116.5 -44.5zM737 365q0 -172 -97.5 -274.5t-247.5 -102.5q-152 0 -251.5 101.5t-99.5 257.5q0 157 99.5 258.5t250.5 101.5q119 0 200 -59t117 -153
l-102 -42q-55 153 -217 153q-106 0 -173 -72.5t-67 -188.5q0 -117 69 -189t182 -72q92 0 154 51.5t81 147.5h-246v82h348z" />
    <glyph glyph-name="gbreve" unicode="&#x11f;" horiz-adv-x="644" 
d="M317 607q-75 0 -119.5 47t-44.5 124h84q0 -43 22 -67t58 -24t58 24t22 67h84q0 -77 -44.5 -124t-119.5 -47zM482 527h98v-455q0 -120 -74 -191.5t-203 -71.5q-200 0 -256 159l90 35q37 -105 167 -105q82 0 130 44.5t48 120.5v42q-65 -96 -186 -96q-112 0 -186 76t-74 188
q0 111 74 188t186 77q122 0 186 -95v84zM308 91q73 0 120.5 50t47.5 127t-47 127t-120 50q-72 0 -120 -51t-48 -126q0 -76 47.5 -126.5t119.5 -50.5z" />
    <glyph glyph-name="Gdotaccent" unicode="&#x120;" horiz-adv-x="771" 
d="M389 769q-31 0 -52.5 21t-21.5 54q0 32 21.5 52t53.5 20q31 0 52 -21t21 -53q0 -31 -21 -52t-53 -21zM737 365q0 -172 -97.5 -274.5t-247.5 -102.5q-152 0 -251.5 101.5t-99.5 257.5q0 157 99.5 258.5t250.5 101.5q119 0 200 -59t117 -153l-102 -42q-55 153 -217 153
q-106 0 -173 -72.5t-67 -188.5q0 -117 69 -189t182 -72q92 0 154 51.5t81 147.5h-246v82h348z" />
    <glyph glyph-name="gdotaccent" unicode="&#x121;" horiz-adv-x="644" 
d="M317 618q-33 0 -55 21t-22 54q0 32 22.5 53.5t54.5 21.5t54.5 -21.5t22.5 -53.5q0 -33 -22 -54t-55 -21zM482 527h98v-455q0 -120 -74 -191.5t-203 -71.5q-200 0 -256 159l90 35q37 -105 167 -105q82 0 130 44.5t48 120.5v42q-65 -96 -186 -96q-112 0 -186 76t-74 188
q0 111 74 188t186 77q122 0 186 -95v84zM308 91q73 0 120.5 50t47.5 127t-47 127t-120 50q-72 0 -120 -51t-48 -126q0 -76 47.5 -126.5t119.5 -50.5z" />
    <glyph glyph-name="uni0122" unicode="&#x122;" horiz-adv-x="771" 
d="M737 365q0 -172 -97.5 -274.5t-247.5 -102.5q-152 0 -251.5 101.5t-99.5 257.5q0 157 99.5 258.5t250.5 101.5q119 0 200 -59t117 -153l-102 -42q-55 153 -217 153q-106 0 -173 -72.5t-67 -188.5q0 -117 69 -189t182 -72q92 0 154 51.5t81 147.5h-246v82h348zM388 -49
q27 0 44 -16.5t17 -43.5q0 -34 -34 -88l-37 -62l-50 18l36 65q4 6 5 10q-19 5 -30.5 21t-11.5 38q0 25 17.5 41.5t43.5 16.5z" />
    <glyph glyph-name="uni0123" unicode="&#x123;" horiz-adv-x="644" 
d="M313 597q-26 0 -43 17t-17 44q0 34 34 88l36 62l50 -19l-36 -64l-5 -10q19 -5 31 -21t12 -38q0 -25 -18 -42t-44 -17zM482 527h98v-455q0 -120 -74 -191.5t-203 -71.5q-200 0 -256 159l90 35q37 -105 167 -105q82 0 130 44.5t48 120.5v42q-65 -96 -186 -96
q-112 0 -186 76t-74 188q0 111 74 188t186 77q122 0 186 -95v84zM308 91q73 0 120.5 50t47.5 127t-47 127t-120 50q-72 0 -120 -51t-48 -126q0 -76 47.5 -126.5t119.5 -50.5z" />
    <glyph glyph-name="Hbar" unicode="&#x126;" horiz-adv-x="716" 
d="M690 597v-83h-64v-514h-106v311h-324v-311h-106v514h-64v83h64v98h106v-98h324v98h106v-98h64zM520 406v108h-324v-108h324z" />
    <glyph glyph-name="hbar" unicode="&#x127;" horiz-adv-x="610" 
d="M339 539q98 0 155 -58t57 -156v-325h-106v306q0 65 -36.5 102t-99.5 36q-58 0 -97.5 -36.5t-40.5 -86.5v-321h-106v588h-70v74h70v69h106v-69h153v-74h-153v-120q62 71 168 71z" />
    <glyph glyph-name="Itilde" unicode="&#x128;" horiz-adv-x="258" 
d="M191 769q-32 0 -65.5 25t-52.5 25q-38 0 -47 -46l-68 31q9 41 36.5 72t70.5 31q32 0 65.5 -25t52.5 -25q38 0 48 46l68 -31q-10 -43 -37 -73t-71 -30zM76 0v695h106v-695h-106z" />
    <glyph glyph-name="itilde" unicode="&#x129;" horiz-adv-x="235" 
d="M175 624q-28 0 -58 25t-47 25q-34 0 -42 -47l-61 31q8 42 30.5 72.5t60.5 30.5q27 0 57 -25t47 -25q34 0 42 47l62 -31q-23 -103 -91 -103zM65 0v527h106v-527h-106z" />
    <glyph glyph-name="Imacron" unicode="&#x12a;" horiz-adv-x="258" 
d="M8 800v87h246v-87h-246zM76 0v695h106v-695h-106z" />
    <glyph glyph-name="imacron" unicode="&#x12b;" horiz-adv-x="235" 
d="M-5 650v85h245v-85h-245zM65 0v527h106v-527h-106z" />
    <glyph glyph-name="Iogonek" unicode="&#x12e;" horiz-adv-x="258" 
d="M180 -144l40 -50q-32 -37 -98 -37q-48 0 -77 27t-29 69q0 63 85 133l3 2h-28v695h106v-695l-36 -36q-50 -50 -50 -83q0 -19 11.5 -31t30.5 -12q27 0 42 18z" />
    <glyph glyph-name="iogonek" unicode="&#x12f;" horiz-adv-x="237" 
d="M118 618q-33 0 -55 20.5t-22 53.5t22 54.5t55 21.5t55 -21.5t22 -54.5t-22 -53.5t-55 -20.5zM167 -144l39 -50q-32 -37 -97 -37q-48 0 -77.5 27t-29.5 69q0 63 86 133l3 2h-26v527h106v-527h-2l-37 -36q-49 -50 -49 -83q0 -19 11.5 -31t29.5 -12q28 0 43 18z" />
    <glyph glyph-name="Idotaccent" unicode="&#x130;" horiz-adv-x="258" 
d="M129 769q-31 0 -52.5 21t-21.5 54q0 32 21.5 52t53.5 20t53 -21t21 -53q0 -31 -21.5 -52t-53.5 -21zM76 0v695h106v-695h-106z" />
    <glyph glyph-name="dotlessi" unicode="&#x131;" horiz-adv-x="235" 
d="M65 0v527h106v-527h-106z" />
    <glyph glyph-name="IJ" unicode="&#x132;" horiz-adv-x="596" 
d="M76 0v695h106v-695h-106zM278 0v94h45q46 0 71 28t25 79v494h107v-495q0 -94 -51 -147t-145 -53h-52z" />
    <glyph glyph-name="ij" unicode="&#x133;" horiz-adv-x="516" 
d="M118 618q-33 0 -55 20.5t-22 53.5t22 54.5t55 21.5t55 -21.5t22 -54.5t-22 -53.5t-55 -20.5zM400 618q-33 0 -55 20.5t-22 53.5t22 54.5t55 21.5t55 -21.5t22 -54.5t-22 -53.5t-55 -20.5zM65 0v527h106v-527h-106zM234 -183l-1 92h11q45 0 73 30t28 79v509h106v-508
q0 -92 -54.5 -147t-140.5 -55h-22z" />
    <glyph glyph-name="uni0136" unicode="&#x136;" horiz-adv-x="623" 
d="M291 362l339 -362h-125l-323 334v-334h-106v695h106v-310l301 310h124zM338 -49q26 0 43 -16.5t17 -43.5q0 -34 -34 -88l-36 -62l-51 18l37 65l5 10q-19 5 -31 21t-12 38q0 25 18 41.5t44 16.5z" />
    <glyph glyph-name="uni0137" unicode="&#x137;" horiz-adv-x="520" 
d="M275 284l250 -284h-118l-236 255v-255h-106v731h106v-422l227 218h121zM277 -49q27 0 44 -16.5t17 -43.5q0 -34 -34 -88l-37 -62l-50 18l37 65l5 10q-19 5 -31 21t-12 38q0 25 17.5 41.5t43.5 16.5z" />
    <glyph glyph-name="kgreenlandic" unicode="&#x138;" horiz-adv-x="520" 
d="M525 0h-117l-237 240v-240h-106v527h106v-233l227 233h122l-247 -255z" />
    <glyph glyph-name="Lacute" unicode="&#x139;" horiz-adv-x="534" 
d="M258 931l27 -87l-267 -87l-24 77zM182 95h339v-95h-445v695h106v-600z" />
    <glyph glyph-name="lacute" unicode="&#x13a;" horiz-adv-x="235" 
d="M7 793l-24 77l263 97l27 -87zM65 0v731h106v-731h-106z" />
    <glyph glyph-name="uni013B" unicode="&#x13b;" horiz-adv-x="534" 
d="M182 95h339v-95h-445v695h106v-600zM299 -49q26 0 43 -16.5t17 -43.5q0 -36 -33 -88l-37 -62l-50 18l36 65l5 10q-19 5 -30.5 21t-11.5 38q0 25 17.5 41.5t43.5 16.5z" />
    <glyph glyph-name="uni013C" unicode="&#x13c;" horiz-adv-x="235" 
d="M171 731v-731h-106v731h106zM117 -49q26 0 43 -16.5t17 -43.5q0 -36 -33 -88l-37 -62l-50 18l36 65l5 10q-19 5 -31 21t-12 38q0 25 18 41.5t44 16.5z" />
    <glyph glyph-name="Lcaron" unicode="&#x13d;" horiz-adv-x="538" 
d="M453 705l-27 -234h-69l20 234h76zM182 95h339v-95h-445v695h106v-600z" />
    <glyph glyph-name="lcaron" unicode="&#x13e;" horiz-adv-x="303" 
d="M65 0v731h106v-731h-106zM236 497l20 234h76l-27 -234h-69z" />
    <glyph glyph-name="Ldot" unicode="&#x13f;" horiz-adv-x="544" 
d="M182 95h339v-95h-445v695h106v-600zM400 337q-28 0 -47 18.5t-19 46.5q0 29 18.5 48t47.5 19t47.5 -19t18.5 -48q0 -28 -19 -46.5t-47 -18.5z" />
    <glyph glyph-name="ldot" unicode="&#x140;" horiz-adv-x="338" 
d="M65 0v731h106v-731h-106zM289 306q-28 0 -47 18.5t-19 46.5q0 29 18.5 48t47.5 19q28 0 47 -19t19 -48q0 -28 -19 -46.5t-47 -18.5z" />
    <glyph glyph-name="Lslash" unicode="&#x141;" horiz-adv-x="580" 
d="M228 95h338v-95h-445v301l-80 -31l-24 68l104 40v317h107v-276l95 36l22 -68l-117 -45v-247z" />
    <glyph glyph-name="lslash" unicode="&#x142;" horiz-adv-x="337" 
d="M333 414l-112 -63v-351h-105v292l-70 -40l-39 67l109 62v350h105v-291l73 41z" />
    <glyph glyph-name="Nacute" unicode="&#x143;" horiz-adv-x="688" 
d="M491 844l-267 -87l-24 77l264 97zM507 695h106v-695h-89l-342 511v-511h-106v695h88l343 -513v513z" />
    <glyph glyph-name="nacute" unicode="&#x144;" horiz-adv-x="610" 
d="M448 717l-223 -130l-43 68l219 139zM339 539q98 0 155 -58t57 -156v-325h-106v306q0 65 -36.5 102t-99.5 36q-58 0 -97.5 -36.5t-40.5 -86.5v-321h-106v527h100v-67q62 79 174 79z" />
    <glyph glyph-name="uni0145" unicode="&#x145;" horiz-adv-x="688" 
d="M507 695h106v-695h-89l-342 511v-511h-106v695h88l343 -513v513zM352 -49q26 0 43 -16.5t17 -43.5q0 -34 -34 -88l-36 -62l-50 18l36 65l5 10q-19 5 -31 21t-12 38q0 25 18 41.5t44 16.5z" />
    <glyph glyph-name="uni0146" unicode="&#x146;" horiz-adv-x="610" 
d="M339 539q98 0 155 -58t57 -156v-325h-106v306q0 65 -36.5 102t-99.5 36q-58 0 -97.5 -36.5t-40.5 -86.5v-321h-106v527h100v-67q62 79 174 79zM305 -49q26 0 43 -16.5t17 -43.5q0 -36 -33 -88l-37 -62l-50 18l36 65l5 10q-19 5 -31 21t-12 38q0 25 18 41.5t44 16.5z" />
    <glyph glyph-name="Ncaron" unicode="&#x147;" horiz-adv-x="688" 
d="M379 765h-85l-138 156h97l82 -88l83 88h96zM507 695h106v-695h-89l-342 511v-511h-106v695h88l343 -513v513z" />
    <glyph glyph-name="ncaron" unicode="&#x148;" horiz-adv-x="610" 
d="M360 606h-90l-134 171h94l83 -105l84 105h94zM339 539q98 0 155 -58t57 -156v-325h-106v306q0 65 -36.5 102t-99.5 36q-58 0 -97.5 -36.5t-40.5 -86.5v-321h-106v527h100v-67q62 79 174 79z" />
    <glyph glyph-name="napostrophe" unicode="&#x149;" horiz-adv-x="709" 
d="M19 515l20 235h77l-27 -235h-70zM439 539q98 0 155 -58t57 -156v-325h-106v306q0 65 -36.5 102t-99.5 36q-59 0 -98.5 -36.5t-40.5 -86.5v-321h-105v527h100v-67q62 79 174 79z" />
    <glyph glyph-name="Eng" unicode="&#x14a;" horiz-adv-x="688" 
d="M507 695h106v-704q0 -93 -50 -146.5t-140 -53.5h-20v95h22q46 0 71.5 27.5t25.5 78.5v11l-340 508v-511h-106v695h88l343 -513v513z" />
    <glyph glyph-name="eng" unicode="&#x14b;" horiz-adv-x="610" 
d="M339 539q98 0 155 -58t57 -156v-311q0 -89 -54.5 -143t-138.5 -54h-18v92h11q43 0 68.5 28.5t25.5 75.5v293q0 65 -36.5 102t-99.5 36q-58 0 -97.5 -36.5t-40.5 -86.5v-321h-106v527h100v-67q62 79 174 79z" />
    <glyph glyph-name="Omacron" unicode="&#x14c;" horiz-adv-x="789" 
d="M232 800v87h325v-87h-325zM395 -12q-151 0 -253 102.5t-102 256.5q0 155 102 257.5t253 102.5t252.5 -102.5t101.5 -257.5q0 -154 -101.5 -256.5t-252.5 -102.5zM395 89q108 0 177 72.5t69 185.5q0 114 -68.5 186.5t-177.5 72.5t-178 -72.5t-69 -186.5q0 -113 69 -185.5
t178 -72.5z" />
    <glyph glyph-name="omacron" unicode="&#x14d;" horiz-adv-x="625" 
d="M162 650v84h305v-84h-305zM312 -12q-121 0 -199 78.5t-78 196.5q0 119 78 197t199 78q122 0 200 -78t78 -197t-78 -197t-200 -78zM313 83q76 0 123.5 50.5t47.5 129.5q0 80 -47.5 130.5t-123.5 50.5t-124 -50.5t-48 -130.5q0 -78 48 -129t124 -51z" />
    <glyph glyph-name="Ohungarumlaut" unicode="&#x150;" horiz-adv-x="789" 
d="M277 741l-65 47l119 177l74 -54zM487 741l-66 47l119 177l74 -54zM395 -12q-151 0 -253 102.5t-102 256.5q0 155 102 257.5t253 102.5t252.5 -102.5t101.5 -257.5q0 -154 -101.5 -256.5t-252.5 -102.5zM395 89q108 0 177 72.5t69 185.5q0 114 -68.5 186.5t-177.5 72.5
t-178 -72.5t-69 -186.5q0 -113 69 -185.5t178 -72.5z" />
    <glyph glyph-name="ohungarumlaut" unicode="&#x151;" horiz-adv-x="625" 
d="M205 587l-65 47l119 166l74 -53zM409 587l-66 47l119 166l74 -53zM312 -12q-121 0 -199 78.5t-78 196.5q0 119 78 197t199 78q122 0 200 -78t78 -197t-78 -197t-200 -78zM313 83q76 0 123.5 50.5t47.5 129.5q0 80 -47.5 130.5t-123.5 50.5t-124 -50.5t-48 -130.5
q0 -78 48 -129t124 -51z" />
    <glyph glyph-name="OE" unicode="&#x152;" horiz-adv-x="1128" 
d="M747 93h344v-93h-450v96q-93 -108 -246 -108q-151 0 -253 102.5t-102 256.5q0 155 102 257.5t253 102.5q153 0 246 -108v96h444v-93h-338v-198h303v-92h-303v-219zM395 89q108 0 177 72.5t69 185.5q0 114 -68.5 186.5t-177.5 72.5t-178 -72.5t-69 -186.5
q0 -113 69 -185.5t178 -72.5z" />
    <glyph glyph-name="oe" unicode="&#x153;" horiz-adv-x="1045" 
d="M588 228q12 -67 59.5 -106.5t113.5 -39.5q110 0 148 84l87 -55q-70 -123 -237 -123q-145 0 -223 106q-80 -106 -224 -106q-121 0 -199 78.5t-78 196.5q0 119 78 197t199 78q146 0 225 -108q38 51 93.5 80t120.5 29q117 0 190.5 -78.5t73.5 -185.5q0 -32 -3 -47h-424z
M589 309h322q-10 67 -52.5 105.5t-104.5 38.5t-107.5 -38.5t-57.5 -105.5zM313 83q71 0 118 45t52 118v17v16q-5 74 -51.5 119.5t-118.5 45.5q-76 0 -124 -50.5t-48 -130.5q0 -78 48 -129t124 -51z" />
    <glyph glyph-name="Racute" unicode="&#x154;" horiz-adv-x="612" 
d="M455 844l-267 -87l-24 77l264 97zM461 0l-227 302h-53v-302h-105v695h267q105 0 168 -54.5t63 -142.5q0 -86 -62 -140.5t-165 -55.5l234 -302h-120zM181 602v-223h159q61 0 95.5 30t34.5 81t-34.5 81.5t-95.5 30.5h-159z" />
    <glyph glyph-name="racute" unicode="&#x155;" horiz-adv-x="343" 
d="M325 717l-224 -130l-43 68l219 139zM165 460q28 36 70 57.5t92 21.5v-99q-70 -1 -113 -38t-43 -93v-309h-106v527h100v-67z" />
    <glyph glyph-name="uni0156" unicode="&#x156;" horiz-adv-x="612" 
d="M347 302l234 -302h-120l-227 302h-53v-302h-105v695h267q105 0 168 -54.5t63 -142.5q0 -86 -62 -140.5t-165 -55.5zM181 602v-223h159q61 0 95.5 30t34.5 81t-34.5 81.5t-95.5 30.5h-159zM304 -49q26 0 43 -16.5t17 -43.5q0 -34 -34 -88l-36 -62l-50 18l36 65l5 10
q-19 5 -31 21t-12 38q0 25 18 41.5t44 16.5z" />
    <glyph glyph-name="uni0157" unicode="&#x157;" horiz-adv-x="343" 
d="M165 460q28 36 70 57.5t92 21.5v-99q-70 -1 -113 -38t-43 -93v-309h-106v527h100v-67zM118 -49q26 0 43.5 -16.5t17.5 -43.5q0 -34 -34 -88l-37 -62l-50 18l36 65q4 6 5 10q-19 5 -30.5 21t-11.5 38q0 25 17.5 41.5t43.5 16.5z" />
    <glyph glyph-name="Rcaron" unicode="&#x158;" horiz-adv-x="612" 
d="M344 765h-86l-138 156h97l82 -88l83 88h96zM461 0l-227 302h-53v-302h-105v695h267q105 0 168 -54.5t63 -142.5q0 -86 -62 -140.5t-165 -55.5l234 -302h-120zM181 602v-223h159q61 0 95.5 30t34.5 81t-34.5 81.5t-95.5 30.5h-159z" />
    <glyph glyph-name="rcaron" unicode="&#x159;" horiz-adv-x="343" 
d="M236 606h-90l-134 171h94l84 -106l83 106h94zM165 460q28 36 70 57.5t92 21.5v-99q-70 -1 -113 -38t-43 -93v-309h-106v527h100v-67z" />
    <glyph glyph-name="Sacute" unicode="&#x15a;" horiz-adv-x="563" 
d="M174 757l-24 77l263 97l27 -87zM278 -11q-96 0 -162 44.5t-89 125.5l100 38q15 -55 56.5 -85.5t103.5 -30.5q60 0 95 26.5t35 72.5q0 34 -20 59t-51.5 40.5t-69.5 28.5t-76.5 29t-70 37.5t-51.5 58t-20 85.5q0 84 61 136t166 52q89 0 148.5 -40t79.5 -110l-100 -38
q-29 97 -133 97q-55 0 -85.5 -24.5t-30.5 -63.5q0 -32 20 -55.5t51.5 -38t70 -27.5t77 -29.5t70 -39.5t51.5 -62t20 -92q0 -88 -66.5 -141t-179.5 -53z" />
    <glyph glyph-name="sacute" unicode="&#x15b;" horiz-adv-x="483" 
d="M159 588l-43 68l218 139l48 -78zM243 -12q-85 0 -143 34t-79 98l96 37q25 -82 129 -82q45 0 71 18t26 50q0 31 -30.5 51.5t-74 33t-87.5 28t-74.5 48.5t-30.5 83q0 70 53.5 110.5t144.5 40.5q75 0 125.5 -29t67.5 -82l-96 -37q-24 64 -99 64q-40 0 -62 -16.5t-22 -44.5
q0 -25 22 -42t55 -25.5t71.5 -21.5t71.5 -28.5t55 -47.5t22 -77q0 -76 -57.5 -119.5t-154.5 -43.5z" />
    <glyph glyph-name="Scedilla" unicode="&#x15e;" horiz-adv-x="563" 
d="M524 183q0 -75 -50 -126t-138 -64l-18 -43q37 -2 60.5 -27.5t23.5 -63.5q0 -43 -33 -71.5t-87 -28.5q-75 0 -114 47l37 44q27 -31 64 -31q25 0 40.5 14t15.5 35t-16 36t-42 15h-17l-7 7l25 63q-92 2 -155.5 46.5t-85.5 123.5l100 38q15 -55 56.5 -85.5t103.5 -30.5
q60 0 95 26.5t35 72.5q0 34 -20 59t-51.5 40.5t-69.5 28.5t-76.5 29t-70 37.5t-51.5 58t-20 85.5q0 84 61 136t166 52q89 0 148.5 -40t79.5 -110l-100 -38q-29 97 -133 97q-55 0 -85.5 -24.5t-30.5 -63.5q0 -32 20 -55.5t51.5 -38t70 -27.5t77 -29.5t70 -39.5t51.5 -62
t20 -92z" />
    <glyph glyph-name="scedilla" unicode="&#x15f;" horiz-adv-x="483" 
d="M455 151q0 -69 -47.5 -111.5t-130.5 -49.5l-16 -40q37 -2 61 -27.5t24 -63.5q0 -43 -33.5 -71.5t-86.5 -28.5q-75 0 -114 47l37 44q25 -31 63 -31q26 0 41.5 14t15.5 35q0 22 -16.5 36.5t-42.5 14.5h-16l-7 7l25 63q-73 6 -122.5 39.5t-68.5 91.5l96 37q25 -82 129 -82
q45 0 71 18t26 50q0 31 -30.5 51.5t-74 33t-87.5 28t-74.5 48.5t-30.5 83q0 70 53.5 110.5t144.5 40.5q75 0 125.5 -29t67.5 -82l-96 -37q-24 64 -99 64q-40 0 -62 -16.5t-22 -44.5q0 -25 22 -42t55 -25.5t71.5 -21.5t71.5 -28.5t55 -47.5t22 -77z" />
    <glyph glyph-name="Scaron" unicode="&#x160;" horiz-adv-x="563" 
d="M337 765h-86l-137 156h96l83 -88l83 88h96zM164 527q0 -32 20 -55.5t51.5 -38t70 -27.5t77 -29.5t70 -39.5t51.5 -62t20 -92q0 -88 -66.5 -141t-179.5 -53q-96 0 -162 44.5t-89 125.5l100 38q15 -55 56.5 -85.5t103.5 -30.5q60 0 95 26.5t35 72.5q0 34 -20 59t-51.5 40.5
t-69.5 28.5t-76.5 29t-70 37.5t-51.5 58t-20 85.5q0 84 61 136t166 52q89 0 148.5 -40t79.5 -110l-100 -38q-29 97 -133 97q-55 0 -85.5 -24.5t-30.5 -63.5z" />
    <glyph glyph-name="scaron" unicode="&#x161;" horiz-adv-x="483" 
d="M294 607h-91l-133 170h94l83 -105l84 105h94zM158 393q0 -25 22 -42t55 -25.5t71.5 -21.5t71.5 -28.5t55 -47.5t22 -77q0 -76 -57.5 -119.5t-154.5 -43.5q-85 0 -143 34t-79 98l96 37q25 -82 129 -82q45 0 71 18t26 50q0 31 -30.5 51.5t-74 33t-87.5 28t-74.5 48.5
t-30.5 83q0 70 53.5 110.5t144.5 40.5q75 0 125.5 -29t67.5 -82l-96 -37q-24 64 -99 64q-40 0 -62 -16.5t-22 -44.5z" />
    <glyph glyph-name="uni0162" unicode="&#x162;" horiz-adv-x="561" 
d="M334 0h-19l-22 -52q37 -2 60.5 -28t23.5 -63q0 -44 -33 -72.5t-86 -28.5q-73 0 -114 47l37 45q24 -31 63 -31q26 0 41.5 13.5t15.5 34.5q0 22 -16.5 36.5t-42.5 14.5h-16l-7 8l30 76h-21v600h-215v95h535v-95h-214v-600z" />
    <glyph glyph-name="uni0163" unicode="&#x163;" horiz-adv-x="380" 
d="M288 0q-12 0 -18 1l-17 -42q37 -2 60.5 -28t23.5 -63q0 -44 -33 -72t-86 -28q-74 0 -114 46l37 45q24 -31 63 -31q26 0 41 13.5t15 34.5t-16 36t-42 15h-17l-6 8l31 78q-104 38 -104 171v252h-94v91h51q49 0 49 51v85h103v-136h147v-91h-151v-241q0 -49 25.5 -75.5
t72.5 -26.5h59v-93h-80z" />
    <glyph glyph-name="Tcaron" unicode="&#x164;" horiz-adv-x="561" 
d="M325 765h-86l-137 156h97l82 -87l83 87h96zM548 695v-95h-214v-600h-106v600h-215v95h535z" />
    <glyph glyph-name="tcaron" unicode="&#x165;" horiz-adv-x="380" 
d="M299 555l20 234h76l-27 -234h-69zM288 0q-88 0 -135 49t-47 135v252h-94v91h51q49 0 49 51v85h103v-136h147v-91h-151v-241q0 -49 25.5 -75.5t72.5 -26.5h59v-93h-80z" />
    <glyph glyph-name="Tbar" unicode="&#x166;" horiz-adv-x="570" 
d="M553 600h-215v-243h112v-75h-112v-282h-106v282h-111v75h111v243h-214v95h535v-95z" />
    <glyph glyph-name="tbar" unicode="&#x167;" horiz-adv-x="387" 
d="M314 93h59v-93h-80q-88 0 -135 49t-47 135v56h-77v75h77v121h-94v91h51q50 0 50 51v85h102v-136h147v-91h-150v-121h129v-75h-129v-45q0 -50 25 -76t72 -26z" />
    <glyph glyph-name="Utilde" unicode="&#x168;" horiz-adv-x="672" 
d="M282 819q-42 0 -52 -46l-74 31q10 41 40 72t77 31q34 0 71 -25t57 -25q42 0 52 46l75 -31q-11 -43 -40.5 -73t-77.5 -30q-35 0 -71.5 25t-56.5 25zM498 695h106v-433q0 -118 -69.5 -196t-197.5 -78q-129 0 -199 77.5t-70 196.5v433h107v-433q0 -77 42 -125.5t120 -48.5
q77 0 119 48.5t42 125.5v433z" />
    <glyph glyph-name="utilde" unicode="&#x169;" horiz-adv-x="600" 
d="M235 674q-41 0 -51 -46l-74 31q10 43 37 73t73 30q32 0 68 -25t58 -25q40 0 50 46l74 -31q-25 -103 -109 -103q-34 0 -70 25t-56 25zM430 527h105v-527h-99v67q-62 -79 -169 -79q-99 0 -153.5 59t-54.5 154v326h105v-313q0 -60 36 -96t96 -35q58 0 95.5 35.5t38.5 83.5
v325z" />
    <glyph glyph-name="Umacron" unicode="&#x16a;" horiz-adv-x="672" 
d="M499 887v-87h-325v87h325zM498 695h106v-433q0 -118 -69.5 -196t-197.5 -78q-129 0 -199 77.5t-70 196.5v433h107v-433q0 -77 42 -125.5t120 -48.5q77 0 119 48.5t42 125.5v433z" />
    <glyph glyph-name="umacron" unicode="&#x16b;" horiz-adv-x="600" 
d="M443 735v-84h-306v84h306zM430 527h105v-527h-99v67q-62 -79 -169 -79q-99 0 -153.5 59t-54.5 154v326h105v-313q0 -60 36 -96t96 -35q58 0 95.5 35.5t38.5 83.5v325z" />
    <glyph glyph-name="Uring" unicode="&#x16e;" horiz-adv-x="672" 
d="M337 710q-50 0 -82.5 30.5t-32.5 78.5q0 47 32.5 78t82.5 31q49 0 81.5 -31t32.5 -78q0 -48 -32 -78.5t-82 -30.5zM337 868q-22 0 -36.5 -14t-14.5 -35t14.5 -35t36.5 -14t36 14t14 35t-14 35t-36 14zM498 695h106v-433q0 -118 -69.5 -196t-197.5 -78q-129 0 -199 77.5
t-70 196.5v433h107v-433q0 -77 42 -125.5t120 -48.5q77 0 119 48.5t42 125.5v433z" />
    <glyph glyph-name="uring" unicode="&#x16f;" horiz-adv-x="600" 
d="M291 577q-50 0 -82.5 31t-32.5 79q0 47 33 78t82 31t81.5 -31t32.5 -78q0 -49 -32 -79.5t-82 -30.5zM291 735q-22 0 -36.5 -14t-14.5 -34q0 -22 14.5 -36t36.5 -14t36 14t14 36q0 20 -14 34t-36 14zM430 527h105v-527h-99v67q-62 -79 -169 -79q-99 0 -153.5 59t-54.5 154
v326h105v-313q0 -60 36 -96t96 -35q58 0 95.5 35.5t38.5 83.5v325z" />
    <glyph glyph-name="Uhungarumlaut" unicode="&#x170;" horiz-adv-x="672" 
d="M347 911l-128 -170l-65 47l119 177zM556 911l-127 -170l-66 47l119 177zM498 695h106v-433q0 -118 -69.5 -196t-197.5 -78q-129 0 -199 77.5t-70 196.5v433h107v-433q0 -77 42 -125.5t120 -48.5q77 0 119 48.5t42 125.5v433z" />
    <glyph glyph-name="uhungarumlaut" unicode="&#x171;" horiz-adv-x="600" 
d="M309 748l-128 -160l-65 47l119 166zM512 748l-127 -160l-66 47l119 166zM430 527h105v-527h-99v67q-62 -79 -169 -79q-99 0 -153.5 59t-54.5 154v326h105v-313q0 -60 36 -96t96 -35q58 0 95.5 35.5t38.5 83.5v325z" />
    <glyph glyph-name="Uogonek" unicode="&#x172;" horiz-adv-x="672" 
d="M498 695h106v-433q0 -86 -38 -153.5t-111 -98.5l-34 -34q-50 -50 -50 -83q0 -19 11.5 -31t30.5 -12q27 0 42 18l40 -50q-32 -37 -98 -37q-48 0 -77 27t-29 69q0 55 60 111h-14q-129 0 -199 77.5t-70 196.5v433h107v-433q0 -77 42 -125.5t120 -48.5q77 0 119 48.5
t42 125.5v433z" />
    <glyph glyph-name="uogonek" unicode="&#x173;" horiz-adv-x="600" 
d="M534 -144l39 -50q-32 -37 -98 -37q-48 0 -77 27t-29 69q0 63 86 133l3 2h-22v67q-62 -79 -169 -79q-99 0 -153.5 59t-54.5 154v326h105v-313q0 -60 36 -96t96 -35q58 0 95.5 35.5t38.5 83.5v325h105v-527l-36 -36q-49 -50 -49 -83q0 -19 11.5 -31t29.5 -12q28 0 43 18z
" />
    <glyph glyph-name="Wcircumflex" unicode="&#x174;" horiz-adv-x="887" 
d="M444 852l-83 -87h-96l137 156h86l135 -156h-97zM769 695h105l-164 -695h-123l-143 550l-144 -550h-122l-164 695h104l123 -567l146 567h114l146 -567z" />
    <glyph glyph-name="wcircumflex" unicode="&#x175;" horiz-adv-x="786" 
d="M392 712l-83 -105h-94l133 171h91l131 -171h-94zM669 527h109l-141 -527h-125l-117 411l-115 -411h-125l-143 527h109l101 -425l114 425h119l114 -421z" />
    <glyph glyph-name="Ycircumflex" unicode="&#x176;" horiz-adv-x="626" 
d="M314 853l-83 -88h-96l137 156h86l135 -156h-96zM623 695l-257 -410v-285h-106v285l-257 410h119l191 -320l191 320h119z" />
    <glyph glyph-name="ycircumflex" unicode="&#x177;" horiz-adv-x="550" 
d="M275 712l-83 -105h-95l134 171h91l131 -171h-94zM434 527h110l-208 -527l-70 -179h-104l72 179h-30l-196 527h109l153 -440z" />
    <glyph glyph-name="Ydieresis" unicode="&#x178;" horiz-adv-x="626" 
d="M204 769q-31 0 -52.5 21.5t-21.5 53.5t22 52.5t54 20.5q31 0 52 -21.5t21 -53.5q0 -31 -21.5 -52t-53.5 -21zM421 769q-31 0 -52.5 21.5t-21.5 53.5t22 52.5t54 20.5q31 0 52.5 -21.5t21.5 -53.5q0 -31 -22 -52t-54 -21zM623 695l-257 -410v-285h-106v285l-257 410h119
l191 -320l191 320h119z" />
    <glyph glyph-name="Zacute" unicode="&#x179;" horiz-adv-x="560" 
d="M436 844l-267 -87l-24 77l264 97zM533 95l2 -95h-508v73l366 529h-358v93h494v-74l-370 -526h374z" />
    <glyph glyph-name="zacute" unicode="&#x17a;" horiz-adv-x="476" 
d="M372 717l-224 -130l-43 68l219 139zM156 86h296v-86h-427v76l287 365h-274v86h403v-79z" />
    <glyph glyph-name="Zdotaccent" unicode="&#x17b;" horiz-adv-x="560" 
d="M280 769q-31 0 -53 21.5t-22 53.5t22 52t54 20q31 0 52 -21t21 -53q0 -31 -21 -52t-53 -21zM533 95l2 -95h-508v73l366 529h-358v93h494v-74l-370 -526h374z" />
    <glyph glyph-name="zdotaccent" unicode="&#x17c;" horiz-adv-x="476" 
d="M237 617q-33 0 -55 21t-22 54q0 32 22.5 53.5t54.5 21.5t54.5 -21.5t22.5 -53.5q0 -33 -22 -54t-55 -21zM156 86h296v-86h-427v76l287 365h-274v86h403v-79z" />
    <glyph glyph-name="Zcaron" unicode="&#x17d;" horiz-adv-x="560" 
d="M324 765h-86l-137 156h97l82 -87l83 87h96zM533 95l2 -95h-508v73l366 529h-358v93h494v-74l-370 -526h374z" />
    <glyph glyph-name="zcaron" unicode="&#x17e;" horiz-adv-x="476" 
d="M283 606h-90l-134 171h94l84 -106l83 106h94zM156 86h296v-86h-427v76l287 365h-274v86h403v-79z" />
    <glyph glyph-name="uni01EA" unicode="&#x1ea;" horiz-adv-x="789" 
d="M503 4l-35 -34q-49 -49 -49 -84q0 -19 11.5 -31t29.5 -12q28 0 43 19l39 -50q-33 -38 -98 -38q-48 0 -77 27t-29 69q0 58 69 118h-12q-151 0 -253 102.5t-102 256.5q0 155 102 257.5t253 102.5t252.5 -102.5t101.5 -257.5q0 -124 -68 -217t-178 -126zM148 347
q0 -113 69 -185.5t178 -72.5q108 0 177 72.5t69 185.5q0 114 -68.5 186.5t-177.5 72.5t-178 -72.5t-69 -186.5z" />
    <glyph glyph-name="uni01EB" unicode="&#x1eb;" horiz-adv-x="625" 
d="M406 2l-34 -34q-49 -49 -49 -84q0 -19 11.5 -30.5t29.5 -11.5q26 0 43 18l39 -50q-32 -37 -98 -37q-48 0 -77 26.5t-29 69.5q0 58 70 119q-121 0 -199 78.5t-78 196.5q0 119 78 197t199 78q122 0 200 -78t78 -197q0 -93 -50 -163t-134 -98zM141 263q0 -78 48 -129
t124 -51t123.5 50.5t47.5 129.5q0 80 -47.5 130.5t-123.5 50.5t-124 -50.5t-48 -130.5z" />
    <glyph glyph-name="AEacute" unicode="&#x1fc;" horiz-adv-x="932" 
d="M753 844l-267 -87l-24 77l264 97zM551 93h344v-93h-450v179h-252l-95 -179h-112l363 695h540v-93h-338v-198h303v-92h-303v-219zM241 269h204v333h-28z" />
    <glyph glyph-name="aeacute" unicode="&#x1fd;" horiz-adv-x="1054" 
d="M667 718l-224 -130l-42 68l218 139zM595 234q9 -74 55.5 -117.5t114.5 -43.5q119 0 160 95l87 -37q-60 -143 -228 -143q-141 0 -204 103v-91h-98v86q-64 -98 -186 -98q-113 0 -186.5 78.5t-73.5 197.5q0 117 74 195.5t186 78.5q122 0 186 -97v86h98v-96q63 107 194 107
q112 0 179 -77t67 -186q0 -21 -2 -41h-423zM595 298h330q-7 74 -50.5 118t-111.5 44q-69 0 -114.5 -44t-53.5 -118zM309 82q75 0 122 51t47 131t-47 130.5t-122 50.5q-72 0 -120 -52t-48 -129q0 -79 47.5 -130.5t120.5 -51.5z" />
    <glyph glyph-name="Oslashacute" unicode="&#x1fe;" horiz-adv-x="792" 
d="M552 844l-267 -87l-24 77l264 97zM672 579q79 -96 79 -232q0 -154 -102 -256.5t-253 -102.5q-118 0 -212 67l-70 -75l-63 60l70 75q-79 98 -79 232q0 155 101.5 257.5t252.5 102.5q120 0 213 -68l70 75l62 -60zM150 347q0 -88 44 -154l345 371q-61 42 -143 42
q-109 0 -177.5 -72.5t-68.5 -186.5zM396 89q108 0 177.5 72.5t69.5 185.5q0 89 -44 155l-344 -371q61 -42 141 -42z" />
    <glyph glyph-name="oslashacute" unicode="&#x1ff;" horiz-adv-x="644" 
d="M458 717l-223 -130l-43 68l218 139zM621 474l-65 -57q43 -68 43 -154q0 -119 -78.5 -197t-199.5 -78q-108 0 -182 63l-65 -57l-51 57l65 57q-44 69 -44 155q0 119 78 197t199 78q110 0 186 -65l65 57zM150 263q0 -47 18 -85l263 229q-45 37 -109 37q-76 0 -124 -50.5
t-48 -130.5zM493 263q0 45 -17 84l-261 -229q46 -35 107 -35q76 0 123.5 50.5t47.5 129.5z" />
    <glyph glyph-name="uni0218" unicode="&#x218;" horiz-adv-x="563" 
d="M164 527q0 -32 20 -55.5t51.5 -38t70 -27.5t77 -29.5t70 -39.5t51.5 -62t20 -92q0 -88 -66.5 -141t-179.5 -53q-96 0 -162 44.5t-89 125.5l100 38q15 -55 56.5 -85.5t103.5 -30.5q60 0 95 26.5t35 72.5q0 34 -20 59t-51.5 40.5t-69.5 28.5t-76.5 29t-70 37.5t-51.5 58
t-20 85.5q0 84 61 136t166 52q89 0 148.5 -40t79.5 -110l-100 -38q-29 97 -133 97q-55 0 -85.5 -24.5t-30.5 -63.5zM294 -49q26 0 43 -16.5t17 -43.5q0 -34 -34 -88l-36 -62l-50 18l36 65l5 10q-19 5 -31 21t-12 38q0 25 18 41.5t44 16.5z" />
    <glyph glyph-name="uni0219" unicode="&#x219;" horiz-adv-x="483" 
d="M158 393q0 -25 22 -42t55 -25.5t71.5 -21.5t71.5 -28.5t55 -47.5t22 -77q0 -76 -57.5 -119.5t-154.5 -43.5q-85 0 -143 34t-79 98l96 37q25 -82 129 -82q45 0 71 18t26 50q0 31 -30.5 51.5t-74 33t-87.5 28t-74.5 48.5t-30.5 83q0 70 53.5 110.5t144.5 40.5
q75 0 125.5 -29t67.5 -82l-96 -37q-24 64 -99 64q-40 0 -62 -16.5t-22 -44.5zM256 -49q27 0 44 -16.5t17 -43.5q0 -34 -34 -88l-37 -62l-50 18l36 65q3 5 5 10q-19 5 -30.5 21t-11.5 38q0 25 17.5 41.5t43.5 16.5z" />
    <glyph glyph-name="uni021A" unicode="&#x21a;" horiz-adv-x="561" 
d="M548 695v-95h-214v-600h-106v600h-215v95h535zM282 -49q26 0 43 -16.5t17 -43.5q0 -34 -34 -88l-36 -62l-51 18l37 65l5 10q-19 5 -31 21t-12 38q0 25 18 41.5t44 16.5z" />
    <glyph glyph-name="uni021B" unicode="&#x21b;" horiz-adv-x="380" 
d="M309 93h59v-93h-80q-88 0 -135 49t-47 135v252h-94v91h51q49 0 49 51v85h103v-136h147v-91h-151v-241q0 -49 25.5 -75.5t72.5 -26.5zM246 -40q26 0 43 -17t17 -44q0 -37 -34 -87l-36 -63l-50 19l36 65q2 3 4 9q-19 5 -30.5 21t-11.5 38q0 26 17.5 42.5t44.5 16.5z" />
    <glyph glyph-name="uni0237" unicode="&#x237;" horiz-adv-x="237" 
d="M-44 -183l-1 92h11q45 0 73 30t28 79v509h105v-508q0 -92 -54 -147t-140 -55h-22z" />
    <glyph glyph-name="circumflex" unicode="&#x2c6;" horiz-adv-x="353" 
d="M385 607h-94l-83 106l-84 -106h-94l134 171h90z" />
    <glyph glyph-name="caron" unicode="&#x2c7;" horiz-adv-x="397" 
d="M291 778h94l-131 -171h-90l-134 171h94l84 -106z" />
    <glyph glyph-name="breve" unicode="&#x2d8;" horiz-adv-x="352" 
d="M194 607q-75 0 -119.5 47t-44.5 124h84q0 -43 22 -67t58 -24t58 24t22 67h84q0 -77 -44.5 -124t-119.5 -47z" />
    <glyph glyph-name="dotaccent" unicode="&#x2d9;" horiz-adv-x="168" 
d="M107 618q-33 0 -55 21t-22 54q0 32 22.5 53.5t54.5 21.5t54.5 -21.5t22.5 -53.5q0 -33 -22 -54t-55 -21z" />
    <glyph glyph-name="ring" unicode="&#x2da;" horiz-adv-x="243" 
d="M144 577q-50 0 -82 30.5t-32 79.5q0 47 32.5 78t81.5 31q50 0 82 -31t32 -78q0 -49 -32 -79.5t-82 -30.5zM144 637q22 0 36.5 14t14.5 36q0 20 -14.5 34t-36.5 14t-36 -14t-14 -34q0 -22 14 -36t36 -14z" />
    <glyph glyph-name="ogonek" unicode="&#x2db;" horiz-adv-x="264" 
d="M136 -230q-48 0 -77 27t-29 69q0 63 85 133l42 32l39 -30l-36 -36q-49 -49 -49 -83q0 -19 11.5 -31t29.5 -12q26 0 43 18l39 -50q-32 -37 -98 -37z" />
    <glyph glyph-name="tilde" unicode="&#x2dc;" horiz-adv-x="428" 
d="M281 624q-34 0 -70 25t-56 25q-41 0 -51 -46l-74 31q10 42 37 72.5t72 30.5q33 0 69 -25t57 -25q41 0 51 46l74 -31q-25 -103 -109 -103z" />
    <glyph glyph-name="hungarumlaut" unicode="&#x2dd;" horiz-adv-x="359" 
d="M90 588l-66 47l119 166l74 -53zM293 588l-65 47l119 166l74 -53z" />
    <glyph glyph-name="gravecomb" unicode="&#x300;" 
d="M-73 588l-223 130l48 77l218 -139z" />
    <glyph glyph-name="acutecomb" unicode="&#x301;" 
d="M-253 588l-43 68l218 139l48 -77z" />
    <glyph glyph-name="uni0302" unicode="&#x302;" 
d="M-30 607h-94l-83 106l-84 -106h-94l134 171h90z" />
    <glyph glyph-name="tildecomb" unicode="&#x303;" 
d="M-139 624q-34 0 -70 25t-56 25q-41 0 -51 -46l-74 31q10 42 37 72.5t72 30.5q33 0 69 -25t57 -25q41 0 51 46l74 -31q-25 -103 -109 -103z" />
    <glyph glyph-name="uni0304" unicode="&#x304;" 
d="M-336 651v84h306v-84h-306z" />
    <glyph glyph-name="uni0306" unicode="&#x306;" 
d="M-183 607q-75 0 -119.5 47t-44.5 124h84q0 -43 22 -67t58 -24t58 24t22 67h84q0 -77 -44.5 -124t-119.5 -47z" />
    <glyph glyph-name="uni0307" unicode="&#x307;" 
d="M-107 618q-33 0 -55 21t-22 54q0 32 22.5 53.5t54.5 21.5t54.5 -21.5t22.5 -53.5q0 -33 -22 -54t-55 -21z" />
    <glyph glyph-name="uni0308" unicode="&#x308;" 
d="M-315 620q-30 0 -51.5 21t-21.5 53q0 31 22 51t53 20q30 0 51 -21t21 -52t-21.5 -51.5t-52.5 -20.5zM-105 620q-30 0 -51.5 21t-21.5 53q0 31 22 51t53 20q30 0 51.5 -21t21.5 -52t-21.5 -51.5t-53.5 -20.5z" />
    <glyph glyph-name="uni030A" unicode="&#x30a;" 
d="M-144 577q-50 0 -82 30.5t-32 79.5q0 47 32.5 78t81.5 31q50 0 82 -31t32 -78q0 -49 -32 -79.5t-82 -30.5zM-144 637q22 0 36.5 14t14.5 36q0 20 -14.5 34t-36.5 14t-36 -14t-14 -34q0 -22 14 -36t36 -14z" />
    <glyph glyph-name="uni030B" unicode="&#x30b;" 
d="M-361 588l-65 47l119 166l74 -53zM-157 588l-65 47l118 166l74 -53z" />
    <glyph glyph-name="uni030C" unicode="&#x30c;" 
d="M-124 778h94l-131 -171h-90l-134 171h94l84 -106z" />
    <glyph glyph-name="uni0326" unicode="&#x326;" 
d="M-89 -49q26 0 43 -16.5t17 -43.5q0 -34 -34 -88l-36 -62l-50 18l36 65l5 10q-19 5 -31 21t-12 38q0 25 18 41.5t44 16.5z" />
    <glyph glyph-name="uni0327" unicode="&#x327;" 
d="M-150 -241q-75 0 -114 47l37 44q25 -31 64 -31q25 0 40.5 14t15.5 35t-16 36t-42 15h-17l-7 7l35 87h66l-26 -63q37 -2 60.5 -27.5t23.5 -63.5q0 -43 -33 -71.5t-87 -28.5z" />
    <glyph glyph-name="uni0328" unicode="&#x328;" 
d="M-128 -230q-48 0 -77 27t-29 69q0 63 85 133l42 32l39 -30l-36 -36q-49 -49 -49 -83q0 -19 11.5 -31t29.5 -12q26 0 43 18l39 -50q-32 -37 -98 -37z" />
    <glyph glyph-name="uni0335" unicode="&#x335;" 
d="M-359 237v74h329v-74h-329z" />
    <glyph glyph-name="uni0336" unicode="&#x336;" 
d="M-694 274v83h664v-83h-664z" />
    <glyph glyph-name="uni0337" unicode="&#x337;" 
d="M-328 173l-40 67l287 162l40 -67z" />
    <glyph glyph-name="uni0338" unicode="&#x338;" 
d="M-577 -5l-51 57l549 479l49 -56z" />
    <glyph glyph-name="Wgrave" unicode="&#x1e80;" horiz-adv-x="887" 
d="M589 834l-24 -77l-267 87l27 87zM769 695h105l-164 -695h-123l-143 550l-144 -550h-122l-164 695h104l123 -567l146 567h114l146 -567z" />
    <glyph glyph-name="wgrave" unicode="&#x1e81;" horiz-adv-x="786" 
d="M515 656l-43 -68l-223 130l48 77zM669 527h109l-141 -527h-125l-117 411l-115 -411h-125l-143 527h109l101 -425l114 425h119l114 -421z" />
    <glyph glyph-name="Wacute" unicode="&#x1e82;" horiz-adv-x="887" 
d="M599 844l-266 -87l-25 77l264 97zM769 695h105l-164 -695h-123l-143 550l-144 -550h-122l-164 695h104l123 -567l146 567h114l146 -567z" />
    <glyph glyph-name="wacute" unicode="&#x1e83;" horiz-adv-x="786" 
d="M527 718l-223 -130l-43 68l218 139zM669 527h109l-141 -527h-125l-117 411l-115 -411h-125l-143 527h109l101 -425l114 425h119l114 -421z" />
    <glyph glyph-name="Wdieresis" unicode="&#x1e84;" horiz-adv-x="887" 
d="M334 769q-31 0 -52.5 21.5t-21.5 53.5t22 52.5t54 20.5q31 0 52 -21.5t21 -53.5q0 -31 -21.5 -52t-53.5 -21zM551 769q-31 0 -52.5 21.5t-21.5 53.5t22 52.5t54 20.5q31 0 52.5 -21.5t21.5 -53.5q0 -31 -22 -52t-54 -21zM769 695h105l-164 -695h-123l-143 550l-144 -550
h-122l-164 695h104l123 -567l146 567h114l146 -567z" />
    <glyph glyph-name="wdieresis" unicode="&#x1e85;" horiz-adv-x="786" 
d="M286 620q-30 0 -51.5 21t-21.5 53q0 31 22 51t53 20q30 0 51 -21t21 -52t-21.5 -51.5t-52.5 -20.5zM497 620q-31 0 -52 21t-21 53q0 31 21.5 51t52.5 20q30 0 51.5 -21t21.5 -52t-21.5 -51.5t-52.5 -20.5zM669 527h109l-141 -527h-125l-117 411l-115 -411h-125l-143 527
h109l101 -425l114 425h119l114 -421z" />
    <glyph glyph-name="uni1E9E" unicode="&#x1e9e;" horiz-adv-x="644" 
d="M438 377q77 -13 122 -64t45 -127q0 -89 -59 -142t-156 -53q-124 0 -163 89l37 76q30 -78 116 -78q54 0 86 32t32 85q0 55 -36.5 87t-99.5 32h-31v61l139 173q-43 65 -140 65q-72 0 -113.5 -40.5t-41.5 -110.5v-462h-106v461q0 112 71.5 178t187.5 66q190 0 252 -155z" />
    <glyph glyph-name="Ygrave" unicode="&#x1ef2;" horiz-adv-x="626" 
d="M459 834l-24 -77l-266 87l27 87zM623 695l-257 -410v-285h-106v285l-257 410h119l191 -320l191 320h119z" />
    <glyph glyph-name="ygrave" unicode="&#x1ef3;" horiz-adv-x="550" 
d="M398 656l-43 -68l-223 130l48 77zM434 527h110l-208 -527l-70 -179h-104l72 179h-30l-196 527h109l153 -440z" />
    <glyph glyph-name="uni1EF8" unicode="&#x1ef8;" horiz-adv-x="626" 
d="M259 819q-42 0 -52 -46l-74 31q10 41 40 72t77 31q34 0 71 -25t58 -25q40 0 52 46l74 -31q-11 -43 -40.5 -73t-77.5 -30q-35 0 -71 25t-57 25zM623 695l-257 -410v-285h-106v285l-257 410h119l191 -320l191 320h119z" />
    <glyph glyph-name="uni1EF9" unicode="&#x1ef9;" horiz-adv-x="550" 
d="M219 674q-41 0 -51 -46l-73 31q10 42 37 72.5t72 30.5q32 0 68 -25t58 -25q41 0 51 46l74 -31q-27 -103 -110 -103q-34 0 -70 25t-56 25zM434 527h110l-208 -527l-70 -179h-104l72 179h-30l-196 527h109l153 -440z" />
    <glyph glyph-name="endash" unicode="&#x2013;" horiz-adv-x="515" 
d="M57 206v87h401v-87h-401z" />
    <glyph glyph-name="emdash" unicode="&#x2014;" horiz-adv-x="774" 
d="M57 206v86h660v-86h-660z" />
    <glyph glyph-name="quoteleft" unicode="&#x2018;" horiz-adv-x="206" 
d="M113 601q24 -3 39 -19.5t15 -42.5q0 -29 -19 -48t-47 -19t-47 19t-19 49q0 28 19 70l49 105h63z" />
    <glyph glyph-name="quoteright" unicode="&#x2019;" horiz-adv-x="206" 
d="M110 720q28 0 47 -19t19 -49q0 -28 -19 -70l-50 -105h-62l53 114q-24 3 -39 19.5t-15 42.5q0 29 19 48t47 19z" />
    <glyph glyph-name="quotesinglbase" unicode="&#x201a;" horiz-adv-x="209" 
d="M104 119q28 0 47 -19t19 -49q0 -31 -19 -70l-49 -105h-62l53 115q-24 2 -39 18.5t-15 42.5q0 29 19 48t46 19z" />
    <glyph glyph-name="quotedblleft" unicode="&#x201c;" horiz-adv-x="372" 
d="M113 601q24 -3 39 -19.5t15 -42.5q0 -29 -19 -48t-47 -19t-47 19t-19 49q0 28 19 70l49 105h63zM279 601q24 -3 39 -19.5t15 -42.5q0 -29 -19 -48t-47 -19q-27 0 -46 19t-19 49q0 31 19 70l49 105h62z" />
    <glyph glyph-name="quotedblright" unicode="&#x201d;" horiz-adv-x="372" 
d="M110 720q28 0 47 -19t19 -49q0 -28 -19 -70l-50 -105h-62l53 114q-24 3 -39 19.5t-15 42.5q0 29 19 48t47 19zM276 720q28 0 47 -19t19 -49q0 -31 -19 -70l-49 -105h-62l53 114q-24 3 -39 19.5t-15 42.5q0 29 19 48t46 19z" />
    <glyph glyph-name="quotedblbase" unicode="&#x201e;" horiz-adv-x="375" 
d="M104 119q28 0 47 -19t19 -49q0 -31 -19 -70l-49 -105h-62l53 115q-24 2 -39 18.5t-15 42.5q0 29 19 48t46 19zM271 119q27 0 46.5 -19.5t19.5 -48.5q0 -28 -19 -70l-50 -105h-62l53 115q-24 2 -39 18.5t-15 42.5q0 29 19 48t47 19z" />
    <glyph glyph-name="dagger" unicode="&#x2020;" horiz-adv-x="354" 
d="M313 623v-75h-96v-253h-81v253h-95v75h95v108h81v-108h96z" />
    <glyph glyph-name="daggerdbl" unicode="&#x2021;" horiz-adv-x="375" 
d="M323 572h-95v-118h95v-74h-95v-85h-81v85h-95v74h95v118h-95v74h95v85h81v-85h95v-74z" />
    <glyph glyph-name="bullet" unicode="&#x2022;" horiz-adv-x="368" 
d="M184 226q-48 0 -81 32.5t-33 80.5q0 49 33 82.5t81 33.5t81 -33.5t33 -82.5q0 -48 -33 -80.5t-81 -32.5z" />
    <glyph glyph-name="ellipsis" unicode="&#x2026;" horiz-adv-x="602" 
d="M107 -9q-28 0 -47 18.5t-19 46.5q0 29 19 48t47 19q29 0 47.5 -19t18.5 -48q0 -28 -19 -46.5t-47 -18.5zM301 -9q-28 0 -47 18.5t-19 46.5q0 29 19 48t47 19q29 0 47.5 -19t18.5 -48q0 -28 -19 -46.5t-47 -18.5zM495 -9q-28 0 -46.5 18.5t-18.5 46.5q0 29 18.5 48
t46.5 19q29 0 47.5 -19t18.5 -48q0 -28 -19 -46.5t-47 -18.5z" />
    <glyph glyph-name="perthousand" unicode="&#x2030;" horiz-adv-x="1074" 
d="M184 381q-68 0 -113 46.5t-45 114.5q0 67 45 113.5t113 46.5t113 -46.5t45 -113.5q0 -68 -45 -114.5t-113 -46.5zM127 0l400 695h84l-401 -695h-83zM184 449q38 0 63 26.5t25 66.5q0 39 -25 66t-63 27t-63 -27t-25 -66q0 -40 25 -66.5t63 -26.5zM554 -7q-68 0 -113 46
t-45 114q0 67 45 114t113 47t112.5 -46.5t44.5 -114.5t-44.5 -114t-112.5 -46zM892 -7q-68 0 -113 46t-45 114q0 67 45 114t113 47t112.5 -46.5t44.5 -114.5t-44.5 -114t-112.5 -46zM554 60q38 0 63 26.5t25 66.5q0 39 -25.5 66t-62.5 27q-38 0 -63 -27t-25 -66
q0 -40 25 -66.5t63 -26.5zM892 60q37 0 62 26.5t25 66.5q0 39 -25 66t-62 27q-38 0 -63 -27t-25 -66q0 -40 25 -66.5t63 -26.5z" />
    <glyph glyph-name="guilsinglleft" unicode="&#x2039;" horiz-adv-x="295" 
d="M145 79l-112 169l112 168h100l-112 -168l112 -169h-100z" />
    <glyph glyph-name="guilsinglright" unicode="&#x203a;" horiz-adv-x="295" 
d="M50 79l112 169l-112 168h100l112 -168l-112 -169h-100z" />
    <glyph glyph-name="fraction" unicode="&#x2044;" horiz-adv-x="415" 
d="M-13 0l365 695h81l-367 -695h-79z" />
    <glyph glyph-name="uni2074" unicode="&#x2074;" horiz-adv-x="330" 
d="M293 472v-51h-37v-74h-69v74h-162v51l163 223h68v-223h37zM188 472v144l-105 -144h105z" />
    <glyph glyph-name="Euro" unicode="&#x20ac;" horiz-adv-x="751" 
d="M627 183l90 -62q-89 -133 -270 -133q-119 0 -208 64.5t-121 172.5h-91l7 70h71q-2 22 -2 35q0 12 2 36h-60l7 70h66q32 108 121 172.5t207 64.5q178 0 270 -132l-90 -62q-59 94 -182 94q-74 0 -130 -36.5t-83 -100.5h232l-6 -70h-244q-2 -24 -2 -36q0 -13 2 -35h232
l-7 -70h-207q27 -63 83.5 -99.5t130.5 -36.5q124 0 182 94z" />
    <glyph glyph-name="trademark" unicode="&#x2122;" horiz-adv-x="643" 
d="M250 673v-51h-83v-227h-57v227h-83v51h223zM585 395h-54l-14 193l-60 -183h-49l-61 183l-14 -193h-54l20 278h68l65 -198l66 198h67z" />
    <glyph glyph-name="minus" unicode="&#x2212;" horiz-adv-x="541" 
d="M61 272v91h419v-91h-419z" />
    <glyph glyph-name="approxequal" unicode="&#x2248;" horiz-adv-x="534" 
d="M360 339q-42 0 -92 27t-80 27q-58 0 -82 -39l-52 57q39 69 121 69q42 0 92 -27t81 -27q57 0 81 39l52 -57q-39 -69 -121 -69zM359 119q-42 0 -91.5 27t-80.5 27q-59 0 -81 -39l-52 57q39 69 120 69q42 0 92 -26.5t81 -26.5q59 0 81 38l52 -57q-39 -69 -121 -69z" />
    <glyph glyph-name="notequal" unicode="&#x2260;" horiz-adv-x="543" 
d="M481 372h-141l-45 -143h186v-90h-215l-36 -115h-98l36 115h-106v90h135l45 143h-180v91h209l36 113h98l-36 -113h112v-91z" />
    <glyph glyph-name="uniF8FF" unicode="&#xf8ff;" horiz-adv-x="2307" 
d="M561 199q-46 0 -66.5 19.5t-20.5 63.5v228h99q0 -30 -19.5 -59.5t-47.5 -42.5l1 -4q28 17 58 17h51v-79h-42v-48q0 -17 18 -17q14 0 24 7v-75q-17 -10 -55 -10zM636 204v306h98q0 -33 -23 -59.5t-56 -34.5l2 -3q41 8 70 8h8v-217h-99zM1371 199q-46 0 -67 19.5t-21 63.5
v228h99q0 -30 -19 -59.5t-48 -42.5l2 -4q28 17 58 17h50v-79h-42v-48q0 -17 18 -17q13 0 24 7v-75q-17 -10 -54 -10zM100 204v305h99v-305h-99zM285 199q-32 0 -51 17t-19 44q0 29 20 47.5t54 18.5q45 0 66 -21h2v35q0 25 -23 25t-23 -29l-90 14q18 78 122 78q54 0 84 -24
t30 -66v-134h-98v22h-3q-19 -27 -71 -27zM756 204v217h97v-65h3q8 70 71 70q34 0 53.5 -22.5t19.5 -65.5v-134h-100v129q0 27 -19 27q-11 0 -15.5 -6.5t-10.5 -25.5v-124h-99zM1141 199q-60 0 -93 31t-33 82t33.5 82.5t92.5 31.5t92.5 -31.5t33.5 -82.5q0 -50 -33 -81.5
t-93 -31.5zM1691 132v289h99v-65h3q11 70 73 70q83 0 83 -114q0 -56 -25 -84.5t-61 -28.5q-52 0 -69 43h-3v-110h-100zM2087 199q-59 0 -91.5 31t-32.5 82q0 50 34.5 82t92.5 32q52 0 84.5 -31.5t32.5 -77.5v-9h-150q0 -19 9 -32.5t25 -13.5q26 0 30 34l82 -8
q-8 -46 -40 -67.5t-76 -21.5zM1472 128v66h65q57 0 67 12l-1 3h-68q-40 0 -52 39l-54 173h100q3 -16 10 -53t11.5 -66.5t6.5 -53.5h2q6 57 30 173h99l-71 -207q-31 -86 -106 -86h-39zM2057 320h6q55 0 55 24q0 22 -24 22q-17 0 -27 -12.5t-10 -33.5zM1825 247q30 0 30 57
q0 61 -27 61q-22 0 -30 -33v-72q10 -13 27 -13zM1141 261q29 0 29 51q0 52 -29 52q-28 0 -28 -52q0 -51 28 -51zM335 229q15 0 22 11v51q-5 8 -19 8q-27 0 -27 -35t24 -35z" />
    <glyph glyph-name="uni00A40301" horiz-adv-x="336" 
d="M102 757l-24 77l264 97l27 -87zM19 0v94h44q46 0 71.5 28t25.5 79v494h106v-495q0 -94 -51 -147t-144 -53h-52z" />
    <glyph glyph-name="Q.ss01" horiz-adv-x="789" 
d="M622 95h136v-95h-363q-156 0 -255.5 98.5t-99.5 251.5t102 255t253 102q150 0 250.5 -100t100.5 -249q0 -169 -124 -263zM393 94q107 0 176 72t69 184t-68.5 184t-176.5 72t-176.5 -72t-68.5 -184t69 -184t176 -72z" />
    <glyph glyph-name="i.loclTRK" horiz-adv-x="235" 
d="M118 618q-33 0 -55 20.5t-22 53.5t22 54.5t55 21.5t55 -21.5t22 -54.5t-22 -53.5t-55 -20.5zM65 0v527h106v-527h-106z" />
    <glyph glyph-name="uni006A0301" horiz-adv-x="237" 
d="M33 588l-43 68l218 139l48 -78zM-44 -183l-1 92h11q45 0 73 30t28 79v509h105v-508q0 -92 -54 -147t-140 -55h-22z" />
    <glyph glyph-name="g.ss01" horiz-adv-x="565" 
d="M548 527v-91h-91q30 -50 30 -114q0 -112 -82 -173q111 -44 111 -157q0 -81 -67.5 -132t-182.5 -51q-203 0 -259 150l96 37q36 -99 160 -99q71 0 108.5 28t37.5 76t-39 76t-109 28q-102 0 -166 61t-64 156q0 94 64.5 155.5t165.5 61.5q44 0 80 -12h207zM131 322
q0 -56 36.5 -92.5t93.5 -36.5t93.5 36.5t36.5 92.5t-36.5 92.5t-93.5 36.5t-93.5 -36.5t-36.5 -92.5z" />
    <glyph glyph-name="gbreve.ss01" horiz-adv-x="565" 
d="M270 607q-75 0 -119.5 47t-44.5 124h84q0 -43 22 -67t58 -24t58 24t22 67h84q0 -77 -44.5 -124t-119.5 -47zM548 527v-91h-91q30 -50 30 -114q0 -112 -82 -173q111 -44 111 -157q0 -81 -67.5 -132t-182.5 -51q-203 0 -259 150l96 37q36 -99 160 -99q71 0 108.5 28
t37.5 76t-39 76t-109 28q-102 0 -166 61t-64 156q0 94 64.5 155.5t165.5 61.5q44 0 80 -12h207zM131 322q0 -56 36.5 -92.5t93.5 -36.5t93.5 36.5t36.5 92.5t-36.5 92.5t-93.5 36.5t-93.5 -36.5t-36.5 -92.5z" />
    <glyph glyph-name="uni0123.ss01" horiz-adv-x="565" 
d="M274 597q-26 0 -43 17t-17 44q0 34 34 88l36 62l51 -19l-37 -64l-5 -10q19 -5 31 -21t12 -38q0 -25 -18 -42t-44 -17zM548 527v-91h-91q30 -50 30 -114q0 -112 -82 -173q111 -44 111 -157q0 -81 -67.5 -132t-182.5 -51q-203 0 -259 150l96 37q36 -99 160 -99
q71 0 108.5 28t37.5 76t-39 76t-109 28q-102 0 -166 61t-64 156q0 94 64.5 155.5t165.5 61.5q44 0 80 -12h207zM131 322q0 -56 36.5 -92.5t93.5 -36.5t93.5 36.5t36.5 92.5t-36.5 92.5t-93.5 36.5t-93.5 -36.5t-36.5 -92.5z" />
    <glyph glyph-name="gdotaccent.ss01" horiz-adv-x="565" 
d="M270 618q-33 0 -55 21t-22 54q0 32 22.5 53.5t54.5 21.5t54.5 -21.5t22.5 -53.5q0 -33 -22 -54t-55 -21zM548 527v-91h-91q30 -50 30 -114q0 -112 -82 -173q111 -44 111 -157q0 -81 -67.5 -132t-182.5 -51q-203 0 -259 150l96 37q36 -99 160 -99q71 0 108.5 28t37.5 76
t-39 76t-109 28q-102 0 -166 61t-64 156q0 94 64.5 155.5t165.5 61.5q44 0 80 -12h207zM131 322q0 -56 36.5 -92.5t93.5 -36.5t93.5 36.5t36.5 92.5t-36.5 92.5t-93.5 36.5t-93.5 -36.5t-36.5 -92.5z" />
    <glyph glyph-name="t.ss01" horiz-adv-x="371" 
d="M130 0v436h-121v91h79q49 0 49 51v85h102v-136h121v-91h-124v-436h-106z" />
    <glyph glyph-name="tbar.ss01" horiz-adv-x="407" 
d="M380 436h-124v-125h111v-74h-111v-237h-106v237h-112v74h112v125h-121v91h79q49 0 49 51v85h102v-136h121v-91z" />
    <glyph glyph-name="tcaron.ss01" horiz-adv-x="371" 
d="M311 555l20 234h77l-28 -234h-69zM130 0v436h-121v91h79q49 0 49 51v85h102v-136h121v-91h-124v-436h-106z" />
    <glyph glyph-name="uni0163.ss01" horiz-adv-x="371" 
d="M236 0h-19l-23 -55q37 -2 60.5 -28t23.5 -63q0 -44 -33 -72t-87 -28q-75 0 -114 47l37 44q26 -31 64 -31q25 0 40.5 14t15.5 35t-16 35.5t-42 14.5h-17l-7 8l32 79h-21v436h-121v91h79q49 0 49 51v85h102v-136h121v-91h-124v-436z" />
    <glyph glyph-name="uni021B.ss01" horiz-adv-x="371" 
d="M239 527h121v-91h-124v-436h-106v436h-121v91h79q49 0 49 51v85h102v-136zM188 -54q26 0 43 -17t17 -44q0 -35 -34 -87l-36 -63l-51 19l37 65q2 3 4 9q-19 5 -30.5 21t-11.5 38q0 26 17.5 42.5t44.5 16.5z" />
    <glyph glyph-name="u.ss01" horiz-adv-x="593" 
d="M297 -12q-113 0 -176 62t-63 169v308h105v-311q0 -61 36 -97.5t98 -36.5q61 0 97 36.5t36 97.5v311h106v-308q0 -107 -63.5 -169t-175.5 -62z" />
    <glyph glyph-name="uacute.ss01" horiz-adv-x="593" 
d="M208 588l-43 68l219 139l47 -77zM297 -12q-113 0 -176 62t-63 169v308h105v-311q0 -61 36 -97.5t98 -36.5q61 0 97 36.5t36 97.5v311h106v-308q0 -107 -63.5 -169t-175.5 -62z" />
    <glyph glyph-name="ucircumflex.ss01" horiz-adv-x="593" 
d="M296 712l-83 -105h-94l134 171h90l131 -171h-94zM430 527h106v-308q0 -107 -63.5 -169t-175.5 -62q-113 0 -176 62t-63 169v308h105v-311q0 -61 36 -97.5t98 -36.5q61 0 97 36.5t36 97.5v311z" />
    <glyph glyph-name="udieresis.ss01" horiz-adv-x="593" 
d="M190 620q-30 0 -51.5 21t-21.5 53q0 31 22 51t53 20q30 0 51 -21t21 -52t-21.5 -51.5t-52.5 -20.5zM401 620q-31 0 -52 21t-21 53q0 31 21.5 51t52.5 20q30 0 51.5 -21t21.5 -52t-21.5 -51.5t-52.5 -20.5zM297 -12q-113 0 -176 62t-63 169v308h105v-311q0 -61 36 -97.5
t98 -36.5q61 0 97 36.5t36 97.5v311h106v-308q0 -107 -63.5 -169t-175.5 -62z" />
    <glyph glyph-name="ugrave.ss01" horiz-adv-x="593" 
d="M377 588l-224 130l48 77l218 -139zM297 -12q-113 0 -176 62t-63 169v308h105v-311q0 -61 36 -97.5t98 -36.5q61 0 97 36.5t36 97.5v311h106v-308q0 -107 -63.5 -169t-175.5 -62z" />
    <glyph glyph-name="uhungarumlaut.ss01" horiz-adv-x="593" 
d="M187 588l-65 47l119 166l73 -53zM391 588l-66 47l119 166l74 -53zM297 -12q-113 0 -176 62t-63 169v308h105v-311q0 -61 36 -97.5t98 -36.5q61 0 97 36.5t36 97.5v311h106v-308q0 -107 -63.5 -169t-175.5 -62z" />
    <glyph glyph-name="umacron.ss01" horiz-adv-x="593" 
d="M143 651v84h306v-84h-306zM297 -12q-113 0 -176 62t-63 169v308h105v-311q0 -61 36 -97.5t98 -36.5q61 0 97 36.5t36 97.5v311h106v-308q0 -107 -63.5 -169t-175.5 -62z" />
    <glyph glyph-name="uogonek.ss01" horiz-adv-x="593" 
d="M430 527h106v-308q0 -83 -39.5 -140.5t-112.5 -78.5l-37 -36q-49 -50 -49 -83q0 -19 11.5 -31t29.5 -12q28 0 43 18l39 -50q-32 -37 -97 -37q-48 0 -77.5 27t-29.5 69q0 59 74 123q-110 1 -171.5 63.5t-61.5 167.5v308h105v-311q0 -61 36 -97.5t98 -36.5q61 0 97 36.5
t36 97.5v311z" />
    <glyph glyph-name="uring.ss01" horiz-adv-x="593" 
d="M297 577q-50 0 -82.5 31t-32.5 79q0 47 33 78t82 31t81.5 -31t32.5 -78q0 -49 -32 -79.5t-82 -30.5zM297 637q22 0 36 14t14 36q0 20 -14 34t-36 14t-36.5 -14t-14.5 -34q0 -22 14.5 -36t36.5 -14zM297 -12q-113 0 -176 62t-63 169v308h105v-311q0 -61 36 -97.5t98 -36.5
q61 0 97 36.5t36 97.5v311h106v-308q0 -107 -63.5 -169t-175.5 -62z" />
    <glyph glyph-name="utilde.ss01" horiz-adv-x="593" 
d="M367 624q-34 0 -70 25t-56 25q-41 0 -51 -46l-74 31q10 43 37 73t73 30q32 0 68 -25t58 -25q40 0 50 46l74 -31q-25 -103 -109 -103zM297 -12q-113 0 -176 62t-63 169v308h105v-311q0 -61 36 -97.5t98 -36.5q61 0 97 36.5t36 97.5v311h106v-308q0 -107 -63.5 -169
t-175.5 -62z" />
    <glyph glyph-name="y.ss01" horiz-adv-x="598" 
d="M429 527h106v-484q0 -112 -62.5 -172.5t-178.5 -60.5q-85 0 -143 36.5t-85 103.5l89 34q33 -92 139 -92q68 0 104.5 36.5t36.5 105.5v53q-29 -36 -74 -57t-95 -21q-98 0 -153 58.5t-55 154.5v305h105v-292q0 -59 36 -95.5t96 -36.5q56 1 94.5 35t39.5 85v304z" />
    <glyph glyph-name="yacute.ss01" horiz-adv-x="598" 
d="M433 718l-224 -130l-43 68l219 139zM429 527h106v-484q0 -112 -62.5 -172.5t-178.5 -60.5q-85 0 -143 36.5t-85 103.5l89 34q33 -92 139 -92q68 0 104.5 36.5t36.5 105.5v53q-29 -36 -74 -57t-95 -21q-98 0 -153 58.5t-55 154.5v305h105v-292q0 -59 36 -95.5t96 -36.5
q56 1 94.5 35t39.5 85v304z" />
    <glyph glyph-name="ycircumflex.ss01" horiz-adv-x="598" 
d="M298 713l-84 -106h-94l134 171h90l131 -171h-94zM429 527h106v-484q0 -112 -62.5 -172.5t-178.5 -60.5q-85 0 -143 36.5t-85 103.5l89 34q33 -92 139 -92q68 0 104.5 36.5t36.5 105.5v53q-29 -36 -74 -57t-95 -21q-98 0 -153 58.5t-55 154.5v305h105v-292q0 -59 36 -95.5
t96 -36.5q56 1 94.5 35t39.5 85v304z" />
    <glyph glyph-name="ydieresis.ss01" horiz-adv-x="598" 
d="M192 620q-31 0 -52.5 21t-21.5 53q0 31 22 51t53 20q30 0 51 -21t21 -52t-21.5 -51.5t-51.5 -20.5zM402 620q-31 0 -52 21t-21 53q0 31 21.5 51t52.5 20q30 0 51.5 -21t21.5 -52t-21.5 -51.5t-52.5 -20.5zM429 527h106v-484q0 -112 -62.5 -172.5t-178.5 -60.5
q-85 0 -143 36.5t-85 103.5l89 34q33 -92 139 -92q68 0 104.5 36.5t36.5 105.5v53q-29 -36 -74 -57t-95 -21q-98 0 -153 58.5t-55 154.5v305h105v-292q0 -59 36 -95.5t96 -36.5q56 1 94.5 35t39.5 85v304z" />
    <glyph glyph-name="ygrave.ss01" horiz-adv-x="598" 
d="M421 656l-43 -68l-224 130l48 77zM429 527h106v-484q0 -112 -62.5 -172.5t-178.5 -60.5q-85 0 -143 36.5t-85 103.5l89 34q33 -92 139 -92q68 0 104.5 36.5t36.5 105.5v53q-29 -36 -74 -57t-95 -21q-98 0 -153 58.5t-55 154.5v305h105v-292q0 -59 36 -95.5t96 -36.5
q56 1 94.5 35t39.5 85v304z" />
    <glyph glyph-name="uni1EF9.ss01" horiz-adv-x="598" 
d="M242 674q-41 0 -51 -46l-74 31q10 43 37 73t73 30q32 0 68 -25t58 -25q40 0 50 46l74 -31q-25 -103 -109 -103q-34 0 -70 25t-56 25zM429 527h106v-484q0 -112 -62.5 -172.5t-178.5 -60.5q-85 0 -143 36.5t-85 103.5l89 34q33 -92 139 -92q68 0 104.5 36.5t36.5 105.5v53
q-29 -36 -74 -57t-95 -21q-98 0 -153 58.5t-55 154.5v305h105v-292q0 -59 36 -95.5t96 -36.5q56 1 94.5 35t39.5 85v304z" />
    <glyph glyph-name="zero.osf" horiz-adv-x="648" 
d="M324 -11q-121 0 -201.5 76.5t-80.5 199.5q0 125 80 199t202 74q123 0 202.5 -74.5t79.5 -198.5q0 -123 -80.5 -199.5t-201.5 -76.5zM324 83q75 0 126 49t51 132q0 82 -51 131t-126 49t-126 -49t-51 -131t51 -131.5t126 -49.5z" />
    <glyph glyph-name="one.osf" horiz-adv-x="417" 
d="M285 91h113v-91h-354v91h136v345h-141v91h246v-436z" />
    <glyph glyph-name="two.osf" horiz-adv-x="541" 
d="M219 84h292v-84h-474v67q179 87 250 151t71 127q0 46 -29 72.5t-78 26.5q-44 0 -75.5 -21t-42.5 -59l-96 31q17 64 78 103.5t144 39.5q94 0 149.5 -47.5t55.5 -128.5q0 -77 -57.5 -143.5t-187.5 -134.5z" />
    <glyph glyph-name="three.osf" horiz-adv-x="535" 
d="M294 258q88 0 146 -55.5t58 -140.5q0 -90 -66.5 -149t-173.5 -59q-89 0 -154 42.5t-85 108.5l97 39q13 -42 51.5 -69t91.5 -27q60 0 96.5 34.5t36.5 87.5t-36 85t-90 32h-94v71l176 178h-298v91h423v-84z" />
    <glyph glyph-name="four.osf" horiz-adv-x="556" 
d="M529 106v-79h-76v-146h-105v146h-321v77l322 422h104v-420h76zM349 106v288l-218 -288h218z" />
    <glyph glyph-name="five.osf" horiz-adv-x="525" 
d="M254 269q111 0 175 -55t64 -148t-66 -152.5t-175 -59.5q-87 0 -148 39.5t-86 114.5l96 39q13 -45 49.5 -72t88.5 -27q59 0 97 34.5t38 86.5q0 53 -37 87t-95 34h-178l19 337h355v-91h-266l-9 -167h78z" />
    <glyph glyph-name="six.osf" horiz-adv-x="549" 
d="M281 445q105 0 171.5 -62.5t66.5 -162.5q0 -101 -67.5 -166.5t-173.5 -65.5t-176 65t-70 164q0 88 66 174l207 269h123l-169 -216q7 1 22 1zM278 79q60 0 98 39t38 101t-38 101t-98 39q-61 0 -101 -39.5t-40 -100.5q0 -60 40 -100t101 -40z" />
    <glyph glyph-name="seven.osf" horiz-adv-x="472" 
d="M14 527h437v-81l-228 -579h-118l228 571h-319v89z" />
    <glyph glyph-name="eight.osf" horiz-adv-x="561" 
d="M388 351q58 -19 94.5 -64.5t36.5 -106.5q0 -87 -65.5 -139.5t-172.5 -52.5q-108 0 -173.5 53t-65.5 139q0 62 35 107.5t93 63.5q-45 19 -73 56.5t-28 90.5q0 75 57.5 124t154.5 48q97 0 153.5 -48t56.5 -125q0 -54 -28.5 -91t-74.5 -55zM281 584q-50 0 -80.5 -26.5
t-30.5 -70.5t30.5 -71.5t80.5 -27.5q49 0 79.5 27.5t30.5 71.5t-30 70.5t-80 26.5zM281 74q61 0 97 32.5t36 85.5q0 51 -37 84t-96 33q-60 0 -97 -33t-37 -84q0 -53 36.5 -85.5t97.5 -32.5z" />
    <glyph glyph-name="nine.osf" horiz-adv-x="540" 
d="M267 539q105 0 175 -64t70 -164q0 -85 -60 -164l-213 -280h-123l166 216h-16q-105 0 -173 61.5t-68 162.5q0 103 69 167.5t173 64.5zM267 169q61 0 101 39t40 100t-40 100.5t-101 39.5q-60 0 -98.5 -39t-38.5 -101q0 -61 38.5 -100t98.5 -39z" />
    <glyph glyph-name="uni030C.alt" 
d="M-159 471l20 234h76l-27 -234h-69z" />
    <glyph glyph-name="caron.alt" horiz-adv-x="173" 
d="M56 471l20 234h76l-27 -234h-69z" />
    <glyph glyph-name="uni0308.case" 
d="M-323 769q-31 0 -52.5 21.5t-21.5 53.5t22 52.5t54 20.5q31 0 52 -21.5t21 -53.5q0 -31 -21.5 -52t-53.5 -21zM-106 769q-31 0 -52.5 21.5t-21.5 53.5t22 52.5t54 20.5q31 0 52.5 -21.5t21.5 -53.5q0 -31 -22 -52t-54 -21z" />
    <glyph glyph-name="uni0307.case" 
d="M-105 769q-31 0 -52.5 21t-21.5 54q0 32 21.5 52t54.5 20q31 0 52 -21t21 -53q0 -31 -21.5 -52t-53.5 -21z" />
    <glyph glyph-name="gravecomb.case" 
d="M-54 757l-267 87l27 87l264 -97z" />
    <glyph glyph-name="acutecomb.case" 
d="M-296 757l-24 77l264 97l27 -87z" />
    <glyph glyph-name="uni030B.case" 
d="M-367 741l-65 47l119 177l74 -54zM-158 741l-65 47l119 177l74 -54z" />
    <glyph glyph-name="uni0302.case" 
d="M-30 765h-96l-83 87l-82 -87h-97l137 156h86z" />
    <glyph glyph-name="uni030C.case" 
d="M-126 921h96l-135 -156h-86l-137 156h97l82 -87z" />
    <glyph glyph-name="uni0306.case" 
d="M-191 765q-73 0 -116.5 44.5t-43.5 111.5h87q0 -33 19.5 -54.5t53.5 -21.5t53.5 21.5t19.5 54.5h87q0 -67 -43.5 -111.5t-116.5 -44.5z" />
    <glyph glyph-name="uni030A.case" 
d="M-140 710q-50 0 -82.5 30.5t-32.5 78.5q0 47 32.5 78t82.5 31q49 0 81.5 -31t32.5 -78q0 -48 -32 -78.5t-82 -30.5zM-140 770q22 0 36 14t14 35t-14 35t-36 14t-36.5 -14t-14.5 -35t14.5 -35t36.5 -14z" />
    <glyph glyph-name="tildecomb.case" 
d="M-148 773q-35 0 -71 25t-57 25q-42 0 -52 -46l-74 31q10 41 40 72t77 31q34 0 71 -25.5t58 -25.5q40 0 52 47l74 -31q-11 -43 -40.5 -73t-77.5 -30z" />
    <glyph glyph-name="uni0304.case" 
d="M-355 800v87h325v-87h-325z" />
    <glyph glyph-name="uni0326.case" 
d="M-89 -49q26 0 43 -16.5t17 -43.5q0 -34 -34 -88l-36 -62l-50 18l36 65l5 10q-19 5 -31 21t-12 38q0 25 18 41.5t44 16.5z" />
    <glyph glyph-name="uni0337.case" 
d="M-335 189l-23 67l305 118l23 -68z" />
    <glyph glyph-name="uni0338.case" 
d="M-674 0l-62 60l628 674l62 -60z" />
    <glyph glyph-name="dieresis.case" horiz-adv-x="383" 
d="M104 769q-31 0 -52.5 21.5t-21.5 53.5t22 52.5t54 20.5q31 0 52 -21.5t21 -53.5q0 -31 -21.5 -52t-53.5 -21zM321 769q-31 0 -52.5 21.5t-21.5 53.5t22 52.5t54 20.5q31 0 52.5 -21.5t21.5 -53.5q0 -31 -22 -52t-54 -21z" />
    <glyph glyph-name="dotaccent.case" horiz-adv-x="149" 
d="M104 769q-31 0 -52.5 21t-21.5 54q0 32 21.5 52t54.5 20q31 0 52 -21t21 -53q0 -31 -21.5 -52t-53.5 -21z" />
    <glyph glyph-name="grave.case" horiz-adv-x="302" 
d="M297 757l-267 87l27 87l264 -97z" />
    <glyph glyph-name="acute.case" horiz-adv-x="302" 
d="M54 757l-24 77l264 97l27 -87z" />
    <glyph glyph-name="hungarumlaut.case" horiz-adv-x="502" 
d="M95 741l-65 47l119 177l74 -54zM304 741l-65 47l119 177l74 -54z" />
    <glyph glyph-name="circumflex.case" horiz-adv-x="397" 
d="M388 765h-96l-83 87l-82 -87h-97l137 156h86z" />
    <glyph glyph-name="caron.case" horiz-adv-x="397" 
d="M292 921h96l-135 -156h-86l-137 156h97l82 -87z" />
    <glyph glyph-name="breve.case" horiz-adv-x="359" 
d="M190 765q-73 0 -116.5 44.5t-43.5 111.5h87q0 -33 19.5 -54.5t53.5 -21.5t53.5 21.5t19.5 54.5h87q0 -67 -43.5 -111.5t-116.5 -44.5z" />
    <glyph glyph-name="ring.case" horiz-adv-x="243" 
d="M141 710q-50 0 -82.5 30.5t-32.5 78.5q0 47 32.5 78t82.5 31q49 0 81.5 -31t32.5 -78q0 -48 -32 -78.5t-82 -30.5zM141 770q22 0 36 14t14 35t-14 35t-36 14t-36.5 -14t-14.5 -35t14.5 -35t36.5 -14z" />
    <glyph glyph-name="tilde.case" horiz-adv-x="428" 
d="M284 773q-35 0 -71 25t-57 25q-42 0 -52 -46l-74 31q10 41 40 72t77 31q34 0 71 -25.5t58 -25.5q40 0 52 47l74 -31q-11 -43 -40.5 -73t-77.5 -30z" />
    <glyph glyph-name="macron.case" horiz-adv-x="380" 
d="M30 800v87h325v-87h-325z" />
    <glyph glyph-name="IJacute" horiz-adv-x="596" 
d="M18 757l-24 77l264 97l27 -87zM362 757l-24 77l263 97l27 -87zM76 0v695h106v-695h-106zM278 0v94h45q46 0 71 28t25 79v494h107v-495q0 -94 -51 -147t-145 -53h-52z" />
    <glyph glyph-name="ijacute" horiz-adv-x="516" 
d="M29 588l-42 68l218 139l48 -78zM311 588l-43 68l219 139l48 -78zM65 0v527h106v-527h-106zM234 -183l-1 92h11q45 0 73 30t28 79v509h106v-508q0 -92 -54.5 -147t-140.5 -55h-22z" />
    </font>
</defs>
</svg>
