<?xml version="1.0" standalone="no"?>
<!DOCTYPE svg PUBLIC "-//W3C//DTD SVG 1.1//EN" "http://www.w3.org/Graphics/SVG/1.1/DTD/svg11.dtd" >
<svg xmlns="http://www.w3.org/2000/svg" xmlns:xlink="http://www.w3.org/1999/xlink" version="1.1">
<metadata>
Created by FontForge 20190801 at Mon Nov  4 14:52:43 2019
 By www-data
Copyright (c) 2019 by Daniel Hernandez &#38; Rodrigo Fuenzalida. All rights reserved.
</metadata>
<defs>
<font id="BiennaleBlack" horiz-adv-x="0" >
  <font-face 
    font-family="BiennaleBlack"
    font-weight="900"
    font-stretch="normal"
    units-per-em="1000"
    panose-1="0 0 10 0 0 0 0 0 0 0"
    ascent="800"
    descent="-200"
    x-height="527"
    cap-height="695"
    bbox="-773 -306 2207 1003"
    underline-thickness="50"
    underline-position="-100"
    unicode-range="U+0020-FB02"
  />
<missing-glyph horiz-adv-x="630" 
d="M100 730h430v-730h-430v730zM165 695l150 -287l150 287h-300zM293 365l-153 292v-584zM338 365l152 -292v584zM315 322l-150 -287h300z" />
    <glyph glyph-name="fi" unicode="fi" horiz-adv-x="586" 
d="M337 613q-37 0 -56.5 -19.5t-19.5 -55.5v-11h277v-527h-167v385h-110v-385h-166v385h-77v142h77q2 102 62 159t173 57h208v-130h-201z" />
    <glyph glyph-name="fl" unicode="fl" horiz-adv-x="612" 
d="M564 731v-731h-167v601h-60q-36 0 -56 -20t-20 -55v-7h76v-134h-76v-385h-166v385h-77v142h78q5 96 65 150t169 54h234z" />
    <glyph glyph-name=".notdef" horiz-adv-x="630" 
d="M100 730h430v-730h-430v730zM165 695l150 -287l150 287h-300zM293 365l-153 292v-584zM338 365l152 -292v584zM315 322l-150 -287h300z" />
    <glyph glyph-name=".null" 
 />
    <glyph glyph-name="nonmarkingreturn" horiz-adv-x="333" 
 />
    <glyph glyph-name="space" unicode=" " horiz-adv-x="187" 
 />
    <glyph glyph-name="exclam" unicode="!" horiz-adv-x="280" 
d="M73 252l-28 479h190l-30 -479h-132zM140 -10q-38 0 -64 26t-26 64q0 40 26 66t64 26q39 0 65 -26t26 -66q0 -38 -26 -64t-65 -26z" />
    <glyph glyph-name="quotedbl" unicode="&#x22;" horiz-adv-x="410" 
d="M51 437l-12 278h145l-14 -278h-119zM241 437l-11 278h142l-12 -278h-119z" />
    <glyph glyph-name="numbersign" unicode="#" horiz-adv-x="704" 
d="M679 422h-114l-36 -130h81v-126h-115l-45 -166h-138l45 166h-110l-45 -166h-135l45 166h-85v126h120l35 130h-85v126h120l40 147h134l-40 -147h111l40 147h137l-40 -147h80v-126zM392 292l35 130h-110l-36 -130h111z" />
    <glyph glyph-name="dollar" unicode="$" horiz-adv-x="530" 
d="M499 193q0 -67 -42.5 -115.5t-117.5 -65.5v-94h-134v91q-67 13 -115 54.5t-67 106.5l143 56q11 -44 40 -67.5t70 -23.5q69 0 69 56q0 26 -22 44t-54.5 27.5t-71 25t-71 33.5t-54.5 56.5t-22 91.5q0 71 40.5 119.5t114.5 64.5v93h134v-95q58 -14 98 -51.5t53 -88.5
l-143 -55q-19 74 -84 74q-30 0 -46 -13.5t-16 -36.5q0 -22 16.5 -37t42.5 -25t58 -20t64 -25.5t58 -36.5t42.5 -57.5t16.5 -85.5z" />
    <glyph glyph-name="percent" unicode="%" horiz-adv-x="783" 
d="M185 378q-70 0 -116.5 47t-46.5 116q0 68 46.5 115.5t116.5 47.5t116 -47.5t46 -115.5q0 -69 -46 -116t-116 -47zM132 0l393 695l129 1l-396 -695zM185 481q25 0 40.5 17t15.5 43q0 25 -16 42.5t-40 17.5q-25 0 -41 -17.5t-16 -42.5q0 -26 16 -43t41 -17zM598 -9
q-69 0 -116 47.5t-47 115.5t47 115.5t116 47.5q70 0 116.5 -47.5t46.5 -115.5t-46.5 -115.5t-116.5 -47.5zM598 94q25 0 40.5 17t15.5 43t-15.5 43t-40.5 17t-40.5 -17t-15.5 -43t16 -43t40 -17z" />
    <glyph glyph-name="ampersand" unicode="&#x26;" horiz-adv-x="708" 
d="M707 0h-179l-55 53q-79 -63 -191 -63q-107 0 -177.5 56.5t-70.5 144.5q0 123 119 189q-39 60 -39 125q0 89 64 144t169 55q103 0 169 -60t73 -162h-172q-2 27 -20.5 45.5t-51.5 18.5q-27 0 -44.5 -16.5t-17.5 -39.5q0 -8 1 -14.5t6 -15t9.5 -15t16.5 -20t21.5 -24
t30.5 -33t38 -41.5l61 -66q32 57 36 137l155 -62q-11 -115 -82 -194zM284 138q39 0 76 24l-119 116q-37 -30 -37 -68q0 -31 23.5 -51.5t56.5 -20.5z" />
    <glyph glyph-name="quotesingle" unicode="'" horiz-adv-x="221" 
d="M51 437l-12 278h145l-14 -278h-119z" />
    <glyph glyph-name="parenleft" unicode="(" horiz-adv-x="354" 
d="M244 -130q-214 172 -214 472t214 472l110 -107q-87 -78 -126.5 -166t-39.5 -199q0 -112 39.5 -200t126.5 -166z" />
    <glyph glyph-name="parenright" unicode=")" horiz-adv-x="354" 
d="M110 -130l-110 106q86 79 126 167t40 199t-40 198.5t-126 166.5l110 107q214 -173 214 -472t-214 -472z" />
    <glyph glyph-name="asterisk" unicode="*" horiz-adv-x="421" 
d="M154 368l9 93l-75 -57l-58 105l88 40l-88 40l58 103l74 -56l-9 95h115l-9 -95l74 56l58 -103l-88 -40l88 -40l-58 -105l-75 57l9 -93h-113z" />
    <glyph glyph-name="plus" unicode="+" horiz-adv-x="497" 
d="M469 402v-140h-147v-162h-147v162h-148v140h148v168h147v-168h147z" />
    <glyph glyph-name="comma" unicode="," horiz-adv-x="238" 
d="M118 173q38 0 64.5 -26t26.5 -67q0 -36 -27 -89l-60 -120h-91l64 128q-30 6 -48.5 28t-18.5 56q0 38 26.5 64t63.5 26z" />
    <glyph glyph-name="hyphen" unicode="-" horiz-adv-x="391" 
d="M49 177v135h293v-135h-293z" />
    <glyph glyph-name="period" unicode="." horiz-adv-x="239" 
d="M119 -10q-38 0 -64 26t-26 64q0 40 26 66t64 26q39 0 65 -26t26 -66q0 -38 -26 -64t-65 -26z" />
    <glyph glyph-name="slash" unicode="/" horiz-adv-x="385" 
d="M24 -50l191 761h144l-190 -761h-145z" />
    <glyph glyph-name="zero" unicode="0" horiz-adv-x="708" 
d="M354 -13q-145 0 -230.5 97.5t-85.5 264.5q0 170 85 264.5t231 94.5t231 -94.5t85 -264.5q0 -167 -86 -264.5t-230 -97.5zM354 145q67 0 106.5 52.5t39.5 150.5q0 96 -39.5 149t-106.5 53t-106.5 -53t-39.5 -149q0 -98 39.5 -150.5t106.5 -52.5z" />
    <glyph glyph-name="one" unicode="1" horiz-adv-x="430" 
d="M320 138h80v-138h-358v138h112v319h-109v138h109v100h166v-557z" />
    <glyph glyph-name="two" unicode="2" horiz-adv-x="593" 
d="M277 138h277v-138h-522v110l239 222q101 89 101 160q0 34 -22.5 54t-59.5 20q-79 0 -102 -92l-157 51q19 83 90 133t170 50q115 0 183 -56t68 -151q0 -67 -33.5 -124t-107.5 -123z" />
    <glyph glyph-name="three" unicode="3" horiz-adv-x="595" 
d="M363 418q87 -8 142.5 -66t55.5 -143q0 -96 -76.5 -159t-193.5 -63q-105 0 -179.5 44t-97.5 119l153 61q12 -39 43 -60.5t76 -21.5t73 25.5t28 66.5t-27.5 65.5t-70.5 24.5h-123v108l165 146h-279v130h467v-130z" />
    <glyph glyph-name="four" unicode="4" horiz-adv-x="617" 
d="M584 270v-130h-72v-140h-166v140h-328v122l330 432h164v-424h72zM348 270v211l-160 -211h160z" />
    <glyph glyph-name="five" unicode="5" horiz-adv-x="581" 
d="M279 450q123 0 196 -62t73 -168q0 -105 -73 -169t-200 -64q-204 0 -264 167l153 60q10 -42 40.5 -64t71.5 -22q46 0 74 26.5t28 67.5q0 43 -28 71t-77 28h-194l21 374h399v-130h-258l-7 -115h45z" />
    <glyph glyph-name="six" unicode="6" horiz-adv-x="599" 
d="M328 468q110 -6 178.5 -68.5t68.5 -165.5q0 -111 -77 -179t-194 -68t-195 68t-78 177q0 91 66 180l209 283h193zM304 129q43 0 72 29.5t29 73.5q0 45 -29 74t-72 29q-44 0 -73.5 -29t-29.5 -74q0 -44 29.5 -73.5t73.5 -29.5z" />
    <glyph glyph-name="seven" unicode="7" horiz-adv-x="521" 
d="M16 694h484v-125l-223 -569h-186l224 555h-299v139z" />
    <glyph glyph-name="eight" unicode="8" horiz-adv-x="600" 
d="M434 365q60 -22 95.5 -68.5t35.5 -106.5q0 -91 -74 -147t-190 -56q-117 0 -191 56t-74 147q0 61 33.5 107.5t92.5 68.5q-98 45 -98 155q0 82 62.5 134.5t174.5 52.5q111 0 173.5 -52.5t62.5 -134.5q0 -112 -103 -156zM301 573q-35 0 -57 -20t-22 -54t22 -55t57 -21
t56.5 21t21.5 55t-21.5 54t-56.5 20zM301 121q45 0 71.5 25t26.5 65q0 39 -27 64t-71 25t-71.5 -25t-27.5 -64q0 -40 27 -65t72 -25z" />
    <glyph glyph-name="nine" unicode="9" horiz-adv-x="598" 
d="M295 708q117 0 195 -68t78 -177q0 -91 -66 -180l-209 -283h-193l171 227q-110 6 -178.5 68.5t-68.5 165.5q0 111 77 179t194 68zM295 360q44 0 73.5 29t29.5 74q0 44 -29.5 73.5t-73.5 29.5q-43 0 -72 -29.5t-29 -73.5q0 -45 29 -74t72 -29z" />
    <glyph glyph-name="colon" unicode=":" horiz-adv-x="263" 
d="M131 288q-38 0 -64 26t-26 64q0 40 26 66t64 26q39 0 65 -26t26 -66q0 -38 -26 -64t-65 -26zM131 -10q-38 0 -64 26t-26 64q0 40 26 66t64 26q39 0 65 -26t26 -66q0 -38 -26 -64t-65 -26z" />
    <glyph glyph-name="semicolon" unicode=";" horiz-adv-x="264" 
d="M132 288q-39 0 -65 26t-26 64q0 40 26 66t65 26t65 -26t26 -66q0 -38 -26 -64t-65 -26zM132 173q38 0 64 -26t26 -67q0 -38 -26 -89l-60 -120h-91l64 128q-67 14 -67 84q0 39 26 64.5t64 25.5z" />
    <glyph glyph-name="less" unicode="&#x3c;" horiz-adv-x="441" 
d="M392 560v-149l-195 -91l195 -92v-149l-369 193v97z" />
    <glyph glyph-name="equal" unicode="=" horiz-adv-x="529" 
d="M53 360v140h423v-140h-423zM53 129v140h423v-140h-423z" />
    <glyph glyph-name="greater" unicode="&#x3e;" horiz-adv-x="441" 
d="M49 560l369 -191v-97l-369 -193v149l195 92l-195 91v149z" />
    <glyph glyph-name="question" unicode="?" horiz-adv-x="495" 
d="M148 252v36q0 38 15 70t36 53t42.5 39.5t36.5 39t15 42.5q0 49 -53 49q-25 0 -42.5 -16t-21.5 -43l-157 51q18 77 79 122.5t153 45.5q99 0 157 -50.5t58 -139.5q0 -45 -18 -81t-44 -58.5t-51.5 -42.5t-43.5 -43t-18 -50v-24h-143zM220 -10q-38 0 -64 26t-26 64
q0 40 26 66t64 26q39 0 65 -26.5t26 -64.5q0 -39 -26 -65t-65 -26z" />
    <glyph glyph-name="at" unicode="@" horiz-adv-x="806" 
d="M405 586q167 0 268 -95.5t101 -244.5q0 -78 -46.5 -133.5t-112.5 -55.5q-82 0 -116 62q-38 -64 -124 -64q-69 0 -115 50.5t-46 121.5q0 75 44 124.5t117 49.5q70 0 111 -51v36h95v-182q0 -42 32 -42q48 0 48 84q0 105 -67 171t-189 66q-119 0 -190.5 -73.5t-71.5 -177.5
q0 -109 65.5 -176.5t181.5 -67.5q98 0 140 45l66 -82q-77 -67 -206 -67q-164 0 -262.5 97.5t-98.5 250.5q0 149 104.5 251.5t271.5 102.5zM397 166q27 0 44 17.5t17 44.5t-17 44.5t-44 17.5q-28 0 -44.5 -18t-16.5 -44t16.5 -44t44.5 -18z" />
    <glyph glyph-name="A" unicode="A" horiz-adv-x="662" 
d="M497 0l-43 134h-246l-43 -134h-165l229 695h204l228 -695h-164zM251 270h159l-79 248z" />
    <glyph glyph-name="B" unicode="B" horiz-adv-x="633" 
d="M488 371q55 -25 85 -70t30 -103q0 -90 -60.5 -144t-169.5 -54h-314v695h327q88 0 140.5 -45.5t52.5 -123.5q0 -101 -91 -155zM412 492q0 32 -20 50.5t-58 18.5h-110v-139h109q36 0 57.5 19t21.5 51zM348 134q42 0 65 20.5t23 57.5t-24 57t-65 20h-123v-155h124z" />
    <glyph glyph-name="C" unicode="C" horiz-adv-x="734" 
d="M391 -13q-154 0 -257 102t-103 258q0 157 103.5 259t258.5 102q128 0 214.5 -67t114.5 -162l-160 -65q-35 136 -173 136q-84 0 -136 -56t-52 -147t52 -146.5t135 -55.5q139 0 174 136l160 -65q-29 -97 -116 -163t-215 -66z" />
    <glyph glyph-name="D" unicode="D" horiz-adv-x="725" 
d="M335 695q160 0 259 -94.5t99 -252.5q0 -159 -99 -253.5t-259 -94.5h-276v695h276zM330 148q89 0 141.5 52t52.5 146q0 96 -52.5 148.5t-141.5 52.5h-104v-399h104z" />
    <glyph glyph-name="E" unicode="E" horiz-adv-x="575" 
d="M226 145h314v-145h-481v695h476v-145h-309v-125h271v-145h-271v-135z" />
    <glyph glyph-name="F" unicode="F" horiz-adv-x="553" 
d="M530 550h-304v-133h266v-145h-266v-272h-167v695h471v-145z" />
    <glyph glyph-name="G" unicode="G" horiz-adv-x="776" 
d="M750 377q0 -184 -99.5 -287t-255.5 -103q-157 0 -260.5 102.5t-103.5 257.5q0 156 104 258.5t260 102.5q122 0 208.5 -61t119.5 -150l-160 -65q-18 55 -62.5 86.5t-108.5 31.5q-87 0 -139 -56.5t-52 -149.5q0 -95 55 -151t154 -56q134 0 174 114h-193v126h359z" />
    <glyph glyph-name="H" unicode="H" horiz-adv-x="692" 
d="M466 695h167v-695h-167v278h-240v-278h-167v695h167v-268h240v268z" />
    <glyph glyph-name="I" unicode="I" horiz-adv-x="285" 
d="M59 0v695h167v-695h-167z" />
    <glyph glyph-name="J" unicode="J" horiz-adv-x="352" 
d="M22 0v149h38q71 0 71 74v472h168v-474q0 -103 -58 -162t-167 -59h-52z" />
    <glyph glyph-name="K" unicode="K" horiz-adv-x="655" 
d="M661 0h-190l-245 317v-317h-167v695h167v-303l240 303h191l-267 -339z" />
    <glyph glyph-name="L" unicode="L" horiz-adv-x="547" 
d="M226 149h309v-149h-476v695h167v-546z" />
    <glyph glyph-name="M" unicode="M" horiz-adv-x="863" 
d="M825 0h-156l-34 448l-134 -426h-139l-134 428l-34 -450h-155l51 695h195l146 -464l147 464h194z" />
    <glyph glyph-name="N" unicode="N" horiz-adv-x="693" 
d="M467 695h167v-695h-138l-270 406v-406h-167v695h139l269 -409v409z" />
    <glyph glyph-name="O" unicode="O" horiz-adv-x="793" 
d="M397 -13q-155 0 -261 104t-106 256q0 153 106 257t261 104q154 0 259.5 -104t105.5 -257q0 -152 -105.5 -256t-259.5 -104zM397 145q88 0 141.5 56.5t53.5 146.5q0 89 -53 145.5t-142 56.5q-90 0 -143.5 -56.5t-53.5 -145.5q0 -90 54.5 -146.5t142.5 -56.5z" />
    <glyph glyph-name="P" unicode="P" horiz-adv-x="616" 
d="M351 695q114 0 180.5 -61t66.5 -163q0 -101 -67.5 -162t-179.5 -61h-125v-248h-167v695h292zM341 394q43 0 65 21t22 56t-22 56.5t-65 21.5h-115v-155h115z" />
    <glyph glyph-name="Q" unicode="Q" horiz-adv-x="793" 
d="M762 347q0 -88 -37.5 -162.5t-103.5 -124.5l129 -119l-115 -120l-181 170q-25 -4 -57 -4q-155 0 -261 104t-106 256q0 153 106 257t261 104q154 0 259.5 -104t105.5 -257zM200 348q0 -90 54.5 -146.5t142.5 -56.5t141.5 56.5t53.5 146.5q0 89 -53 145.5t-142 56.5
q-90 0 -143.5 -56.5t-53.5 -145.5z" />
    <glyph glyph-name="R" unicode="R" horiz-adv-x="633" 
d="M427 0l-184 277h-18v-277h-166v695h292q112 0 179.5 -58.5t67.5 -150.5q0 -76 -49 -131.5t-132 -71.5l196 -283h-186zM225 549v-154h121q42 0 65.5 20.5t23.5 56.5t-23.5 56.5t-65.5 20.5h-121z" />
    <glyph glyph-name="S" unicode="S" horiz-adv-x="597" 
d="M293 -13q-102 0 -174.5 48t-98.5 135l158 61q13 -48 47.5 -74t83.5 -26q87 0 87 61q0 34 -35.5 55t-86.5 35.5t-102 35t-86.5 66t-35.5 114.5q0 95 66.5 152.5t186.5 57.5q97 0 164.5 -45t86.5 -118l-157 -61q-22 82 -102 82q-38 0 -58 -15t-20 -40q0 -28 26 -47
t64.5 -29t83.5 -27.5t83.5 -39t64.5 -66t26 -106.5q0 -94 -73 -151.5t-199 -57.5z" />
    <glyph glyph-name="T" unicode="T" horiz-adv-x="595" 
d="M583 695v-149h-202v-546h-167v546h-202v149h571z" />
    <glyph glyph-name="U" unicode="U" horiz-adv-x="676" 
d="M457 695h167v-422q0 -124 -74 -205t-211 -81q-138 0 -212.5 81t-74.5 205v422h168v-421q0 -60 30.5 -94.5t88.5 -34.5t88 34.5t30 94.5v421z" />
    <glyph glyph-name="V" unicode="V" horiz-adv-x="671" 
d="M498 695h174l-233 -695h-206l-235 695h174l163 -497z" />
    <glyph glyph-name="W" unicode="W" horiz-adv-x="927" 
d="M758 695h165l-157 -695h-198l-104 461l-106 -461h-196l-158 695h165l94 -497l110 497h181l110 -499z" />
    <glyph glyph-name="X" unicode="X" horiz-adv-x="680" 
d="M686 0h-191l-160 230l-152 -230h-191l251 362l-233 334h192l146 -210l136 210h192l-234 -344z" />
    <glyph glyph-name="Y" unicode="Y" horiz-adv-x="660" 
d="M666 695l-252 -411v-284h-167v282l-252 413h187l149 -265l148 265h187z" />
    <glyph glyph-name="Z" unicode="Z" horiz-adv-x="592" 
d="M560 150l4 -150h-535v114l312 435h-305v146h523v-113l-317 -432h318z" />
    <glyph glyph-name="bracketleft" unicode="[" horiz-adv-x="335" 
d="M307 676h-93v-668h93v-137h-249v942h249v-137z" />
    <glyph glyph-name="backslash" unicode="\" horiz-adv-x="387" 
d="M220 -50l-196 761h144l197 -761h-145z" />
    <glyph glyph-name="bracketright" unicode="]" horiz-adv-x="335" 
d="M28 813h249v-942h-249v137h93v668h-93v137z" />
    <glyph glyph-name="asciicircum" unicode="^" horiz-adv-x="554" 
d="M529 351h-162l-90 157l-90 -157h-162l200 333h99z" />
    <glyph glyph-name="underscore" unicode="_" horiz-adv-x="581" 
d="M26 -155v135h529v-135h-529z" />
    <glyph glyph-name="grave" unicode="`" horiz-adv-x="344" 
d="M285 566l-255 146l75 121l247 -161z" />
    <glyph glyph-name="a" unicode="a" horiz-adv-x="642" 
d="M441 527h154v-527h-154v48q-58 -61 -152 -61q-114 0 -188.5 78.5t-74.5 197.5q0 118 74 192t189 74q95 0 152 -57v55zM313 134q55 0 88.5 36t33.5 93q0 58 -33.5 94t-88.5 36q-52 0 -86.5 -37t-34.5 -93t34 -92.5t87 -36.5z" />
    <glyph glyph-name="b" unicode="b" horiz-adv-x="642" 
d="M358 539q113 0 185.5 -78.5t72.5 -197.5t-74 -197.5t-188 -78.5q-92 0 -152 58v-45h-154v731h167v-241q58 49 143 49zM330 134q53 0 87 36.5t34 92.5t-34.5 93t-86.5 37q-55 0 -89 -36t-34 -94q0 -57 34 -93t89 -36z" />
    <glyph glyph-name="c" unicode="c" horiz-adv-x="576" 
d="M306 -13q-120 0 -200.5 79t-80.5 196t80 197t200 80q103 0 171.5 -54t86.5 -121l-148 -59q-10 39 -37.5 62.5t-68.5 23.5q-50 0 -83 -35t-33 -93t33 -93t83 -35q41 0 70 23.5t39 60.5l148 -59q-18 -65 -87.5 -119t-172.5 -54z" />
    <glyph glyph-name="d" unicode="d" horiz-adv-x="642" 
d="M428 731h167v-731h-154v45q-60 -58 -152 -58q-114 0 -188.5 78.5t-74.5 197.5t72.5 197.5t186.5 78.5q85 0 143 -49v241zM313 134q55 0 88.5 36t33.5 93q0 58 -33.5 94t-88.5 36q-52 0 -86.5 -37t-34.5 -93t34 -92.5t87 -36.5z" />
    <glyph glyph-name="e" unicode="e" horiz-adv-x="595" 
d="M186 214q13 -44 46 -67.5t81 -23.5q76 0 109 55l125 -83q-82 -108 -239 -108q-128 0 -206 78t-78 198q0 114 80 195.5t194 81.5q123 0 198.5 -81t75.5 -185q0 -32 -4 -60h-382zM184 318h233q-23 97 -115 97q-97 0 -118 -97z" />
    <glyph glyph-name="f" unicode="f" horiz-adv-x="381" 
d="M337 613q-37 0 -56.5 -19.5t-19.5 -55.5v-11h106v-142h-106v-385h-166v385h-77v142h77q2 102 62 159t173 57h38v-130h-31z" />
    <glyph glyph-name="g" unicode="g" horiz-adv-x="641" 
d="M440 527h154v-444q0 -124 -78 -199.5t-216 -75.5q-208 0 -268 153l141 55q30 -69 128 -69q65 0 102 32.5t37 87.5v15q-58 -60 -152 -60q-113 0 -187.5 74.5t-74.5 182.5t75 184t187 76q94 0 152 -60v48zM310 149q53 0 86.5 35t33.5 87t-33.5 87t-86.5 35q-51 0 -85 -35.5
t-34 -86.5t34 -86.5t85 -35.5z" />
    <glyph glyph-name="h" unicode="h" horiz-adv-x="605" 
d="M357 540q92 0 148.5 -57t56.5 -148v-335h-167v302q0 42 -25 66t-64 24q-38 0 -64.5 -24t-26.5 -60v-308h-167v731h167v-238q58 47 142 47z" />
    <glyph glyph-name="i" unicode="i" horiz-adv-x="263" 
d="M132 598q-45 0 -75 28.5t-30 73.5t30 74t75 29t75 -29t30 -74t-30 -73.5t-75 -28.5zM48 0v527h167v-527h-167z" />
    <glyph glyph-name="j" unicode="j" horiz-adv-x="266" 
d="M138 599q-45 0 -75 28.5t-30 73.5q0 44 30.5 73.5t74.5 29.5t74.5 -29.5t30.5 -73.5q0 -45 -30 -73.5t-75 -28.5zM-36 -185l-1 142h10q35 0 56.5 23t21.5 62v485h167v-482q0 -107 -63 -168.5t-160 -61.5h-31z" />
    <glyph glyph-name="k" unicode="k" horiz-adv-x="553" 
d="M563 0h-180l-168 232v-232h-167v731h167v-404l161 200h185l-196 -243z" />
    <glyph glyph-name="l" unicode="l" horiz-adv-x="263" 
d="M48 0v731h167v-731h-167z" />
    <glyph glyph-name="m" unicode="m" horiz-adv-x="916" 
d="M673 540q96 0 148 -60t52 -151v-328h-167v296q0 40 -20.5 67.5t-58.5 27.5q-40 0 -61.5 -25.5t-21.5 -57.5v-308h-167v296q0 40 -20.5 67.5t-58.5 27.5q-40 0 -61.5 -25t-21.5 -58v-308h-167v526h157v-43q56 56 146 56q110 0 154 -69q52 69 168 69z" />
    <glyph glyph-name="n" unicode="n" horiz-adv-x="605" 
d="M357 540q92 0 148.5 -57t56.5 -148v-335h-167v302q0 42 -25 66t-64 24q-38 0 -64.5 -24t-26.5 -60v-308h-167v527h157v-42q60 55 152 55z" />
    <glyph glyph-name="o" unicode="o" horiz-adv-x="627" 
d="M313 -13q-125 0 -206.5 79t-81.5 197q0 119 81.5 197.5t206.5 78.5q126 0 207.5 -78.5t81.5 -197.5t-81.5 -197.5t-207.5 -78.5zM314 135q54 0 87 36t33 93t-33 92t-87 35q-55 0 -88 -35.5t-33 -92.5q0 -56 33.5 -92t87.5 -36z" />
    <glyph glyph-name="p" unicode="p" horiz-adv-x="642" 
d="M358 539q114 0 186 -78t72 -198q0 -119 -74 -197.5t-188 -78.5q-82 0 -139 46v-212h-167v706h154v-48q62 60 156 60zM330 134q53 0 87 36.5t34 92.5t-34.5 93t-86.5 37q-55 0 -89 -36t-34 -94t34 -93.5t89 -35.5z" />
    <glyph glyph-name="q" unicode="q" horiz-adv-x="642" 
d="M441 527h154v-706h-167v212q-57 -46 -139 -46q-114 0 -188.5 78.5t-74.5 197.5t72.5 197.5t186.5 78.5q94 0 156 -60v48zM313 134q55 0 88.5 35.5t33.5 93.5t-33.5 94t-88.5 36q-53 0 -87 -37t-34 -93t34 -92.5t87 -36.5z" />
    <glyph glyph-name="r" unicode="r" horiz-adv-x="366" 
d="M205 482q60 58 146 58v-156q-136 0 -136 -102v-282h-167v527h157v-45z" />
    <glyph glyph-name="s" unicode="s" horiz-adv-x="500" 
d="M250 -13q-90 0 -151 36t-84 105l138 53q22 -69 103 -69q58 0 58 39q0 22 -28.5 37t-68.5 26.5t-80.5 27t-69 49.5t-28.5 84q0 76 58.5 120t158.5 44q81 0 136 -31t71 -86l-138 -54q-18 50 -72 50q-51 0 -51 -35q0 -20 28.5 -32.5t69 -22.5t80.5 -25.5t68.5 -51
t28.5 -89.5q0 -81 -61 -128t-166 -47z" />
    <glyph glyph-name="t" unicode="t" horiz-adv-x="413" 
d="M304 0q-100 0 -152.5 54.5t-52.5 148.5v182h-88v142h42q56 0 56 59v81h162v-140h120v-142h-126v-162q0 -78 74 -78h55v-145h-90z" />
    <glyph glyph-name="u" unicode="u" horiz-adv-x="597" 
d="M383 527h166v-527h-156v44q-60 -57 -147 -57q-98 0 -150.5 59t-52.5 152v329h167v-307q0 -38 23 -61.5t63 -23.5q39 0 63 23.5t24 61.5v307z" />
    <glyph glyph-name="v" unicode="v" horiz-adv-x="569" 
d="M397 527h172l-187 -527h-195l-187 527h172l112 -363z" />
    <glyph glyph-name="w" unicode="w" horiz-adv-x="825" 
d="M651 527h170l-134 -527h-196l-78 335l-75 -335h-198l-135 527h169l72 -358l74 358h186l75 -358z" />
    <glyph glyph-name="x" unicode="x" horiz-adv-x="570" 
d="M578 0h-184l-114 153l-116 -153h-177l204 273l-189 254h184l106 -143l106 143h177l-193 -263z" />
    <glyph glyph-name="y" unicode="y" horiz-adv-x="571" 
d="M400 527h171l-187 -527l-63 -179h-164l69 179h-56l-168 527h172l104 -396z" />
    <glyph glyph-name="z" unicode="z" horiz-adv-x="502" 
d="M236 134h240v-134h-449v117l235 276h-225v134h430v-122z" />
    <glyph glyph-name="braceleft" unicode="{" horiz-adv-x="359" 
d="M285 -129q-93 0 -142.5 53t-49.5 147v154q0 46 -48 46h-27v141h27q48 0 48 46v154q0 94 49.5 147t142.5 53h45v-137h-22q-59 0 -59 -64v-150q0 -44 -15.5 -71.5t-53.5 -48.5q38 -20 53.5 -47.5t15.5 -72.5v-149q0 -64 59 -64h22v-137h-45z" />
    <glyph glyph-name="bar" unicode="|" horiz-adv-x="238" 
d="M58 -96v817h122v-817h-122z" />
    <glyph glyph-name="braceright" unicode="}" horiz-adv-x="359" 
d="M29 -129v137h22q59 0 59 64v149q0 45 15.5 72.5t53.5 47.5q-38 21 -53.5 48.5t-15.5 71.5v150q0 64 -59 64h-22v137h45q93 0 142.5 -53t49.5 -147v-154q0 -46 48 -46h27v-141h-27q-48 0 -48 -46v-154q0 -94 -49.5 -147t-142.5 -53h-45z" />
    <glyph glyph-name="asciitilde" unicode="~" horiz-adv-x="523" 
d="M357 239q-44 0 -92 25.5t-76 25.5q-56 0 -79 -38l-79 90q51 83 136 83q44 0 92 -26t76 -26q55 0 80 39l78 -90q-51 -83 -136 -83z" />
    <glyph glyph-name="uni00A0" unicode="&#xa0;" horiz-adv-x="187" 
 />
    <glyph glyph-name="exclamdown" unicode="&#xa1;" horiz-adv-x="272" 
d="M136 350q-38 0 -64 26t-26 66q0 38 26 64t64 26q39 0 65 -26t26 -64q0 -40 -26 -66t-65 -26zM41 -179l28 449h132l30 -449h-190z" />
    <glyph glyph-name="cent" unicode="&#xa2;" horiz-adv-x="536" 
d="M510 242q-12 -44 -56 -87t-110 -60v-95h-134v95q-80 21 -129 85.5t-49 148.5q0 86 49 151t129 86v95h134v-95q66 -17 108.5 -60t55.5 -89l-143 -57q-17 68 -85 68q-39 0 -64.5 -26t-25.5 -72q0 -44 25.5 -70t64.5 -26q34 0 57 18t30 47z" />
    <glyph glyph-name="sterling" unicode="&#xa3;" horiz-adv-x="585" 
d="M269 254v-109h270v-145h-437v254h-70v145h70v53q0 95 65 159.5t166 64.5q96 0 153.5 -41.5t74.5 -110.5l-143 -56q-18 63 -76 63q-37 0 -55 -22.5t-18 -56.5v-53h173v-145h-173z" />
    <glyph glyph-name="currency" unicode="&#xa4;" horiz-adv-x="575" 
d="M517 331q0 -56 -27 -107l48 -49l-95 -94l-52 52q-46 -23 -103 -23t-105 23l-52 -52l-95 95l49 48q-28 50 -28 107t28 107l-49 49l95 95l52 -52q46 23 105 23q56 0 103 -22l52 51l95 -95l-49 -48q28 -50 28 -108zM288 244q37 0 60.5 24t23.5 63t-23.5 63.5t-60.5 24.5
q-39 0 -62.5 -24.5t-23.5 -63.5t24 -63t62 -24z" />
    <glyph glyph-name="yen" unicode="&#xa5;" horiz-adv-x="624" 
d="M605 660l-195 -349h101v-108h-116v-28h116v-106h-116v-69h-166v69h-117v106h117v28h-117v108h102l-195 349h179l114 -233l114 233h179z" />
    <glyph glyph-name="brokenbar" unicode="&#xa6;" horiz-adv-x="238" 
d="M58 393v328h122v-328h-122zM58 -96v329h122v-329h-122z" />
    <glyph glyph-name="section" unicode="&#xa7;" horiz-adv-x="533" 
d="M433 154q52 -42 52 -112q0 -87 -60 -135t-162 -48q-188 0 -232 133l135 52q22 -70 95 -70q30 0 48 14t18 38q0 27 -30 45t-72.5 31.5t-84.5 31t-72 54.5t-30 92q0 87 75 133q-55 42 -55 116q0 81 57.5 126t156.5 45q81 0 134.5 -30.5t70.5 -86.5l-135 -52q-18 51 -70 51
q-27 0 -41.5 -12t-14.5 -33q0 -27 29.5 -43.5t71 -28.5t83.5 -28.5t71.5 -53.5t29.5 -93q0 -87 -68 -136zM195 294q0 -28 24 -43.5t74 -32.5q50 12 50 58q0 27 -21.5 42.5t-65.5 30.5q-61 -6 -61 -55z" />
    <glyph glyph-name="dieresis" unicode="&#xa8;" horiz-adv-x="468" 
d="M129 602q-41 0 -70 28t-29 72t29 71t73 27q42 0 70 -28.5t28 -72.5q0 -42 -29 -69.5t-72 -27.5zM377 602q-42 0 -71 28t-29 72q0 43 29.5 70.5t72.5 27.5q42 0 70.5 -28.5t28.5 -72.5q0 -42 -29 -69.5t-72 -27.5z" />
    <glyph glyph-name="copyright" unicode="&#xa9;" horiz-adv-x="762" 
d="M382 -14q-156 0 -252.5 96t-96.5 247q0 149 97 247.5t252 98.5t251.5 -98.5t96.5 -247.5q0 -151 -96 -247t-252 -96zM382 89q106 0 173.5 66.5t67.5 173.5q0 103 -68.5 173t-172.5 70q-105 0 -173.5 -70t-68.5 -173q0 -107 67.5 -173.5t174.5 -66.5zM384 145
q-80 0 -134.5 53.5t-54.5 132.5t53.5 132.5t134.5 53.5q69 0 115.5 -36.5t58.5 -81.5l-113 -40q-12 43 -58 43q-28 0 -46 -19.5t-18 -51.5t18 -51.5t46 -19.5q47 0 59 43l114 -41q-12 -44 -59 -80.5t-116 -36.5z" />
    <glyph glyph-name="ordfeminine" unicode="&#xaa;" horiz-adv-x="397" 
d="M269 822h86v-297h-86v36q-37 -45 -102 -45q-62 0 -104.5 44.5t-42.5 112.5q0 70 42.5 113.5t104.5 43.5q66 0 102 -41v33zM188 621q25 0 39.5 15t14.5 38q0 22 -14.5 37t-39.5 15t-39 -14.5t-14 -37.5q0 -22 14.5 -37.5t38.5 -15.5z" />
    <glyph glyph-name="guillemotleft" unicode="&#xab;" horiz-adv-x="536" 
d="M139 69l-117 173l117 172h154l-117 -172l117 -173h-154zM344 69l-117 173l117 172h154l-117 -172l117 -173h-154z" />
    <glyph glyph-name="logicalnot" unicode="&#xac;" horiz-adv-x="518" 
d="M42 402h421v-279h-155v139h-266v140z" />
    <glyph glyph-name="registered" unicode="&#xae;" horiz-adv-x="523" 
d="M263 724q95 0 160 -65.5t65 -161.5q0 -95 -65.5 -160t-159.5 -65q-98 0 -163 64.5t-65 160.5t65 161.5t163 65.5zM263 336q68 0 113.5 45t45.5 116q0 69 -45.5 115t-113.5 46q-69 0 -115.5 -45.5t-46.5 -115.5q0 -71 46 -116t116 -45zM351 542q0 -43 -38 -60l48 -89h-65
l-42 82h-9v-82h-60v217h92q32 0 53 -18.5t21 -49.5zM291 542q0 21 -25 21h-21v-42h21q25 0 25 21z" />
    <glyph glyph-name="macron" unicode="&#xaf;" horiz-adv-x="365" 
d="M30 636v131h345v-131h-345z" />
    <glyph glyph-name="degree" unicode="&#xb0;" horiz-adv-x="400" 
d="M199 359q-76 0 -125.5 48t-49.5 122q0 73 50 121.5t126 48.5t125.5 -48t49.5 -121q0 -76 -49.5 -123.5t-126.5 -47.5zM199 457q31 0 51 20t20 52q0 31 -20.5 51.5t-50.5 20.5q-29 0 -49.5 -21t-20.5 -51q0 -31 20 -51.5t50 -20.5z" />
    <glyph glyph-name="plusminus" unicode="&#xb1;" horiz-adv-x="518" 
d="M332 493h140v-140h-140v-142h-146v142h-140v140h140v148h146v-148zM46 20v140h426v-140h-426z" />
    <glyph glyph-name="uni00B2" unicode="&#xb2;" horiz-adv-x="348" 
d="M193 433h115v-86h-268v69l110 100q46 42 46 70q0 11 -7.5 19t-19.5 8q-30 0 -37 -40l-98 32q8 43 45.5 69.5t92.5 26.5q62 0 96 -28.5t34 -79.5q0 -34 -15.5 -62t-55.5 -63z" />
    <glyph glyph-name="uni00B3" unicode="&#xb3;" horiz-adv-x="325" 
d="M213 557q37 -8 60.5 -36.5t23.5 -67.5q0 -48 -39.5 -80.5t-98.5 -32.5q-53 0 -89.5 21.5t-47.5 57.5l95 38q9 -28 40 -28q15 0 24.5 9.5t9.5 22.5q0 14 -9.5 22.5t-25.5 8.5h-62v68l67 53h-120v82h234v-82z" />
    <glyph glyph-name="acute" unicode="&#xb4;" horiz-adv-x="354" 
d="M97 566l-67 106l247 161l75 -121z" />
    <glyph glyph-name="paragraph" unicode="&#xb6;" horiz-adv-x="657" 
d="M589 695v-795h-86v657h-39v-657h-86v657h-39v-309h-70q-112 0 -179.5 61t-67.5 162q0 102 66.5 163t180.5 61h320z" />
    <glyph glyph-name="periodcentered" unicode="&#xb7;" horiz-adv-x="248" 
d="M124 248q-39 0 -65 26t-26 64q0 40 26 66t65 26q38 0 64.5 -26t26.5 -66q0 -38 -26.5 -64t-64.5 -26z" />
    <glyph glyph-name="cedilla" unicode="&#xb8;" horiz-adv-x="279" 
d="M157 -242q-84 0 -127 47l54 68q18 -25 50 -25q19 0 30 9t11 24q0 16 -11.5 26t-31.5 10h-15l-8 7l33 94h98l-21 -58q32 -5 53 -31t21 -63q0 -49 -37.5 -78.5t-98.5 -29.5z" />
    <glyph glyph-name="uni00B9" unicode="&#xb9;" horiz-adv-x="297" 
d="M220 440h46v-93h-224v93h67v110h-66v92h66v53h111v-255z" />
    <glyph glyph-name="ordmasculine" unicode="&#xba;" horiz-adv-x="368" 
d="M183 515q-71 0 -117 45.5t-46 113.5t46 113.5t117 45.5q73 0 119.5 -45.5t46.5 -113.5t-46.5 -113.5t-119.5 -45.5zM184 620q51 0 51 54t-51 54q-52 0 -52 -54t52 -54z" />
    <glyph glyph-name="guillemotright" unicode="&#xbb;" horiz-adv-x="536" 
d="M38 69l117 173l-117 172h154l117 -172l-117 -173h-154zM243 69l117 173l-117 172h154l117 -172l-117 -173h-154z" />
    <glyph glyph-name="onequarter" unicode="&#xbc;" horiz-adv-x="689" 
d="M255 347h-224v93h66v110h-65v92h65v53h112v-255h46v-93zM467 695h121l-335 -695h-119zM663 136v-73h-30v-63h-104v63h-149v77l150 208h103v-212h30zM530 136v97l-70 -97h70z" />
    <glyph glyph-name="onehalf" unicode="&#xbd;" horiz-adv-x="726" 
d="M255 347h-224v93h66v110h-65v92h65v53h112v-255h46v-93zM466 695h121l-335 -695h-119zM586 86h114v-86h-268v69l110 100q46 42 46 70q0 11 -7.5 19t-19.5 8q-30 0 -36 -40l-99 32q8 43 45.5 69.5t93.5 26.5q61 0 95 -28.5t34 -79.5q0 -34 -15.5 -62t-54.5 -63z" />
    <glyph glyph-name="threequarters" unicode="&#xbe;" horiz-adv-x="712" 
d="M296 453q0 -48 -39 -80.5t-99 -32.5q-53 0 -89.5 21.5t-47.5 57.5l95 38q11 -28 40 -28q15 0 24.5 9.5t9.5 22.5q0 31 -35 31h-62v68l67 53h-120v82h234v-82l-62 -56q37 -8 60.5 -36.5t23.5 -67.5zM488 695h121l-334 -695h-120zM680 136v-73h-29v-63h-104v63h-149v77
l149 208h104v-212h29zM547 136v97l-69 -97h69z" />
    <glyph glyph-name="questiondown" unicode="&#xbf;" horiz-adv-x="492" 
d="M273 349q-39 0 -65 26t-26 65t26 65t65 26q38 0 64 -25.5t26 -63.5q0 -40 -26 -66.5t-64 -26.5zM242 -189q-100 0 -157.5 47.5t-57.5 129.5q0 46 18 82.5t43.5 58.5t51.5 41t44 40.5t18 45.5v14h142v-26q0 -44 -22.5 -78.5t-49.5 -52.5t-49.5 -42.5t-22.5 -49.5
q0 -50 53 -50q25 0 42.5 16t21.5 43l156 -51q-18 -77 -78.5 -122.5t-152.5 -45.5z" />
    <glyph glyph-name="Agrave" unicode="&#xc0;" horiz-adv-x="662" 
d="M504 863l-37 -120l-309 88l41 136zM497 0l-43 134h-246l-43 -134h-165l229 695h204l228 -695h-164zM251 270h159l-79 248z" />
    <glyph glyph-name="Aacute" unicode="&#xc1;" horiz-adv-x="662" 
d="M514 831l-309 -88l-37 120l305 104zM497 0l-43 134h-246l-43 -134h-165l229 695h204l228 -695h-164zM251 270h159l-79 248z" />
    <glyph glyph-name="Acircumflex" unicode="&#xc2;" horiz-adv-x="662" 
d="M330 839l-68 -82h-148l151 192h136l146 -192h-147zM497 0l-43 134h-246l-43 -134h-165l229 695h204l228 -695h-164zM251 270h159l-79 248z" />
    <glyph glyph-name="Atilde" unicode="&#xc3;" horiz-adv-x="662" 
d="M281 802q-37 0 -48 -41l-113 48q12 52 49 91t96 39q37 0 76.5 -24t57.5 -24q36 0 47 41l114 -48q-15 -55 -51.5 -92.5t-93.5 -37.5q-37 0 -76 24t-58 24zM497 0l-43 134h-246l-43 -134h-165l229 695h204l228 -695h-164zM251 270h159l-79 248z" />
    <glyph glyph-name="Adieresis" unicode="&#xc4;" horiz-adv-x="662" 
d="M201 751q-43 0 -73 29t-30 75q0 44 30.5 72.5t75.5 28.5q43 0 72.5 -29.5t29.5 -74.5q0 -44 -30 -72.5t-75 -28.5zM458 751q-44 0 -74 29t-30 75q0 44 30.5 72.5t75.5 28.5q43 0 73 -29.5t30 -74.5q0 -44 -30 -72.5t-75 -28.5zM497 0l-43 134h-246l-43 -134h-165l229 695
h204l228 -695h-164zM251 270h159l-79 248z" />
    <glyph glyph-name="Aring" unicode="&#xc5;" horiz-adv-x="662" 
d="M497 0l-43 134h-246l-43 -134h-165l229 695h50q-42 14 -66 47.5t-24 79.5q0 58 40 96t102 38t101.5 -38t39.5 -96q0 -46 -24 -79.5t-65 -47.5h50l228 -695h-164zM331 864q-20 0 -32.5 -12t-12.5 -30q0 -20 12.5 -32t32.5 -12t32.5 12.5t12.5 31.5q0 18 -13 30t-32 12z
M251 270h159l-79 248z" />
    <glyph glyph-name="AE" unicode="&#xc6;" horiz-adv-x="955" 
d="M606 145h314v-145h-481v128h-224l-58 -128h-174l315 695h617v-145h-309v-125h271v-145h-271v-135zM279 270h160v280h-33z" />
    <glyph glyph-name="Ccedilla" unicode="&#xc7;" horiz-adv-x="735" 
d="M388 145q139 0 174 136l160 -65q-26 -86 -98 -149t-179 -77l-12 -30q32 -5 53 -31t21 -63q0 -49 -37.5 -78.5t-98.5 -29.5q-84 0 -127 47l54 68q18 -25 51 -25q18 0 29 9t11 24q0 16 -11 26t-31 10h-16l-8 7l23 66q-138 15 -226.5 114t-88.5 243q0 157 103.5 259
t258.5 102q128 0 214.5 -67t114.5 -162l-160 -65q-35 136 -173 136q-84 0 -136 -56t-52 -147t52 -146.5t135 -55.5z" />
    <glyph glyph-name="Egrave" unicode="&#xc8;" horiz-adv-x="575" 
d="M470 863l-37 -120l-309 88l41 136zM226 145h314v-145h-481v695h476v-145h-309v-125h271v-145h-271v-135z" />
    <glyph glyph-name="Eacute" unicode="&#xc9;" horiz-adv-x="575" 
d="M480 831l-309 -88l-37 120l305 104zM226 145h314v-145h-481v695h476v-145h-309v-125h271v-145h-271v-135z" />
    <glyph glyph-name="Ecircumflex" unicode="&#xca;" horiz-adv-x="575" 
d="M296 839l-68 -82h-148l151 192h135l147 -192h-147zM226 145h314v-145h-481v695h476v-145h-309v-125h271v-145h-271v-135z" />
    <glyph glyph-name="Edieresis" unicode="&#xcb;" horiz-adv-x="575" 
d="M167 751q-43 0 -73 29t-30 75q0 44 30.5 72.5t75.5 28.5q43 0 72.5 -29.5t29.5 -74.5q0 -44 -30 -72.5t-75 -28.5zM423 751q-43 0 -73 29t-30 75q0 44 30.5 72.5t75.5 28.5q43 0 72.5 -29.5t29.5 -74.5q0 -44 -30 -72.5t-75 -28.5zM226 145h314v-145h-481v695h476v-145
h-309v-125h271v-145h-271v-135z" />
    <glyph glyph-name="Igrave" unicode="&#xcc;" horiz-adv-x="285" 
d="M279 743l-309 88l41 136l305 -104zM59 0v695h167v-695h-167z" />
    <glyph glyph-name="Iacute" unicode="&#xcd;" horiz-adv-x="285" 
d="M17 743l-37 120l305 104l41 -136zM59 0v695h167v-695h-167z" />
    <glyph glyph-name="Icircumflex" unicode="&#xce;" horiz-adv-x="285" 
d="M142 839l-68 -82h-148l152 192h135l146 -192h-147zM59 0v695h167v-695h-167z" />
    <glyph glyph-name="Idieresis" unicode="&#xcf;" horiz-adv-x="285" 
d="M13 751q-43 0 -72.5 29t-29.5 75q0 44 30 72.5t75 28.5q44 0 73 -29.5t29 -74.5q0 -44 -30 -72.5t-75 -28.5zM270 751q-44 0 -74 29t-30 75q0 44 30.5 72.5t75.5 28.5q44 0 73.5 -29.5t29.5 -74.5q0 -44 -30 -72.5t-75 -28.5zM59 0v695h167v-695h-167z" />
    <glyph glyph-name="Eth" unicode="&#xd0;" horiz-adv-x="738" 
d="M348 695q160 0 259 -94.5t99 -252.5q0 -159 -99 -253.5t-259 -94.5h-276v295h-56v115h56v285h276zM342 148q89 0 141.5 52t52.5 146q0 96 -52.5 148.5t-141.5 52.5h-103v-137h148v-115h-148v-147h103z" />
    <glyph glyph-name="Ntilde" unicode="&#xd1;" horiz-adv-x="693" 
d="M282 802q-37 0 -48 -41l-113 48q12 52 49 91t96 39q37 0 77 -24t58 -24q35 0 46 41l114 -48q-15 -55 -51 -92.5t-94 -37.5q-38 0 -76 24t-58 24zM467 695h167v-695h-138l-270 406v-406h-167v695h139l269 -409v409z" />
    <glyph glyph-name="Ograve" unicode="&#xd2;" horiz-adv-x="793" 
d="M533 743l-309 88l41 136l305 -104zM397 -13q-155 0 -261 104t-106 256q0 153 106 257t261 104q154 0 259.5 -104t105.5 -257q0 -152 -105.5 -256t-259.5 -104zM397 145q88 0 141.5 56.5t53.5 146.5q0 89 -53 145.5t-142 56.5q-90 0 -143.5 -56.5t-53.5 -145.5
q0 -90 54.5 -146.5t142.5 -56.5z" />
    <glyph glyph-name="Oacute" unicode="&#xd3;" horiz-adv-x="793" 
d="M270 743l-36 120l305 104l41 -136zM397 -13q-155 0 -261 104t-106 256q0 153 106 257t261 104q154 0 259.5 -104t105.5 -257q0 -152 -105.5 -256t-259.5 -104zM397 145q88 0 141.5 56.5t53.5 146.5q0 89 -53 145.5t-142 56.5q-90 0 -143.5 -56.5t-53.5 -145.5
q0 -90 54.5 -146.5t142.5 -56.5z" />
    <glyph glyph-name="Ocircumflex" unicode="&#xd4;" horiz-adv-x="793" 
d="M396 839l-68 -82h-148l151 192h135l147 -192h-147zM397 708q154 0 259.5 -104t105.5 -257q0 -152 -105.5 -256t-259.5 -104q-155 0 -261 104t-106 256q0 153 106 257t261 104zM397 145q88 0 141.5 56.5t53.5 146.5q0 89 -53 145.5t-142 56.5q-90 0 -143.5 -56.5
t-53.5 -145.5q0 -90 54.5 -146.5t142.5 -56.5z" />
    <glyph glyph-name="Otilde" unicode="&#xd5;" horiz-adv-x="793" 
d="M481 754q-37 0 -76 24t-58 24q-39 0 -48 -41l-114 48q13 52 50 91t95 39q38 0 77.5 -24t57.5 -24q35 0 47 41l113 -48q-15 -55 -51 -92.5t-93 -37.5zM397 -13q-155 0 -261 104t-106 256q0 153 106 257t261 104q154 0 259.5 -104t105.5 -257q0 -152 -105.5 -256
t-259.5 -104zM397 145q88 0 141.5 56.5t53.5 146.5q0 89 -53 145.5t-142 56.5q-90 0 -143.5 -56.5t-53.5 -145.5q0 -90 54.5 -146.5t142.5 -56.5z" />
    <glyph glyph-name="Odieresis" unicode="&#xd6;" horiz-adv-x="793" 
d="M267 751q-43 0 -73 29t-30 75q0 44 30.5 72.5t75.5 28.5q43 0 72.5 -29.5t29.5 -74.5q0 -44 -30 -72.5t-75 -28.5zM523 751q-43 0 -73 29t-30 75q0 44 30.5 72.5t75.5 28.5q43 0 72.5 -29.5t29.5 -74.5q0 -44 -30 -72.5t-75 -28.5zM397 -13q-155 0 -261 104t-106 256
q0 153 106 257t261 104q154 0 259.5 -104t105.5 -257q0 -152 -105.5 -256t-259.5 -104zM397 145q88 0 141.5 56.5t53.5 146.5q0 89 -53 145.5t-142 56.5q-90 0 -143.5 -56.5t-53.5 -145.5q0 -90 54.5 -146.5t142.5 -56.5z" />
    <glyph glyph-name="multiply" unicode="&#xd7;" horiz-adv-x="511" 
d="M478 452l-119 -118l119 -119l-103 -103l-119 119l-120 -119l-103 102l119 120l-119 119l103 103l119 -119l119 119z" />
    <glyph glyph-name="Oslash" unicode="&#xd8;" horiz-adv-x="796" 
d="M766 633l-70 -73q68 -93 68 -213q0 -152 -106 -256t-260 -104q-107 0 -200 56l-71 -74l-97 91l71 74q-69 93 -69 213q0 153 106 257t260 104q110 0 200 -57l72 75zM202 348q0 -50 18 -91l264 276q-39 17 -86 17q-89 0 -142.5 -56.5t-53.5 -145.5zM594 348q0 47 -17 89
l-264 -275q39 -17 85 -17q88 0 142 56.5t54 146.5z" />
    <glyph glyph-name="Ugrave" unicode="&#xd9;" horiz-adv-x="676" 
d="M512 863l-37 -120l-309 88l41 136zM457 695h167v-422q0 -124 -74 -205t-211 -81q-138 0 -212.5 81t-74.5 205v422h168v-421q0 -60 30.5 -94.5t88.5 -34.5t88 34.5t30 94.5v421z" />
    <glyph glyph-name="Uacute" unicode="&#xda;" horiz-adv-x="676" 
d="M522 831l-310 -88l-36 120l305 104zM457 695h167v-422q0 -124 -74 -205t-211 -81q-138 0 -212.5 81t-74.5 205v422h168v-421q0 -60 30.5 -94.5t88.5 -34.5t88 34.5t30 94.5v421z" />
    <glyph glyph-name="Ucircumflex" unicode="&#xdb;" horiz-adv-x="676" 
d="M338 839l-68 -82h-148l151 192h135l147 -192h-147zM457 695h167v-422q0 -124 -74 -205t-211 -81q-138 0 -212.5 81t-74.5 205v422h168v-421q0 -60 30.5 -94.5t88.5 -34.5t88 34.5t30 94.5v421z" />
    <glyph glyph-name="Udieresis" unicode="&#xdc;" horiz-adv-x="676" 
d="M209 751q-43 0 -73 29t-30 75q0 44 30.5 72.5t75.5 28.5q43 0 72.5 -29.5t29.5 -74.5q0 -44 -30 -72.5t-75 -28.5zM465 751q-43 0 -73 29t-30 75q0 44 30.5 72.5t75.5 28.5q43 0 72.5 -29.5t29.5 -74.5q0 -44 -30 -72.5t-75 -28.5zM457 695h167v-422q0 -124 -74 -205
t-211 -81q-138 0 -212.5 81t-74.5 205v422h168v-421q0 -60 30.5 -94.5t88.5 -34.5t88 34.5t30 94.5v421z" />
    <glyph glyph-name="Yacute" unicode="&#xdd;" horiz-adv-x="660" 
d="M515 831l-310 -88l-36 120l305 104zM666 695l-252 -411v-284h-167v282l-252 413h187l149 -265l148 265h187z" />
    <glyph glyph-name="Thorn" unicode="&#xde;" horiz-adv-x="626" 
d="M351 575q114 0 180.5 -61t66.5 -163q0 -101 -67.5 -162.5t-179.5 -61.5h-125v-127h-167v695h167v-120h125zM341 273q43 0 65 21.5t22 56.5t-22 56.5t-65 21.5h-115v-156h115z" />
    <glyph glyph-name="germandbls" unicode="&#xdf;" horiz-adv-x="632" 
d="M491 386q50 -23 82.5 -75t32.5 -116q0 -99 -64.5 -153.5t-169.5 -54.5q-88 0 -138 55l29 127q33 -44 84 -44q41 0 65.5 24t24.5 66q0 44 -29.5 70.5t-85.5 26.5v128q42 0 65.5 23.5t23.5 59.5q0 37 -25.5 59.5t-65.5 22.5q-51 0 -78 -30.5t-27 -88.5v-486h-167v476
q0 126 74.5 196.5t208.5 70.5q114 0 181.5 -56.5t67.5 -144.5q0 -50 -24.5 -92.5t-64.5 -63.5z" />
    <glyph glyph-name="agrave" unicode="&#xe0;" horiz-adv-x="642" 
d="M481 672l-67 -106l-255 146l75 121zM441 527h154v-527h-154v48q-58 -61 -152 -61q-114 0 -188.5 78.5t-74.5 197.5q0 118 74 192t189 74q95 0 152 -57v55zM313 134q55 0 88.5 36t33.5 93q0 58 -33.5 94t-88.5 36q-52 0 -86.5 -37t-34.5 -93t34 -92.5t87 -36.5z" />
    <glyph glyph-name="aacute" unicode="&#xe1;" horiz-adv-x="642" 
d="M487 712l-255 -146l-67 106l248 161zM441 527h154v-527h-154v48q-58 -61 -152 -61q-114 0 -188.5 78.5t-74.5 197.5q0 118 74 192t189 74q95 0 152 -57v55zM313 134q55 0 88.5 36t33.5 93q0 58 -33.5 94t-88.5 36q-52 0 -86.5 -37t-34.5 -93t34 -92.5t87 -36.5z" />
    <glyph glyph-name="acircumflex" unicode="&#xe2;" horiz-adv-x="642" 
d="M328 697l-65 -98h-144l140 204h143l136 -204h-143zM441 527h154v-527h-154v48q-58 -61 -152 -61q-114 0 -188.5 78.5t-74.5 197.5q0 118 74 192t189 74q95 0 152 -57v55zM313 134q55 0 88.5 36t33.5 93q0 58 -33.5 94t-88.5 36q-52 0 -86.5 -37t-34.5 -93t34 -92.5
t87 -36.5z" />
    <glyph glyph-name="atilde" unicode="&#xe3;" horiz-adv-x="642" 
d="M277 657q-37 0 -46 -41l-113 48q13 55 45 92.5t87 37.5q34 0 72.5 -24t58.5 -24q33 0 44 41l113 -48q-35 -130 -131 -130q-35 0 -73.5 24t-56.5 24zM441 527h154v-527h-154v48q-58 -61 -152 -61q-114 0 -188.5 78.5t-74.5 197.5q0 118 74 192t189 74q95 0 152 -57v55z
M313 134q55 0 88.5 36t33.5 93q0 58 -33.5 94t-88.5 36q-52 0 -86.5 -37t-34.5 -93t34 -92.5t87 -36.5z" />
    <glyph glyph-name="adieresis" unicode="&#xe4;" horiz-adv-x="642" 
d="M203 602q-41 0 -70 28t-29 72t29 71t73 27q42 0 70.5 -28.5t28.5 -72.5q0 -42 -29.5 -69.5t-72.5 -27.5zM451 602q-42 0 -71 28t-29 72q0 43 29.5 70.5t72.5 27.5q42 0 71 -28.5t29 -72.5q0 -42 -29.5 -69.5t-72.5 -27.5zM441 527h154v-527h-154v48q-58 -61 -152 -61
q-114 0 -188.5 78.5t-74.5 197.5q0 118 74 192t189 74q95 0 152 -57v55zM313 134q55 0 88.5 36t33.5 93q0 58 -33.5 94t-88.5 36q-52 0 -86.5 -37t-34.5 -93t34 -92.5t87 -36.5z" />
    <glyph glyph-name="aring" unicode="&#xe5;" horiz-adv-x="642" 
d="M329 565q-62 0 -102 37.5t-40 97.5q0 58 40 96t102 38t101.5 -38t39.5 -96q0 -60 -39.5 -97.5t-101.5 -37.5zM329 742q-20 0 -33 -12t-13 -30q0 -19 13 -31.5t33 -12.5q19 0 31.5 12t12.5 32q0 18 -12.5 30t-31.5 12zM441 527h154v-527h-154v48q-58 -61 -152 -61
q-114 0 -188.5 78.5t-74.5 197.5q0 118 74 192t189 74q95 0 152 -57v55zM313 134q55 0 88.5 36t33.5 93q0 58 -33.5 94t-88.5 36q-52 0 -86.5 -37t-34.5 -93t34 -92.5t87 -36.5z" />
    <glyph glyph-name="ae" unicode="&#xe6;" horiz-adv-x="1034" 
d="M623 216q12 -47 44 -72t78 -25q83 0 119 60l136 -58q-68 -134 -223 -134q-122 0 -182 68v-55h-154v48q-58 -61 -152 -61q-114 0 -188.5 78.5t-74.5 197.5t74.5 197.5t188.5 78.5q94 0 152 -61v49h154v-59q58 71 165 71q116 0 182 -79.5t66 -185.5q0 -37 -3 -58h-382z
M621 313h237q-9 49 -39.5 77t-78.5 28q-100 0 -119 -105zM313 134q55 0 88.5 36t33.5 93q0 58 -33.5 94t-88.5 36q-52 0 -86.5 -37t-34.5 -93t34 -92.5t87 -36.5z" />
    <glyph glyph-name="ccedilla" unicode="&#xe7;" horiz-adv-x="576" 
d="M566 160q-15 -54 -68 -103t-131 -64l-12 -33q31 -5 52.5 -31t21.5 -63q0 -48 -38 -78t-98 -30q-84 0 -127 47l54 68q18 -25 50 -25q18 0 29 9t11 24q0 16 -11 26t-31 10h-16l-8 7l23 65q-106 14 -174 90t-68 183q0 117 80 197t200 80q103 0 171.5 -54t86.5 -121l-148 -59
q-10 39 -37.5 62.5t-68.5 23.5q-50 0 -83 -35t-33 -93t33 -93t83 -35q41 0 70 23.5t39 60.5z" />
    <glyph glyph-name="egrave" unicode="&#xe8;" horiz-adv-x="594" 
d="M453 671l-67 -106l-255 146l74 121zM186 214q13 -44 46 -67.5t81 -23.5q76 0 109 55l125 -83q-82 -108 -239 -108q-128 0 -206 78t-78 198q0 114 80 195.5t194 81.5q123 0 198.5 -81t75.5 -185q0 -32 -4 -60h-382zM184 318h233q-23 97 -115 97q-97 0 -118 -97z" />
    <glyph glyph-name="eacute" unicode="&#xe9;" horiz-adv-x="594" 
d="M459 711l-255 -146l-67 106l247 161zM186 214q13 -44 46 -67.5t81 -23.5q76 0 109 55l125 -83q-82 -108 -239 -108q-128 0 -206 78t-78 198q0 114 80 195.5t194 81.5q123 0 198.5 -81t75.5 -185q0 -32 -4 -60h-382zM184 318h233q-23 97 -115 97q-97 0 -118 -97z" />
    <glyph glyph-name="ecircumflex" unicode="&#xea;" horiz-adv-x="594" 
d="M300 697l-66 -99h-144l141 204h143l136 -204h-143zM186 214q13 -44 46 -67.5t81 -23.5q76 0 109 55l125 -83q-82 -108 -239 -108q-128 0 -206 78t-78 198q0 114 80 195.5t194 81.5q123 0 198.5 -81t75.5 -185q0 -32 -4 -60h-382zM184 318h233q-23 97 -115 97
q-97 0 -118 -97z" />
    <glyph glyph-name="edieresis" unicode="&#xeb;" horiz-adv-x="594" 
d="M175 601q-41 0 -70 28t-29 72t29 71t73 27q42 0 70 -28.5t28 -72.5q0 -42 -29 -69.5t-72 -27.5zM423 601q-42 0 -71 28t-29 72t29 71t73 27q42 0 70.5 -28.5t28.5 -72.5q0 -42 -29 -69.5t-72 -27.5zM186 214q13 -44 46 -67.5t81 -23.5q76 0 109 55l125 -83
q-82 -108 -239 -108q-128 0 -206 78t-78 198q0 114 80 195.5t194 81.5q123 0 198.5 -81t75.5 -185q0 -32 -4 -60h-382zM184 318h233q-23 97 -115 97q-97 0 -118 -97z" />
    <glyph glyph-name="igrave" unicode="&#xec;" horiz-adv-x="263" 
d="M217 565l-255 146l75 122l247 -162zM48 0v527h167v-527h-167z" />
    <glyph glyph-name="iacute" unicode="&#xed;" horiz-adv-x="263" 
d="M35 565l-66 106l247 162l75 -122zM48 0v527h167v-527h-167z" />
    <glyph glyph-name="icircumflex" unicode="&#xee;" horiz-adv-x="263" 
d="M131 696l-65 -98h-144l140 205h143l136 -205h-143zM48 0v527h167v-527h-167z" />
    <glyph glyph-name="idieresis" unicode="&#xef;" horiz-adv-x="263" 
d="M6 601q-41 0 -70 28t-29 73q0 43 29.5 70t73.5 27q42 0 70 -28.5t28 -72.5q0 -42 -29.5 -69.5t-72.5 -27.5zM254 601q-42 0 -71 28t-29 73q0 43 29.5 70t73.5 27q42 0 70.5 -28.5t28.5 -72.5q0 -42 -29.5 -69.5t-72.5 -27.5zM48 0v527h167v-527h-167z" />
    <glyph glyph-name="eth" unicode="&#xf0;" horiz-adv-x="631" 
d="M365 726q110 -70 173.5 -184t63.5 -242q0 -149 -79.5 -231t-209.5 -82q-125 0 -206.5 78t-81.5 192q0 115 80.5 192.5t201.5 77.5q43 0 80 -14q-47 63 -130 105l-93 -93l-81 82l53 53q-65 13 -125 13l64 134q96 0 180 -29l70 70l81 -81zM314 135q54 0 87 34.5t33 89.5
q0 51 -33 85.5t-87 34.5t-87.5 -34.5t-33.5 -87.5q0 -52 33.5 -87t87.5 -35z" />
    <glyph glyph-name="ntilde" unicode="&#xf1;" horiz-adv-x="605" 
d="M260 656q-35 0 -46 -41l-113 48q13 54 45.5 92t86.5 38q34 0 72.5 -24t58.5 -24q35 0 44 41l114 -48q-35 -130 -131 -130q-35 0 -74 24t-57 24zM357 540q92 0 148.5 -57t56.5 -148v-335h-167v302q0 42 -25 66t-64 24q-38 0 -64.5 -24t-26.5 -60v-308h-167v527h157v-42
q60 55 152 55z" />
    <glyph glyph-name="ograve" unicode="&#xf2;" horiz-adv-x="627" 
d="M402 565l-255 146l75 121l247 -161zM313 -13q-125 0 -206.5 79t-81.5 197q0 119 81.5 197.5t206.5 78.5q126 0 207.5 -78.5t81.5 -197.5t-81.5 -197.5t-207.5 -78.5zM314 135q54 0 87 36t33 93t-33 92t-87 35q-55 0 -88 -35.5t-33 -92.5q0 -56 33.5 -92t87.5 -36z" />
    <glyph glyph-name="oacute" unicode="&#xf3;" horiz-adv-x="627" 
d="M220 565l-67 106l248 161l74 -121zM313 -13q-125 0 -206.5 79t-81.5 197q0 119 81.5 197.5t206.5 78.5q126 0 207.5 -78.5t81.5 -197.5t-81.5 -197.5t-207.5 -78.5zM314 135q54 0 87 36t33 93t-33 92t-87 35q-55 0 -88 -35.5t-33 -92.5q0 -56 33.5 -92t87.5 -36z" />
    <glyph glyph-name="ocircumflex" unicode="&#xf4;" horiz-adv-x="627" 
d="M316 696l-65 -98h-144l140 204h143l136 -204h-143zM313 539q126 0 207.5 -78.5t81.5 -197.5t-81.5 -197.5t-207.5 -78.5q-125 0 -206.5 79t-81.5 197q0 119 81.5 197.5t206.5 78.5zM314 135q54 0 87 36t33 93t-33 92t-87 35q-55 0 -88 -35.5t-33 -92.5q0 -56 33.5 -92
t87.5 -36z" />
    <glyph glyph-name="otilde" unicode="&#xf5;" horiz-adv-x="627" 
d="M395 608q-35 0 -73.5 24t-56.5 24q-37 0 -46 -41l-113 48q13 55 45 92.5t87 37.5q34 0 72.5 -24t58.5 -24q33 0 44 41l113 -48q-35 -130 -131 -130zM313 -13q-125 0 -206.5 79t-81.5 197q0 119 81.5 197.5t206.5 78.5q126 0 207.5 -78.5t81.5 -197.5t-81.5 -197.5
t-207.5 -78.5zM314 135q54 0 87 36t33 93t-33 92t-87 35q-55 0 -88 -35.5t-33 -92.5q0 -56 33.5 -92t87.5 -36z" />
    <glyph glyph-name="odieresis" unicode="&#xf6;" horiz-adv-x="627" 
d="M191 601q-41 0 -70 28t-29 72t29 71t73 27q42 0 70 -28.5t28 -72.5q0 -42 -29 -69.5t-72 -27.5zM439 601q-42 0 -71 28t-29 72q0 43 29.5 70.5t72.5 27.5q42 0 70.5 -28.5t28.5 -72.5q0 -42 -29 -69.5t-72 -27.5zM313 -13q-125 0 -206.5 79t-81.5 197q0 119 81.5 197.5
t206.5 78.5q126 0 207.5 -78.5t81.5 -197.5t-81.5 -197.5t-207.5 -78.5zM314 135q54 0 87 36t33 93t-33 92t-87 35q-55 0 -88 -35.5t-33 -92.5q0 -56 33.5 -92t87.5 -36z" />
    <glyph glyph-name="divide" unicode="&#xf7;" horiz-adv-x="493" 
d="M247 452q-38 0 -64 25.5t-26 63.5q0 40 26 66.5t64 26.5q39 0 65 -26.5t26 -66.5q0 -38 -26 -63.5t-65 -25.5zM35 262v140h423v-140h-423zM248 30q-39 0 -65 26t-26 64q0 40 26 66t65 26q38 0 64.5 -26t26.5 -66q0 -38 -26.5 -64t-64.5 -26z" />
    <glyph glyph-name="oslash" unicode="&#xf8;" horiz-adv-x="650" 
d="M641 458l-65 -56q36 -63 36 -139q0 -119 -81.5 -197.5t-207.5 -78.5q-96 0 -170 49l-66 -58l-79 87l65 56q-38 65 -38 142q0 119 81.5 197.5t206.5 78.5q99 0 175 -52l67 58zM325 135q53 0 86 36t33 93t-32.5 92t-86.5 35q-55 0 -88.5 -35.5t-33.5 -92.5q0 -56 33.5 -92
t88.5 -36z" />
    <glyph glyph-name="ugrave" unicode="&#xf9;" horiz-adv-x="597" 
d="M445 672l-66 -106l-256 146l75 121zM383 527h166v-527h-156v44q-60 -57 -147 -57q-98 0 -150.5 59t-52.5 152v329h167v-307q0 -38 23 -61.5t63 -23.5q39 0 63 23.5t24 61.5v307z" />
    <glyph glyph-name="uacute" unicode="&#xfa;" horiz-adv-x="597" 
d="M452 712l-255 -146l-67 106l247 161zM383 527h166v-527h-156v44q-60 -57 -147 -57q-98 0 -150.5 59t-52.5 152v329h167v-307q0 -38 23 -61.5t63 -23.5q39 0 63 23.5t24 61.5v307z" />
    <glyph glyph-name="ucircumflex" unicode="&#xfb;" horiz-adv-x="597" 
d="M293 697l-66 -98h-144l141 204h143l136 -204h-144zM383 527h166v-527h-156v44q-60 -57 -147 -57q-98 0 -150.5 59t-52.5 152v329h167v-307q0 -38 23 -61.5t63 -23.5q39 0 63 23.5t24 61.5v307z" />
    <glyph glyph-name="udieresis" unicode="&#xfc;" horiz-adv-x="597" 
d="M168 602q-41 0 -70 28t-29 72t29 71t73 27q42 0 70 -28.5t28 -72.5q0 -42 -29 -69.5t-72 -27.5zM416 602q-42 0 -71 28t-29 72t29 71t73 27q42 0 70.5 -28.5t28.5 -72.5q0 -42 -29 -69.5t-72 -27.5zM383 527h166v-527h-156v44q-60 -57 -147 -57q-98 0 -150.5 59
t-52.5 152v329h167v-307q0 -38 23 -61.5t63 -23.5q39 0 63 23.5t24 61.5v307z" />
    <glyph glyph-name="yacute" unicode="&#xfd;" horiz-adv-x="571" 
d="M445 712l-256 -146l-66 106l247 161zM400 527h171l-187 -527l-63 -179h-164l69 179h-56l-168 527h172l104 -396z" />
    <glyph glyph-name="thorn" unicode="&#xfe;" horiz-adv-x="642" 
d="M358 539q114 0 186 -78t72 -198q0 -119 -74 -197.5t-188 -78.5q-82 0 -139 46v-212h-167v910h167v-241q58 49 143 49zM330 135q52 0 85.5 36t33.5 92t-33.5 92t-85.5 36q-55 0 -88 -35.5t-33 -92.5t33 -92.5t88 -35.5z" />
    <glyph glyph-name="ydieresis" unicode="&#xff;" horiz-adv-x="571" 
d="M160 602q-41 0 -70 28t-29 72q0 43 29.5 70.5t73.5 27.5q42 0 70 -28.5t28 -72.5q0 -42 -29.5 -69.5t-72.5 -27.5zM408 602q-41 0 -70 28t-29 72t29 71t73 27q42 0 70.5 -28.5t28.5 -72.5q0 -42 -29.5 -69.5t-72.5 -27.5zM400 527h171l-187 -527l-63 -179h-164l69 179
h-56l-168 527h172l104 -396z" />
    <glyph glyph-name="Amacron" unicode="&#x100;" horiz-adv-x="662" 
d="M520 922v-136h-379v136h379zM497 0l-43 134h-246l-43 -134h-165l229 695h204l228 -695h-164zM251 270h159l-79 248z" />
    <glyph glyph-name="amacron" unicode="&#x101;" horiz-adv-x="642" 
d="M501 767v-131h-345v131h345zM441 527h154v-527h-154v48q-58 -61 -152 -61q-114 0 -188.5 78.5t-74.5 197.5q0 118 74 192t189 74q95 0 152 -57v55zM313 134q55 0 88.5 36t33.5 93q0 58 -33.5 94t-88.5 36q-52 0 -86.5 -37t-34.5 -93t34 -92.5t87 -36.5z" />
    <glyph glyph-name="Abreve" unicode="&#x102;" horiz-adv-x="662" 
d="M330 757q-89 0 -141.5 53.5t-52.5 138.5h136q0 -31 15.5 -50.5t42.5 -19.5t43 19.5t16 50.5h135q0 -85 -52.5 -138.5t-141.5 -53.5zM497 0l-43 134h-246l-43 -134h-165l229 695h204l228 -695h-164zM251 270h159l-79 248z" />
    <glyph glyph-name="abreve" unicode="&#x103;" horiz-adv-x="642" 
d="M329 599q-91 0 -143.5 55t-52.5 149h130q0 -40 18 -61t48 -21t47.5 20.5t17.5 61.5h130q0 -94 -52 -149t-143 -55zM441 527h154v-527h-154v48q-58 -61 -152 -61q-114 0 -188.5 78.5t-74.5 197.5q0 118 74 192t189 74q95 0 152 -57v55zM313 134q55 0 88.5 36t33.5 93
q0 58 -33.5 94t-88.5 36q-52 0 -86.5 -37t-34.5 -93t34 -92.5t87 -36.5z" />
    <glyph glyph-name="Aogonek" unicode="&#x104;" horiz-adv-x="662" 
d="M643 -120l59 -77q-39 -42 -118 -42q-56 0 -91 29.5t-35 78.5q0 67 82 131h-43l-43 134h-246l-43 -134h-165l229 695h204l228 -695l-41 -41q-38 -38 -38 -63q0 -30 29 -30q19 0 32 14zM251 270h159l-79 248z" />
    <glyph glyph-name="aogonek" unicode="&#x105;" horiz-adv-x="642" 
d="M576 -120l59 -77q-39 -42 -118 -42q-56 0 -91 29.5t-35 78.5q0 66 83 131h-33v48q-58 -61 -152 -61q-114 0 -188.5 78.5t-74.5 197.5q0 118 74 192t189 74q95 0 152 -57v55h154v-527l-42 -41q-38 -38 -38 -63q0 -30 29 -30q19 0 32 14zM313 134q55 0 88.5 36t33.5 93
q0 58 -33.5 94t-88.5 36q-52 0 -86.5 -37t-34.5 -93t34 -92.5t87 -36.5z" />
    <glyph glyph-name="Cacute" unicode="&#x106;" horiz-adv-x="734" 
d="M261 743l-37 120l305 104l41 -136zM391 -13q-154 0 -257 102t-103 258q0 157 103.5 259t258.5 102q128 0 214.5 -67t114.5 -162l-160 -65q-35 136 -173 136q-84 0 -136 -56t-52 -147t52 -146.5t135 -55.5q139 0 174 136l160 -65q-29 -97 -116 -163t-215 -66z" />
    <glyph glyph-name="cacute" unicode="&#x107;" horiz-adv-x="576" 
d="M209 566l-67 106l248 161l74 -121zM306 -13q-120 0 -200.5 79t-80.5 196t80 197t200 80q103 0 171.5 -54t86.5 -121l-148 -59q-10 39 -37.5 62.5t-68.5 23.5q-50 0 -83 -35t-33 -93t33 -93t83 -35q41 0 70 23.5t39 60.5l148 -59q-18 -65 -87.5 -119t-172.5 -54z" />
    <glyph glyph-name="Cdotaccent" unicode="&#x10a;" horiz-adv-x="734" 
d="M387 751q-44 0 -74 29t-30 75q0 44 30.5 72.5t75.5 28.5q43 0 72.5 -29.5t29.5 -74.5q0 -44 -29.5 -72.5t-74.5 -28.5zM391 -13q-154 0 -257 102t-103 258q0 157 103.5 259t258.5 102q128 0 214.5 -67t114.5 -162l-160 -65q-35 136 -173 136q-84 0 -136 -56t-52 -147
t52 -146.5t135 -55.5q139 0 174 136l160 -65q-29 -97 -116 -163t-215 -66z" />
    <glyph glyph-name="cdotaccent" unicode="&#x10b;" horiz-adv-x="576" 
d="M306 599q-45 0 -75 28.5t-30 73.5q0 44 30.5 73.5t74.5 29.5t74.5 -29.5t30.5 -73.5q0 -45 -30 -73.5t-75 -28.5zM306 -13q-120 0 -200.5 79t-80.5 196t80 197t200 80q103 0 171.5 -54t86.5 -121l-148 -59q-10 39 -37.5 62.5t-68.5 23.5q-50 0 -83 -35t-33 -93t33 -93
t83 -35q41 0 70 23.5t39 60.5l148 -59q-18 -65 -87.5 -119t-172.5 -54z" />
    <glyph glyph-name="Ccaron" unicode="&#x10c;" horiz-adv-x="734" 
d="M457 757h-135l-151 192h147l69 -82l69 82h147zM388 145q139 0 174 136l160 -65q-29 -97 -116 -163t-215 -66q-154 0 -257 102t-103 258q0 157 103.5 259t258.5 102q128 0 214.5 -67t114.5 -162l-160 -65q-35 136 -173 136q-84 0 -136 -56t-52 -147t52 -146.5t135 -55.5z
" />
    <glyph glyph-name="ccaron" unicode="&#x10d;" horiz-adv-x="576" 
d="M379 599h-143l-140 204h144l65 -98l67 98h143zM418 219l148 -59q-18 -65 -87.5 -119t-172.5 -54q-120 0 -200.5 79t-80.5 196t80 197t200 80q103 0 171.5 -54t86.5 -121l-148 -59q-10 39 -37.5 62.5t-68.5 23.5q-50 0 -83 -35t-33 -93t33 -93t83 -35q41 0 70 23.5
t39 60.5z" />
    <glyph glyph-name="Dcaron" unicode="&#x10e;" horiz-adv-x="725" 
d="M408 756h-135l-151 193h148l68 -82l70 82h147zM335 695q160 0 259 -94.5t99 -252.5q0 -159 -99 -253.5t-259 -94.5h-276v695h276zM330 148q89 0 141.5 52t52.5 146q0 96 -52.5 148.5t-141.5 52.5h-104v-399h104z" />
    <glyph glyph-name="dcaron" unicode="&#x10f;" horiz-adv-x="752" 
d="M663 732h118l-31 -259h-107zM428 490v241h167v-731h-154v45q-60 -58 -152 -58q-114 0 -188.5 78.5t-74.5 197.5t72.5 197.5t186.5 78.5q85 0 143 -49zM313 134q55 0 88.5 36t33.5 93q0 58 -33.5 94t-88.5 36q-52 0 -86.5 -37t-34.5 -93t34 -92.5t87 -36.5z" />
    <glyph glyph-name="Dcroat" unicode="&#x110;" horiz-adv-x="738" 
d="M348 695q160 0 259 -94.5t99 -252.5q0 -159 -99 -253.5t-259 -94.5h-276v295h-56v115h56v285h276zM342 148q89 0 141.5 52t52.5 146q0 96 -52.5 148.5t-141.5 52.5h-103v-137h148v-115h-148v-147h103z" />
    <glyph glyph-name="dcroat" unicode="&#x111;" horiz-adv-x="642" 
d="M656 686v-114h-61v-572h-154v45q-60 -58 -152 -58q-114 0 -188.5 78.5t-74.5 197.5t72.5 197.5t186.5 78.5q85 0 143 -49v82h-144v114h144v45h167v-45h61zM313 134q55 0 88.5 36t33.5 93q0 58 -33.5 94t-88.5 36q-52 0 -86.5 -37t-34.5 -93t34 -92.5t87 -36.5z" />
    <glyph glyph-name="Emacron" unicode="&#x112;" horiz-adv-x="575" 
d="M486 922v-136h-379v136h379zM226 145h314v-145h-481v695h476v-145h-309v-125h271v-145h-271v-135z" />
    <glyph glyph-name="emacron" unicode="&#x113;" horiz-adv-x="594" 
d="M473 766v-131h-346v131h346zM186 214q13 -44 46 -67.5t81 -23.5q76 0 109 55l125 -83q-82 -108 -239 -108q-128 0 -206 78t-78 198q0 114 80 195.5t194 81.5q123 0 198.5 -81t75.5 -185q0 -32 -4 -60h-382zM184 318h233q-23 97 -115 97q-97 0 -118 -97z" />
    <glyph glyph-name="Edotaccent" unicode="&#x116;" horiz-adv-x="575" 
d="M296 751q-43 0 -73 29t-30 75q0 44 30.5 72.5t74.5 28.5t73.5 -29.5t29.5 -74.5q0 -44 -30 -72.5t-75 -28.5zM226 145h314v-145h-481v695h476v-145h-309v-125h271v-145h-271v-135z" />
    <glyph glyph-name="edotaccent" unicode="&#x117;" horiz-adv-x="594" 
d="M300 598q-44 0 -74 29t-30 73t30 73.5t74 29.5t74.5 -29.5t30.5 -73.5q0 -45 -30 -73.5t-75 -28.5zM186 214q13 -44 46 -67.5t81 -23.5q76 0 109 55l125 -83q-82 -108 -239 -108q-128 0 -206 78t-78 198q0 114 80 195.5t194 81.5q123 0 198.5 -81t75.5 -185q0 -32 -4 -60
h-382zM184 318h233q-23 97 -115 97q-97 0 -118 -97z" />
    <glyph glyph-name="Eogonek" unicode="&#x118;" horiz-adv-x="575" 
d="M522 -120l58 -77q-37 -42 -117 -42q-57 0 -92 29.5t-35 78.5q0 66 83 131h-360v695h476v-145h-309v-125h271v-145h-271v-135h314v-145l-41 -41q-38 -38 -38 -63q0 -30 29 -30q19 0 32 14z" />
    <glyph glyph-name="eogonek" unicode="&#x119;" horiz-adv-x="594" 
d="M186 214q13 -44 46 -67.5t81 -23.5q76 0 109 55l125 -83q-42 -54 -99 -81l-36 -36q-38 -38 -38 -63q0 -30 29 -30q19 0 32 14l59 -77q-39 -42 -118 -42q-57 0 -92 29.5t-35 78.5q0 50 47 99q-123 4 -197.5 81.5t-74.5 194.5q0 114 80 195.5t194 81.5q123 0 198.5 -81
t75.5 -185q0 -32 -4 -60h-382zM184 318h233q-23 97 -115 97q-97 0 -118 -97z" />
    <glyph glyph-name="Ecaron" unicode="&#x11a;" horiz-adv-x="575" 
d="M366 757h-135l-151 192h148l68 -82l70 82h147zM226 145h314v-145h-481v695h476v-145h-309v-125h271v-145h-271v-135z" />
    <glyph glyph-name="ecaron" unicode="&#x11b;" horiz-adv-x="594" 
d="M374 598h-143l-141 204h144l66 -99l67 99h143zM186 214q13 -44 46 -67.5t81 -23.5q76 0 109 55l125 -83q-82 -108 -239 -108q-128 0 -206 78t-78 198q0 114 80 195.5t194 81.5q123 0 198.5 -81t75.5 -185q0 -32 -4 -60h-382zM184 318h233q-23 97 -115 97q-97 0 -118 -97z
" />
    <glyph glyph-name="Gbreve" unicode="&#x11e;" horiz-adv-x="776" 
d="M391 757q-89 0 -141.5 53.5t-52.5 138.5h135q0 -31 16 -50.5t43 -19.5t42.5 19.5t15.5 50.5h136q0 -85 -53 -138.5t-141 -53.5zM750 377q0 -184 -99.5 -287t-255.5 -103q-157 0 -260.5 102.5t-103.5 257.5q0 156 104 258.5t260 102.5q122 0 208.5 -61t119.5 -150
l-160 -65q-18 55 -62.5 86.5t-108.5 31.5q-87 0 -139 -56.5t-52 -149.5q0 -95 55 -151t154 -56q134 0 174 114h-193v126h359z" />
    <glyph glyph-name="gbreve" unicode="&#x11f;" horiz-adv-x="641" 
d="M312 599q-92 0 -144 55t-52 149h130q0 -40 18 -61t48 -21q29 0 47 21t18 61h130q0 -94 -52 -149t-143 -55zM440 527h154v-444q0 -124 -78 -199.5t-216 -75.5q-208 0 -268 153l141 55q30 -69 128 -69q65 0 102 32.5t37 87.5v15q-58 -60 -152 -60q-113 0 -187.5 74.5
t-74.5 182.5t75 184t187 76q94 0 152 -60v48zM310 149q53 0 86.5 35t33.5 87t-33.5 87t-86.5 35q-51 0 -85 -35.5t-34 -86.5t34 -86.5t85 -35.5z" />
    <glyph glyph-name="Gdotaccent" unicode="&#x120;" horiz-adv-x="776" 
d="M391 751q-43 0 -73.5 29.5t-30.5 74.5q0 44 31 72.5t75 28.5t73 -29.5t29 -74.5q0 -44 -29.5 -72.5t-74.5 -28.5zM750 377q0 -184 -99.5 -287t-255.5 -103q-157 0 -260.5 102.5t-103.5 257.5q0 156 104 258.5t260 102.5q122 0 208.5 -61t119.5 -150l-160 -65
q-18 55 -62.5 86.5t-108.5 31.5q-87 0 -139 -56.5t-52 -149.5q0 -95 55 -151t154 -56q134 0 174 114h-193v126h359z" />
    <glyph glyph-name="gdotaccent" unicode="&#x121;" horiz-adv-x="641" 
d="M312 599q-45 0 -75 28.5t-30 73.5q0 44 30.5 73.5t74.5 29.5t74 -29.5t30 -73.5t-30 -73t-74 -29zM440 527h154v-444q0 -124 -78 -199.5t-216 -75.5q-208 0 -268 153l141 55q30 -69 128 -69q65 0 102 32.5t37 87.5v15q-58 -60 -152 -60q-113 0 -187.5 74.5t-74.5 182.5
t75 184t187 76q94 0 152 -60v48zM310 149q53 0 86.5 35t33.5 87t-33.5 87t-86.5 35q-51 0 -85 -35.5t-34 -86.5t34 -86.5t85 -35.5z" />
    <glyph glyph-name="uni0122" unicode="&#x122;" horiz-adv-x="776" 
d="M750 377q0 -184 -99.5 -287t-255.5 -103q-157 0 -260.5 102.5t-103.5 257.5q0 156 104 258.5t260 102.5q122 0 208.5 -61t119.5 -150l-160 -65q-18 55 -62.5 86.5t-108.5 31.5q-87 0 -139 -56.5t-52 -149.5q0 -95 55 -151t154 -56q134 0 174 114h-193v126h359zM390 -48
q35 0 57.5 -22t22.5 -57q0 -47 -48 -120l-34 -53l-75 29l35 57q4 7 7 14q-47 21 -47 75q0 34 23.5 55.5t58.5 21.5z" />
    <glyph glyph-name="uni0123" unicode="&#x123;" horiz-adv-x="641" 
d="M312 589q-35 0 -57.5 22t-22.5 58q0 47 48 119l33 54l75 -29l-34 -58q-2 -2 -7 -13q47 -23 47 -75q0 -34 -23.5 -56t-58.5 -22zM440 527h154v-444q0 -124 -78 -199.5t-216 -75.5q-208 0 -268 153l141 55q30 -69 128 -69q65 0 102 32.5t37 87.5v15q-58 -60 -152 -60
q-113 0 -187.5 74.5t-74.5 182.5t75 184t187 76q94 0 152 -60v48zM310 149q53 0 86.5 35t33.5 87t-33.5 87t-86.5 35q-51 0 -85 -35.5t-34 -86.5t34 -86.5t85 -35.5z" />
    <glyph glyph-name="Hbar" unicode="&#x126;" horiz-adv-x="740" 
d="M718 629v-130h-61v-499h-167v278h-240v-278h-167v499h-62v130h62v66h167v-66h240v66h167v-66h61zM490 427v72h-240v-72h240z" />
    <glyph glyph-name="hbar" unicode="&#x127;" horiz-adv-x="605" 
d="M357 540q92 0 148.5 -57t56.5 -148v-335h-167v302q0 42 -25 66t-64 24q-38 0 -64.5 -24t-26.5 -60v-308h-167v572h-62v114h62v45h167v-45h143v-114h-143v-79q58 47 142 47z" />
    <glyph glyph-name="Itilde" unicode="&#x128;" horiz-adv-x="285" 
d="M223 754q-37 0 -75.5 24t-58.5 24q-37 0 -48 -41l-113 48q13 52 50 91t95 39q37 0 77 -24t58 -24q35 0 46 41l114 -48q-15 -55 -51 -92.5t-94 -37.5zM59 0v695h167v-695h-167z" />
    <glyph glyph-name="itilde" unicode="&#x129;" horiz-adv-x="263" 
d="M198 609q-29 0 -62.5 23.5t-48.5 23.5q-30 0 -39 -41l-96 48q12 55 39 92.5t73 37.5q29 0 62 -24t49 -24q29 0 38 41l96 -48q-28 -129 -111 -129zM48 0v527h167v-527h-167z" />
    <glyph glyph-name="Imacron" unicode="&#x12a;" horiz-adv-x="285" 
d="M7 786v136h275v-136h-275zM59 0v695h167v-695h-167z" />
    <glyph glyph-name="imacron" unicode="&#x12b;" horiz-adv-x="263" 
d="M-7 635v132h277v-132h-277zM48 0v527h167v-527h-167z" />
    <glyph glyph-name="Iogonek" unicode="&#x12e;" horiz-adv-x="285" 
d="M208 -120l59 -77q-39 -42 -118 -42q-56 0 -91 29.5t-35 78.5q0 67 82 131h-46v695h167v-695l-41 -41q-38 -38 -38 -63q0 -30 29 -30q19 0 32 14z" />
    <glyph glyph-name="iogonek" unicode="&#x12f;" horiz-adv-x="263" 
d="M132 598q-45 0 -75 28.5t-30 73.5t30 74t75 29t75 -29t30 -74t-30 -73.5t-75 -28.5zM193 -120l59 -77q-39 -42 -118 -42q-56 0 -91 29.5t-35 78.5q0 67 83 131h-43v527h167v-527h-4l-41 -41q-38 -38 -38 -63q0 -30 29 -30q19 0 32 14z" />
    <glyph glyph-name="Idotaccent" unicode="&#x130;" horiz-adv-x="285" 
d="M142 751q-43 0 -73 29t-30 75q0 44 30.5 72.5t75.5 28.5q43 0 72.5 -29.5t29.5 -74.5q0 -44 -30 -72.5t-75 -28.5zM59 0v695h167v-695h-167z" />
    <glyph glyph-name="dotlessi" unicode="&#x131;" horiz-adv-x="263" 
d="M48 0v527h167v-527h-167z" />
    <glyph glyph-name="IJ" unicode="&#x132;" horiz-adv-x="632" 
d="M59 0v695h167v-695h-167zM302 0v149h38q35 0 53 19.5t18 54.5v472h167v-474q0 -103 -57.5 -162t-166.5 -59h-52z" />
    <glyph glyph-name="ij" unicode="&#x133;" horiz-adv-x="555" 
d="M428 599q-45 0 -75 28.5t-30 73.5q0 44 30.5 73.5t74.5 29.5t74.5 -29.5t30.5 -73.5q0 -45 -30 -73.5t-75 -28.5zM132 598q-45 0 -75 28.5t-30 73.5t30 74t75 29t75 -29t30 -74t-30 -73.5t-75 -28.5zM48 0v527h167v-527h-167zM253 -185v142h10q35 0 56.5 23t21.5 62v485
h166v-482q0 -107 -62.5 -168.5t-160.5 -61.5h-31z" />
    <glyph glyph-name="uni0136" unicode="&#x136;" horiz-adv-x="655" 
d="M390 356l271 -356h-190l-245 317v-317h-167v695h167v-303l240 303h191zM355 -48q34 0 57 -22t23 -57q0 -27 -10.5 -52.5t-38.5 -67.5l-33 -53l-75 29l35 57q4 7 7 14q-47 21 -47 75q0 34 23.5 55.5t58.5 21.5z" />
    <glyph glyph-name="uni0137" unicode="&#x137;" horiz-adv-x="553" 
d="M365 284l198 -284h-180l-168 232v-232h-167v731h167v-404l161 200h185zM274 -48q34 0 57 -22t23 -57q0 -27 -10.5 -52t-38.5 -68l-33 -53l-75 29l34 57q1 2 2.5 4.5t2.5 5.5t2 4q-46 22 -46 75q0 34 23.5 55.5t58.5 21.5z" />
    <glyph glyph-name="kgreenlandic" unicode="&#x138;" horiz-adv-x="553" 
d="M563 0h-180l-168 219v-219h-167v527h167v-212l161 212h186l-200 -250z" />
    <glyph glyph-name="Lacute" unicode="&#x139;" horiz-adv-x="547" 
d="M285 967l41 -136l-309 -88l-37 120zM226 149h309v-149h-476v695h167v-546z" />
    <glyph glyph-name="lacute" unicode="&#x13a;" horiz-adv-x="263" 
d="M5 779l-37 120l306 104l40 -136zM48 0v731h167v-731h-167z" />
    <glyph glyph-name="uni013B" unicode="&#x13b;" horiz-adv-x="547" 
d="M226 149h309v-149h-476v695h167v-546zM297 -48q35 0 57.5 -22t22.5 -57q0 -47 -48 -120l-33 -53l-75 29l34 57q1 2 2.5 4.5t2.5 5.5t2 4q-47 23 -47 75q0 34 23.5 55.5t58.5 21.5z" />
    <glyph glyph-name="uni013C" unicode="&#x13c;" horiz-adv-x="263" 
d="M48 731h167v-731h-167v731zM129 -48q35 0 57.5 -22t22.5 -57q0 -47 -48 -120l-33 -53l-75 29l34 57q1 2 2.5 4.5t2.5 5.5t2 4q-47 23 -47 75q0 34 23.5 55.5t58.5 21.5z" />
    <glyph glyph-name="Lcaron" unicode="&#x13d;" horiz-adv-x="553" 
d="M493 706l-31 -259h-107l20 259h118zM226 149h309v-149h-476v695h167v-546z" />
    <glyph glyph-name="lcaron" unicode="&#x13e;" horiz-adv-x="372" 
d="M263 473l20 259h118l-31 -259h-107zM48 0v731h167v-731h-167z" />
    <glyph glyph-name="Ldot" unicode="&#x13f;" horiz-adv-x="563" 
d="M226 149h309v-149h-476v695h167v-546zM434 336q-38 0 -64 26t-26 64q0 40 26 66t64 26q39 0 65 -26t26 -66q0 -38 -26 -64t-65 -26z" />
    <glyph glyph-name="ldot" unicode="&#x140;" horiz-adv-x="419" 
d="M48 0v731h167v-731h-167zM341 282q-38 0 -64 26t-26 64q0 40 26 66t64 26q39 0 65 -26t26 -66q0 -38 -26 -64t-65 -26z" />
    <glyph glyph-name="Lslash" unicode="&#x141;" horiz-adv-x="606" 
d="M285 149h309v-149h-476v281l-70 -24l-34 104l104 36v298h167v-240l86 30l34 -104l-120 -42v-190z" />
    <glyph glyph-name="lslash" unicode="&#x142;" horiz-adv-x="389" 
d="M394 406l-114 -63v-343h-167v251l-52 -29l-61 104l113 63v342h167v-250l52 29z" />
    <glyph glyph-name="Nacute" unicode="&#x143;" horiz-adv-x="693" 
d="M515 831l-309 -88l-37 120l305 104zM467 695h167v-695h-138l-270 406v-406h-167v695h139l269 -409v409z" />
    <glyph glyph-name="nacute" unicode="&#x144;" horiz-adv-x="605" 
d="M471 711l-256 -146l-66 106l247 161zM357 540q92 0 148.5 -57t56.5 -148v-335h-167v302q0 42 -25 66t-64 24q-38 0 -64.5 -24t-26.5 -60v-308h-167v527h157v-42q60 55 152 55z" />
    <glyph glyph-name="uni0145" unicode="&#x145;" horiz-adv-x="693" 
d="M467 695h167v-695h-138l-270 406v-406h-167v695h139l269 -409v409zM358 -48q35 0 57.5 -22t22.5 -57q0 -47 -48 -120l-33 -53l-75 29l34 57q4 7 7 14q-47 21 -47 75q0 34 23.5 55.5t58.5 21.5z" />
    <glyph glyph-name="uni0146" unicode="&#x146;" horiz-adv-x="605" 
d="M357 540q92 0 148.5 -57t56.5 -148v-335h-167v302q0 42 -25 66t-64 24q-38 0 -64.5 -24t-26.5 -60v-308h-167v527h157v-42q60 55 152 55zM300 -48q34 0 57 -22t23 -57q0 -27 -10.5 -52t-38.5 -68l-33 -53l-75 29l34 57q1 2 2.5 4.5t2.5 5.5t2 4q-46 22 -46 75
q0 34 23.5 55.5t58.5 21.5z" />
    <glyph glyph-name="Ncaron" unicode="&#x147;" horiz-adv-x="693" 
d="M402 757h-136l-151 192h148l68 -82l70 82h147zM467 695h167v-695h-138l-270 406v-406h-167v695h139l269 -409v409z" />
    <glyph glyph-name="ncaron" unicode="&#x148;" horiz-adv-x="605" 
d="M386 598h-144l-140 204h144l65 -98l67 98h143zM357 540q92 0 148.5 -57t56.5 -148v-335h-167v302q0 42 -25 66t-64 24q-38 0 -64.5 -24t-26.5 -60v-308h-167v527h157v-42q60 55 152 55z" />
    <glyph glyph-name="napostrophe" unicode="&#x149;" horiz-adv-x="733" 
d="M11 508l20 259h118l-31 -259h-107zM486 540q92 0 148 -57t56 -148v-335h-166v302q0 42 -25.5 66t-64.5 24q-38 0 -64.5 -24t-26.5 -60v-308h-167v527h158v-41q61 54 152 54z" />
    <glyph glyph-name="Eng" unicode="&#x14a;" horiz-adv-x="693" 
d="M467 695h167v-703q0 -103 -55.5 -162.5t-158.5 -59.5h-27v149h30q71 0 71 75v9l-268 403v-406h-167v695h139l269 -409v409z" />
    <glyph glyph-name="eng" unicode="&#x14b;" horiz-adv-x="605" 
d="M357 540q92 0 148.5 -57t56.5 -148v-298q0 -101 -62 -161.5t-157 -60.5h-24l-1 142h10q31 0 49 20.5t18 56.5v268q0 42 -25 66t-64 24q-38 0 -64.5 -24t-26.5 -60v-308h-167v527h157v-42q60 55 152 55z" />
    <glyph glyph-name="Omacron" unicode="&#x14c;" horiz-adv-x="793" 
d="M207 786v136h378v-136h-378zM397 -13q-155 0 -261 104t-106 256q0 153 106 257t261 104q154 0 259.5 -104t105.5 -257q0 -152 -105.5 -256t-259.5 -104zM397 145q88 0 141.5 56.5t53.5 146.5q0 89 -53 145.5t-142 56.5q-90 0 -143.5 -56.5t-53.5 -145.5
q0 -90 54.5 -146.5t142.5 -56.5z" />
    <glyph glyph-name="omacron" unicode="&#x14d;" horiz-adv-x="627" 
d="M144 635v131h345v-131h-345zM313 -13q-125 0 -206.5 79t-81.5 197q0 119 81.5 197.5t206.5 78.5q126 0 207.5 -78.5t81.5 -197.5t-81.5 -197.5t-207.5 -78.5zM314 135q54 0 87 36t33 93t-33 92t-87 35q-55 0 -88 -35.5t-33 -92.5q0 -56 33.5 -92t87.5 -36z" />
    <glyph glyph-name="Ohungarumlaut" unicode="&#x150;" horiz-adv-x="793" 
d="M269 735l-102 74l134 194l114 -84zM513 735l-102 74l134 194l115 -84zM397 -13q-155 0 -261 104t-106 256q0 153 106 257t261 104q154 0 259.5 -104t105.5 -257q0 -152 -105.5 -256t-259.5 -104zM397 145q88 0 141.5 56.5t53.5 146.5q0 89 -53 145.5t-142 56.5
q-90 0 -143.5 -56.5t-53.5 -145.5q0 -90 54.5 -146.5t142.5 -56.5z" />
    <glyph glyph-name="ohungarumlaut" unicode="&#x151;" horiz-adv-x="627" 
d="M194 565l-101 73l133 190l115 -84zM436 565l-101 73l133 190l115 -84zM313 -13q-125 0 -206.5 79t-81.5 197q0 119 81.5 197.5t206.5 78.5q126 0 207.5 -78.5t81.5 -197.5t-81.5 -197.5t-207.5 -78.5zM314 135q54 0 87 36t33 93t-33 92t-87 35q-55 0 -88 -35.5t-33 -92.5
q0 -56 33.5 -92t87.5 -36z" />
    <glyph glyph-name="OE" unicode="&#x152;" horiz-adv-x="1109" 
d="M760 145h313v-145h-481v47q-82 -60 -195 -60q-155 0 -261 104t-106 256q0 153 106 257t261 104q113 0 195 -60v47h476v-145h-308v-125h270v-145h-270v-135zM397 145q88 0 141.5 56.5t53.5 146.5q0 89 -53 145.5t-142 56.5q-90 0 -143.5 -56.5t-53.5 -145.5
q0 -90 54.5 -146.5t142.5 -56.5z" />
    <glyph glyph-name="oe" unicode="&#x153;" horiz-adv-x="1008" 
d="M600 214q13 -44 46 -67.5t81 -23.5q42 0 66.5 13.5t42.5 41.5l124 -83q-82 -108 -238 -108q-126 0 -204 76q-81 -76 -205 -76q-125 0 -206.5 79t-81.5 197q0 119 81.5 197.5t206.5 78.5q126 0 207 -78q79 79 191 79q123 0 198.5 -81t75.5 -185q0 -39 -3 -60h-382z
M598 318h233q-11 46 -41 71.5t-74 25.5q-97 0 -118 -97zM314 135q54 0 87 36t33 93t-33 92t-87 35q-55 0 -88 -35.5t-33 -92.5q0 -56 33.5 -92t87.5 -36z" />
    <glyph glyph-name="Racute" unicode="&#x154;" horiz-adv-x="633" 
d="M491 831l-309 -88l-37 120l305 104zM427 0l-184 277h-18v-277h-166v695h292q112 0 179.5 -58.5t67.5 -150.5q0 -76 -49 -131.5t-132 -71.5l196 -283h-186zM225 549v-154h121q42 0 65.5 20.5t23.5 56.5t-23.5 56.5t-65.5 20.5h-121z" />
    <glyph glyph-name="racute" unicode="&#x155;" horiz-adv-x="366" 
d="M355 711l-256 -146l-66 106l247 161zM205 527v-45q60 58 146 58v-156q-136 0 -136 -102v-282h-167v527h157z" />
    <glyph glyph-name="uni0156" unicode="&#x156;" horiz-adv-x="633" 
d="M417 283l196 -283h-186l-184 277h-18v-277h-166v695h292q112 0 179.5 -58.5t67.5 -150.5q0 -76 -49 -131.5t-132 -71.5zM225 549v-154h121q42 0 65.5 20.5t23.5 56.5t-23.5 56.5t-65.5 20.5h-121zM315 -48q34 0 57 -22t23 -57q0 -27 -10.5 -52.5t-38.5 -67.5l-33 -53
l-75 29l35 57q4 7 7 14q-47 21 -47 75q0 34 23.5 55.5t58.5 21.5z" />
    <glyph glyph-name="uni0157" unicode="&#x157;" horiz-adv-x="366" 
d="M205 482q60 58 146 58v-156q-136 0 -136 -102v-282h-167v527h157v-45zM129 -48q35 0 57.5 -22t22.5 -57q0 -47 -48 -120l-33 -53l-75 29l34 57q4 7 7 14q-47 21 -47 75q0 34 23.5 55.5t58.5 21.5z" />
    <glyph glyph-name="Rcaron" unicode="&#x158;" horiz-adv-x="633" 
d="M378 757h-135l-151 192h147l69 -82l69 82h147zM427 0l-184 277h-18v-277h-166v695h292q112 0 179.5 -58.5t67.5 -150.5q0 -76 -49 -131.5t-132 -71.5l196 -283h-186zM225 549v-154h121q42 0 65.5 20.5t23.5 56.5t-23.5 56.5t-65.5 20.5h-121z" />
    <glyph glyph-name="rcaron" unicode="&#x159;" horiz-adv-x="366" 
d="M270 598h-144l-140 204h144l65 -98l67 98h143zM205 527v-45q60 58 146 58v-156q-136 0 -136 -102v-282h-167v527h157z" />
    <glyph glyph-name="Sacute" unicode="&#x15a;" horiz-adv-x="597" 
d="M177 743l-37 120l305 104l41 -136zM293 -13q-102 0 -174.5 48t-98.5 135l158 61q13 -48 47.5 -74t83.5 -26q87 0 87 61q0 34 -35.5 55t-86.5 35.5t-102 35t-86.5 66t-35.5 114.5q0 95 66.5 152.5t186.5 57.5q97 0 164.5 -45t86.5 -118l-157 -61q-22 82 -102 82
q-38 0 -58 -15t-20 -40q0 -28 26 -47t64.5 -29t83.5 -27.5t83.5 -39t64.5 -66t26 -106.5q0 -94 -73 -151.5t-199 -57.5z" />
    <glyph glyph-name="sacute" unicode="&#x15b;" horiz-adv-x="500" 
d="M161 565l-67 106l247 162l75 -122zM250 -13q-90 0 -151 36t-84 105l138 53q22 -69 103 -69q58 0 58 39q0 22 -28.5 37t-68.5 26.5t-80.5 27t-69 49.5t-28.5 84q0 76 58.5 120t158.5 44q81 0 136 -31t71 -86l-138 -54q-18 50 -72 50q-51 0 -51 -35q0 -20 28.5 -32.5
t69 -22.5t80.5 -25.5t68.5 -51t28.5 -89.5q0 -81 -61 -128t-166 -47z" />
    <glyph glyph-name="Scedilla" unicode="&#x15e;" horiz-adv-x="597" 
d="M565 196q0 -79 -52 -133t-145 -70l-12 -33q31 -5 52 -31t21 -63q0 -49 -37.5 -78.5t-97.5 -29.5q-85 0 -128 47l54 68q20 -25 51 -25q18 0 29 9t11 24q0 16 -11 26t-31 10h-16l-8 7l22 64q-92 6 -157 53.5t-90 128.5l158 61q13 -48 47.5 -74t83.5 -26q87 0 87 61
q0 34 -35.5 55t-86.5 35.5t-102 35t-86.5 66t-35.5 114.5q0 95 66.5 152.5t186.5 57.5q97 0 164.5 -45t86.5 -118l-157 -61q-22 82 -102 82q-38 0 -58 -15t-20 -40q0 -28 26 -47t64.5 -29t83.5 -27.5t83.5 -39t64.5 -66t26 -106.5z" />
    <glyph glyph-name="scedilla" unicode="&#x15f;" horiz-adv-x="500" 
d="M477 162q0 -69 -44.5 -113.5t-123.5 -57.5l-11 -31q31 -5 52.5 -31t21.5 -63q0 -48 -38 -78t-98 -30q-84 0 -127 47l54 68q18 -25 50 -25q19 0 30 9.5t11 23.5q0 16 -11.5 26t-31.5 10h-15l-8 7l23 65q-155 16 -196 139l138 53q22 -69 103 -69q58 0 58 39q0 22 -28.5 37
t-68.5 26.5t-80.5 27t-69 49.5t-28.5 84q0 76 58.5 120t158.5 44q81 0 136 -31t71 -86l-138 -54q-18 50 -72 50q-51 0 -51 -35q0 -20 28.5 -32.5t69 -22.5t80.5 -25.5t68.5 -51t28.5 -89.5z" />
    <glyph glyph-name="Scaron" unicode="&#x160;" horiz-adv-x="597" 
d="M376 757h-135l-151 192h148l68 -82l69 82h147zM217 511q0 -28 26 -47t64.5 -29t83.5 -27.5t83.5 -39t64.5 -66t26 -106.5q0 -94 -73 -151.5t-199 -57.5q-102 0 -174.5 48t-98.5 135l158 61q13 -48 47.5 -74t83.5 -26q87 0 87 61q0 34 -35.5 55t-86.5 35.5t-102 35
t-86.5 66t-35.5 114.5q0 95 66.5 152.5t186.5 57.5q97 0 164.5 -45t86.5 -118l-157 -61q-22 82 -102 82q-38 0 -58 -15t-20 -40z" />
    <glyph glyph-name="scaron" unicode="&#x161;" horiz-adv-x="500" 
d="M331 598h-143l-141 205h144l66 -99l67 99h143zM202 383q0 -20 28.5 -32.5t69 -22.5t80.5 -25.5t68.5 -51t28.5 -89.5q0 -81 -61 -128t-166 -47q-90 0 -151 36t-84 105l138 53q22 -69 103 -69q58 0 58 39q0 22 -28.5 37t-68.5 26.5t-80.5 27t-69 49.5t-28.5 84
q0 76 58.5 120t158.5 44q81 0 136 -31t71 -86l-138 -54q-18 50 -72 50q-51 0 -51 -35z" />
    <glyph glyph-name="uni0162" unicode="&#x162;" horiz-adv-x="595" 
d="M381 0h-30l-15 -41q31 -5 52 -31t21 -63q0 -49 -37.5 -78.5t-97.5 -29.5q-85 0 -128 47l54 68q20 -25 51 -25q18 0 29 9t11 24q0 16 -11 26t-31 10h-16l-8 7l27 77h-38v546h-202v149h571v-149h-202v-546z" />
    <glyph glyph-name="uni0163" unicode="&#x163;" horiz-adv-x="413" 
d="M304 0h-5l-11 -31q32 -4 53 -30t21 -63q0 -49 -38 -79t-98 -30q-84 0 -127 48l54 67q20 -25 50 -25q19 0 30 9.5t11 24.5t-11.5 25t-31.5 10h-15l-8 8l29 83q-108 45 -108 186v182h-88v142h42q56 0 56 59v81h162v-140h120v-142h-126v-162q0 -78 74 -78h55v-145h-90z" />
    <glyph glyph-name="Tcaron" unicode="&#x164;" horiz-adv-x="595" 
d="M368 757h-136l-151 192h148l68 -82l70 82h147zM583 695v-149h-202v-546h-167v546h-202v149h571z" />
    <glyph glyph-name="tcaron" unicode="&#x165;" horiz-adv-x="413" 
d="M317 549l20 259h117l-31 -259h-106zM304 0q-100 0 -152.5 54.5t-52.5 148.5v182h-88v142h42q56 0 56 59v81h162v-140h120v-142h-126v-162q0 -78 74 -78h55v-145h-90z" />
    <glyph glyph-name="Tbar" unicode="&#x166;" horiz-adv-x="604" 
d="M587 546h-202v-190h103v-114h-103v-242h-167v242h-102v114h102v190h-201v149h570v-149z" />
    <glyph glyph-name="tbar" unicode="&#x167;" horiz-adv-x="417" 
d="M342 145h55v-145h-89q-100 0 -153 54.5t-53 148.5v10h-68v114h68v58h-88v142h42q56 0 56 59v81h162v-140h121v-142h-126v-58h104v-114h-104q6 -68 73 -68z" />
    <glyph glyph-name="Utilde" unicode="&#x168;" horiz-adv-x="676" 
d="M289 802q-39 0 -48 -41l-114 48q13 52 50 91t95 39q38 0 77.5 -24t57.5 -24q35 0 47 41l113 -48q-15 -55 -51 -92.5t-93 -37.5q-37 0 -76 24t-58 24zM457 695h167v-422q0 -124 -74 -205t-211 -81q-138 0 -212.5 81t-74.5 205v422h168v-421q0 -60 30.5 -94.5t88.5 -34.5
t88 34.5t30 94.5v421z" />
    <glyph glyph-name="utilde" unicode="&#x169;" horiz-adv-x="597" 
d="M242 657q-36 0 -47 -41l-112 48q12 54 44.5 92t86.5 38q34 0 73 -24t58 -24q35 0 44 41l114 -48q-35 -130 -131 -130q-35 0 -73.5 24t-56.5 24zM383 527h166v-527h-156v44q-60 -57 -147 -57q-98 0 -150.5 59t-52.5 152v329h167v-307q0 -38 23 -61.5t63 -23.5
q39 0 63 23.5t24 61.5v307z" />
    <glyph glyph-name="Umacron" unicode="&#x16a;" horiz-adv-x="676" 
d="M527 922v-136h-378v136h378zM457 695h167v-422q0 -124 -74 -205t-211 -81q-138 0 -212.5 81t-74.5 205v422h168v-421q0 -60 30.5 -94.5t88.5 -34.5t88 34.5t30 94.5v421z" />
    <glyph glyph-name="umacron" unicode="&#x16b;" horiz-adv-x="597" 
d="M465 767v-131h-345v131h345zM383 527h166v-527h-156v44q-60 -57 -147 -57q-98 0 -150.5 59t-52.5 152v329h167v-307q0 -38 23 -61.5t63 -23.5q39 0 63 23.5t24 61.5v307z" />
    <glyph glyph-name="Uring" unicode="&#x16e;" horiz-adv-x="676" 
d="M339 687q-62 0 -102 37.5t-40 97.5q0 58 40 96t102 38t101 -38t39 -96q0 -60 -39 -97.5t-101 -37.5zM339 864q-20 0 -33 -12t-13 -30q0 -19 13 -31.5t33 -12.5q19 0 31.5 12t12.5 32q0 18 -12.5 30t-31.5 12zM457 695h167v-422q0 -124 -74 -205t-211 -81
q-138 0 -212.5 81t-74.5 205v422h168v-421q0 -60 30.5 -94.5t88.5 -34.5t88 34.5t30 94.5v421z" />
    <glyph glyph-name="uring" unicode="&#x16f;" horiz-adv-x="597" 
d="M293 565q-62 0 -101.5 37.5t-39.5 97.5q0 58 40 96t101 38q62 0 101.5 -38t39.5 -96q0 -60 -39 -97.5t-102 -37.5zM293 742q-19 0 -32 -12t-13 -30q0 -19 12.5 -31.5t32.5 -12.5t32.5 12.5t12.5 31.5q0 18 -13 30t-32 12zM383 527h166v-527h-156v44q-60 -57 -147 -57
q-98 0 -150.5 59t-52.5 152v329h167v-307q0 -38 23 -61.5t63 -23.5q39 0 63 23.5t24 61.5v307z" />
    <glyph glyph-name="Uhungarumlaut" unicode="&#x170;" horiz-adv-x="676" 
d="M357 919l-146 -184l-102 74l134 194zM455 735l-102 74l134 194l115 -84zM457 695h167v-422q0 -124 -74 -205t-211 -81q-138 0 -212.5 81t-74.5 205v422h168v-421q0 -60 30.5 -94.5t88.5 -34.5t88 34.5t30 94.5v421z" />
    <glyph glyph-name="uhungarumlaut" unicode="&#x171;" horiz-adv-x="597" 
d="M317 745l-146 -179l-102 73l134 190zM413 566l-102 73l134 190l114 -84zM383 220v307h166v-527h-156v44q-60 -57 -147 -57q-98 0 -150.5 59t-52.5 152v329h167v-307q0 -38 23 -61.5t63 -23.5q39 0 63 23.5t24 61.5z" />
    <glyph glyph-name="Uogonek" unicode="&#x172;" horiz-adv-x="676" 
d="M457 695h167v-422q0 -91 -41 -161.5t-120 -102.5l-39 -38q-37 -38 -37 -63q0 -30 29 -30q19 0 32 14l58 -77q-37 -42 -117 -42q-57 0 -92 29.5t-35 78.5q0 55 55 107q-127 6 -196 86.5t-69 198.5v422h168v-421q0 -60 30.5 -94.5t88.5 -34.5t88 34.5t30 94.5v421z" />
    <glyph glyph-name="uogonek" unicode="&#x173;" horiz-adv-x="597" 
d="M531 -120l58 -77q-37 -42 -117 -42q-57 0 -92 29.5t-35 78.5q0 66 83 131h-35v44q-60 -57 -147 -57q-98 0 -150.5 59t-52.5 152v329h167v-307q0 -38 23 -61.5t63 -23.5q39 0 63 23.5t24 61.5v307h166v-527l-41 -41q-38 -38 -38 -63q0 -30 29 -30q19 0 32 14z" />
    <glyph glyph-name="Wcircumflex" unicode="&#x174;" horiz-adv-x="927" 
d="M462 839l-68 -82h-148l151 192h135l147 -192h-147zM758 695h165l-157 -695h-198l-104 461l-106 -461h-196l-158 695h165l94 -497l110 497h181l110 -499z" />
    <glyph glyph-name="wcircumflex" unicode="&#x175;" horiz-adv-x="819" 
d="M409 697l-66 -98h-144l141 204h143l136 -204h-144zM651 527h170l-134 -527h-196l-78 335l-75 -335h-198l-135 527h169l72 -358l74 358h186l75 -358z" />
    <glyph glyph-name="Ycircumflex" unicode="&#x176;" horiz-adv-x="660" 
d="M331 839l-68 -82h-148l151 192h135l147 -192h-148zM666 695l-252 -411v-284h-167v282l-252 413h187l149 -265l148 265h187z" />
    <glyph glyph-name="ycircumflex" unicode="&#x177;" horiz-adv-x="571" 
d="M285 697l-65 -98h-144l140 204h144l135 -204h-143zM400 527h171l-187 -527l-63 -179h-164l69 179h-56l-168 527h172l104 -396z" />
    <glyph glyph-name="Ydieresis" unicode="&#x178;" horiz-adv-x="660" 
d="M202 751q-43 0 -73 29t-30 75q0 44 30.5 72.5t75.5 28.5q43 0 72.5 -29.5t29.5 -74.5q0 -44 -30 -72.5t-75 -28.5zM458 751q-43 0 -73 29t-30 75q0 44 30.5 72.5t75.5 28.5q43 0 72.5 -29.5t29.5 -74.5q0 -44 -30 -72.5t-75 -28.5zM666 695l-252 -411v-284h-167v282
l-252 413h187l149 -265l148 265h187z" />
    <glyph glyph-name="Zacute" unicode="&#x179;" horiz-adv-x="592" 
d="M480 831l-310 -88l-37 120l306 104zM560 150l4 -150h-535v114l312 435h-305v146h523v-113l-317 -432h318z" />
    <glyph glyph-name="zacute" unicode="&#x17a;" horiz-adv-x="502" 
d="M406 711l-255 -146l-67 106l248 161zM236 134h240v-134h-449v117l235 276h-225v134h430v-122z" />
    <glyph glyph-name="Zdotaccent" unicode="&#x17b;" horiz-adv-x="592" 
d="M296 751q-43 0 -73.5 29.5t-30.5 74.5q0 44 31 72.5t75 28.5t73 -29.5t29 -74.5q0 -44 -29.5 -72.5t-74.5 -28.5zM560 150l4 -150h-535v114l312 435h-305v146h523v-113l-317 -432h318z" />
    <glyph glyph-name="zdotaccent" unicode="&#x17c;" horiz-adv-x="502" 
d="M248 598q-45 0 -75 28.5t-30 73.5q0 44 30.5 73.5t74.5 29.5t74.5 -29.5t30.5 -73.5q0 -45 -30 -73.5t-75 -28.5zM236 134h240v-134h-449v117l235 276h-225v134h430v-122z" />
    <glyph glyph-name="Zcaron" unicode="&#x17d;" horiz-adv-x="592" 
d="M366 757h-135l-151 192h148l68 -82l69 82h147zM560 150l4 -150h-535v114l312 435h-305v146h523v-113l-317 -432h318z" />
    <glyph glyph-name="zcaron" unicode="&#x17e;" horiz-adv-x="502" 
d="M321 598h-143l-140 204h144l65 -98l67 98h143zM236 134h240v-134h-449v117l235 276h-225v134h430v-122z" />
    <glyph glyph-name="uni01EA" unicode="&#x1ea;" horiz-adv-x="793" 
d="M513 5l-40 -40q-38 -39 -38 -63q0 -30 29 -30q19 0 32 14l59 -77q-39 -42 -118 -42q-56 0 -91 29.5t-35 78.5q0 57 61 113q-146 9 -244 111t-98 248q0 153 106 257t261 104q154 0 259.5 -104t105.5 -257q0 -121 -69 -214t-180 -128zM200 348q0 -90 54.5 -146.5
t142.5 -56.5t141.5 56.5t53.5 146.5q0 89 -53 145.5t-142 56.5q-90 0 -143.5 -56.5t-53.5 -145.5z" />
    <glyph glyph-name="uni01EB" unicode="&#x1eb;" horiz-adv-x="627" 
d="M422 5l-40 -40q-38 -38 -38 -63q0 -13 8 -21.5t21 -8.5q20 0 32 15l59 -78q-39 -42 -118 -42q-56 0 -91 30t-35 79q0 58 60 113q-112 10 -183.5 87t-71.5 187q0 119 81.5 197.5t206.5 78.5q126 0 207.5 -78.5t81.5 -197.5q0 -89 -49 -158.5t-131 -99.5zM193 263
q0 -56 33.5 -92t87.5 -36t87 36t33 93t-33 92t-87 35q-55 0 -88 -35.5t-33 -92.5z" />
    <glyph glyph-name="AEacute" unicode="&#x1fc;" horiz-adv-x="955" 
d="M769 831l-310 -88l-37 120l306 104zM606 145h314v-145h-481v128h-224l-58 -128h-174l315 695h617v-145h-309v-125h271v-145h-271v-135zM279 270h160v280h-33z" />
    <glyph glyph-name="aeacute" unicode="&#x1fd;" horiz-adv-x="1034" 
d="M678 712l-256 -146l-66 106l247 161zM623 216q12 -47 44 -72t78 -25q83 0 119 60l136 -58q-68 -134 -223 -134q-122 0 -182 68v-55h-154v48q-58 -61 -152 -61q-114 0 -188.5 78.5t-74.5 197.5t74.5 197.5t188.5 78.5q94 0 152 -61v49h154v-59q58 71 165 71
q116 0 182 -79.5t66 -185.5q0 -37 -3 -58h-382zM621 313h237q-9 49 -39.5 77t-78.5 28q-100 0 -119 -105zM313 134q55 0 88.5 36t33.5 93q0 58 -33.5 94t-88.5 36q-52 0 -86.5 -37t-34.5 -93t34 -92.5t87 -36.5z" />
    <glyph glyph-name="Oslashacute" unicode="&#x1fe;" horiz-adv-x="796" 
d="M581 831l-309 -88l-37 120l305 104zM766 633l-70 -73q68 -93 68 -213q0 -152 -106 -256t-260 -104q-107 0 -200 56l-71 -74l-97 91l71 74q-69 93 -69 213q0 153 106 257t260 104q110 0 200 -57l72 75zM202 348q0 -50 18 -91l264 276q-39 17 -86 17q-89 0 -142.5 -56.5
t-53.5 -145.5zM594 348q0 47 -17 89l-264 -275q39 -17 85 -17q88 0 142 56.5t54 146.5z" />
    <glyph glyph-name="oslashacute" unicode="&#x1ff;" horiz-adv-x="650" 
d="M486 711l-256 -146l-66 106l247 161zM641 458l-65 -56q36 -63 36 -139q0 -119 -81.5 -197.5t-207.5 -78.5q-96 0 -170 49l-66 -58l-79 87l65 56q-38 65 -38 142q0 119 81.5 197.5t206.5 78.5q99 0 175 -52l67 58zM325 135q53 0 86 36t33 93t-32.5 92t-86.5 35
q-55 0 -88.5 -35.5t-33.5 -92.5q0 -56 33.5 -92t88.5 -36z" />
    <glyph glyph-name="uni0218" unicode="&#x218;" horiz-adv-x="597" 
d="M217 511q0 -28 26 -47t64.5 -29t83.5 -27.5t83.5 -39t64.5 -66t26 -106.5q0 -94 -73 -151.5t-199 -57.5q-102 0 -174.5 48t-98.5 135l158 61q13 -48 47.5 -74t83.5 -26q87 0 87 61q0 34 -35.5 55t-86.5 35.5t-102 35t-86.5 66t-35.5 114.5q0 95 66.5 152.5t186.5 57.5
q97 0 164.5 -45t86.5 -118l-157 -61q-22 82 -102 82q-38 0 -58 -15t-20 -40zM300 -48q35 0 57.5 -22t22.5 -57q0 -47 -48 -120l-33 -53l-75 29l34 57q4 7 7 14q-47 21 -47 75q0 34 23.5 55.5t58.5 21.5z" />
    <glyph glyph-name="uni0219" unicode="&#x219;" horiz-adv-x="500" 
d="M202 383q0 -20 28.5 -32.5t69 -22.5t80.5 -25.5t68.5 -51t28.5 -89.5q0 -81 -61 -128t-166 -47q-90 0 -151 36t-84 105l138 53q22 -69 103 -69q58 0 58 39q0 22 -28.5 37t-68.5 26.5t-80.5 27t-69 49.5t-28.5 84q0 76 58.5 120t158.5 44q81 0 136 -31t71 -86l-138 -54
q-18 50 -72 50q-51 0 -51 -35zM266 -48q35 0 57.5 -22t22.5 -57q0 -47 -48 -120l-34 -53l-75 29l35 57q4 7 7 14q-47 21 -47 75q0 34 23.5 55.5t58.5 21.5z" />
    <glyph glyph-name="uni021A" unicode="&#x21a;" horiz-adv-x="595" 
d="M583 695v-149h-202v-546h-167v546h-202v149h571zM298 -48q35 0 57.5 -22t22.5 -57q0 -47 -48 -120l-33 -53l-75 29l34 57q1 2 2.5 4.5t2.5 5.5t2 4q-47 23 -47 75q0 34 23.5 55.5t58.5 21.5z" />
    <glyph glyph-name="uni021B" unicode="&#x21b;" horiz-adv-x="413" 
d="M339 145h55v-145h-90q-100 0 -152.5 54.5t-52.5 148.5v182h-88v142h42q56 0 56 59v81h162v-140h120v-142h-126v-162q0 -78 74 -78zM255 -38q35 0 57.5 -22t22.5 -58q0 -47 -48 -119l-33 -54l-75 29l34 58q1 2 7 13q-47 23 -47 75q0 34 23.5 56t58.5 22z" />
    <glyph glyph-name="uni0237" unicode="&#x237;" horiz-adv-x="266" 
d="M-36 -185l-1 142h10q35 0 56.5 23t21.5 62v485h167v-482q0 -107 -63 -168.5t-160 -61.5h-31z" />
    <glyph glyph-name="circumflex" unicode="&#x2c6;" horiz-adv-x="397" 
d="M450 599h-144l-67 98l-65 -98h-144l141 204h143z" />
    <glyph glyph-name="caron" unicode="&#x2c7;" horiz-adv-x="471" 
d="M306 803h144l-136 -204h-143l-141 204h144l65 -98z" />
    <glyph glyph-name="breve" unicode="&#x2d8;" horiz-adv-x="413" 
d="M226 599q-92 0 -144 55t-52 149h130q0 -40 18 -61t48 -21q29 0 47 21t18 61h130q0 -94 -52 -149t-143 -55z" />
    <glyph glyph-name="dotaccent" unicode="&#x2d9;" horiz-adv-x="223" 
d="M135 599q-45 0 -75 28.5t-30 73.5q0 44 30.5 73.5t74.5 29.5t74.5 -29.5t30.5 -73.5q0 -45 -30 -73.5t-75 -28.5z" />
    <glyph glyph-name="ring" unicode="&#x2da;" horiz-adv-x="299" 
d="M172 565q-62 0 -102 37.5t-40 97.5q0 58 40 96t102 38t101 -38t39 -96q0 -60 -39 -97.5t-101 -37.5zM172 656q19 0 31.5 12.5t12.5 31.5q0 18 -12.5 30t-31.5 12q-20 0 -33 -12t-13 -30q0 -19 13 -31.5t33 -12.5z" />
    <glyph glyph-name="ogonek" unicode="&#x2db;" horiz-adv-x="304" 
d="M157 -238q-57 0 -92 29.5t-35 78.5q0 71 95 140l50 36l59 -45l-42 -41q-37 -37 -37 -63q0 -30 29 -30q18 0 32 14l58 -77q-39 -42 -117 -42z" />
    <glyph glyph-name="tilde" unicode="&#x2dc;" horiz-adv-x="484" 
d="M319 609q-35 0 -73.5 24t-56.5 24q-37 0 -46 -41l-113 48q13 55 45 92.5t87 37.5q34 0 72.5 -24t58.5 -24q33 0 44 41l113 -48q-35 -130 -131 -130z" />
    <glyph glyph-name="hungarumlaut" unicode="&#x2dd;" horiz-adv-x="434" 
d="M131 566l-101 73l133 190l115 -84zM373 566l-101 73l133 190l115 -84z" />
    <glyph glyph-name="gravecomb" unicode="&#x300;" 
d="M-97 566l-255 146l75 121l247 -161z" />
    <glyph glyph-name="acutecomb" unicode="&#x301;" 
d="M-285 566l-67 106l247 161l75 -121z" />
    <glyph glyph-name="uni0302" unicode="&#x302;" 
d="M-30 599h-144l-67 98l-65 -98h-144l141 204h143z" />
    <glyph glyph-name="tildecomb" unicode="&#x303;" 
d="M-161 609q-35 0 -73.5 24t-56.5 24q-37 0 -46 -41l-113 48q13 55 45 92.5t87 37.5q34 0 72.5 -24t58.5 -24q33 0 44 41l113 -48q-35 -130 -131 -130z" />
    <glyph glyph-name="uni0304" unicode="&#x304;" 
d="M-375 636v131h345v-131h-345z" />
    <glyph glyph-name="uni0306" unicode="&#x306;" 
d="M-207 599q-92 0 -144 55t-52 149h130q0 -40 18 -61t48 -21q29 0 47 21t18 61h130q0 -94 -52 -149t-143 -55z" />
    <glyph glyph-name="uni0307" unicode="&#x307;" 
d="M-135 599q-45 0 -75 28.5t-30 73.5q0 44 30.5 73.5t74.5 29.5t74.5 -29.5t30.5 -73.5q0 -45 -30 -73.5t-75 -28.5z" />
    <glyph glyph-name="uni0308" unicode="&#x308;" 
d="M-379 602q-41 0 -70 28t-29 72t29 71t73 27q42 0 70 -28.5t28 -72.5q0 -42 -29 -69.5t-72 -27.5zM-131 602q-42 0 -71 28t-29 72q0 43 29.5 70.5t72.5 27.5q42 0 70.5 -28.5t28.5 -72.5q0 -42 -29 -69.5t-72 -27.5z" />
    <glyph glyph-name="uni030A" unicode="&#x30a;" 
d="M-170 565q-62 0 -102 37.5t-40 97.5q0 58 40 96t102 38t101 -38t39 -96q0 -60 -39 -97.5t-101 -37.5zM-170 656q19 0 31.5 12.5t12.5 31.5q0 18 -12.5 30t-31.5 12q-20 0 -33 -12t-13 -30q0 -19 13 -31.5t33 -12.5z" />
    <glyph glyph-name="uni030B" unicode="&#x30b;" 
d="M-418 566l-102 73l134 190l114 -84zM-176 566l-102 73l134 190l114 -84z" />
    <glyph glyph-name="uni030C" unicode="&#x30c;" 
d="M-174 803h144l-136 -204h-143l-141 204h144l65 -98z" />
    <glyph glyph-name="uni0326" unicode="&#x326;" 
d="M-109 -48q35 0 57.5 -22t22.5 -57q0 -47 -48 -120l-34 -53l-75 29l35 57q4 7 7 14q-47 21 -47 75q0 34 23.5 55.5t58.5 21.5z" />
    <glyph glyph-name="uni0327" unicode="&#x327;" 
d="M-166 -242q-84 0 -127 47l54 68q18 -25 50 -25q19 0 30 9t11 24q0 16 -11.5 26t-31.5 10h-15l-8 7l33 94h98l-21 -58q32 -5 53 -31t21 -63q0 -49 -37.5 -78.5t-98.5 -29.5z" />
    <glyph glyph-name="uni0328" unicode="&#x328;" 
d="M-147 -238q-57 0 -92 29.5t-35 78.5q0 71 95 140l50 36l59 -45l-42 -41q-37 -37 -37 -63q0 -30 29 -30q18 0 32 14l58 -77q-39 -42 -117 -42z" />
    <glyph glyph-name="uni0335" unicode="&#x335;" 
d="M-402 225v114h372v-114h-372z" />
    <glyph glyph-name="uni0336" unicode="&#x336;" 
d="M-727 263v130h697v-130h-697z" />
    <glyph glyph-name="uni0337" unicode="&#x337;" 
d="M-373 169l-62 105l333 184l61 -104z" />
    <glyph glyph-name="uni0338" unicode="&#x338;" 
d="M-240 443l134 117l76 -88l-135 -116zM-540 184l75 -89l-119 -103l-78 88z" />
    <glyph glyph-name="Wgrave" unicode="&#x1e80;" horiz-adv-x="927" 
d="M636 863l-37 -120l-309 88l41 136zM758 695h165l-157 -695h-198l-104 461l-106 -461h-196l-158 695h165l94 -497l110 497h181l110 -499z" />
    <glyph glyph-name="wgrave" unicode="&#x1e81;" horiz-adv-x="819" 
d="M561 672l-66 -106l-256 146l75 121zM651 527h170l-134 -527h-196l-78 335l-75 -335h-198l-135 527h169l72 -358l74 358h186l75 -358z" />
    <glyph glyph-name="Wacute" unicode="&#x1e82;" horiz-adv-x="927" 
d="M646 831l-310 -88l-36 120l305 104zM758 695h165l-157 -695h-198l-104 461l-106 -461h-196l-158 695h165l94 -497l110 497h181l110 -499z" />
    <glyph glyph-name="wacute" unicode="&#x1e83;" horiz-adv-x="819" 
d="M568 712l-255 -146l-67 106l247 161zM651 527h170l-134 -527h-196l-78 335l-75 -335h-198l-135 527h169l72 -358l74 358h186l75 -358z" />
    <glyph glyph-name="Wdieresis" unicode="&#x1e84;" horiz-adv-x="927" 
d="M333 751q-43 0 -73 29t-30 75q0 44 30.5 72.5t75.5 28.5q43 0 72.5 -29.5t29.5 -74.5q0 -44 -30 -72.5t-75 -28.5zM589 751q-43 0 -73 29t-30 75q0 44 30.5 72.5t75.5 28.5q43 0 72.5 -29.5t29.5 -74.5q0 -44 -30 -72.5t-75 -28.5zM758 695h165l-157 -695h-198l-104 461
l-106 -461h-196l-158 695h165l94 -497l110 497h181l110 -499z" />
    <glyph glyph-name="wdieresis" unicode="&#x1e85;" horiz-adv-x="819" 
d="M284 602q-41 0 -70 28t-29 72t29 71t73 27q42 0 70 -28.5t28 -72.5q0 -42 -29 -69.5t-72 -27.5zM531 602q-41 0 -70 28t-29 72t29 71t73 27q42 0 70.5 -28.5t28.5 -72.5q0 -42 -29.5 -69.5t-72.5 -27.5zM651 527h170l-134 -527h-196l-78 335l-75 -335h-198l-135 527h169
l72 -358l74 358h186l75 -358z" />
    <glyph glyph-name="uni1E9E" unicode="&#x1e9e;" horiz-adv-x="656" 
d="M481 376q67 -18 106.5 -67.5t39.5 -120.5q0 -92 -63 -145t-170 -53q-98 0 -137 46l49 123q25 -34 71 -34q40 0 61 20.5t21 57.5q0 38 -26 59.5t-72 21.5h-35v95l105 147q-35 35 -96 35q-55 0 -85 -29t-30 -79v-453h-167v452q0 115 77 184t202 69q208 0 270 -165z" />
    <glyph glyph-name="Ygrave" unicode="&#x1ef2;" horiz-adv-x="660" 
d="M505 863l-37 -120l-309 88l40 136zM666 695l-252 -411v-284h-167v282l-252 413h187l149 -265l148 265h187z" />
    <glyph glyph-name="ygrave" unicode="&#x1ef3;" horiz-adv-x="571" 
d="M438 672l-67 -106l-255 146l75 121zM400 527h171l-187 -527l-63 -179h-164l69 179h-56l-168 527h172l104 -396z" />
    <glyph glyph-name="uni1EF8" unicode="&#x1ef8;" horiz-adv-x="660" 
d="M281 802q-38 0 -47 -41l-114 48q13 52 50 91t95 39q38 0 77.5 -24t57.5 -24q35 0 47 41l113 -48q-15 -55 -51 -92.5t-93 -37.5q-37 0 -76 24t-59 24zM666 695l-252 -411v-284h-167v282l-252 413h187l149 -265l148 265h187z" />
    <glyph glyph-name="uni1EF9" unicode="&#x1ef9;" horiz-adv-x="571" 
d="M234 657q-35 0 -46 -41l-113 48q13 54 45.5 92t86.5 38q34 0 72.5 -24t58.5 -24q35 0 44 41l114 -48q-35 -130 -131 -130q-35 0 -74 24t-57 24zM400 527h171l-187 -527l-63 -179h-164l69 179h-56l-168 527h172l104 -396z" />
    <glyph glyph-name="endash" unicode="&#x2013;" horiz-adv-x="505" 
d="M49 177v135h407v-135h-407z" />
    <glyph glyph-name="emdash" unicode="&#x2014;" horiz-adv-x="749" 
d="M49 177v135h651v-135h-651z" />
    <glyph glyph-name="quoteleft" unicode="&#x2018;" horiz-adv-x="232" 
d="M135 576q32 -5 51 -27t19 -57q0 -39 -26.5 -64.5t-64.5 -25.5q-37 0 -63.5 26t-26.5 66t23 90l61 131h91z" />
    <glyph glyph-name="quoteright" unicode="&#x2019;" horiz-adv-x="234" 
d="M123 723q38 0 64.5 -26t26.5 -67q0 -40 -24 -89l-60 -131h-92l65 138q-32 5 -51 27.5t-19 56.5q0 39 26.5 65t63.5 26z" />
    <glyph glyph-name="quotesinglbase" unicode="&#x201a;" horiz-adv-x="237" 
d="M118 165q38 0 64 -26t26 -67q0 -39 -23 -89l-61 -131h-91l65 139q-32 5 -51 26.5t-19 57.5q0 38 26.5 64t63.5 26z" />
    <glyph glyph-name="quotedblleft" unicode="&#x201c;" horiz-adv-x="444" 
d="M135 576q32 -5 51 -27t19 -57q0 -39 -26.5 -64.5t-64.5 -25.5q-37 0 -63.5 26t-26.5 66t23 90l61 131h91zM347 576q31 -5 50 -27t19 -57q0 -39 -26 -64.5t-64 -25.5q-37 0 -63.5 26t-26.5 66t23 90l61 131h91z" />
    <glyph glyph-name="quotedblright" unicode="&#x201d;" horiz-adv-x="446" 
d="M123 723q38 0 64.5 -26t26.5 -67q0 -40 -24 -89l-60 -131h-92l65 138q-32 5 -51 27.5t-19 56.5q0 39 26.5 65t63.5 26zM335 723q38 0 64 -26t26 -67q0 -39 -23 -89l-61 -131h-91l65 138q-32 5 -51 27t-19 57q0 39 26.5 65t63.5 26z" />
    <glyph glyph-name="quotedblbase" unicode="&#x201e;" horiz-adv-x="449" 
d="M118 165q38 0 64 -26t26 -67q0 -39 -23 -89l-61 -131h-91l65 139q-32 5 -51 26.5t-19 57.5q0 38 26.5 64t63.5 26zM330 165q38 0 64 -26.5t26 -66.5q0 -39 -23 -89l-61 -131h-91l64 139q-31 5 -50 27t-19 57q0 39 26 64.5t64 25.5z" />
    <glyph glyph-name="dagger" unicode="&#x2020;" horiz-adv-x="391" 
d="M356 615v-114h-99v-231h-123v231h-99v114h99v116h123v-116h99z" />
    <glyph glyph-name="daggerdbl" unicode="&#x2021;" horiz-adv-x="416" 
d="M369 540h-100v-79h100v-115h-100v-76h-123v76h-98v115h98v79h-98v115h98v76h123v-76h100v-115z" />
    <glyph glyph-name="bullet" unicode="&#x2022;" horiz-adv-x="403" 
d="M202 191q-63 0 -105.5 42t-42.5 104q0 65 42.5 107.5t105.5 42.5t105 -42.5t42 -107.5q0 -62 -42.5 -104t-104.5 -42z" />
    <glyph glyph-name="ellipsis" unicode="&#x2026;" horiz-adv-x="679" 
d="M119 -10q-38 0 -64 26t-26 64q0 40 26 66t64 26q39 0 65 -26t26 -66q0 -38 -26 -64t-65 -26zM339 -10q-38 0 -64 26t-26 64q0 40 26 66t64 26q39 0 65 -26t26 -66q0 -38 -26 -64t-65 -26zM559 -10q-38 0 -64 26t-26 64q0 40 26 66t64 26q39 0 65 -26t26 -66
q0 -38 -26 -64t-65 -26z" />
    <glyph glyph-name="perthousand" unicode="&#x2030;" horiz-adv-x="1094" 
d="M185 378q-69 0 -115.5 47t-46.5 116q0 68 46.5 115.5t115.5 47.5q70 0 116.5 -47.5t46.5 -115.5q0 -69 -46 -116t-117 -47zM117 0l393 695l129 1l-396 -695zM185 481q25 0 41 17t16 43q0 25 -16 42.5t-41 17.5q-24 0 -40 -17.5t-16 -42.5q0 -26 16 -43t40 -17zM567 -9
q-69 0 -115.5 47.5t-46.5 115.5t46.5 115.5t115.5 47.5q70 0 116.5 -47.5t46.5 -115.5t-46.5 -115.5t-116.5 -47.5zM911 -9q-70 0 -116.5 47.5t-46.5 115.5t46.5 115.5t116.5 47.5t116 -47.5t46 -115.5t-46 -115.5t-116 -47.5zM567 94q25 0 41 17t16 43t-16 43t-41 17
t-40.5 -17t-15.5 -43t16 -43t40 -17zM911 94q25 0 40.5 17t15.5 43t-15.5 43t-40.5 17t-41 -17t-16 -43t16 -43t41 -17z" />
    <glyph glyph-name="guilsinglleft" unicode="&#x2039;" horiz-adv-x="331" 
d="M139 69l-117 173l117 172h154l-117 -172l117 -173h-154z" />
    <glyph glyph-name="guilsinglright" unicode="&#x203a;" horiz-adv-x="331" 
d="M38 69l117 173l-117 172h154l117 -172l-117 -173h-154z" />
    <glyph glyph-name="fraction" unicode="&#x2044;" horiz-adv-x="416" 
d="M-17 0l333 695h120l-334 -695h-119z" />
    <glyph glyph-name="uni2074" unicode="&#x2074;" horiz-adv-x="335" 
d="M305 483v-73h-30v-63h-104v63h-149v77l150 208h103v-212h30zM172 483v97l-70 -97h70z" />
    <glyph glyph-name="Euro" unicode="&#x20ac;" horiz-adv-x="759" 
d="M438 145q112 0 152 87l143 -96q-41 -66 -115.5 -107.5t-175.5 -41.5q-116 0 -206.5 60.5t-126.5 161.5h-85l10 107h54v15v15h-49l10 107h60q36 102 126.5 162.5t207.5 60.5q100 0 174 -42t116 -107l-143 -96q-43 87 -151 87q-91 0 -142 -65h159l-9 -107h-189v-15v-15h184
l-11 -107h-134q50 -64 141 -64z" />
    <glyph glyph-name="trademark" unicode="&#x2122;" horiz-adv-x="663" 
d="M263 662v-77h-76v-201h-86v201h-76v77h238zM617 384h-79l-11 144l-40 -137h-71l-39 137l-11 -144h-80l22 278h101l43 -154l43 154h100z" />
    <glyph glyph-name="minus" unicode="&#x2212;" horiz-adv-x="528" 
d="M53 262v140h423v-140h-423z" />
    <glyph glyph-name="approxequal" unicode="&#x2248;" horiz-adv-x="539" 
d="M364 336q-43 0 -91 26t-77 26q-54 0 -79 -38l-78 90q49 83 136 83q44 0 91.5 -26t76.5 -26q55 0 79 38l78 -90q-49 -83 -136 -83zM364 107q-44 0 -91.5 25.5t-76.5 25.5q-56 0 -79 -38l-78 90q49 83 136 83q44 0 91.5 -26t76.5 -26q54 0 79 39l78 -90q-49 -83 -136 -83z
" />
    <glyph glyph-name="notequal" unicode="&#x2260;" horiz-adv-x="529" 
d="M476 360h-122l-28 -91h150v-140h-194l-28 -88h-154l28 88h-75v140h119l29 91h-148v140h192l28 87h153l-27 -87h77v-140z" />
    <glyph glyph-name="uniF8FF" unicode="&#xf8ff;" horiz-adv-x="2307" 
d="M561 199q-46 0 -66.5 19.5t-20.5 63.5v228h99q0 -30 -19.5 -59.5t-47.5 -42.5l1 -4q28 17 58 17h51v-79h-42v-48q0 -17 18 -17q14 0 24 7v-75q-17 -10 -55 -10zM636 204v306h98q0 -33 -23 -59.5t-56 -34.5l2 -3q41 8 70 8h8v-217h-99zM1371 199q-46 0 -67 19.5t-21 63.5
v228h99q0 -30 -19 -59.5t-48 -42.5l2 -4q28 17 58 17h50v-79h-42v-48q0 -17 18 -17q13 0 24 7v-75q-17 -10 -54 -10zM100 204v305h99v-305h-99zM285 199q-32 0 -51 17t-19 44q0 29 20 47.5t54 18.5q45 0 66 -21h2v35q0 25 -23 25t-23 -29l-90 14q18 78 122 78q54 0 84 -24
t30 -66v-134h-98v22h-3q-19 -27 -71 -27zM756 204v217h97v-65h3q8 70 71 70q34 0 53.5 -22.5t19.5 -65.5v-134h-100v129q0 27 -19 27q-11 0 -15.5 -6.5t-10.5 -25.5v-124h-99zM1141 199q-60 0 -93 31t-33 82t33.5 82.5t92.5 31.5t92.5 -31.5t33.5 -82.5q0 -50 -33 -81.5
t-93 -31.5zM1691 132v289h99v-65h3q11 70 73 70q83 0 83 -114q0 -56 -25 -84.5t-61 -28.5q-52 0 -69 43h-3v-110h-100zM2087 199q-59 0 -91.5 31t-32.5 82q0 50 34.5 82t92.5 32q52 0 84.5 -31.5t32.5 -77.5v-9h-150q0 -19 9 -32.5t25 -13.5q26 0 30 34l82 -8
q-8 -46 -40 -67.5t-76 -21.5zM1472 128v66h65q57 0 67 12l-1 3h-68q-40 0 -52 39l-54 173h100q3 -16 10 -53t11.5 -66.5t6.5 -53.5h2q6 57 30 173h99l-71 -207q-31 -86 -106 -86h-39zM2057 320h6q55 0 55 24q0 22 -24 22q-17 0 -27 -12.5t-10 -33.5zM1825 247q30 0 30 57
q0 61 -27 61q-22 0 -30 -33v-72q10 -13 27 -13zM1141 261q29 0 29 51q0 52 -29 52q-28 0 -28 -52q0 -51 28 -51zM335 229q15 0 22 11v51q-5 8 -19 8q-27 0 -27 -35t24 -35z" />
    <glyph glyph-name="uni00A40301" horiz-adv-x="352" 
d="M89 743l-37 120l306 104l41 -136zM22 0v149h38q71 0 71 74v472h168v-474q0 -103 -58 -162t-167 -59h-52z" />
    <glyph glyph-name="Q.ss01" horiz-adv-x="792" 
d="M679 149h89v-149h-371q-160 0 -263.5 98t-103.5 250q0 153 106 256.5t261 103.5q153 0 257 -101t104 -246q0 -127 -79 -212zM394 147q87 0 140.5 56.5t53.5 145.5q0 88 -53.5 144.5t-140.5 56.5t-140.5 -56.5t-53.5 -144.5q0 -89 54 -145.5t140 -56.5z" />
    <glyph glyph-name="i.loclTRK" horiz-adv-x="263" 
d="M132 598q-45 0 -75 28.5t-30 73.5t30 74t75 29t75 -29t30 -74t-30 -73.5t-75 -28.5zM48 0v527h167v-527h-167z" />
    <glyph glyph-name="uni006A0301" horiz-adv-x="266" 
d="M42 565l-67 107l247 161l75 -121zM-36 -185l-1 142h10q35 0 56.5 23t21.5 62v485h167v-482q0 -107 -63 -168.5t-160 -61.5h-31z" />
    <glyph glyph-name="g.ss01" horiz-adv-x="589" 
d="M571 527v-142h-74q9 -31 9 -68q0 -94 -57 -156q93 -48 93 -158q0 -84 -74 -139.5t-195 -55.5q-214 0 -271 152l150 58q30 -74 117 -74q50 0 76.5 20.5t26.5 54.5q0 33 -26.5 53.5t-75.5 20.5q-110 0 -177.5 62t-67.5 162q0 97 67.5 160t177.5 63q46 0 88 -13h213z
M182 317q0 -38 24.5 -63t63.5 -25q38 0 62.5 25t24.5 63q0 37 -24.5 62t-62.5 25q-39 0 -63.5 -25t-24.5 -62z" />
    <glyph glyph-name="gbreve.ss01" horiz-adv-x="589" 
d="M280 599q-91 0 -143.5 55t-52.5 149h130q0 -40 18 -61t48 -21t47.5 20.5t17.5 61.5h130q0 -94 -52 -149t-143 -55zM571 527v-142h-74q9 -31 9 -68q0 -94 -57 -156q93 -48 93 -158q0 -84 -74 -139.5t-195 -55.5q-214 0 -271 152l150 58q30 -74 117 -74q50 0 76.5 20.5
t26.5 54.5q0 33 -26.5 53.5t-75.5 20.5q-110 0 -177.5 62t-67.5 162q0 97 67.5 160t177.5 63q46 0 88 -13h213zM182 317q0 -38 24.5 -63t63.5 -25q38 0 62.5 25t24.5 63q0 37 -24.5 62t-62.5 25q-39 0 -63.5 -25t-24.5 -62z" />
    <glyph glyph-name="uni0123.ss01" horiz-adv-x="589" 
d="M288 589q-34 0 -57 22.5t-23 57.5q0 47 49 119l33 54l75 -29l-35 -58q-2 -2 -7 -13q47 -23 47 -75q0 -34 -23.5 -56t-58.5 -22zM571 527v-142h-74q9 -31 9 -68q0 -94 -57 -156q93 -48 93 -158q0 -84 -74 -139.5t-195 -55.5q-214 0 -271 152l150 58q30 -74 117 -74
q50 0 76.5 20.5t26.5 54.5q0 33 -26.5 53.5t-75.5 20.5q-110 0 -177.5 62t-67.5 162q0 97 67.5 160t177.5 63q46 0 88 -13h213zM182 317q0 -38 24.5 -63t63.5 -25q38 0 62.5 25t24.5 63q0 37 -24.5 62t-62.5 25q-39 0 -63.5 -25t-24.5 -62z" />
    <glyph glyph-name="gdotaccent.ss01" horiz-adv-x="589" 
d="M280 599q-45 0 -75 28.5t-30 73.5q0 44 30.5 73.5t74.5 29.5t74.5 -29.5t30.5 -73.5q0 -45 -30 -73.5t-75 -28.5zM571 527v-142h-74q9 -31 9 -68q0 -94 -57 -156q93 -48 93 -158q0 -84 -74 -139.5t-195 -55.5q-214 0 -271 152l150 58q30 -74 117 -74q50 0 76.5 20.5
t26.5 54.5q0 33 -26.5 53.5t-75.5 20.5q-110 0 -177.5 62t-67.5 162q0 97 67.5 160t177.5 63q46 0 88 -13h213zM182 317q0 -38 24.5 -63t63.5 -25q38 0 62.5 25t24.5 63q0 37 -24.5 62t-62.5 25q-39 0 -63.5 -25t-24.5 -62z" />
    <glyph glyph-name="t.ss01" horiz-adv-x="403" 
d="M118 0v385h-108v142h62q56 0 56 59v81h162v-140h100v-142h-105v-385h-167z" />
    <glyph glyph-name="tbar.ss01" horiz-adv-x="435" 
d="M408 385h-106v-77h101v-115h-101v-193h-167v193h-104v115h104v77h-108v142h63q55 0 55 59v81h163v-140h100v-142z" />
    <glyph glyph-name="tcaron.ss01" horiz-adv-x="403" 
d="M340 549l20 259h118l-31 -259h-107zM118 0v385h-108v142h62q56 0 56 59v81h162v-140h100v-142h-105v-385h-167z" />
    <glyph glyph-name="uni0163.ss01" horiz-adv-x="403" 
d="M285 0h-33l-16 -46q31 -4 52.5 -30.5t21.5 -62.5q0 -49 -38 -79t-98 -30q-84 0 -127 48l54 67q18 -25 50 -25q18 0 29 9.5t11 24.5t-11 25t-31 10h-16l-8 7l28 82h-35v385h-108v142h62q56 0 56 59v81h162v-140h100v-142h-105v-385z" />
    <glyph glyph-name="uni021B.ss01" horiz-adv-x="403" 
d="M290 527h100v-142h-105v-385h-167v385h-108v142h62q56 0 56 59v81h162v-140zM204 -53q35 0 57.5 -22.5t22.5 -57.5q0 -47 -48 -120l-33 -53l-75 29l34 58q1 2 7 13q-47 23 -47 75q0 34 23.5 56t58.5 22z" />
    <glyph glyph-name="u.ss01" horiz-adv-x="590" 
d="M295 -13q-120 0 -186.5 64.5t-66.5 177.5v298h166v-304q0 -40 23.5 -64t63.5 -24t63.5 24t23.5 64v304h167v-298q0 -113 -66.5 -177.5t-187.5 -64.5z" />
    <glyph glyph-name="uacute.ss01" horiz-adv-x="590" 
d="M198 566l-66 106l247 161l75 -121zM295 -13q-120 0 -186.5 64.5t-66.5 177.5v298h166v-304q0 -40 23.5 -64t63.5 -24t63.5 24t23.5 64v304h167v-298q0 -113 -66.5 -177.5t-187.5 -64.5z" />
    <glyph glyph-name="ucircumflex.ss01" horiz-adv-x="590" 
d="M294 697l-65 -98h-144l140 204h144l135 -204h-143zM382 527h167v-298q0 -113 -66.5 -177.5t-187.5 -64.5q-120 0 -186.5 64.5t-66.5 177.5v298h166v-304q0 -40 23.5 -64t63.5 -24t63.5 24t23.5 64v304z" />
    <glyph glyph-name="udieresis.ss01" horiz-adv-x="590" 
d="M169 602q-41 0 -70 28t-29 72q0 43 29.5 70.5t73.5 27.5q42 0 70 -28.5t28 -72.5q0 -42 -29.5 -69.5t-72.5 -27.5zM417 602q-41 0 -70 28t-29 72t29 71t73 27q42 0 70.5 -28.5t28.5 -72.5q0 -42 -29.5 -69.5t-72.5 -27.5zM295 -13q-120 0 -186.5 64.5t-66.5 177.5v298
h166v-304q0 -40 23.5 -64t63.5 -24t63.5 24t23.5 64v304h167v-298q0 -113 -66.5 -177.5t-187.5 -64.5z" />
    <glyph glyph-name="ugrave.ss01" horiz-adv-x="590" 
d="M380 566l-255 146l75 121l247 -161zM295 -13q-120 0 -186.5 64.5t-66.5 177.5v298h166v-304q0 -40 23.5 -64t63.5 -24t63.5 24t23.5 64v304h167v-298q0 -113 -66.5 -177.5t-187.5 -64.5z" />
    <glyph glyph-name="uhungarumlaut.ss01" horiz-adv-x="590" 
d="M172 566l-101 73l133 190l115 -84zM415 566l-102 73l134 190l114 -84zM295 -13q-120 0 -186.5 64.5t-66.5 177.5v298h166v-304q0 -40 23.5 -64t63.5 -24t63.5 24t23.5 64v304h167v-298q0 -113 -66.5 -177.5t-187.5 -64.5z" />
    <glyph glyph-name="umacron.ss01" horiz-adv-x="590" 
d="M122 636v131h345v-131h-345zM295 -13q-120 0 -186.5 64.5t-66.5 177.5v298h166v-304q0 -40 23.5 -64t63.5 -24t63.5 24t23.5 64v304h167v-298q0 -113 -66.5 -177.5t-187.5 -64.5z" />
    <glyph glyph-name="uogonek.ss01" horiz-adv-x="590" 
d="M382 527h167v-298q0 -88 -41 -147.5t-117 -81.5l-42 -41q-38 -38 -38 -63q0 -14 8.5 -22t20.5 -8q19 0 32 14l59 -77q-39 -42 -117 -42q-57 0 -92 29.5t-35 78.5q0 61 69 120q-102 10 -158 73t-56 167v298h166v-304q0 -40 23.5 -64t63.5 -24t63.5 24t23.5 64v304z" />
    <glyph glyph-name="uring.ss01" horiz-adv-x="590" 
d="M295 565q-62 0 -101.5 37.5t-39.5 97.5q0 58 40 96t101 38q62 0 101.5 -38t39.5 -96q0 -60 -39.5 -97.5t-101.5 -37.5zM295 656q20 0 32.5 12.5t12.5 31.5q0 18 -13 30t-32 12q-20 0 -32.5 -12t-12.5 -30q0 -20 12.5 -32t32.5 -12zM295 -13q-120 0 -186.5 64.5
t-66.5 177.5v298h166v-304q0 -40 23.5 -64t63.5 -24t63.5 24t23.5 64v304h167v-298q0 -113 -66.5 -177.5t-187.5 -64.5z" />
    <glyph glyph-name="utilde.ss01" horiz-adv-x="590" 
d="M374 609q-36 0 -75 24t-56 24q-35 0 -46 -41l-113 48q13 54 45.5 92t86.5 38q34 0 72.5 -24t58.5 -24q35 0 44 41l114 -48q-35 -130 -131 -130zM295 -13q-120 0 -186.5 64.5t-66.5 177.5v298h166v-304q0 -40 23.5 -64t63.5 -24t63.5 24t23.5 64v304h167v-298
q0 -113 -66.5 -177.5t-187.5 -64.5z" />
    <glyph glyph-name="y.ss01" horiz-adv-x="595" 
d="M381 527h167v-476q0 -114 -67 -178.5t-190 -64.5q-179 0 -244 139l140 53q29 -64 105 -64q47 0 73 26t26 75v42q-60 -57 -147 -57q-96 0 -149 59t-53 152v294h166v-271q0 -38 23.5 -62t62.5 -23q39 0 63 23t24 62v271z" />
    <glyph glyph-name="yacute.ss01" horiz-adv-x="595" 
d="M458 712l-256 -146l-66 106l247 161zM381 527h167v-476q0 -114 -67 -178.5t-190 -64.5q-179 0 -244 139l140 53q29 -64 105 -64q47 0 73 26t26 75v42q-60 -57 -147 -57q-96 0 -149 59t-53 152v294h166v-271q0 -38 23.5 -62t62.5 -23q39 0 63 23t24 62v271z" />
    <glyph glyph-name="ycircumflex.ss01" horiz-adv-x="595" 
d="M298 697l-65 -98h-144l141 204h143l136 -204h-144zM381 527h167v-476q0 -114 -67 -178.5t-190 -64.5q-179 0 -244 139l140 53q29 -64 105 -64q47 0 73 26t26 75v42q-60 -57 -147 -57q-96 0 -149 59t-53 152v294h166v-271q0 -38 23.5 -62t62.5 -23q39 0 63 23t24 62v271z
" />
    <glyph glyph-name="ydieresis.ss01" horiz-adv-x="595" 
d="M174 602q-42 0 -71 28t-29 72q0 43 29.5 70.5t73.5 27.5q42 0 70 -28.5t28 -72.5q0 -42 -29 -69.5t-72 -27.5zM421 602q-41 0 -70 28t-29 72t29 71t73 27q42 0 70.5 -28.5t28.5 -72.5q0 -42 -29.5 -69.5t-72.5 -27.5zM381 527h167v-476q0 -114 -67 -178.5t-190 -64.5
q-179 0 -244 139l140 53q29 -64 105 -64q47 0 73 26t26 75v42q-60 -57 -147 -57q-96 0 -149 59t-53 152v294h166v-271q0 -38 23.5 -62t62.5 -23q39 0 63 23t24 62v271z" />
    <glyph glyph-name="ygrave.ss01" horiz-adv-x="595" 
d="M451 672l-66 -106l-256 146l75 121zM381 527h167v-476q0 -114 -67 -178.5t-190 -64.5q-179 0 -244 139l140 53q29 -64 105 -64q47 0 73 26t26 75v42q-60 -57 -147 -57q-96 0 -149 59t-53 152v294h166v-271q0 -38 23.5 -62t62.5 -23q39 0 63 23t24 62v271z" />
    <glyph glyph-name="uni1EF9.ss01" horiz-adv-x="595" 
d="M247 657q-35 0 -46 -41l-112 48q12 54 44.5 92t86.5 38q34 0 73 -24t58 -24q35 0 44 41l114 -48q-35 -130 -131 -130q-35 0 -74 24t-57 24zM381 527h167v-476q0 -114 -67 -178.5t-190 -64.5q-179 0 -244 139l140 53q29 -64 105 -64q47 0 73 26t26 75v42q-60 -57 -147 -57
q-96 0 -149 59t-53 152v294h166v-271q0 -38 23.5 -62t62.5 -23q39 0 63 23t24 62v271z" />
    <glyph glyph-name="zero.osf" horiz-adv-x="646" 
d="M323 -13q-125 0 -207.5 78t-82.5 201q0 124 81.5 198.5t208.5 74.5t208.5 -74.5t81.5 -198.5q0 -123 -82.5 -201t-207.5 -78zM323 135q54 0 89.5 34.5t35.5 94.5q0 58 -35.5 92.5t-89.5 34.5t-89.5 -34.5t-35.5 -92.5q0 -59 35.5 -94t89.5 -35z" />
    <glyph glyph-name="one.osf" horiz-adv-x="466" 
d="M341 142h104v-142h-402v142h132v243h-137v142h303v-385z" />
    <glyph glyph-name="two.osf" horiz-adv-x="559" 
d="M315 131h214v-131h-498v105q167 78 228 128.5t61 96.5q0 29 -17 45.5t-46 16.5q-58 0 -77 -58l-150 49q17 68 84 112t155 44q101 0 159.5 -48t58.5 -133q0 -66 -40 -120.5t-132 -106.5z" />
    <glyph glyph-name="three.osf" horiz-adv-x="559" 
d="M350 265q79 -9 129.5 -64t50.5 -133q0 -94 -72.5 -155.5t-187.5 -61.5q-97 0 -167 44t-91 115l152 61q11 -33 39.5 -52t67.5 -19q41 0 66.5 22.5t25.5 57.5t-24.5 57t-64.5 22h-120v107l133 119h-239v142h441v-130z" />
    <glyph glyph-name="four.osf" horiz-adv-x="577" 
d="M549 130v-122h-63v-126h-166v126h-298v123l299 396h165v-397h63zM321 130v190l-143 -190h143z" />
    <glyph glyph-name="five.osf" horiz-adv-x="549" 
d="M264 281q123 0 191 -54.5t68 -153.5q0 -98 -71 -160t-192 -62q-194 0 -253 163l152 60q10 -34 37 -54t66 -20q42 0 67.5 23t25.5 56q0 36 -24.5 58.5t-63.5 22.5h-195l20 367h383v-142h-243l-5 -104h37z" />
    <glyph glyph-name="six.osf" horiz-adv-x="573" 
d="M322 454q103 -8 165 -69.5t62 -157.5q0 -106 -72 -173t-187 -67q-114 0 -188 66t-74 169q0 93 73 190l186 248h193zM290 129q42 0 68 27t26 69q0 43 -25.5 69.5t-68.5 26.5t-70 -26.5t-27 -69.5q0 -42 27.5 -69t69.5 -27z" />
    <glyph glyph-name="seven.osf" horiz-adv-x="500" 
d="M15 527h465v-125l-210 -534h-186l210 520h-279v139z" />
    <glyph glyph-name="eight.osf" horiz-adv-x="586" 
d="M433 347q56 -21 88 -65.5t32 -99.5q0 -89 -70.5 -142t-189.5 -53q-120 0 -190 53t-70 142q0 57 30.5 101.5t85.5 63.5q-90 44 -90 144q0 80 62 131t172 51q111 -1 172 -51.5t61 -131.5q0 -101 -93 -143zM293 538q-34 0 -55 -18t-21 -48t21.5 -49t54.5 -19t54 18.5
t21 49.5q0 30 -20.5 48t-54.5 18zM293 121q43 0 69 22t26 59q0 35 -26 57t-69 22t-69 -22t-26 -57q0 -37 26 -59t69 -22z" />
    <glyph glyph-name="nine.osf" horiz-adv-x="563" 
d="M279 540q112 0 186.5 -64.5t74.5 -169.5q0 -84 -64 -172l-196 -267h-192l155 207q-102 9 -163.5 68.5t-61.5 157.5q0 109 74 174.5t187 65.5zM279 207q42 0 68.5 26.5t26.5 68.5t-27 69t-68 27q-42 0 -69 -27t-27 -69q0 -43 27 -69t69 -26z" />
    <glyph glyph-name="uni030C.alt" 
d="M-203 446l20 259h117l-30 -259h-107z" />
    <glyph glyph-name="caron.alt" horiz-adv-x="228" 
d="M53 446l20 259h117l-30 -259h-107z" />
    <glyph glyph-name="uni0308.case" 
d="M-391 751q-43 0 -73 29t-30 75q0 44 30.5 72.5t75.5 28.5q43 0 72.5 -29.5t29.5 -74.5q0 -44 -30 -72.5t-75 -28.5zM-135 751q-43 0 -73 29t-30 75q0 44 30.5 72.5t75.5 28.5q43 0 72.5 -29.5t29.5 -74.5q0 -44 -30 -72.5t-75 -28.5z" />
    <glyph glyph-name="uni0307.case" 
d="M-135 751q-43 0 -73 29t-30 75q0 44 30.5 72.5t75.5 28.5q43 0 72.5 -29.5t29.5 -74.5q0 -44 -30 -72.5t-75 -28.5z" />
    <glyph glyph-name="gravecomb.case" 
d="M-67 743l-309 88l41 136l305 -104z" />
    <glyph glyph-name="acutecomb.case" 
d="M-339 743l-37 120l305 104l41 -136z" />
    <glyph glyph-name="uni030B.case" 
d="M-420 735l-102 74l134 194l114 -84zM-176 735l-102 74l134 194l114 -84z" />
    <glyph glyph-name="uni0302.case" 
d="M-30 757h-147l-70 82l-68 -82h-148l151 192h135z" />
    <glyph glyph-name="uni030C.case" 
d="M-177 949h147l-147 -192h-135l-151 192h148l68 -82z" />
    <glyph glyph-name="uni0306.case" 
d="M-226 757q-89 0 -141.5 53.5t-52.5 138.5h136q0 -31 15.5 -50.5t42.5 -19.5t43 19.5t16 50.5h135q0 -85 -52.5 -138.5t-141.5 -53.5z" />
    <glyph glyph-name="uni030A.case" 
d="M-169 687q-62 0 -101.5 37.5t-39.5 97.5q0 58 40 96t101 38q62 0 101.5 -38t39.5 -96q0 -60 -39.5 -97.5t-101.5 -37.5zM-169 778q20 0 32.5 12.5t12.5 31.5q0 18 -13 30t-32 12q-20 0 -32.5 -12t-12.5 -30q0 -20 12.5 -32t32.5 -12z" />
    <glyph glyph-name="tildecomb.case" 
d="M-175 761q-37 0 -75.5 23.5t-58.5 23.5q-38 0 -47 -41l-114 48q13 52 50 91t95 39q37 0 77 -24t58 -24q36 0 46 42l114 -48q-14 -55 -50.5 -92.5t-94.5 -37.5z" />
    <glyph glyph-name="uni0304.case" 
d="M-408 786v136h378v-136h-378z" />
    <glyph glyph-name="uni0326.case" 
d="M-109 -48q35 0 57.5 -22t22.5 -57q0 -47 -48 -120l-34 -53l-75 29l35 57q4 7 7 14q-47 21 -47 75q0 34 23.5 55.5t58.5 21.5z" />
    <glyph glyph-name="uni0337.case" 
d="M-387 188l-34 104l357 124l34 -104z" />
    <glyph glyph-name="uni0338.case" 
d="M-676 -12l-97 91l640 667l96 -94z" />
    <glyph glyph-name="dieresis.case" horiz-adv-x="471" 
d="M133 751q-43 0 -73 29t-30 75q0 44 30.5 72.5t75.5 28.5q43 0 72.5 -29.5t29.5 -74.5q0 -44 -30 -72.5t-75 -28.5zM389 751q-43 0 -73 29t-30 75q0 44 30.5 72.5t75.5 28.5q43 0 72.5 -29.5t29.5 -74.5q0 -44 -30 -72.5t-75 -28.5z" />
    <glyph glyph-name="dotaccent.case" horiz-adv-x="191" 
d="M133 751q-43 0 -73 29t-30 75q0 44 30.5 72.5t75.5 28.5q43 0 72.5 -29.5t29.5 -74.5q0 -44 -30 -72.5t-75 -28.5z" />
    <glyph glyph-name="grave.case" horiz-adv-x="362" 
d="M339 743l-309 88l41 136l305 -104z" />
    <glyph glyph-name="acute.case" horiz-adv-x="362" 
d="M67 743l-37 120l305 104l41 -136z" />
    <glyph glyph-name="hungarumlaut.case" horiz-adv-x="579" 
d="M132 735l-102 74l134 194l114 -84zM376 735l-102 74l134 194l114 -84z" />
    <glyph glyph-name="circumflex.case" horiz-adv-x="471" 
d="M463 757h-147l-70 82l-68 -82h-148l151 192h135z" />
    <glyph glyph-name="caron.case" horiz-adv-x="471" 
d="M316 949h147l-147 -192h-135l-151 192h148l68 -82z" />
    <glyph glyph-name="breve.case" horiz-adv-x="426" 
d="M224 757q-89 0 -141.5 53.5t-52.5 138.5h136q0 -31 15.5 -50.5t42.5 -19.5t43 19.5t16 50.5h135q0 -85 -52.5 -138.5t-141.5 -53.5z" />
    <glyph glyph-name="ring.case" horiz-adv-x="299" 
d="M170 687q-62 0 -101.5 37.5t-39.5 97.5q0 58 40 96t101 38q62 0 101.5 -38t39.5 -96q0 -60 -39.5 -97.5t-101.5 -37.5zM170 778q20 0 32.5 12.5t12.5 31.5q0 18 -13 30t-32 12q-20 0 -32.5 -12t-12.5 -30q0 -20 12.5 -32t32.5 -12z" />
    <glyph glyph-name="tilde.case" horiz-adv-x="484" 
d="M325 761q-37 0 -75.5 23.5t-58.5 23.5q-38 0 -47 -41l-114 48q13 52 50 91t95 39q37 0 77 -24t58 -24q36 0 46 42l114 -48q-14 -55 -50.5 -92.5t-94.5 -37.5z" />
    <glyph glyph-name="macron.case" horiz-adv-x="436" 
d="M30 786v136h378v-136h-378z" />
    <glyph glyph-name="IJacute" horiz-adv-x="632" 
d="M17 743l-37 120l305 104l41 -136zM369 743l-37 120l305 104l41 -136zM59 0v695h167v-695h-167zM302 0v149h38q35 0 53 19.5t18 54.5v472h167v-474q0 -103 -57.5 -162t-166.5 -59h-52z" />
    <glyph glyph-name="ijacute" horiz-adv-x="555" 
d="M35 565l-66 106l247 162l75 -122zM331 565l-66 107l247 161l75 -121zM48 0v527h167v-527h-167zM253 -185v142h10q35 0 56.5 23t21.5 62v485h166v-482q0 -107 -62.5 -168.5t-160.5 -61.5h-31z" />
    </font>
</defs>
</svg>
