<svg width="134" height="45" viewBox="0 0 134 45" fill="none" xmlns="http://www.w3.org/2000/svg">
<path d="M122.909 0.533346H11.0973C10.6897 0.533346 10.287 0.533346 9.88054 0.535546C9.54027 0.537746 9.20271 0.544137 8.85918 0.549516C8.11286 0.558208 7.36829 0.62319 6.63195 0.743897C5.89665 0.867232 5.18438 1.09975 4.51923 1.4336C3.8549 1.77026 3.24787 2.20773 2.72019 2.73012C2.18973 3.25105 1.74756 3.85316 1.41066 4.51332C1.07284 5.17217 0.838591 5.87818 0.716009 6.60697C0.592262 7.33485 0.525673 8.07112 0.516838 8.80917C0.506524 9.14643 0.505435 9.48482 0.5 9.82212V35.2478C0.505435 35.5894 0.506524 35.9202 0.516838 36.2619C0.525675 36.9999 0.592265 37.7361 0.716009 38.464C0.838253 39.1932 1.07251 39.8996 1.41066 40.5587C1.7474 41.2167 2.18964 41.8164 2.72019 42.3344C3.24587 42.8592 3.85329 43.2969 4.51923 43.631C5.18437 43.9658 5.89656 44.1997 6.63195 44.3249C7.36842 44.4446 8.1129 44.5096 8.85918 44.5194C9.20271 44.5269 9.54027 44.5311 9.88054 44.5311C10.287 44.5333 10.6897 44.5333 11.0973 44.5333H122.909C123.308 44.5333 123.714 44.5333 124.114 44.5311C124.452 44.5311 124.799 44.5269 125.138 44.5194C125.883 44.5102 126.626 44.4452 127.361 44.3249C128.099 44.1988 128.814 43.9649 129.482 43.631C130.147 43.2967 130.754 42.859 131.279 42.3344C131.809 41.8144 132.252 41.2151 132.593 40.5587C132.928 39.8991 133.16 39.1928 133.281 38.464C133.405 37.736 133.474 37 133.487 36.2619C133.491 35.9202 133.491 35.5894 133.491 35.2478C133.5 34.8482 133.5 34.4507 133.5 34.0446V11.0231C133.5 10.6203 133.5 10.2206 133.491 9.82212C133.491 9.48482 133.491 9.14643 133.487 8.80913C133.474 8.07101 133.405 7.33491 133.281 6.60693C133.16 5.87856 132.928 5.1726 132.593 4.51328C131.907 3.19006 130.819 2.11297 129.482 1.4335C128.814 1.10047 128.099 0.868011 127.361 0.743798C126.626 0.622559 125.883 0.557555 125.138 0.549362C124.799 0.543994 124.452 0.537548 124.114 0.535403C123.714 0.533203 123.308 0.533346 122.909 0.533346Z" fill="#A6A6A6"/>
<path d="M9.91184 43.531C9.57336 43.531 9.24306 43.5267 8.90723 43.5193C8.21154 43.5103 7.51748 43.4504 6.83073 43.3402C6.19037 43.2312 5.57004 43.0284 4.99019 42.7386C4.41566 42.4512 3.89164 42.0743 3.4382 41.6224C2.97821 41.1758 2.59524 40.6579 2.30448 40.0891C2.01051 39.5166 1.80707 38.9029 1.70124 38.2695C1.58695 37.5889 1.52511 36.9006 1.51626 36.2108C1.50922 35.9792 1.5 35.2082 1.5 35.2082V9.8442C1.5 9.8442 1.50982 9.08504 1.51632 8.86201C1.52479 8.17323 1.58627 7.48608 1.70021 6.80651C1.80624 6.17135 2.00984 5.55593 2.30397 4.98156C2.59366 4.41315 2.9745 3.89481 3.43173 3.44663C3.88844 2.9942 4.41413 2.61538 4.98964 2.32398C5.56816 2.03508 6.18732 1.83376 6.82638 1.72674C7.51539 1.61537 8.21186 1.55516 8.90997 1.54661L9.91239 1.5332H124.082L125.097 1.54715C125.788 1.55527 126.478 1.61495 127.161 1.72567C127.807 1.83402 128.432 2.03675 129.017 2.3272C130.17 2.91445 131.109 3.84354 131.7 4.98424C131.99 5.55465 132.19 6.16505 132.295 6.79472C132.41 7.47986 132.475 8.17241 132.488 8.86684C132.491 9.17779 132.491 9.5118 132.491 9.8442C132.5 10.2559 132.5 10.6478 132.5 11.043V34.0223C132.5 34.4212 132.5 34.8104 132.491 35.2028C132.491 35.5599 132.491 35.887 132.487 36.2236C132.474 36.9056 132.41 37.5858 132.297 38.2587C132.193 38.8967 131.991 39.5152 131.697 40.0923C131.404 40.655 131.024 41.1684 130.569 41.6138C130.115 42.0681 129.59 42.4472 129.014 42.7365C128.431 43.0286 127.806 43.2321 127.161 43.3402C126.474 43.451 125.78 43.5109 125.085 43.5193C124.759 43.5267 124.418 43.531 124.088 43.531L122.883 43.5332L9.91184 43.531Z" fill="#11111F"/>
</svg>
