<svg width="33" height="33" viewBox="0 0 33 33" fill="none" xmlns="http://www.w3.org/2000/svg">
<g clip-path="url(#clip0_282_39607)">
<path d="M8.97335 10.8535L3.79688 15.5594L6.14981 23.0888H13.2086L14.6205 15.0888L8.97335 10.8535Z" fill="white"/>
<path d="M15.5625 30.6175L16.9743 25.9115L24.033 23.5586L27.3271 27.3233L17.9154 32.0292L15.5625 30.6175Z" fill="white"/>
<path d="M7.5625 4.73541L10.386 7.08835L17.4448 4.26482V0.970703L11.7978 1.91187L7.5625 4.73541Z" fill="white"/>
<path d="M19.7969 14.1469L20.7381 7.55859H27.3264L30.1499 15.5586L24.9734 18.8527L19.7969 14.1469Z" fill="white"/>
<path d="M16.4981 31.3966C24.7253 31.3966 31.3947 24.7272 31.3947 16.5001C31.3947 8.27293 24.7253 1.60352 16.4981 1.60352C8.27098 1.60352 1.60156 8.27293 1.60156 16.5001C1.60156 24.7272 8.27098 31.3966 16.4981 31.3966Z" stroke="white" stroke-width="2.2069"/>
<path d="M13.2891 15.4681L20.8184 12.6445" stroke="white" stroke-width="2.2069"/>
<path d="M16.3359 3.01562L22.9242 8.66269" stroke="white" stroke-width="2.2069"/>
<path d="M25.9917 16.9746L24.1094 25.4452" stroke="white" stroke-width="2.2069"/>
<path d="M12.1016 21.6035L18.6897 27.2505" stroke="white" stroke-width="2.2069"/>
<path d="M8.54688 13.4003L10.7233 4.92969" stroke="white" stroke-width="2.2069"/>
<path d="M4.95221 16.5599L1.1875 13.7363" stroke="white" stroke-width="2.2069"/>
<path d="M5.10156 26.5026L6.98391 20.8555" stroke="white" stroke-width="2.2069"/>
<path d="M28.6484 13.9219L31.4721 17.3926" stroke="white" stroke-width="2.2069"/>
<path d="M26.1719 11.7291L27.113 6.08203" stroke="white" stroke-width="2.2069"/>
<path d="M24.75 27.4619L29.4559 23.6973" stroke="white" stroke-width="2.2069"/>
<path d="M16.5973 29.8359L11.1719 30.2902" stroke="white" stroke-width="2.2069"/>
</g>
<defs>
<clipPath id="clip0_282_39607">
<rect width="32" height="32" fill="white" transform="translate(0.5 0.5)"/>
</clipPath>
</defs>
</svg>
