<svg width="200" height="125" viewBox="0 0 200 125" fill="none" xmlns="http://www.w3.org/2000/svg">
<path d="M142.598 49.8412C142.598 49.8412 141.671 50.0191 140.038 50.3821" stroke="#11111F" stroke-width="1.03311" stroke-miterlimit="10" stroke-linecap="round" stroke-linejoin="round"/>
<path d="M136.921 51.105C130.869 52.5669 120.767 55.3209 110.554 59.4981" stroke="#11111F" stroke-width="1.03311" stroke-miterlimit="10" stroke-linecap="round" stroke-linejoin="round"/>
<path d="M106.788 61.1045C105.981 61.4632 105.177 61.8312 104.377 62.2076" stroke="#11111F" stroke-width="1.03311" stroke-miterlimit="10" stroke-linecap="round" stroke-linejoin="round"/>
<path d="M100.998 63.8702C100.315 64.2213 99.6372 64.5798 98.9662 64.9446" stroke="#11111F" stroke-width="1.03311" stroke-miterlimit="10" stroke-linecap="round" stroke-linejoin="round"/>
<path d="M158.624 33.0431C158.624 33.0431 148.797 34.6036 137.245 37.3899" stroke="#11111F" stroke-width="1.03311" stroke-miterlimit="10" stroke-linecap="round" stroke-linejoin="round"/>
<path d="M134.22 38.1384C131.805 38.7515 129.346 39.4159 126.916 40.1266" stroke="#11111F" stroke-width="1.03311" stroke-miterlimit="10" stroke-linecap="round" stroke-linejoin="round"/>
<path d="M118.894 42.7082C117.785 43.1031 116.702 43.5088 115.651 43.9245" stroke="#11111F" stroke-width="1.03311" stroke-miterlimit="10" stroke-linecap="round" stroke-linejoin="round"/>
<path d="M122.755 69.1112C122.755 69.1112 127.079 66.8934 133.617 64.3798" stroke="#11111F" stroke-width="1.03311" stroke-miterlimit="10" stroke-linecap="round" stroke-linejoin="round"/>
<path d="M136.74 63.2213C139.796 62.1285 143.198 61.0353 146.78 60.091" stroke="#11111F" stroke-width="1.03311" stroke-miterlimit="10" stroke-linecap="round" stroke-linejoin="round"/>
<path d="M148.568 59.6348C151.987 58.797 155.542 58.1113 159.096 57.7047" stroke="#11111F" stroke-width="1.03311" stroke-miterlimit="10" stroke-linecap="round" stroke-linejoin="round"/>
<path d="M183.044 34.8662C180.805 24.2494 170.384 17.4576 159.767 19.6962C149.15 21.9347 142.359 32.356 144.597 42.9727C146.836 53.5894 157.257 60.3812 167.874 58.1427C178.49 55.9041 185.282 45.4829 183.044 34.8662Z" fill="#FF7F32"/>
<path opacity="0.6" d="M181.584 30.538C182.014 31.4523 182.367 32.3883 182.647 33.3295L182.653 33.3417C182.84 33.959 182.98 34.5691 183.109 35.1846C184.24 41.088 182.596 47.1522 178.771 51.64C178.477 51.9838 178.171 52.3332 177.842 52.665C176.251 54.28 174.356 55.6567 172.179 56.6808C168.233 58.537 163.982 58.9648 160.009 58.1731C157.695 57.7193 155.461 56.8454 153.463 55.5955C150.333 53.6585 147.712 50.8362 146.031 47.2622C145.307 45.7226 144.792 44.1278 144.509 42.5266C143.737 38.5114 144.275 34.4083 145.921 30.7834C147.768 26.6821 151.046 23.1859 155.45 21.1142C155.931 20.8877 156.423 20.686 156.909 20.5008C159.694 19.4556 162.576 19.0842 165.389 19.318C172.167 19.8617 178.477 23.9324 181.584 30.538Z" fill="white"/>
<path d="M182.652 33.3421C182.84 33.9594 182.979 34.5696 183.108 35.185L182.92 35.0678C181.577 35.7727 180.258 36.4376 178.995 37.0317C178.526 37.2524 178.063 37.4553 177.618 37.6646L175.836 47.0258C176.755 48.3562 177.766 49.9097 178.771 51.6405C178.477 51.9842 178.171 52.3337 177.842 52.6655C176.849 50.9289 175.822 49.3399 174.896 47.9965L166.245 49.0975C164.562 51.5791 161.887 54.2635 159.418 56.4818L160.009 58.1736C157.694 57.7197 155.46 56.8459 153.462 55.5959L158.539 55.4856C160.685 53.5502 162.988 51.2623 164.585 49.1294L160.352 40.1296L148.725 38.0611L144.509 42.528C143.736 38.5128 144.275 34.4097 145.92 30.7847L149.202 36.7933L160.461 38.7994L167.429 32.2453L167.381 31.7676C167.364 31.7312 166.042 26.7984 163.305 21.9153L156.909 20.5008C159.694 19.4556 162.576 19.0842 165.389 19.318L164.366 21.0483C167.232 26.0777 168.591 31.1838 168.672 31.513L168.748 32.08L176.85 36.5269C178.612 35.7428 180.562 34.7959 182.55 33.7431L182.652 33.3421Z" fill="#11111F"/>
<path opacity="0.2" d="M166.4 49.5774C173.715 46.1364 176.855 37.417 173.414 30.1021C169.973 22.7871 161.254 19.6466 153.939 23.0876C146.624 26.5286 143.484 35.2479 146.925 42.5629C150.366 49.8778 159.085 53.0183 166.4 49.5774Z" fill="white"/>
<path d="M0.99161 115.311L0.950218 114.162C20.9429 113.446 40.8113 106.66 56.8954 95.0539C58.4949 93.8994 60.1186 92.6632 61.6894 91.4673C68.9144 85.9684 76.3843 80.2808 85.3434 79.3896C91.8543 78.7434 99.1333 80.7672 106.965 85.4106C110.206 87.3322 113.338 89.5343 116.367 91.6651C119.402 93.7994 122.54 96.0061 125.771 97.9161C140.61 106.687 168.127 109.683 183.553 106.888L183.758 108.019C168.142 110.85 140.243 107.807 125.186 98.9062C121.917 96.9732 118.76 94.7527 115.707 92.6057C112.697 90.4887 109.584 88.2993 106.381 86.4007C98.7642 81.8861 91.7267 79.9105 85.4584 80.5349C76.8236 81.3939 69.4848 86.9803 62.3874 92.3827C60.8109 93.5832 59.1814 94.8228 57.5692 95.9865C41.3 107.724 21.2085 114.587 0.99161 115.311Z" fill="#FF7F32"/>
<path d="M103.799 87.8117C101.618 87.8117 99.844 86.0385 99.844 83.8571C99.844 81.6768 101.618 79.9036 103.799 79.9036C105.979 79.9036 107.753 81.6768 107.753 83.8571C107.753 86.0385 105.98 87.8117 103.799 87.8117ZM103.799 81.0536C102.252 81.0536 100.994 82.3116 100.994 83.8571C100.994 85.4037 102.252 86.6617 103.799 86.6617C105.345 86.6617 106.603 85.4037 106.603 83.8571C106.603 82.3116 105.345 81.0536 103.799 81.0536Z" fill="#FF7F32"/>
<path d="M103.764 85.5463C104.697 85.5463 105.453 84.79 105.453 83.8571C105.453 82.9241 104.697 82.1678 103.764 82.1678C102.831 82.1678 102.075 82.9241 102.075 83.8571C102.075 84.79 102.831 85.5463 103.764 85.5463Z" fill="#FF7F32"/>
<path d="M100.206 125C95.3742 125 90.6457 123.509 86.9027 120.471C85.2652 119.141 83.4092 117.49 81.26 115.578C73.6199 108.778 63.1544 99.4661 52.8591 96.5074C42.3879 93.5003 32.7319 97.6124 23.3934 101.591C16.15 104.678 8.66163 107.889 0.950218 107.592L0.99161 106.443C8.44659 106.711 15.4865 103.709 22.9426 100.533C32.4651 96.4752 42.312 92.2791 53.1765 95.4023C63.7225 98.4335 74.3007 107.846 82.0236 114.719C84.1624 116.622 86.0092 118.265 87.626 119.578C95.2903 125.797 107.887 125.011 115.706 117.825C119.141 114.668 123.299 109.413 127.701 103.85C133.014 97.1364 138.507 90.1931 143.057 86.6168C154.967 77.253 170.569 77.7969 180.9 78.1591C182.712 78.2224 184.425 78.2822 185.914 78.2822V79.4321C184.403 79.4321 182.681 79.3723 180.859 79.3079C170.697 78.9537 155.346 78.4167 143.766 87.5218C139.323 91.0142 133.873 97.9022 128.603 104.564C124.171 110.164 119.986 115.454 116.483 118.672C111.926 122.859 105.993 124.999 100.206 125Z" fill="#1C73F5"/>
<rect x="79.1453" y="43.106" width="47.8929" height="26.4483" rx="3.5741" fill="black"/>
<path d="M84.9473 51.7986H86.4648C87.8167 51.7986 88.4927 52.3688 88.4927 53.5092V55.3991C88.4927 56.5395 87.8167 57.1097 86.4648 57.1097H84.6301C83.2781 57.1097 82.6022 56.5395 82.6022 55.3991V49.9639C82.6022 48.8235 83.2781 48.2533 84.6301 48.2533H86.3268C87.6788 48.2533 88.3547 48.8235 88.3547 49.9639V50.9571H86.0096V50.2811C86.0096 50.0788 85.8946 49.9777 85.6647 49.9777H85.2922C85.0623 49.9777 84.9473 50.0788 84.9473 50.2811V51.7986ZM86.1475 55.0818V53.7575C86.1475 53.5552 86.0325 53.454 85.8026 53.454H84.9473V55.0818C84.9473 55.2841 85.0623 55.3853 85.2922 55.3853H85.8026C86.0325 55.3853 86.1475 55.2841 86.1475 55.0818ZM89.4602 57.1097V54.8473H91.833V57.1097H89.4602ZM96.3709 55.0818V50.2811C96.3709 50.0788 96.2559 49.9777 96.026 49.9777H95.6536C95.4236 49.9777 95.3087 50.0788 95.3087 50.2811V55.0818C95.3087 55.2841 95.4236 55.3853 95.6536 55.3853H96.026C96.2559 55.3853 96.3709 55.2841 96.3709 55.0818ZM98.785 49.9639V55.3991C98.785 56.5395 98.1091 57.1097 96.7572 57.1097H94.9224C93.5705 57.1097 92.8946 56.5395 92.8946 55.3991V49.9639C92.8946 48.8235 93.5705 48.2533 94.9224 48.2533H96.7572C98.1091 48.2533 98.785 48.8235 98.785 49.9639ZM103.282 55.0818V50.2811C103.282 50.0788 103.167 49.9777 102.937 49.9777H102.565C102.335 49.9777 102.22 50.0788 102.22 50.2811V55.0818C102.22 55.2841 102.335 55.3853 102.565 55.3853H102.937C103.167 55.3853 103.282 55.2841 103.282 55.0818ZM105.696 49.9639V55.3991C105.696 56.5395 105.02 57.1097 103.668 57.1097H101.833C100.481 57.1097 99.8055 56.5395 99.8055 55.3991V49.9639C99.8055 48.8235 100.481 48.2533 101.833 48.2533H103.668C105.02 48.2533 105.696 48.8235 105.696 49.9639ZM110.193 55.0818V50.2811C110.193 50.0788 110.078 49.9777 109.848 49.9777H109.476C109.246 49.9777 109.131 50.0788 109.131 50.2811V55.0818C109.131 55.2841 109.246 55.3853 109.476 55.3853H109.848C110.078 55.3853 110.193 55.2841 110.193 55.0818ZM112.607 49.9639V55.3991C112.607 56.5395 111.931 57.1097 110.579 57.1097H108.744C107.392 57.1097 106.717 56.5395 106.717 55.3991V49.9639C106.717 48.8235 107.392 48.2533 108.744 48.2533H110.579C111.931 48.2533 112.607 48.8235 112.607 49.9639Z" fill="white"/>
<path d="M115.933 53.6633V53.0775C115.933 52.9831 115.879 52.9359 115.772 52.9359H115.154C114.836 52.9359 114.611 52.8672 114.478 52.7299C114.349 52.5883 114.285 52.3865 114.285 52.1247V51.275C114.285 50.7428 114.598 50.4767 115.225 50.4767H116.107C116.733 50.4767 117.047 50.7428 117.047 51.275V51.7707H115.92V51.423C115.92 51.3286 115.866 51.2814 115.759 51.2814H115.572C115.465 51.2814 115.411 51.3286 115.411 51.423V52.0346C115.411 52.129 115.465 52.1762 115.572 52.1762H116.178C116.495 52.1762 116.72 52.2428 116.854 52.3758C116.991 52.5089 117.06 52.7041 117.06 52.9616V53.8114C117.06 54.3436 116.746 54.6097 116.12 54.6097H115.244C114.613 54.6097 114.298 54.3436 114.298 53.8114V53.3157H115.424V53.6633C115.424 53.7578 115.478 53.805 115.585 53.805H115.772C115.879 53.805 115.933 53.7578 115.933 53.6633ZM117.512 50.4767H119.424C120.054 50.4767 120.37 50.7428 120.37 51.275V52.4595C120.37 52.9917 120.054 53.2578 119.424 53.2578H118.638V54.6097H117.512V50.4767ZM119.243 52.3114V51.423C119.243 51.3286 119.19 51.2814 119.082 51.2814H118.638V52.4531H119.082C119.19 52.4531 119.243 52.4058 119.243 52.3114ZM122.777 52.511L123.852 54.6097H122.584L122.14 53.4509L121.695 54.6097H120.498L121.509 52.511L120.524 50.4767H121.798L122.14 51.5325L122.487 50.4767H123.698L122.777 52.511Z" fill="white"/>
<path d="M88.1641 64.5393L87.9239 63.2283H86.5429L86.3227 64.5393H85.1718L86.4428 58.2246H87.9939L89.3249 64.5393H88.1641ZM86.693 62.3577H87.7638L87.2134 59.3354L86.693 62.3577ZM91.0328 62.0775V64.5393H89.882V58.2246H92.2037C92.9309 58.2246 93.2945 58.5548 93.2945 59.2153V61.0867C93.2945 61.6338 93.051 61.954 92.564 62.0474L93.6148 64.5393H92.3738L91.4131 62.0775H91.0328ZM91.0328 59.1052V61.2268H91.8635C91.9702 61.2268 92.0436 61.2102 92.0836 61.1768C92.1237 61.1368 92.1437 61.0634 92.1437 60.9566V59.3754C92.1437 59.2687 92.1237 59.1987 92.0836 59.1653C92.0436 59.1253 91.9702 59.1052 91.8635 59.1052H91.0328ZM96.1836 63.3884V62.0374C96.1836 61.9307 96.1636 61.8606 96.1235 61.8273C96.0835 61.7873 96.0101 61.7672 95.9034 61.7672H95.0928C94.4056 61.7672 94.062 61.4337 94.062 60.7665V59.2153C94.062 58.5548 94.4223 58.2246 95.1428 58.2246H96.2436C96.9642 58.2246 97.3244 58.5548 97.3244 59.2153V60.096H96.1636V59.3754C96.1636 59.2687 96.1435 59.1987 96.1035 59.1653C96.0635 59.1253 95.9901 59.1052 95.8833 59.1052H95.5031C95.3896 59.1052 95.3129 59.1253 95.2729 59.1653C95.2329 59.1987 95.2128 59.2687 95.2128 59.3754V60.6464C95.2128 60.7531 95.2329 60.8265 95.2729 60.8666C95.3129 60.8999 95.3896 60.9166 95.5031 60.9166H96.2937C96.9942 60.9166 97.3444 61.2435 97.3444 61.8973V63.5486C97.3444 64.2091 96.9808 64.5393 96.2536 64.5393H95.1728C94.4456 64.5393 94.082 64.2091 94.082 63.5486V62.6779H95.2329V63.3884C95.2329 63.4952 95.2529 63.5686 95.2929 63.6086C95.3329 63.642 95.4097 63.6586 95.5231 63.6586H95.9034C96.0101 63.6586 96.0835 63.642 96.1235 63.6086C96.1636 63.5686 96.1836 63.4952 96.1836 63.3884ZM102.204 58.2246H103.384L102.133 64.5393H100.622L99.3714 58.2246H100.562L101.373 63.3284L102.204 58.2246ZM105.927 63.3884V62.0374C105.927 61.9307 105.907 61.8606 105.867 61.8273C105.827 61.7873 105.754 61.7672 105.647 61.7672H104.836C104.149 61.7672 103.806 61.4337 103.806 60.7665V59.2153C103.806 58.5548 104.166 58.2246 104.886 58.2246H105.987C106.708 58.2246 107.068 58.5548 107.068 59.2153V60.096H105.907V59.3754C105.907 59.2687 105.887 59.1987 105.847 59.1653C105.807 59.1253 105.734 59.1052 105.627 59.1052H105.247C105.133 59.1052 105.057 59.1253 105.016 59.1653C104.976 59.1987 104.956 59.2687 104.956 59.3754V60.6464C104.956 60.7531 104.976 60.8265 105.016 60.8666C105.057 60.8999 105.133 60.9166 105.247 60.9166H106.037C106.738 60.9166 107.088 61.2435 107.088 61.8973V63.5486C107.088 64.2091 106.724 64.5393 105.997 64.5393H104.916C104.189 64.5393 103.826 64.2091 103.826 63.5486V62.6779H104.976V63.3884C104.976 63.4952 104.996 63.5686 105.037 63.6086C105.077 63.642 105.153 63.6586 105.267 63.6586H105.647C105.754 63.6586 105.827 63.642 105.867 63.6086C105.907 63.5686 105.927 63.4952 105.927 63.3884ZM112.838 60.3162H111.677V59.3354C111.677 59.2287 111.657 59.1586 111.617 59.1253C111.577 59.0852 111.503 59.0652 111.397 59.0652H110.926C110.82 59.0652 110.746 59.0852 110.706 59.1253C110.666 59.1586 110.646 59.2287 110.646 59.3354V63.4385C110.646 63.5452 110.666 63.6186 110.706 63.6586C110.746 63.692 110.82 63.7087 110.926 63.7087H111.397C111.503 63.7087 111.577 63.692 111.617 63.6586C111.657 63.6186 111.677 63.5452 111.677 63.4385V62.4778H112.838V63.5586C112.838 64.2191 112.474 64.5493 111.747 64.5493H110.576C109.849 64.5493 109.485 64.2191 109.485 63.5586V59.2153C109.485 58.5548 109.849 58.2246 110.576 58.2246H111.747C112.474 58.2246 112.838 58.5548 112.838 59.2153V60.3162ZM114.801 62.0775V64.5393H113.65V58.2246H115.971C116.699 58.2246 117.062 58.5548 117.062 59.2153V61.0867C117.062 61.6338 116.819 61.954 116.332 62.0474L117.383 64.5393H116.142L115.181 62.0775H114.801ZM114.801 59.1052V61.2268H115.631C115.738 61.2268 115.811 61.2102 115.851 61.1768C115.891 61.1368 115.911 61.0634 115.911 60.9566V59.3754C115.911 59.2687 115.891 59.1987 115.851 59.1653C115.811 59.1253 115.738 59.1052 115.631 59.1052H114.801ZM120.882 58.2246V59.1052H119.771V64.5393H118.62V59.1052H117.52V58.2246H120.882Z" fill="#FF7F32"/>
<path d="M103.939 75.7363L110.12 69.5543H96.0634L103.939 75.7363Z" fill="black"/>
</svg>
