<svg width="218" height="127" viewBox="0 0 218 127" fill="none" xmlns="http://www.w3.org/2000/svg">
<path d="M157.908 61.5751L155.436 60.8106C152.182 59.8027 148.142 57.8662 147.375 54.3625C146.856 51.9869 148.408 49.6505 150.842 49.1437C152.738 48.7486 154.61 49.5808 155.59 51.0907C155.853 49.3222 157.214 47.8171 159.11 47.4219C161.544 46.9151 163.938 48.4298 164.457 50.8054C165.209 54.2432 162.355 57.6352 159.828 59.8743L157.908 61.5751Z" fill="#FF7F32"/>
<path d="M112.541 91.0948L108.584 89.9721C103.375 88.4918 96.8842 85.581 95.552 80.115C94.6487 76.4095 97.0414 72.7012 100.898 71.8329C103.901 71.1568 106.906 72.4028 108.514 74.739C108.875 71.9601 110.991 69.5599 113.996 68.8838C117.852 68.0155 121.709 70.3163 122.612 74.0218C123.919 79.3854 119.488 84.7863 115.541 88.3714L112.541 91.0948Z" fill="#FF7F32"/>
<path d="M57.8277 30.0196L54.7499 29.1009C50.6982 27.8905 45.6502 25.508 44.6138 21.0359C43.9109 18.0038 45.772 14.9708 48.7718 14.2601C51.1077 13.7071 53.4455 14.7264 54.6953 16.6376C54.9761 14.3636 56.6227 12.4011 58.9586 11.8471C61.9574 11.1364 64.9572 13.0191 65.6601 16.0502C66.6769 20.4385 63.2306 24.8575 60.1606 27.7899L57.8277 30.0196Z" fill="#FF7F32"/>
<path d="M103.753 31.4574C102.298 39.1907 107.388 46.6388 115.122 48.0942C122.855 49.5486 130.304 44.4586 131.758 36.7254C133.213 28.9921 128.123 21.544 120.39 20.0886C112.656 18.6342 105.207 23.7241 103.753 31.4574Z" fill="#FF7F32"/>
<path d="M125.899 37.5255C125.535 39.5767 124.513 41.4113 123.098 42.7767C121.126 44.689 118.415 45.6906 115.675 45.1356C112.916 44.5847 110.737 42.5938 109.553 40.0642C108.702 38.2419 108.378 36.1437 108.742 34.0914L125.899 37.5255Z" fill="white"/>
<path d="M123.863 42.7256C121.789 44.6772 118.937 45.6994 116.054 45.133C113.151 44.5708 110.858 42.5389 109.612 39.9573C111.799 38.4646 114.529 37.8158 117.294 38.3457C120.04 38.8797 122.356 40.4976 123.863 42.7256Z" fill="#11111F"/>
<path d="M122.88 31.3016C122.701 32.1337 123.224 32.9184 124.048 33.0536C124.872 33.1888 125.685 32.6243 125.864 31.7921C126.042 30.9599 125.52 30.1753 124.696 30.0401C123.871 29.9039 123.059 30.4694 122.88 31.3016Z" fill="white"/>
<path d="M111.683 29.2656C111.504 30.0978 112.027 30.8825 112.851 31.0176C113.675 31.1528 114.488 30.5883 114.667 29.7561C114.845 28.924 114.323 28.1393 113.499 28.0041C112.675 27.868 111.863 28.4334 111.683 29.2656Z" fill="white"/>
<path d="M143.319 101.24C142.458 107.079 146.492 112.511 152.331 113.373C158.17 114.235 163.602 110.2 164.464 104.362C165.326 98.5236 161.291 93.0915 155.453 92.2289C149.613 91.3663 144.181 95.4009 143.319 101.24Z" fill="#FF7F32"/>
<path d="M160.508 104.076C160.29 105.433 159.563 106.665 158.523 107.602C157.077 108.912 155.04 109.644 152.937 109.355C150.821 109.069 149.104 107.822 148.132 106.192C147.432 105.018 147.126 103.649 147.345 102.292L160.508 104.076Z" fill="white"/>
<path d="M158.472 107.788C157.055 108.963 155.061 109.621 153 109.361C150.928 109.105 149.246 107.985 148.293 106.522C149.803 105.609 151.721 105.17 153.695 105.411C155.658 105.655 157.343 106.536 158.472 107.788Z" fill="#11111F"/>
<path d="M156.451 99.1091C156.357 99.6665 156.73 100.177 157.283 100.248C157.838 100.319 158.364 99.9248 158.458 99.3675C158.552 98.8102 158.179 98.2997 157.625 98.2287C157.071 98.1576 156.545 98.5518 156.451 99.1091Z" fill="white"/>
<path d="M148.308 98.0912C148.214 98.6485 148.586 99.1589 149.14 99.23C149.694 99.301 150.22 98.9068 150.314 98.3496C150.408 97.7915 150.036 97.2819 149.482 97.2108C148.928 97.139 148.402 97.5332 148.308 98.0912Z" fill="white"/>
<path d="M59.2876 60.6814C57.3885 66.269 60.3782 72.3376 65.9659 74.2368C71.5535 76.1359 77.622 73.1461 79.5212 67.5585C81.4203 61.9708 78.4305 55.9022 72.8429 54.0031C67.2563 52.1039 61.1868 55.0947 59.2876 60.6814Z" fill="#FF7F32"/>
<path d="M75.0029 66.5018C74.5097 67.7956 73.531 68.8849 72.298 69.6314C70.5796 70.6777 68.3852 71.0608 66.3287 70.432C64.2586 69.8041 62.7838 68.2999 62.1336 66.5439C61.6664 65.2794 61.6337 63.8869 62.1269 62.5931L75.0029 66.5018Z" fill="white"/>
<path d="M71.9491 69.5799C70.2282 70.6749 68.0307 71.0759 65.9711 70.4178C63.898 69.7606 62.4211 68.1864 61.77 66.3488C63.5266 65.5703 65.5968 65.4048 67.5724 66.027C69.5336 66.65 71.0694 67.9518 71.9491 69.5799Z" fill="#11111F"/>
<path d="M73.0376 62.3062C72.8327 62.8456 73.0898 63.4111 73.6128 63.5696C74.1359 63.7281 74.7261 63.4197 74.932 62.8803C75.1379 62.3409 74.8799 61.7754 74.3568 61.6169C73.8337 61.4584 73.2435 61.7668 73.0376 62.3062Z" fill="white"/>
<path d="M64.8942 59.2521C64.6892 59.7916 64.9464 60.3572 65.4696 60.5157C65.9927 60.6743 66.5831 60.3658 66.789 59.8271C66.994 59.2876 66.7368 58.722 66.2137 58.5634C65.6905 58.4041 65.0993 58.7125 64.8942 59.2521Z" fill="white"/>
<path d="M8.8382 76.9103C8.8382 76.9103 11.7326 70.28 11.9237 69.2647C12.1147 68.2493 10.8093 64.2021 10.6444 63.4515C10.4795 62.7018 14.1935 61.6807 15.9846 64.166C17.7748 66.6513 18.3691 68.8822 18.2313 71.5497L27.4203 69.7496C29.3593 69.37 30.5259 70.9016 30.7532 71.9331C31.073 73.3859 30.2544 74.3776 29.8199 74.7571C29.8199 74.7571 31.7508 74.8188 32.1944 76.8344C32.4418 77.9598 31.8655 79.3434 30.536 79.8975C30.536 79.8975 31.2762 80.4375 31.5859 81.8429C31.7921 82.7804 30.8508 84.6271 29.5594 84.8804C29.5594 84.8804 30.1427 85.6462 30.3901 86.7717C30.6888 88.1305 29.5977 89.7627 27.6094 90.1527C25.6222 90.5418 12.4064 93.1305 12.4064 93.1305L8.8382 76.9103Z" fill="#FF7F32"/>
<path d="M6.6772 76.6317L0.694824 77.8618L4.66404 96.7905L10.6464 95.5605L6.6772 76.6317Z" fill="#FF7F32"/>
<path d="M209.368 70.7399C209.368 70.7399 206.347 63.6674 206.148 62.5845C205.949 61.5015 207.31 57.1842 207.483 56.3834C207.655 55.5835 203.78 54.4947 201.911 57.1456C200.043 59.7964 199.422 62.1758 199.568 65.0209L189.979 63.1013C187.955 62.6965 186.737 64.3301 186.501 65.4305C186.167 66.98 187.021 68.0378 187.475 68.4426C187.475 68.4426 185.459 68.5083 184.997 70.6588C184.738 71.8586 185.34 73.3357 186.727 73.926C186.727 73.926 185.955 74.5017 185.632 76.001C185.416 77.0009 186.399 78.9717 187.746 79.2412C187.746 79.2412 187.137 80.0585 186.879 81.2583C186.567 82.7084 187.706 84.4492 189.78 84.8646C191.853 85.28 205.643 88.041 205.643 88.041L209.368 70.7399Z" fill="#FF7F32"/>
<path d="M211.334 71.1334L207.332 91.0946L213.303 92.3787L217.305 72.4175L211.334 71.1334Z" fill="#FF7F32"/>
<path d="M72.4153 102.452C69.9172 100.756 68.5767 97.5973 69.2841 94.3549C70.2137 90.1086 74.295 87.3492 78.4013 88.1927C82.5052 89.0357 85.0804 93.1619 84.1512 97.4088C83.4353 100.68 80.846 103.049 77.8178 103.587C88.8728 107.658 85.6639 119.596 85.6639 119.596L58.613 114.039C58.613 114.039 60.7158 101.731 72.4153 102.452Z" fill="#EBEBEB"/>
<path d="M72.4109 102.433C72.3377 102.429 72.2402 102.424 72.0446 102.414C71.8055 102.409 71.4754 102.361 71.0131 102.39C70.1015 102.401 68.7305 102.507 67.0945 103.086C65.4655 103.652 63.6054 104.795 62.0623 106.659C60.5271 108.516 59.2573 111 58.6313 113.924L58.613 114.009L58.7045 114.028C66.16 115.57 75.3832 117.476 85.5231 119.572L85.639 119.596L85.6647 119.487C85.955 118.268 86.0886 117.001 86.0966 115.706C86.1036 114.413 85.9634 113.095 85.6338 111.804C85.14 109.838 84.1614 107.996 82.758 106.57C82.0617 105.854 81.2735 105.241 80.4393 104.72C79.6033 104.198 78.7063 103.804 77.8093 103.451L77.7887 103.674C79.3393 103.397 80.7544 102.641 81.8329 101.605C82.917 100.57 83.6639 99.262 84.0423 97.8974C84.8343 95.1542 84.0236 92.2137 82.2287 90.3285C81.3223 89.3967 80.2067 88.6948 79.0115 88.3486C77.8191 87.9979 76.5808 87.956 75.4432 88.1774C73.1461 88.6278 71.3727 90.0903 70.3561 91.6831C69.8403 92.4847 69.4873 93.3291 69.2983 94.1558C69.092 94.9788 69.0343 95.7818 69.0746 96.5228C69.1567 98.0113 69.6415 99.2346 70.1831 100.121C70.7308 101.012 71.3188 101.587 71.7384 101.937C71.9462 102.122 72.1131 102.229 72.2294 102.309C72.3199 102.37 72.3691 102.404 72.4109 102.433C72.3743 102.404 72.3311 102.37 72.2514 102.306C72.144 102.218 71.9644 102.09 71.767 101.906C71.3591 101.548 70.7861 100.968 70.2553 100.08C69.7306 99.1973 69.2641 97.9848 69.1951 96.5169C69.1609 95.7863 69.2237 94.9957 69.4324 94.1872C69.6237 93.3747 69.9763 92.5471 70.4869 91.7628C71.4937 90.2042 73.2384 88.7822 75.4802 88.3518C76.5901 88.1405 77.7952 88.1856 78.9543 88.5304C80.1158 88.8706 81.1971 89.5561 82.0767 90.4647C83.8173 92.3039 84.6022 95.1687 83.8248 97.84C83.4534 99.1686 82.7252 100.439 81.6702 101.444C80.6208 102.448 79.2474 103.18 77.7464 103.446L77.3432 103.517L77.7253 103.668C78.6083 104.016 79.4907 104.405 80.3108 104.917C81.1291 105.429 81.9009 106.031 82.5817 106.732C83.9537 108.128 84.9112 109.929 85.397 111.862C85.721 113.13 85.8593 114.429 85.8532 115.705C85.8471 116.979 85.7126 118.243 85.4312 119.428L85.5733 119.342C75.4296 117.265 66.2022 115.377 58.7434 113.85L58.8165 113.954C59.4224 111.07 60.6724 108.591 62.1795 106.75C63.6954 104.898 65.5232 103.756 67.1315 103.181C68.7464 102.593 70.1076 102.47 71.0149 102.442C71.466 102.408 71.8355 102.44 72.0657 102.431C72.2495 102.432 72.3419 102.433 72.4109 102.433Z" fill="#11111F"/>
<path d="M55.4697 107.248L60.4971 108.337L61.5865 103.31L65.8717 104.238L64.7827 109.265L69.8102 110.354L68.8818 114.64L63.8544 113.551L62.7654 118.578L58.4798 117.65L59.5688 112.623L54.5414 111.533L55.4697 107.248Z" fill="#1C73F5"/>
<path d="M178.158 14.9108C180.656 13.2151 181.997 10.0563 181.289 6.81393C180.36 2.56756 176.278 -0.191805 172.172 0.65169C168.068 1.49473 165.493 5.62093 166.422 9.86776C167.138 13.1395 169.727 15.5076 172.756 16.0456C161.701 20.1167 164.909 32.0555 164.909 32.0555L191.96 26.4982C191.96 26.4982 189.858 14.1903 178.158 14.9108Z" fill="#EBEBEB"/>
<path d="M178.163 14.8919C178.236 14.8882 178.333 14.8828 178.529 14.8727C178.768 14.8682 179.098 14.8204 179.56 14.8491C180.472 14.86 181.843 14.9661 183.479 15.5445C185.108 16.1107 186.968 17.2543 188.511 19.1181C190.046 20.9746 191.316 23.4586 191.942 26.3832L191.96 26.4683L191.869 26.4875C184.413 28.0287 175.19 29.9353 165.05 32.0313L164.934 32.0555L164.909 31.9462C164.618 30.7274 164.485 29.4598 164.477 28.1654C164.47 26.8723 164.61 25.5538 164.94 24.2634C165.433 22.2972 166.412 20.4549 167.815 19.0288C168.512 18.3133 169.3 17.6998 170.134 17.1787C170.97 16.6568 171.867 16.2628 172.764 15.9103L172.785 16.1325C171.234 15.8561 169.819 15.0996 168.74 14.0643C167.656 13.029 166.909 11.7209 166.531 10.3564C165.739 7.61314 166.55 4.67268 168.345 2.78752C169.251 1.85565 170.367 1.15378 171.562 0.807632C172.754 0.456927 173.993 0.415025 175.13 0.636379C177.427 1.08683 179.201 2.54932 180.217 4.14207C180.733 4.94368 181.086 5.7881 181.275 6.61477C181.481 7.43779 181.539 8.24076 181.499 8.9818C181.417 10.4702 180.932 11.6936 180.39 12.5799C179.843 13.4708 179.255 14.0461 178.835 14.3963C178.627 14.5812 178.46 14.6878 178.344 14.7675C178.254 14.8295 178.204 14.8632 178.163 14.8919C178.199 14.8627 178.242 14.8286 178.322 14.7652C178.429 14.6773 178.609 14.5489 178.806 14.3654C179.214 14.0074 179.787 13.4271 180.318 12.5394C180.843 11.6563 181.309 10.4438 181.378 8.97588C181.412 8.24532 181.35 7.45464 181.141 6.64619C180.95 5.83365 180.597 5.00608 180.086 4.22177C179.08 2.66318 177.335 1.24123 175.093 0.810822C173.983 0.599488 172.778 0.644578 171.619 0.989362C170.458 1.32959 169.376 2.01506 168.497 2.92371C166.756 4.76286 165.971 7.62771 166.749 10.299C167.12 11.6276 167.848 12.8983 168.903 13.9026C169.953 14.9069 171.326 15.6388 172.827 15.9048L173.23 15.9763L172.848 16.1271C171.965 16.4751 171.083 16.8636 170.263 17.3764C169.444 17.8883 168.673 18.49 167.992 19.1905C166.62 20.5865 165.662 22.3879 165.176 24.3208C164.852 25.5888 164.714 26.8883 164.72 28.164C164.726 29.4384 164.861 30.7018 165.142 31.8865L165 31.8013C175.144 29.7244 184.371 27.8356 191.83 26.3089L191.757 26.4128C191.151 23.5292 189.901 21.0497 188.394 19.2092C186.878 17.3573 185.05 16.2154 183.442 15.6397C181.827 15.0517 180.466 14.9292 179.558 14.9014C179.107 14.8668 178.738 14.8992 178.508 14.89C178.324 14.8914 178.231 14.8919 178.163 14.8919Z" fill="#11111F"/>
<path d="M195.104 19.7071L190.076 20.7961L188.987 15.7687L184.702 16.6966L185.791 21.7244L180.763 22.8134L181.692 27.099L186.719 26.0096L187.808 31.0375L192.094 30.1091L191.005 25.0817L196.032 23.9923L195.104 19.7071Z" fill="#1C73F5"/>
<path d="M62.6847 60.6403L57.6713 61.5362C55.8706 63.5794 53.5029 65.1629 50.7125 66.0097C42.6869 68.4454 34.2125 63.8767 31.784 55.8058C29.3554 47.7347 33.8924 39.2177 41.918 36.782C49.9432 34.3466 58.418 38.915 60.8465 46.9859C61.8606 50.3558 61.6565 53.8024 60.4946 56.853L60.4995 56.8459L62.6847 60.6403Z" fill="#FAFAFA"/>
<path d="M62.6847 60.6138C62.6847 60.6138 62.6307 60.5282 62.5337 60.3644C62.4345 60.1968 62.2923 59.9556 62.106 59.6401C61.7316 59.0021 61.1833 58.067 60.4723 56.855L60.5351 56.8578L60.5302 56.8649C60.5182 56.8818 60.4949 56.8857 60.478 56.8741C60.4639 56.8642 60.4589 56.8454 60.4646 56.8299C61.1314 55.0498 61.7066 52.5098 61.3195 49.5025C61.2239 48.7545 61.0623 47.9835 60.8347 47.2019C60.72 46.8114 60.563 46.4266 60.4257 46.028C60.2998 45.6241 60.1036 45.2422 59.9159 44.8493C59.1632 43.2818 58.0853 41.7384 56.6637 40.405C55.2463 39.0713 53.4884 37.9506 51.4895 37.2223C49.4944 36.4924 47.2584 36.1603 44.9843 36.3587C42.7155 36.5822 40.4241 37.3313 38.3804 38.6063C37.8504 38.8963 37.391 39.297 36.8984 39.6549C36.6475 39.8293 36.4422 40.0595 36.2107 40.2597C35.9905 40.4722 35.7481 40.6639 35.5442 40.8949C35.1426 41.3614 34.6952 41.7946 34.3484 42.3141C34.1659 42.5663 33.9754 42.8135 33.7986 43.071C33.6384 43.3394 33.4779 43.6086 33.317 43.8784C32.0704 45.9888 31.4426 48.3849 31.328 50.728C31.2136 53.0771 31.6596 55.3943 32.5598 57.4357C33.4496 59.4827 34.7668 61.2589 36.3151 62.6495C37.8634 64.0444 39.6369 65.0569 41.4403 65.6854C43.2458 66.3174 45.0778 66.5653 46.7913 66.5194C47.6519 66.5187 48.4747 66.3786 49.2704 66.2591C50.0502 66.061 50.8152 65.9061 51.5152 65.6366C54.3451 64.6138 56.357 62.9399 57.6534 61.4806C57.6594 61.4735 57.6679 61.4693 57.6763 61.4679C59.2977 61.1896 60.5429 60.9759 61.3897 60.8306C61.8103 60.7595 62.1304 60.7054 62.3523 60.6682C62.569 60.6304 62.6847 60.6138 62.6847 60.6138C62.6847 60.6138 62.5824 60.6361 62.371 60.6764C62.1526 60.7174 61.8371 60.7768 61.4225 60.8546C60.5715 61.012 59.3199 61.2437 57.6904 61.545L57.7134 61.5323C56.4216 63.0092 54.4054 64.7072 51.5569 65.7501C50.8519 66.0246 50.0819 66.1841 49.2958 66.3864C48.4938 66.5105 47.6639 66.6541 46.7955 66.658C45.0662 66.7096 43.2151 66.4649 41.3898 65.8308C39.5663 65.2002 37.7717 64.1805 36.204 62.7729C34.6359 61.3696 33.3007 59.575 32.3985 57.5047C31.4857 55.4406 31.0323 53.0969 31.1466 50.7188C31.2613 48.3474 31.8967 45.9219 33.1582 43.7858C33.3212 43.5127 33.4835 43.2404 33.6458 42.9688C33.8247 42.7081 34.0177 42.4577 34.2023 42.2027C34.5537 41.6775 35.0061 41.2386 35.4133 40.7668C35.62 40.5334 35.8649 40.3389 36.0883 40.1239C36.3225 39.9212 36.5307 39.6881 36.7844 39.512C37.283 39.1498 37.7488 38.7449 38.2851 38.4513C40.3549 37.1619 42.6735 36.4064 44.9691 36.1829C47.2701 35.9845 49.5318 36.324 51.5473 37.0657C53.5667 37.8052 55.3408 38.9422 56.7695 40.2929C58.2024 41.6436 59.2864 43.2054 60.0408 44.7895C60.2289 45.1867 60.4254 45.5729 60.5514 45.9806C60.6886 46.3831 60.8453 46.7718 60.9593 47.1658C61.1858 47.9548 61.3456 48.7329 61.4384 49.4873C61.8153 52.5204 61.2204 55.0739 60.5355 56.8567L60.4699 56.8217L60.4748 56.8146C60.4864 56.7977 60.5097 56.7938 60.5267 56.8055C60.5312 56.8086 60.5351 56.8132 60.5376 56.8175C61.2369 58.0493 61.7765 58.9996 62.1448 59.6483C62.3227 59.9637 62.4585 60.2046 62.5527 60.3722C62.6427 60.5338 62.6847 60.6138 62.6847 60.6138Z" fill="#11111F"/>
<path d="M41.3085 51.9047C41.3085 51.0614 40.625 50.3779 39.7818 50.3779C38.9385 50.3779 38.2547 51.0614 38.2547 51.9047C38.2547 52.7481 38.9381 53.4316 39.7818 53.4316C40.625 53.4316 41.3085 52.7481 41.3085 51.9047Z" fill="#11111F"/>
<path d="M47.416 51.9047C47.416 51.0614 46.7325 50.3779 45.8891 50.3779C45.0457 50.3779 44.3622 51.0614 44.3622 51.9047C44.3622 52.7481 45.0457 53.4316 45.8891 53.4316C46.7325 53.4316 47.416 52.7481 47.416 51.9047Z" fill="#11111F"/>
<path d="M53.3186 52.668C53.7404 51.9378 53.49 51.004 52.7598 50.5826C52.0296 50.1612 51.0958 50.4112 50.6744 51.1415C50.253 51.8717 50.5031 52.8055 51.2333 53.2269C51.9635 53.6483 52.8972 53.3983 53.3186 52.668Z" fill="#11111F"/>
<path d="M160.223 109.444L161.463 112.133C161.065 113.695 161.082 115.366 161.601 116.983C163.095 121.634 168.171 124.072 172.939 122.428C177.706 120.785 180.36 115.683 178.866 111.032C177.372 106.382 172.296 103.944 167.529 105.587C165.538 106.273 163.918 107.564 162.812 109.172L162.814 109.167L160.223 109.444Z" fill="#FAFAFA"/>
<path d="M160.236 109.435C160.236 109.435 160.296 109.431 160.409 109.42C160.524 109.409 160.69 109.393 160.907 109.372C161.345 109.329 161.987 109.265 162.819 109.183L162.796 109.154L162.794 109.159C162.79 109.17 162.796 109.183 162.807 109.187C162.817 109.19 162.828 109.186 162.833 109.178C163.482 108.245 164.534 107.092 166.137 106.234C166.536 106.021 166.967 105.83 167.427 105.667C167.656 105.587 167.897 105.528 168.139 105.455C168.379 105.375 168.632 105.336 168.887 105.288C169.907 105.103 171.024 105.079 172.153 105.292C173.281 105.502 174.419 105.948 175.445 106.644C176.471 107.338 177.382 108.283 178.046 109.431C178.697 110.585 179.097 111.931 179.157 113.342C179.192 113.694 179.149 114.051 179.139 114.408C179.138 114.588 179.094 114.765 179.073 114.944C179.043 115.122 179.03 115.303 178.985 115.48C178.891 115.832 178.828 116.195 178.69 116.539C178.628 116.713 178.57 116.889 178.503 117.062C178.425 117.231 178.347 117.4 178.269 117.57C177.652 118.892 176.689 120.02 175.579 120.886C174.466 121.754 173.182 122.345 171.88 122.625C170.579 122.912 169.268 122.902 168.068 122.649C166.867 122.398 165.777 121.907 164.865 121.27C163.951 120.632 163.216 119.849 162.665 119.02C162.377 118.612 162.17 118.173 161.962 117.754C161.798 117.315 161.618 116.899 161.515 116.473C161.069 114.777 161.215 113.242 161.496 112.122C161.498 112.117 161.497 112.111 161.495 112.107C161.088 111.241 160.776 110.577 160.564 110.125C160.458 109.9 160.377 109.73 160.321 109.612C160.267 109.496 160.236 109.435 160.236 109.435C160.236 109.435 160.26 109.491 160.311 109.606C160.364 109.723 160.44 109.894 160.541 110.117C160.749 110.576 161.054 111.249 161.452 112.127L161.451 112.112C161.16 113.236 161.003 114.78 161.446 116.493C161.547 116.922 161.727 117.343 161.891 117.786C162.099 118.209 162.306 118.653 162.595 119.066C163.149 119.904 163.889 120.698 164.811 121.344C165.73 121.99 166.831 122.489 168.045 122.745C169.258 123.003 170.584 123.014 171.9 122.725C173.217 122.443 174.517 121.847 175.644 120.969C176.768 120.093 177.743 118.952 178.367 117.613C178.447 117.441 178.526 117.27 178.604 117.099C178.672 116.924 178.73 116.746 178.793 116.57C178.933 116.221 178.997 115.855 179.092 115.498C179.137 115.319 179.15 115.135 179.181 114.955C179.201 114.774 179.246 114.594 179.247 114.413C179.258 114.051 179.3 113.69 179.264 113.334C179.203 111.905 178.797 110.544 178.138 109.377C177.464 108.217 176.541 107.262 175.503 106.562C174.464 105.861 173.313 105.413 172.173 105.203C171.031 104.991 169.903 105.018 168.874 105.209C168.617 105.257 168.362 105.297 168.12 105.379C167.877 105.453 167.634 105.513 167.403 105.596C166.94 105.762 166.505 105.955 166.105 106.173C164.493 107.044 163.441 108.211 162.797 109.153L162.836 109.172L162.837 109.168C162.842 109.156 162.836 109.144 162.825 109.14C162.822 109.139 162.818 109.139 162.815 109.139C161.977 109.234 161.331 109.307 160.89 109.357C160.676 109.382 160.512 109.401 160.399 109.414C160.289 109.427 160.236 109.435 160.236 109.435Z" fill="#11111F"/>
<path d="M171.633 115.866C172.092 115.541 172.727 115.65 173.051 116.11C173.375 116.569 173.266 117.204 172.807 117.529C172.348 117.853 171.713 117.744 171.388 117.285C171.064 116.825 171.174 116.19 171.633 115.866Z" fill="#11111F"/>
<path d="M169.597 112.812C170.056 112.487 170.691 112.597 171.015 113.056C171.339 113.515 171.23 114.151 170.771 114.475C170.312 114.8 169.677 114.69 169.353 114.231C169.028 113.772 169.138 113.136 169.597 112.812Z" fill="#11111F"/>
<path d="M167.224 111.181C167.46 110.671 168.064 110.448 168.574 110.683C169.084 110.919 169.307 111.524 169.072 112.034C168.836 112.545 168.232 112.768 167.722 112.532C167.212 112.297 166.989 111.692 167.224 111.181Z" fill="#11111F"/>
</svg>
