<svg width="32" height="32" viewBox="0 0 32 32" fill="none" xmlns="http://www.w3.org/2000/svg">
<path d="M19.6258 13.1726C19.457 8.37373 12.5428 8.37573 12.375 13.1727C12.5308 17.9656 19.4711 17.9636 19.6258 13.1726Z" fill="white"/>
<path d="M5.42063 14.5716C5.81456 14.8795 6.27635 15.0888 6.76754 15.1821C7.25874 15.2753 7.76511 15.2499 8.24448 15.1079C8.72386 14.9659 9.16236 14.7114 9.52347 14.3656C9.88458 14.0198 10.1578 13.5927 10.3205 13.1199C10.4831 12.6472 10.5305 12.1424 10.4585 11.6476C10.3866 11.1528 10.1975 10.6824 9.90699 10.2755C9.61646 9.86863 9.23292 9.53704 8.7883 9.30837C8.34369 9.07971 7.85087 8.96059 7.3509 8.96094C6.70194 8.97003 6.07159 9.17917 5.54591 9.55982C5.02023 9.94047 4.62483 10.4741 4.41369 11.0878C4.20255 11.7015 4.18595 12.3654 4.36617 12.989C4.54638 13.6125 4.91463 14.1651 5.42063 14.5716Z" fill="white"/>
<path d="M8.74478 20.5228C8.75428 19.0477 9.76685 17.7816 10.765 16.8223C11.0356 16.5739 11.3248 16.3465 11.6301 16.1423C11.2364 15.704 10.7756 15.331 10.2649 15.0371C9.49001 15.809 8.44084 16.2423 7.34713 16.2423C6.25341 16.2423 5.20424 15.8089 4.42932 15.0371C3.03612 15.8763 1.27982 17.7323 2.30905 19.4576C2.50148 19.7834 2.77582 20.0531 3.1048 20.24C3.43378 20.4268 3.80594 20.5243 4.18428 20.5228H8.74478Z" fill="white"/>
<path d="M21.5 12.1009C21.6371 16.2496 27.6445 16.2479 27.7807 12.1008C27.6315 7.94542 21.6489 7.94567 21.5 12.1009Z" fill="white"/>
<path d="M19.7563 16.9424C19.5555 16.8066 19.3468 16.683 19.1312 16.5723C18.9859 16.7069 18.8322 16.8321 18.6712 16.9474C17.8065 17.5559 16.7598 17.8505 15.7047 17.7823C14.6496 17.7141 13.6495 17.2871 12.8705 16.5723C11.4161 17.3691 9.89055 18.7713 9.75003 20.5227C9.74675 21.1891 10.0083 21.8296 10.4773 22.3032C10.9462 22.7768 11.584 23.0447 12.2505 23.048L19.7513 23.048C20.1829 23.0428 20.6059 22.9268 20.9798 22.7113C21.3537 22.4957 21.6661 22.1877 21.8869 21.8169C22.1077 21.446 22.2296 21.0246 22.2409 20.5932C22.2522 20.1617 22.1526 19.7345 21.9515 19.3526C21.4321 18.3788 20.6775 17.5503 19.7563 16.9424Z" fill="white"/>
<path d="M29.7354 17.2865C29.2318 16.3505 28.4812 15.5705 27.5652 15.0312C26.7907 15.8053 25.7409 16.2405 24.6459 16.2414C23.551 16.2423 22.5004 15.8089 21.7246 15.0362C21.2159 15.333 20.7556 15.7057 20.3594 16.1414C20.6648 16.3455 20.954 16.5729 21.2245 16.8214C21.9319 17.456 22.5093 18.222 22.9247 19.0767C23.1361 19.5293 23.2469 20.0223 23.2497 20.5219H27.8102C28.1881 20.5172 28.5584 20.4156 28.8857 20.2269C29.213 20.0381 29.4863 19.7684 29.6795 19.4437C29.8728 19.119 29.9794 18.7501 29.9892 18.3724C29.9989 17.9947 29.9116 17.6208 29.7354 17.2865Z" fill="white"/>
<path d="M28.0674 22.0842C28.0099 22.0524 27.9467 22.0322 27.8815 22.0249C27.8162 22.0175 27.7501 22.0231 27.687 22.0413C27.6239 22.0595 27.565 22.0899 27.5137 22.1309C27.4623 22.1718 27.4196 22.2225 27.3878 22.28C22.553 31.1966 9.4428 31.1943 4.60985 22.2798C4.57809 22.2223 4.53532 22.1717 4.48398 22.1307C4.43264 22.0897 4.37373 22.0593 4.31062 22.0411C4.24751 22.0229 4.18144 22.0173 4.11616 22.0246C4.05089 22.032 3.98771 22.0521 3.93021 22.0838C3.87272 22.1156 3.82204 22.1584 3.78108 22.2097C3.74011 22.261 3.70966 22.3199 3.69146 22.3831C3.67326 22.4462 3.66767 22.5122 3.67501 22.5775C3.68234 22.6428 3.70246 22.706 3.73422 22.7635C8.94008 32.3648 23.0595 32.3625 28.2634 22.7633C28.2952 22.7058 28.3153 22.6427 28.3226 22.5774C28.3299 22.5122 28.3243 22.4462 28.3061 22.3831C28.2879 22.32 28.2575 22.2612 28.2165 22.2099C28.1755 22.1586 28.1249 22.1159 28.0674 22.0842Z" fill="white"/>
<path d="M6.13978 7.54243C11.1074 1.5294 20.8956 1.53004 25.8626 7.54257C25.9496 7.64029 26.0715 7.7 26.2021 7.7089C26.3326 7.71779 26.4615 7.67516 26.561 7.59014C26.6605 7.50513 26.7227 7.38451 26.7343 7.25415C26.7459 7.1238 26.7059 6.9941 26.6229 6.89287C21.2726 0.415648 10.7292 0.416122 5.37941 6.89307C5.29622 6.99426 5.25605 7.12405 5.26756 7.25455C5.27906 7.38504 5.34132 7.50581 5.44093 7.59088C5.54055 7.67596 5.66957 7.71854 5.80026 7.70948C5.93094 7.70042 6.05285 7.64044 6.13978 7.54243Z" fill="white"/>
<path d="M22.2394 8.06381C22.3436 8.06192 22.4446 8.02771 22.5286 7.96592C22.6125 7.90412 22.6752 7.81779 22.708 7.71884C22.7408 7.61988 22.742 7.5132 22.7116 7.41351C22.6811 7.31382 22.6204 7.22605 22.538 7.16231C20.6439 5.76538 18.3523 5.01171 15.9988 5.01172C13.6454 5.01173 11.3538 5.76542 9.45977 7.16237C9.35618 7.24249 9.28816 7.36004 9.2703 7.48977C9.25244 7.61949 9.28618 7.75105 9.36427 7.85617C9.44235 7.9613 9.55855 8.0316 9.68791 8.05198C9.81727 8.07235 9.94945 8.04118 10.0561 7.96515C11.7775 6.69588 13.8601 6.01112 15.9989 6.01113C18.1377 6.01114 20.2203 6.69594 21.9417 7.96523C22.0277 8.02933 22.1321 8.06391 22.2394 8.06381Z" fill="white"/>
<path d="M8.16727 22.2112C8.08387 22.1103 7.96426 22.0461 7.83408 22.0324C7.70391 22.0187 7.57354 22.0565 7.47093 22.1378C7.36832 22.219 7.30165 22.3373 7.28521 22.4671C7.26878 22.597 7.30388 22.7281 7.383 22.8324C11.6022 28.3637 20.4014 28.3632 24.62 22.8322C24.6992 22.728 24.7344 22.5968 24.718 22.4669C24.7016 22.337 24.6349 22.2186 24.5322 22.1374C24.4295 22.0561 24.2991 22.0183 24.1689 22.0321C24.0387 22.0459 23.919 22.1102 23.8357 22.2112C19.9999 27.2406 12.0025 27.24 8.16727 22.2112Z" fill="white"/>
</svg>
