<svg id="Layer_1" data-name="Layer 1" xmlns="http://www.w3.org/2000/svg" viewBox="0 0 160.38 129.44" width="158" height="126"><defs><style>.cls-1,.cls-2,.cls-3{fill:none;stroke-miterlimit:10;}.cls-1,.cls-2{stroke:#cdd2e0;}.cls-1{stroke-width:0.51px;}.cls-2{stroke-width:0.26px;}.cls-3{stroke:#ff7f32;stroke-width:2.77px;}.cls-4{fill:#fff;}.cls-5{fill:#d1cdd3;}.cls-6,.cls-9{opacity:0.6;}.cls-7{fill:#ff7f32;}.cls-8,.cls-9{fill:#11111f;}.cls-9{isolation:isolate;}</style></defs><g id="Group_2609381" data-name="Group 2609381"><g id="Group_2609380" data-name="Group 2609380"><g id="Group"><g id="Group_2" data-name="Group 2"><path id="Vector" class="cls-1" d="M61.87,97.44h94"/><path id="Vector_2" data-name="Vector 2" class="cls-1" d="M61.87,89.44h90"/><path id="Vector_3" data-name="Vector 3" class="cls-1" d="M60.87,81.44h86"/><path id="Vector_4" data-name="Vector 4" class="cls-1" d="M60.87,74.44h81"/><path id="Vector_5" data-name="Vector 5" class="cls-1" d="M59.87,66.44h81"/><path id="Vector_6" data-name="Vector 6" class="cls-1" d="M58.87,58.44h81"/><path id="Vector_7" data-name="Vector 7" class="cls-1" d="M58.87,50.44h81"/><path id="Vector_8" data-name="Vector 8" class="cls-1" d="M57.87,43.44h81"/><path id="Vector_9" data-name="Vector 9" class="cls-1" d="M57.87,35.44h81"/><path id="Vector_10" data-name="Vector 10" class="cls-1" d="M56.87,27.44h81"/></g><path id="Vector_11" data-name="Vector 11" class="cls-2" d="M66.87,21.44l6,84"/><path id="Vector_12" data-name="Vector 12" class="cls-2" d="M75.87,21.44l6,84"/><path id="Vector_13" data-name="Vector 13" class="cls-2" d="M85.87,21.44l6,84"/><path id="Vector_14" data-name="Vector 14" class="cls-2" d="M94.87,21.44l6,84"/><path id="Vector_15" data-name="Vector 15" class="cls-2" d="M104.87,21.44l6,84"/><path id="Vector_16" data-name="Vector 16" class="cls-2" d="M113.87,21.44l6,84"/><path id="Vector_17" data-name="Vector 17" class="cls-2" d="M123.87,21.44l6,84"/><path id="Vector_18" data-name="Vector 18" class="cls-2" d="M132.87,21.44l6,84"/></g><g id="Group_3" data-name="Group 3"><path id="Vector_19" data-name="Vector 19" class="cls-3" d="M63,73.09,78.14,42.61l19.5,51.83,25.71-79.61,17.22,39.11L157,5.44"/><path id="Vector_20" data-name="Vector 20" class="cls-3" d="M148,14.92,158.45,3.44l.54,15"/></g></g><g id="Group_4" data-name="Group 4"><g id="Group_5" data-name="Group 5"><path id="Vector_21" data-name="Vector 21" class="cls-4" d="M101.93,52.58,19.31,47.47a3.5,3.5,0,0,0-3.9,3.16l-1,10.42L5.59,60.3a4,4,0,0,0-4.28,3.85L0,113.61A11.44,11.44,0,0,0,10.1,125.28l79.37,4.1a9.25,9.25,0,0,0,10.27-8.46L105,56.35A3.51,3.51,0,0,0,101.93,52.58Z"/><path id="Vector_22" data-name="Vector 22" class="cls-5" d="M1.26,64.32,0,114a11.91,11.91,0,0,0,1.52,6.12c8.51,2.63,9.57-11.3,9.57-11.3L14,61.2l-8.59-.74A3.89,3.89,0,0,0,1.26,64.32Z"/><g id="Group_6" data-name="Group 6"><path id="Vector_23" data-name="Vector 23" class="cls-4" d="M6,91.92l6.82.52L13,90l-6.77-.52Z"/><path id="Vector_24" data-name="Vector 24" class="cls-4" d="M6,97.92l6.82.52L13,96l-6.78-.53Z"/><path id="Vector_25" data-name="Vector 25" class="cls-4" d="M7,85.93l6.82.51L14,84l-6.77-.51Z"/><path id="Vector_26" data-name="Vector 26" class="cls-4" d="M8,74l5.84.49L14,71.93l-5.8-.49Z"/><path id="Vector_27" data-name="Vector 27" class="cls-4" d="M5,103.91l6.83.53L12,102l-6.78-.53Z"/><path id="Vector_28" data-name="Vector 28" class="cls-4" d="M7,79.94l6.81.5.19-2.5-6.76-.5Z"/></g></g><g id="Group_7" data-name="Group 7"><g id="Group_8" data-name="Group 8"><g id="Group_9" data-name="Group 9"><g id="Group_10" data-name="Group 10" class="cls-6"><path id="Vector_29" data-name="Vector 29" class="cls-7" d="M70.69,74.11l-49.1-3.67a.34.34,0,0,0-.36.32L20,87.41a.32.32,0,0,0,.31.36L69.4,91.44a.32.32,0,0,0,.36-.31L70,87.82l1-13.35A.35.35,0,0,0,70.69,74.11Z"/></g><g id="Group_11" data-name="Group 11" class="cls-6"><path id="Vector_30" data-name="Vector 30" class="cls-7" d="M20.21,90.89,19,107.46a.48.48,0,0,0,.44.52l59.25,4.46L80,94.91,20.72,90.44A.49.49,0,0,0,20.21,90.89Z"/></g><g id="Group_12" data-name="Group 12" class="cls-6"><path id="Vector_31" data-name="Vector 31" class="cls-7" d="M94.56,96.42l-13.25-1-1.31,17,13.28,1a.47.47,0,0,0,.51-.43L95,96.92A.47.47,0,0,0,94.56,96.42Z"/></g><g id="Group_13" data-name="Group 13" class="cls-6"><path id="Vector_32" data-name="Vector 32" class="cls-8" d="M18.07,113.45l-.07,1,74.78,5.63.08-1Z"/></g><g id="Group_14" data-name="Group 14" class="cls-6"><path id="Vector_33" data-name="Vector 33" class="cls-8" d="M19.07,110.45l-.07,1,74.78,5.63.08-1Z"/></g><g id="Group_15" data-name="Group 15" class="cls-6"><path id="Vector_34" data-name="Vector 34" class="cls-8" d="M18.07,117.45l-.07,1,63.83,4.67.07-1Z"/></g><path id="Vector_35" data-name="Vector 35" class="cls-9" d="M95.64,77.81,73.41,76.44a.37.37,0,0,0-.41.3c0,.17.14.32.35.34l22.23,1.36a.37.37,0,0,0,.42-.29A.35.35,0,0,0,95.64,77.81Z"/><path id="Vector_36" data-name="Vector 36" class="cls-9" d="M94.64,79.81,72.41,78.44a.37.37,0,0,0-.41.3c0,.17.14.32.35.34l22.23,1.36a.37.37,0,0,0,.42-.29A.35.35,0,0,0,94.64,79.81Z"/><path id="Vector_37" data-name="Vector 37" class="cls-9" d="M94.64,81.81,72.41,80.44a.37.37,0,0,0-.41.3c0,.17.14.32.35.34l22.23,1.36a.37.37,0,0,0,.42-.29A.35.35,0,0,0,94.64,81.81Z"/><path id="Vector_38" data-name="Vector 38" class="cls-9" d="M94.64,84.81,72.41,83.44a.37.37,0,0,0-.41.3c0,.17.14.32.35.34l22.23,1.36a.37.37,0,0,0,.42-.29A.35.35,0,0,0,94.64,84.81Z"/><path id="Vector_39" data-name="Vector 39" class="cls-9" d="M94.64,86.81,72.41,85.44a.37.37,0,0,0-.41.3c0,.17.14.32.35.34l22.23,1.36a.37.37,0,0,0,.42-.29A.35.35,0,0,0,94.64,86.81Z"/><path id="Vector_40" data-name="Vector 40" class="cls-9" d="M94.64,88.81,72.41,87.44a.37.37,0,0,0-.41.3c0,.17.14.32.35.34l22.23,1.36a.37.37,0,0,0,.42-.29A.35.35,0,0,0,94.64,88.81Z"/><path id="Vector_41" data-name="Vector 41" class="cls-9" d="M94.64,91.81,72.41,90.44a.37.37,0,0,0-.41.3c0,.17.14.32.35.34l22.23,1.36a.37.37,0,0,0,.42-.29A.35.35,0,0,0,94.64,91.81Z"/><path id="Vector_42" data-name="Vector 42" class="cls-8" d="M78.74,70.84l-57.37-4.4a.28.28,0,0,0-.3.27l-.07,1a.28.28,0,0,0,.25.31l57.38,4.39a.27.27,0,0,0,.29-.26l.08-1A.29.29,0,0,0,78.74,70.84Z"/><g id="Group_16" data-name="Group 16"><path id="Vector_43" data-name="Vector 43" class="cls-8" d="M29.47,60.1l.36,1.45-.95-.07.59-1.38-1-4.2-1.74-.12-1.73,4,.37,1.48-1-.07L25,59.75l-1-4.17L22,55.44,23.67,62l2,.15,1.63-3.8-.2-.82.53,0-.33.78,1,4,2,.14L33,56.22l-1.81-.12Z"/><path id="Vector_44" data-name="Vector 44" class="cls-8" d="M25,61.44l-.38-2L24,61.35Z"/><path id="Vector_45" data-name="Vector 45" class="cls-8" d="M30,61.44l-.38-1-.62,1Z"/><path id="Vector_46" data-name="Vector 46" class="cls-8" d="M27,57.44l.37,1,.63-.95Z"/><path id="Vector_47" data-name="Vector 47" class="cls-8" d="M39.16,57.64a3.22,3.22,0,0,0-1-.81,3.61,3.61,0,0,0-1.37-.37,3.65,3.65,0,0,0-1.41.15,3,3,0,0,0-1.15.64,3.22,3.22,0,0,0-.81,1A3.38,3.38,0,0,0,33,59.66a3.65,3.65,0,0,0,.16,1.41,3.55,3.55,0,0,0,.66,1.17,3.25,3.25,0,0,0,1.05.82,3.71,3.71,0,0,0,1.37.37,3.63,3.63,0,0,0,1.41-.15,3.29,3.29,0,0,0,1.16-.64,3.36,3.36,0,0,0,.81-1A3.8,3.8,0,0,0,40,60.21a3.85,3.85,0,0,0-.17-1.41A3.6,3.6,0,0,0,39.16,57.64Zm-1,2.44a2.35,2.35,0,0,1-.18.78,1.85,1.85,0,0,1-.41.57,1.43,1.43,0,0,1-.56.35,1.7,1.7,0,0,1-.68.08,1.63,1.63,0,0,1-.66-.19,1.5,1.5,0,0,1-.51-.43,1.71,1.71,0,0,1-.32-.63,2.3,2.3,0,0,1-.07-.8A2.35,2.35,0,0,1,35,59a1.72,1.72,0,0,1,.4-.58,1.66,1.66,0,0,1,.57-.34,1.7,1.7,0,0,1,.68-.08,1.79,1.79,0,0,1,.66.18,1.53,1.53,0,0,1,.51.44,1.87,1.87,0,0,1,.32.63A2.28,2.28,0,0,1,38.19,60.08Z"/><path id="Vector_48" data-name="Vector 48" class="cls-8" d="M44,60.52l-1-.08.8,1,.14-.11Z"/><path id="Vector_49" data-name="Vector 49" class="cls-8" d="M44.11,61.44l-.11.1.1.12Z"/><path id="Vector_50" data-name="Vector 50" class="cls-8" d="M43.14,58.44l.84.06.06-.84Z"/><path id="Vector_51" data-name="Vector 51" class="cls-8" d="M46.78,57.54a3.92,3.92,0,0,0-1.55-.4l-3-.22-.49,6.5,1.87.13.13-1.72-.84-.07.78-.62-.68-.8.85.07L44,58.5l-.84-.06.9-.78L44,58.5l1,.08a1.28,1.28,0,0,1,.86.32.87.87,0,0,1,.24.71.86.86,0,0,1-.35.68,1.28,1.28,0,0,1-.9.19l-1-.07-.05.64-.06.78,1,.07-.4-.67,2,.14.2.34a2.23,2.23,0,0,0,1-.71A2.27,2.27,0,0,0,48,59.75a2.2,2.2,0,0,0-1.21-2.21Z"/><path id="Vector_52" data-name="Vector 52" class="cls-8" d="M43.79,61.05l0,.21-.1-.12-.78.62.84.07.06-.78Z"/><path id="Vector_53" data-name="Vector 53" class="cls-8" d="M44.34,61.23l.4.67h.13a4,4,0,0,0,1.59-.17l.08,0-.2-.34Z"/><path id="Vector_54" data-name="Vector 54" class="cls-8" d="M44.87,61.91h-.13l1.07,1.81,2,.15-1.27-2.15-.08,0A4,4,0,0,1,44.87,61.91Z"/><path id="Vector_55" data-name="Vector 55" class="cls-8" d="M51.46,57.59l-1.87-.13L49.09,64l5,.37.11-1.46-3.15-.23Z"/><path id="Vector_56" data-name="Vector 56" class="cls-8" d="M60.74,58.67a4.6,4.6,0,0,0-1.89-.54l-3.12-.22-.5,6.49,3.13.23a4.41,4.41,0,0,0,2-.26,3,3,0,0,0,2-2.73A3.07,3.07,0,0,0,62,59.89,3.15,3.15,0,0,0,60.74,58.67Zm-.34,2.84a1.88,1.88,0,0,1-.31.94,1.7,1.7,0,0,1-.7.57,2.32,2.32,0,0,1-1,.14l-1.17-.09.27-3.56,1.17.08a2.26,2.26,0,0,1,1,.29,1.55,1.55,0,0,1,.61.66A1.88,1.88,0,0,1,60.4,61.51Z"/><path id="Vector_57" data-name="Vector 57" class="cls-7" d="M71.88,63.43l-.66-.91-.07.86Z"/><path id="Vector_58" data-name="Vector 58" class="cls-7" d="M68,61l.66.92.07-.86Z"/><path id="Vector_59" data-name="Vector 59" class="cls-7" d="M71.22,62.52l.66.91-.73,0,.07-.86-2.65-3.68L67,58.73l-.49,6.5,1.82.13.26-3.46L68,61l.73.06-.07.86,2.66,3.67,1.54.12.49-6.5-1.83-.13Z"/><path id="Vector_60" data-name="Vector 60" class="cls-7" d="M76.53,62l-.11,1.36h.14l.1-1.36Z"/><path id="Vector_61" data-name="Vector 61" class="cls-7" d="M76.68,62l-.11,1.36,2.94.22.1-1.37Z"/><path id="Vector_62" data-name="Vector 62" class="cls-7" d="M74.53,65.81l5.3.39.11-1.43-3.46-.25.09-1.19h-.13l.1-1.37h.13l.08-1.08,3.34.24.11-1.43L75,59.32Z"/><path id="Vector_63" data-name="Vector 63" class="cls-7" d="M84.44,65.66l-.36-1.52-.61,1.45Z"/><path id="Vector_64" data-name="Vector 64" class="cls-7" d="M88.88,66l-.35-1.47-.59,1.4Z"/><path id="Vector_65" data-name="Vector 65" class="cls-7" d="M88.53,64.51,88.88,66l-.94-.07.59-1.4-1-4.28-1.72-.13-1.71,4,.36,1.52-1-.07.61-1.45-1-4.24-1.93-.14,1.66,6.65,2,.15,1.61-3.87-.2-.83.53,0-.33.79,1,4.06,2,.14L92,60.56l-1.78-.13Z"/><path id="Vector_66" data-name="Vector 66" class="cls-7" d="M86.21,61.86l.2.83.33-.79Z"/><path id="Vector_67" data-name="Vector 67" class="cls-7" d="M94.55,62.35a.62.62,0,0,1,.35-.19,1.74,1.74,0,0,1,.63,0,3.23,3.23,0,0,1,.89.19,4.21,4.21,0,0,1,.91.44L98,61.44a3.85,3.85,0,0,0-1.08-.51,5.48,5.48,0,0,0-1.27-.24,4,4,0,0,0-1.65.17,2.29,2.29,0,0,0-1,.69,1.9,1.9,0,0,0-.4,1,1.72,1.72,0,0,0,.14.88,1.69,1.69,0,0,0,.49.6,3.26,3.26,0,0,0,.71.4c.27.1.53.19.79.26l.71.22a2,2,0,0,1,.53.26.38.38,0,0,1,.18.35.43.43,0,0,1-.13.28.75.75,0,0,1-.36.16A2.42,2.42,0,0,1,95,66a3.94,3.94,0,0,1-1.14-.27,4.21,4.21,0,0,1-1-.53l-.72,1.32a4.05,4.05,0,0,0,1.18.59,6.1,6.1,0,0,0,1.55.32,4.22,4.22,0,0,0,1.66-.17,2.26,2.26,0,0,0,1-.7,1.82,1.82,0,0,0,.4-1,1.57,1.57,0,0,0-.14-.86,1.68,1.68,0,0,0-.5-.59,3.44,3.44,0,0,0-.71-.38,6,6,0,0,0-.78-.27l-.72-.22A2.2,2.2,0,0,1,94.6,63a.39.39,0,0,1-.18-.36A.43.43,0,0,1,94.55,62.35Z"/></g><path id="Vector_68" data-name="Vector 68" class="cls-8" d="M87.81,54.44l-.15,2,10.15.76.15-2Z"/></g></g><g id="Group_17" data-name="Group 17" class="cls-6"><path id="Vector_69" data-name="Vector 69" class="cls-7" d="M43.48,87.12l-8.95-6.31-14.92,7a.35.35,0,0,0,.31.36l48.9,3.65a.34.34,0,0,0,.36-.31l.24-3.29L60.56,77.72Z"/><path id="Vector_70" data-name="Vector 70" class="cls-7" d="M45,75.74a2.6,2.6,0,1,0,2.59,2.6A2.6,2.6,0,0,0,45,75.74Z"/></g></g></g></g></svg>