<svg width="30" height="30" viewBox="0 0 30 30" fill="none" xmlns="http://www.w3.org/2000/svg">
<path d="M8.33333 18H3C2.44772 18 2 18.4477 2 19V25.6667C2 26.219 2.44772 26.6667 3 26.6667H8.33333C8.88562 26.6667 9.33333 26.219 9.33333 25.6667V19C9.33333 18.4477 8.88562 18 8.33333 18Z" fill="white"/>
<path d="M17.6615 14H12.3281C11.7758 14 11.3281 14.4477 11.3281 15V25.6667C11.3281 26.219 11.7758 26.6667 12.3281 26.6667H17.6615C18.2137 26.6667 18.6615 26.219 18.6615 25.6667V15C18.6615 14.4477 18.2137 14 17.6615 14Z" fill="white"/>
<path d="M26.9974 8.66785H21.6641C21.1118 8.66785 20.6641 9.11556 20.6641 9.66785V25.6678C20.6641 26.2201 21.1118 26.6678 21.6641 26.6678H26.9974C27.5497 26.6678 27.9974 26.2201 27.9974 25.6678V9.66785C27.9974 9.11556 27.5497 8.66785 26.9974 8.66785Z" fill="white"/>
<path d="M28.3307 29.3359H1.66406C1.39885 29.3359 1.14449 29.2306 0.956956 29.043C0.769419 28.8555 0.664062 28.6012 0.664062 28.3359C0.664062 28.0707 0.769419 27.8164 0.956956 27.6288C1.14449 27.4413 1.39885 27.3359 1.66406 27.3359H28.3307C28.5959 27.3359 28.8503 27.4413 29.0378 27.6288C29.2254 27.8164 29.3307 28.0707 29.3307 28.3359C29.3307 28.6012 29.2254 28.8555 29.0378 29.043C28.8503 29.2306 28.5959 29.3359 28.3307 29.3359Z" fill="white"/>
<path d="M24.3281 6.66797C24.064 6.66452 23.8116 6.55805 23.6248 6.37126C23.438 6.18446 23.3316 5.93211 23.3281 5.66797V2.66797H20.3281C20.0629 2.66797 19.8086 2.56261 19.621 2.37508C19.4335 2.18754 19.3281 1.93319 19.3281 1.66797C19.3281 1.40275 19.4335 1.1484 19.621 0.960862C19.8086 0.773326 20.0629 0.667969 20.3281 0.667969H24.3281C24.5923 0.671422 24.8446 0.777888 25.0314 0.964681C25.2182 1.15147 25.3247 1.40383 25.3281 1.66797V5.66797C25.3247 5.93211 25.2182 6.18446 25.0314 6.37126C24.8446 6.55805 24.5923 6.66452 24.3281 6.66797Z" fill="white"/>
<path d="M5.66227 13.3345C5.45557 13.3358 5.25355 13.2729 5.08403 13.1546C4.91451 13.0363 4.78581 12.8684 4.71563 12.674C4.64546 12.4796 4.63727 12.2682 4.69218 12.0689C4.74709 11.8696 4.86241 11.6922 5.02227 11.5612L13.0223 4.89451C13.2069 4.73322 13.4438 4.64433 13.6889 4.64433C13.9341 4.64433 14.171 4.73322 14.3556 4.89451L16.3956 7.00118L23.6889 0.907846C23.7905 0.820298 23.9083 0.753611 24.0356 0.711591C24.163 0.669571 24.2973 0.653041 24.431 0.662946C24.5647 0.672851 24.6952 0.708996 24.815 0.769318C24.9347 0.82964 25.0414 0.912958 25.1289 1.01451C25.2165 1.11607 25.2832 1.23387 25.3252 1.3612C25.3672 1.48853 25.3837 1.62289 25.3738 1.7566C25.3639 1.89032 25.3278 2.02078 25.2675 2.14052C25.2071 2.26027 25.1238 2.36697 25.0223 2.45451L17.0223 9.12118C16.8389 9.28517 16.6016 9.37582 16.3556 9.37582C16.1096 9.37582 15.8723 9.28517 15.6889 9.12118L13.6623 7.00118L6.30227 13.1078C6.1203 13.2529 5.89496 13.3327 5.66227 13.3345Z" fill="white"/>
</svg>
