<?xml version="1.0" encoding="utf-8"?>
<!-- Generator: Adobe Illustrator 27.8.1, SVG Export Plug-In . SVG Version: 6.00 Build 0)  -->
<svg version="1.1" id="Layer_1" xmlns="http://www.w3.org/2000/svg" xmlns:xlink="http://www.w3.org/1999/xlink" x="0px" y="0px"
	 viewBox="0 0 841.9 595.3" style="enable-background:new 0 0 841.9 595.3;" xml:space="preserve">
<style type="text/css">
	.st0{fill:#0054FF;}
	.st1{fill:#FFFFFF;}
</style>
<g>
	<path class="st0" d="M311.4,328.8v-64.1c0-4.2-3.4-7.6-7.6-7.6s-7.6,3.4-7.6,7.6v64.1c0,4.2,3.4,7.6,7.6,7.6
		C308,336.4,311.4,333,311.4,328.8 M413.3,328.8v-32c0-21.8-17.8-39.6-39.6-39.6c-21.8,0-39.6,17.8-39.6,39.6v32
		c0,4.2,3.4,7.6,7.6,7.6s7.6-3.4,7.6-7.6v-32c0-13.5,11-24.5,24.5-24.5s24.5,11,24.5,24.5v32c0,4.2,3.4,7.6,7.6,7.6
		C409.9,336.4,413.3,333,413.3,328.8 M504.5,267.3c1.4-3.9-0.7-8.3-4.6-9.7c-3.9-1.4-8.3,0.7-9.7,4.6l-19.3,54.5
		c-1,2.9-3.1,4.6-5.6,4.6s-4.6-1.7-5.6-4.6l-19.3-54.5c-1.4-3.9-5.7-6-9.7-4.6s-6,5.7-4.6,9.7l19.3,54.5
		c3.2,8.9,10.9,14.6,19.8,14.6s16.7-5.7,19.8-14.6L504.5,267.3z M675.6,296.8c0,13.5-11,24.5-24.5,24.5c-13.5,0-24.5-11-24.5-24.5
		c0-13.5,11-24.5,24.5-24.5C664.7,272.3,675.6,283.3,675.6,296.8 M690.8,296.8c0-21.8-17.8-39.6-39.6-39.6
		c-21.8,0-39.6,17.8-39.6,39.6c0,21.8,17.8,39.6,39.6,39.6C673,336.4,690.8,318.6,690.8,296.8"/>
	<path class="st0" d="M588.9,336.4h-32c-21.8,0-39.6-17.8-39.6-39.6c0-21.8,17.8-39.6,39.6-39.6h32c4.2,0,7.6,3.4,7.6,7.6
		s-3.4,7.6-7.6,7.6h-32c-13.5,0-24.5,11-24.5,24.5c0,13.5,11,24.5,24.5,24.5h32c4.2,0,7.6,3.4,7.6,7.6
		C596.5,333,593.1,336.4,588.9,336.4"/>
	<path class="st0" d="M588.8,336.4h-32c-21.8,0-39.6-17.8-39.6-39.6c0-21.8,17.8-39.6,39.6-39.6h32c4.2,0,7.6,3.4,7.6,7.6
		s-3.4,7.6-7.6,7.6h-32c-13.5,0-24.5,11-24.5,24.5c0,13.5,11,24.5,24.5,24.5h32c4.2,0,7.6,3.4,7.6,7.6
		C596.4,333,593,336.4,588.8,336.4"/>
	<path class="st0" d="M588.8,304.4h-32c-4.2,0-7.6-3.4-7.6-7.6s3.4-7.6,7.6-7.6h32c4.2,0,7.6,3.4,7.6,7.6
		C596.4,301,593,304.4,588.8,304.4"/>
	<path class="st0" d="M275.9,264.8c0-4.2-3.4-7.6-7.6-7.6H223c-3.5,0-6.5,2.4-7.3,5.7c-0.2,0.6-0.3,1.2-0.3,1.9v65.7
		c0,4.2,3.4,7.6,7.6,7.6s7.6-3.4,7.6-7.6v-58.1h37.7C272.5,272.3,275.9,268.9,275.9,264.8"/>
	<path class="st0" d="M266.1,297.9c0-4.2-3.4-7.6-7.6-7.6h-33.3c-4.2,0-7.6,3.4-7.6,7.6s3.4,7.6,7.6,7.6h33.3
		C262.7,305.4,266.1,302,266.1,297.9"/>
	<path class="st0" d="M158.7,306.1c-4.2,0-7.6,3.4-7.6,7.6v16.9c0,4.2,3.4,7.6,7.6,7.6s7.6-3.4,7.6-7.6v-16.9
		C166.3,309.5,162.9,306.1,158.7,306.1"/>
	<path class="st0" d="M190.9,284.2c-4.2,0-7.6,3.4-7.6,7.6v38.8c0,4.2,3.4,7.6,7.6,7.6s7.6-3.4,7.6-7.6v-38.8
		C198.4,287.6,195,284.2,190.9,284.2"/>
</g>
<rect x="-861.9" y="0" class="st0" width="841.9" height="595.3"/>
<g>
	<path class="st1" d="M-541.9,326.4v-59c0-3.9-3.1-7-7-7c-3.9,0-7,3.1-7,7v59c0,3.9,3.1,7,7,7C-545,333.3-541.9,330.2-541.9,326.4
		 M-448,326.4v-29.5c0-20.1-16.4-36.5-36.5-36.5c-20.1,0-36.5,16.4-36.5,36.5v29.5c0,3.9,3.1,7,7,7c3.8,0,7-3.1,7-7v-29.5
		c0-12.4,10.1-22.5,22.5-22.5c12.4,0,22.5,10.1,22.5,22.5v29.5c0,3.9,3.1,7,7,7C-451.1,333.3-448,330.2-448,326.4 M-364,269.7
		c1.3-3.6-0.6-7.6-4.2-8.9c-3.6-1.3-7.6,0.6-8.9,4.2l-17.8,50.2c-0.9,2.6-2.9,4.2-5.1,4.2s-4.2-1.6-5.1-4.2L-423,265
		c-1.3-3.6-5.3-5.5-8.9-4.2s-5.5,5.3-4.2,8.9l17.8,50.2c2.9,8.2,10.1,13.5,18.3,13.5s15.4-5.3,18.3-13.5L-364,269.7z M-206.3,296.9
		c0,12.4-10.1,22.5-22.5,22.5s-22.5-10.1-22.5-22.5c0-12.4,10.1-22.5,22.5-22.5S-206.3,284.4-206.3,296.9 M-192.4,296.9
		c0-20.1-16.4-36.5-36.5-36.5s-36.5,16.4-36.5,36.5s16.4,36.5,36.5,36.5C-208.7,333.3-192.4,317-192.4,296.9"/>
	<path class="st1" d="M-286.2,333.3h-29.5c-20.1,0-36.5-16.4-36.5-36.5c0-20.1,16.4-36.5,36.5-36.5h29.5c3.8,0,7,3.1,7,7s-3.1,7-7,7
		h-29.5c-12.4,0-22.5,10.1-22.5,22.5c0,12.4,10.1,22.5,22.5,22.5h29.5c3.8,0,7,3.1,7,7C-279.2,330.2-282.4,333.3-286.2,333.3"/>
	<path class="st1" d="M-286.3,333.3h-29.5c-20.1,0-36.5-16.4-36.5-36.5c0-20.1,16.4-36.5,36.5-36.5h29.5c3.8,0,7,3.1,7,7s-3.1,7-7,7
		h-29.5c-12.4,0-22.5,10.1-22.5,22.5c0,12.4,10.1,22.5,22.5,22.5h29.5c3.8,0,7,3.1,7,7S-282.5,333.3-286.3,333.3"/>
	<path class="st1" d="M-286.3,303.8h-29.5c-3.8,0-7-3.1-7-7s3.1-7,7-7h29.5c3.8,0,7,3.1,7,7S-282.5,303.8-286.3,303.8"/>
	<path class="st1" d="M-574.6,267.3c0-3.9-3.1-7-7-7h-41.7c-3.2,0-6,2.2-6.7,5.3c-0.1,0.5-0.2,1.1-0.2,1.7v60.5c0,3.9,3.1,7,7,7
		c3.9,0,7-3.1,7-7v-53.5h34.8C-577.7,274.3-574.6,271.2-574.6,267.3"/>
	<path class="st1" d="M-583.6,297.9c0-3.9-3.1-7-7-7h-30.7c-3.8,0-7,3.1-7,7s3.1,7,7,7h30.7C-586.7,304.8-583.6,301.7-583.6,297.9"
		/>
	<path class="st1" d="M-682.5,305.4c-3.8,0-7,3.1-7,7v15.6c0,3.9,3.1,7,7,7c3.9,0,7-3.1,7-7v-15.6
		C-675.6,308.5-678.7,305.4-682.5,305.4"/>
	<path class="st1" d="M-652.9,285.3c-3.8,0-7,3.1-7,7v35.7c0,3.9,3.1,7,7,7s7-3.1,7-7v-35.7C-645.9,288.4-649,285.3-652.9,285.3"/>
</g>
</svg>
