<svg width="156" height="121" viewBox="0 0 156 121" fill="none" xmlns="http://www.w3.org/2000/svg">
<path d="M9.47644 116.262H124.245C124.245 116.262 128.983 116.262 128.983 111.524V80.928C128.983 80.928 128.983 76.1898 133.721 76.1898H145.87C145.87 76.1898 150.608 76.1898 150.608 71.4517V36.1913C150.608 36.1913 150.608 31.4531 145.87 31.4531H112.095C112.095 31.4531 107.357 31.4531 107.357 26.715V9.47644C107.357 9.47644 107.357 4.73828 102.619 4.73828H9.47644C9.47644 4.73828 4.73828 4.73828 4.73828 9.47644V57.0341C4.73828 57.0341 4.73828 61.7722 9.47644 61.7722H59.5771C59.5771 61.7722 64.3152 61.7722 64.3152 66.5104V70.1795C64.3152 70.1795 64.3152 74.9176 59.5771 74.9176H9.47644C9.47644 74.9176 4.73828 74.9176 4.73828 79.6558V111.524C4.73828 111.524 4.73828 116.262 9.47644 116.262Z" fill="#FF7F32"/>
</svg>
