<svg width="585" height="139" viewBox="0 0 585 139" fill="none" xmlns="http://www.w3.org/2000/svg">
<path opacity="0.5" d="M584.174 104.747C569.84 104.747 319.148 104.747 309.56 104.747C299.972 104.747 295.13 104.747 292.653 104.677C290.176 104.607 290.063 104.466 289.986 104.238C289.909 104.009 289.868 103.692 289.799 103.527C289.73 103.362 289.634 103.348 289.475 103.362C289.317 103.375 289.096 103.417 288.848 103.589C288.6 103.761 288.325 104.065 288.015 104.595C287.704 105.126 287.36 105.884 286.237 107.682C285.114 109.48 283.212 112.319 280.662 115.144C278.113 117.97 274.916 120.781 271.043 123.468C267.171 126.155 262.623 128.719 260.225 130.014C257.828 131.309 257.579 131.337 257.483 131.213C257.386 131.089 257.442 130.813 257.786 129.849C258.131 128.884 258.765 127.23 259.219 125.604C259.674 123.978 259.95 122.379 260.143 121.346C260.336 120.312 260.446 119.844 261.038 119.43C261.631 119.017 262.706 118.659 264.387 117.646C266.068 116.633 268.356 114.965 270.912 113.132C273.469 111.3 276.294 109.301 278.292 107.51C280.29 105.718 281.462 104.133 282.22 102.032C282.978 99.9303 283.322 97.312 283.295 93.4395C283.267 89.5671 282.868 84.4406 282.406 80.8437C281.944 77.2469 281.42 75.1798 281.214 73.8981C281.007 72.6165 281.117 72.1204 281.489 70.9077C281.861 69.695 282.495 67.7657 283.446 65.2162C284.397 62.6668 285.665 59.4972 286.285 57.5265C286.905 55.5559 286.878 54.7841 286.526 53.8953C286.175 53.0064 285.5 52.0004 284.79 50.8222C284.08 49.6439 283.336 48.2934 281.861 46.0058C280.387 43.7181 278.182 40.4934 276.859 38.7846C275.536 37.0758 275.095 36.8828 273.579 37.3927C272.063 37.9026 269.472 39.1153 267.047 40.1902C264.621 41.2651 262.361 42.2022 260.928 42.7397C259.495 43.2772 258.889 43.4149 257.283 42.7052C255.678 41.9955 253.073 40.4383 249.814 38.9292C246.555 37.4202 242.641 35.9594 239.444 35.0224C236.247 34.0853 233.766 33.6718 231.506 33.2308C229.246 32.7898 227.206 32.3213 226.145 32.0319C225.084 31.7425 225.001 31.6323 224.622 30.647C224.243 29.6617 223.568 27.8012 222.665 25.3275C221.763 22.8538 220.633 19.7669 219.944 17.9754C219.255 16.1838 219.007 15.6877 219.489 14.8747C219.971 14.0616 221.184 12.9315 222.355 11.898C223.527 10.8644 224.657 9.92736 226.641 8.85247C228.626 7.77757 231.465 6.56484 233.38 5.6002C235.296 4.63555 236.288 3.91889 236.577 3.36765C236.867 2.81641 236.453 2.43049 235.998 2.04467C235.544 1.65885 235.048 1.27294 235.034 1.10761C235.02 0.942192 235.489 0.997365 237.06 1.17653C238.631 1.3557 241.304 1.65885 244.928 2.45126C248.553 3.24366 253.128 4.5253 256.67 5.70352C260.211 6.88175 262.72 7.95674 265.269 9.34853C267.819 10.7404 270.409 12.4492 273.538 14.9711C276.666 17.493 280.332 20.828 283.694 24.8244C287.057 28.8208 290.116 33.4788 292.534 38.247C294.953 43.0151 296.731 47.8936 297.923 52.207C299.115 56.5205 299.721 60.2689 300.038 63.8795C300.355 67.4901 300.383 70.9629 300.004 74.9386C299.625 78.9144 298.839 83.3932 298.075 86.6386C297.31 89.884 296.566 91.8959 295.243 94.8589C293.92 97.8218 292.018 101.736 290.288 104.747C288.559 107.758 287.002 109.866 285.451 111.899C283.901 113.932 282.357 115.888 280.001 118.204C277.644 120.519 274.475 123.192 270.919 125.576C267.364 127.961 263.423 130.055 260.708 131.392C257.993 132.729 256.504 133.308 255.181 133.818C253.859 134.327 252.701 134.768 250.014 135.457C247.326 136.146 243.109 137.084 238.934 137.566C234.758 138.048 230.624 138.076 227.413 137.904C224.202 137.731 221.915 137.359 219.772 136.987C217.629 136.615 215.63 136.243 212.481 135.251C209.333 134.258 205.033 132.646 202.311 131.53C199.589 130.414 198.446 129.793 195.586 127.726C192.727 125.659 188.151 122.145 184.637 119.01C181.123 115.875 178.67 113.119 176.506 110.459C174.343 107.799 172.468 105.236 170.932 102.445C169.395 99.6546 168.196 96.6366 167.308 94.3421C166.419 92.0475 165.84 90.4766 165.151 87.748C164.462 85.0193 163.663 81.1332 163.222 77.302C162.781 73.4709 162.698 69.695 162.781 66.6218C162.863 63.5486 163.111 61.1784 163.538 58.3533C163.966 55.5281 164.572 52.2483 165.819 48.617C167.066 44.9858 168.954 41.0031 170.739 37.6612C172.524 34.3194 174.205 31.6182 176.548 28.6141C178.89 25.6098 181.895 22.3024 184.472 19.7667C187.049 17.231 189.198 15.4671 192.134 13.4551C195.069 11.4431 198.79 9.18302 202.497 7.41905C206.204 5.65508 209.897 4.38727 212.805 3.54662C215.713 2.70597 217.835 2.29256 220.467 1.92049C223.099 1.54841 226.242 1.21767 228.171 1.07983C230.1 0.941998 230.817 0.99717 231.478 1.13491C232.14 1.27274 232.746 1.49314 233.504 1.92039C234.262 2.34764 235.172 2.98154 235.847 3.72569C236.522 4.46984 236.963 5.32424 238.052 5.75148C239.141 6.17863 240.877 6.17863 242.958 6.47497C245.039 6.7713 247.464 7.36387 249.38 7.88061C251.295 8.39734 252.701 8.83843 254.327 9.41716C255.953 9.99589 257.8 10.7125 259.164 11.374C260.529 12.0355 261.411 12.6418 262.417 13.1517C263.423 13.6617 264.553 14.0751 265.118 14.3782C265.683 14.6814 265.683 14.8744 265.958 15.4256C266.234 15.9769 266.785 16.8863 267.998 19.2981C269.211 21.7097 271.085 25.6235 271.946 28.4831C272.807 31.3426 272.656 33.1479 271.092 34.7396C269.527 36.3313 266.551 37.7094 264.043 38.8257C261.534 39.9419 259.495 40.7963 258.379 41.4441C257.262 42.0917 257.069 42.5327 257.056 43.1391C257.042 43.7454 257.207 44.5173 257.993 48.555C258.778 52.5928 260.184 59.8966 260.928 64.086C261.672 68.2755 261.755 69.3504 262.306 70.0601C262.857 70.7699 263.877 71.1143 266.868 72.017C269.858 72.9196 274.819 74.3804 277.686 75.2348C280.552 76.0892 281.324 76.3373 281.903 76.1168C282.481 75.8963 282.867 75.2073 283.935 72.2307C285.003 69.254 286.753 63.9896 287.78 60.8201C288.807 57.6505 289.11 56.5756 289.234 55.5972C289.358 54.6188 289.303 53.7368 289.193 52.9374C289.082 52.1381 288.917 51.4216 288.09 50.1123C287.263 48.8031 285.775 46.9014 283.377 43.9247C280.979 40.948 277.672 36.8964 275.77 34.6915C273.868 32.4866 273.372 32.1283 272.104 32.3763C270.837 32.6244 268.797 33.4788 266.881 34.4297C264.966 35.3806 263.174 36.4279 261.355 37.4202C259.536 38.4124 257.69 39.3495 256.532 40.1488C255.374 40.948 254.906 41.6096 254.782 42.464C254.658 43.3184 254.878 44.3657 255.54 47.0116C256.201 49.6576 257.304 53.9021 258.048 57.4575C258.792 61.013 259.178 63.8794 259.371 65.7123C259.564 67.5452 259.564 68.3444 259.522 68.9508C259.481 69.5571 259.398 69.9706 258.048 71.5072C256.697 73.0437 254.079 75.7034 251.144 78.4941C248.208 81.2847 244.956 84.2063 242.489 85.9841C240.022 87.7618 238.341 88.3957 237.073 88.6714C235.805 88.947 234.951 88.8643 233.187 88.4509C231.423 88.0375 228.75 87.2933 225.456 86.1219C222.162 84.9505 218.248 83.352 215.754 82.3459C213.26 81.3399 212.185 80.9265 211.647 80.5958C211.11 80.265 211.11 80.0169 211.165 79.769C211.22 79.5209 211.331 79.2729 212.915 79.6863C214.5 80.0997 217.559 81.1747 221.363 82.4149C225.167 83.6552 229.714 85.0609 232.76 85.9429C235.805 86.8248 237.349 87.1832 238.121 87.6379C238.892 88.0927 238.892 88.6439 239.016 92.8746C239.14 97.1054 239.388 105.016 239.457 109.412C239.526 113.808 239.416 114.69 238.031 115.489C236.646 116.288 233.986 117.005 230.713 117.804C227.44 118.604 223.554 119.486 220.867 120.037C218.18 120.588 216.691 120.809 215.382 120.891C214.073 120.974 212.943 120.919 211.813 120.505C210.683 120.092 209.553 119.32 206.797 116.027C204.04 112.733 199.658 106.917 197.453 103.679C195.248 100.44 195.221 99.7788 195.503 98.9588C195.786 98.1389 196.378 97.1605 198.838 93.9288C201.298 90.6972 205.625 85.2123 207.844 82.2219C210.063 79.2315 210.173 78.7353 209.897 76.8404C209.622 74.9455 208.96 71.6519 208.382 68.7787C207.803 65.9053 207.307 63.4523 206.866 60.9166C206.425 58.3809 206.039 55.7626 205.432 53.7368C204.826 51.711 203.999 50.2778 202.807 49.2993C201.615 48.3208 200.058 47.7971 197.977 47.0047C195.896 46.2123 193.291 45.1512 191.148 44.4208C189.005 43.6904 187.324 43.2907 186.422 42.96C185.519 42.6292 185.395 42.3674 185.333 41.8368C185.271 41.3062 185.271 40.5069 185.643 38.8808C186.015 37.2546 186.759 34.8016 187.683 32.197C188.606 29.5924 189.708 26.8363 190.728 24.8655C191.748 22.8949 192.685 21.7097 193.677 20.7589C194.669 19.808 195.717 19.0914 197.867 18.1268C200.016 17.1621 203.269 15.9494 206.604 15.1501C209.939 14.3507 213.356 13.9649 215.63 13.7857C217.904 13.6066 219.034 13.6342 219.902 13.8823C220.77 14.1303 221.377 14.5988 222.576 17.231C223.775 19.8631 225.566 24.6589 226.572 27.5116C227.578 30.3642 227.799 31.2738 227.84 32.0318C227.881 32.7896 227.744 33.3961 226.738 34.278C225.732 35.16 223.857 36.3176 221.391 38.0334C218.924 39.7491 215.864 42.023 213.356 44.1521C210.848 46.2812 208.891 48.2657 207.623 49.3543C206.356 50.4431 205.777 50.636 204.812 50.5808C203.848 50.5257 202.497 50.2225 200.32 49.5059C198.142 48.7894 195.138 47.6593 192.492 46.6946C189.846 45.73 187.558 44.9307 186.194 44.5723C184.83 44.214 184.389 44.2967 183.851 44.4897C183.314 44.6826 182.68 44.9858 181.495 46.1434C180.31 47.301 178.573 49.313 176.906 51.7453C175.238 54.1776 173.64 57.0303 172.585 59.0009C171.531 60.9715 171.021 62.0603 170.415 62.8182C169.809 63.5761 169.106 64.0034 168.355 64.1206C167.604 64.2377 166.804 64.0447 166.115 63.8311C165.426 63.6176 164.848 63.3832 164.496 63.1214C164.145 62.8596 164.021 62.5702 163.986 62.2877C163.952 62.0052 164.007 61.7295 164.31 61.6468C164.613 61.5642 165.164 61.6744 166.129 61.9776C167.094 62.2807 168.472 62.7769 169.258 63.2179C170.043 63.6589 170.236 64.0447 170.415 65.6295C170.594 67.2143 170.76 69.998 171.228 73.3675C171.697 76.7369 172.469 80.6921 173.199 83.648C173.929 86.604 174.618 88.5609 175.073 89.8426C175.528 91.1242 175.748 91.7305 175.693 92.4196C175.638 93.1087 175.308 93.8804 174.798 95.1206C174.288 96.3609 173.599 98.0697 173.364 99.5306C173.13 100.991 173.351 102.204 173.289 103.1C173.227 103.996 172.882 104.574 170.184 104.864C167.487 105.153 162.436 105.153 152.97 105.153C143.503 105.153 -110.118 105.153 -124 105.153" stroke="white" stroke-width="0.701815" stroke-miterlimit="2.6131"/>
</svg>
