<svg width="540" height="310" viewBox="0 0 540 310" fill="none" xmlns="http://www.w3.org/2000/svg">
<path opacity="0.5" d="M1 13.3672C36.1927 -9.32866 112.817 0.274158 128.998 33.4918C139.293 54.6266 155.489 53.3781 163.874 49.6254C173.3 45.4067 177.149 24.9798 170.74 18.4202C148.226 -4.62345 129.391 25.9982 136.577 41.3173C139.98 48.5695 147.835 50.851 178.473 49.5502C214.192 48.0338 231.43 33.1167 248.147 67.542C249.772 69.7529 252.1 73.3754 255.285 74.0161C258.483 74.6606 258.845 78.4489 262.722 81.5561C266.616 84.6782 267.062 87.8833 270.852 86.6148C274.667 85.3378 278.014 83.4927 276.353 83.0074C274.697 82.5244 267.448 81.2366 266.7 77.8959C265.951 74.5547 267.821 71.3103 268.804 70.9392C269.788 70.5676 259.62 62.4905 258.482 61.1089C255.978 58.0627 254.933 58.6204 251.192 60.5997C249.106 61.7033 248.158 61.5668 248.2 65.5389L256.689 61.8501C261.039 65.3311 264.435 69.201 266.009 70.5594C267.587 71.9193 271.616 69.8332 274.357 70.9648C277.109 72.0989 292.497 72.463 299.584 75.4288C306.739 78.4245 314.921 83.5252 314.921 83.5252C314.921 83.5252 310.976 84.5354 309.157 88.4447C307.346 92.3351 307.455 98.8199 306.045 98.4407C304.637 98.0641 293.721 96.1006 288.502 92.9606C283.317 89.8427 279.147 84.606 279.147 84.606C279.147 84.606 287.371 90.3457 290.46 91.5057C293.562 92.6712 294.844 98.5779 296.328 91.6132C297.818 84.6104 303.846 76.9517 303.464 83.0412C303.083 89.1097 302.001 95.7986 302.673 96.5139C303.344 97.2292 313.347 102.901 316.69 107.581C320.045 112.277 328.296 121.052 328.296 121.052L334.132 124.807C334.132 124.807 329.179 131.462 332.176 129.719C335.189 127.966 338.162 123.615 339.012 116.556C339.864 109.466 340.249 100.516 340.173 99.5936C340.097 98.6704 336.146 97.4847 330.259 93.7982C324.414 90.1375 314.972 82.2998 315.853 85.2983C316.735 88.2952 324.02 94.7514 328.636 97.1082C333.28 99.4785 340.737 98.6378 343.177 100.835C345.623 103.04 357.321 112.457 357.549 113.226C357.774 113.994 350.299 126.612 361.131 133.411C372.108 140.3 375.541 137.121 381.135 142.006C386.765 146.92 388.315 153.937 392.755 156.248C397.221 158.572 402.171 157.759 402.171 157.759C402.171 157.759 395.262 159.99 393.822 165.931C392.388 171.844 389.394 192.821 387.062 190.934C384.735 189.05 375.607 176.672 366.25 175.075C357.014 173.497 351.035 173.16 351.775 176.327C352.513 179.493 360.101 187.722 359.507 186.357C358.912 184.992 353.786 179.355 353.083 176.638C352.38 173.921 352.638 175.129 353.99 170.005C355.346 164.858 355.408 151.623 356.529 153.444C357.65 155.265 368.162 170.205 364.977 163.172C361.798 156.152 358.495 151.592 358.971 151.434C359.447 151.275 369.182 155.946 368.234 154.415C367.289 152.886 357.04 153.745 357.057 149.926C357.075 146.1 356.975 136.742 356.256 139.982C355.541 143.215 356.382 151.614 354.2 150.722C352.026 149.833 347.455 139.236 342.195 135.692C336.968 132.17 335.045 131.916 335.468 131.297C335.891 130.68 338.447 107.837 342.015 119.972C345.584 132.104 348.076 142.883 347.798 135.566C347.52 128.227 347.158 123.788 349.195 128.946C351.233 134.108 349.877 131.383 355.413 133.548C360.988 135.73 365.362 141.044 368.107 144.395C370.859 147.756 378.057 158.824 386.557 159.871C395.161 160.93 403.883 157.434 405.65 155.37C407.42 153.299 413.335 147.514 414.793 140.623C416.256 133.696 417.333 131.258 418.488 127.359C419.647 123.447 420.889 120.655 421.765 117.706C422.642 114.749 430.232 95.4191 429.907 90.649C429.582 85.8705 421.104 71.6648 416.761 69.3149C412.438 66.9764 407.685 65.8338 407.685 65.8338C407.685 65.8338 400.006 68.0216 397.732 68.3456C395.465 68.6677 386.365 68.5004 392.334 69.0514C398.353 69.606 424.344 68.2939 411.906 69.6496C399.691 70.9821 388.22 67.7215 388.268 68.366C388.315 69.0105 390.487 72.4237 390.958 76.439C391.43 80.4504 392.439 87.0062 391.237 87.2359C390.037 87.4657 386.905 82.6629 386.905 82.6629C386.905 82.6629 366.412 78.0372 361.338 75.3582C356.296 72.6955 342.068 65.5377 342.068 65.5377C342.068 65.5377 338.039 63.9647 337.409 64.1697C336.779 64.3751 336.291 66.2886 332.489 67.043C328.71 67.7924 323.707 66.9288 324.968 66.8336C326.231 66.7373 328.658 67.1751 329.52 66.0219C330.384 64.8675 330.228 63.0099 329.433 63.0724C328.639 63.1353 328.942 62.9556 328.571 64.23C328.198 65.5011 325.454 66.9521 322.868 66.3743C320.293 65.7977 316.011 65.357 317.657 62.6061C319.311 59.8458 323.872 55.7435 326.997 55.012C330.139 54.2762 336.889 55.9023 338.552 56.3918C340.219 56.884 353.591 59.5929 358.478 60.3192C363.399 61.0493 374.242 63.1011 377.272 64.6443C380.311 66.192 390.223 68.8762 392.568 69.8473C394.92 70.8222 395.886 69.616 397.655 74.5398C399.425 79.4662 401.641 83.2318 398.724 81.9452C395.818 80.6643 393.639 77.2376 393.864 80.3C394.09 83.3582 391.375 86.7452 394.306 88.6747C397.249 90.6097 405.446 91.7872 409.563 94.6593C413.7 97.5463 413.89 97.6998 409.393 97.2689C404.925 96.8406 392.291 94.4173 402.155 97.625C412.147 100.874 415.416 101.536 414.177 101.755C412.939 101.975 411.802 101.052 407.899 101.232C404.018 101.414 412.211 109.306 412.125 115.615C412.041 121.907 395.75 110.611 395.418 113.181C395.086 115.748 406.184 131.373 403.606 132.074C401.037 132.772 403.742 138.755 385.606 129.361C367.866 120.172 359.309 116.734 370.47 119.303C381.804 121.91 391.055 124.309 383.76 120.741C376.53 117.208 369.853 113.529 368.828 113.254C367.804 112.981 363.458 114.867 361.568 114.004C359.683 113.143 355.281 113.626 360.254 112.029C365.268 110.421 366.978 110.978 368.209 107.475C369.442 103.962 367.968 106.544 370.836 100.271C373.723 93.9552 373.811 84.0952 372.225 87.6877C370.643 91.2682 369.561 96.8612 369.128 95.6195C368.696 94.3781 362.91 91.0627 363.549 86.4515C364.189 81.8258 366.46 78.6681 366.46 78.6681C366.46 78.6681 362.469 83.3566 360.801 87.5585C359.139 91.7442 348.447 101.82 348.447 101.82C348.447 101.82 352.036 105.845 353.275 107.032C354.519 108.222 357.894 109.322 362.095 106.019C366.328 102.69 370.363 96.3458 371.572 94.5438C372.783 92.7353 374.563 89.4625 375.504 86.2246C376.448 82.9791 376.969 80.8699 381.217 82.6881C385.488 84.5167 393.761 88.3827 394.279 85.9324C394.798 83.4779 391.838 76.5444 391.414 73.1707C390.989 69.7956 388.517 67.0516 388.517 67.0516C388.517 67.0516 378.097 64.219 377.778 63.3979C377.457 62.5765 378.271 59.7303 377.503 59.7902C376.735 59.8503 373.814 58.6292 374.569 56.7551C375.326 54.8787 377.567 53.8464 377.584 52.389C377.604 50.9297 375.122 48.833 376.2 46.0658C377.282 43.2906 382.511 38.5328 382.892 38.3748C383.272 38.2159 383.656 41.6127 386.591 42.328C389.536 43.0456 391.466 42.3808 391.275 43.3829C391.085 44.3839 386.418 45.2867 387.611 48.9813C388.803 52.676 388.924 52.5441 389.797 50.1438C390.673 47.7386 393.515 46.8778 393.73 49.8119C393.944 52.7425 393.125 54.1594 392.26 54.9659C391.398 55.7694 391.893 58.9117 393.122 57.7153C394.354 56.5146 395.55 52.9793 395.84 53.3246C396.131 53.67 396.431 55.9816 399.048 57.2489C401.671 58.5217 407.561 58.4361 408.097 58.3936C408.633 58.3528 412.204 51.4914 412.649 46.221C413.093 40.9369 412.56 37.2311 411.104 35.8646C409.647 34.4993 409.191 33.7924 404.408 31.2523C399.653 28.7272 398.225 27.5007 392.665 28.058C387.15 28.6099 382.711 25.484 382.078 27.5196C381.445 29.5512 384.006 30.5277 383.262 31.0931C382.52 31.6575 378.505 32.0533 379.115 33.2185C379.722 34.3854 383.397 34.6452 382.275 35.3671C381.154 36.0864 375.353 36.6382 379.289 37.2434C383.244 37.8513 383.327 38.9475 387.879 36.6779C392.465 34.3918 397.438 29.5687 401.156 34.679C404.886 39.8068 407.912 42.5211 406.566 46.3705C405.226 50.2051 404.601 50.8769 405.454 53.4059C406.306 55.9368 405.788 58.0783 407.408 60.0541C409.029 62.0327 411.789 68.629 416.861 73.3528C421.959 78.1 424.275 79.9398 424.369 83.2794C424.461 86.6151 414.914 93.7744 419.18 92.9407C423.474 92.1016 425.32 89.1632 424.74 92.6512C424.161 96.1323 416.472 129.187 412.151 135.872C407.866 142.499 391.641 141.352 395.62 143.964C399.616 146.587 403.819 147.005 402.322 150.344C400.831 153.673 391.568 165.464 390.152 171.523C388.743 177.554 385.829 187.996 385.005 192.581C384.184 197.153 379.268 215.231 378.205 216.4C377.143 217.565 374.172 221.504 368.589 218.881C363.045 216.278 359.845 216.454 359.459 211.677C359.071 206.893 359.252 203.163 358.621 195.36C357.988 187.538 358.624 171.386 359.663 176.239C360.702 181.091 358.865 190.41 360.473 194.35C362.083 198.292 370.906 202.888 368.738 206.44C366.582 209.975 361.505 211.151 361.057 211.583C360.61 212.015 358.458 211.195 357.058 215.606C355.663 219.997 354.883 226.021 353.868 227.154C352.852 228.285 347.723 229.068 348.778 232.342C349.835 235.616 355.36 239.575 359.112 238.903C362.887 238.224 364.638 236.101 369.542 230.858C374.492 225.564 381.495 216.22 377.249 218.923C373.037 221.606 371.895 223.653 370.372 227.022C368.855 230.378 368.666 234.086 363.916 233.104C359.198 232.128 350.866 229.073 354.059 231.432C357.266 233.801 360.067 234.975 360.151 236.013C360.236 237.049 360.328 257.737 358.351 260.661C356.383 263.571 353.14 266.082 348.362 262.981C343.611 259.899 345.263 251.931 345.99 247.631C346.72 243.318 346.638 244.185 346.148 238.337C345.66 232.477 345.968 228.692 348.449 228.371C350.938 228.047 351.425 232.036 353.057 234.612C354.69 237.193 357.612 239.994 364.651 240.239C412.183 320.387 476.216 268.923 540.375 309.515" stroke="white" stroke-width="0.877675" stroke-miterlimit="10" stroke-linejoin="round"/>
</svg>
