<svg preserveAspectRatio="none" width="89" height="59" viewBox="0 0 89 59" fill="none" xmlns="http://www.w3.org/2000/svg">
<path d="M2.52774 10.9326H10.9907C10.9907 10.9326 13.5184 10.9326 13.5184 8.41589V2.51672C13.5184 2.51672 13.5184 0 16.0462 0H63.4894C63.4894 0 66.0172 0 66.0172 2.51672V15.43C66.0172 15.43 66.0172 17.9468 63.4894 17.9468H16.4894C16.4894 17.9468 14.8559 17.9468 14.8559 19.5732C14.8559 19.5732 14.8559 21.1996 16.4894 21.1996H66.1957C66.1957 21.1996 68.7234 21.1996 68.7234 23.7163V26.3103C68.7234 26.3103 68.7234 28.8271 71.2512 28.8271H86.4723C86.4723 28.8271 89 28.8271 89 31.3438V56.4833C89 56.4833 89 59 86.4723 59H2.52774C2.52774 59 0 59 0 56.4833V31.3438C0 31.3438 0 28.8271 2.52774 28.8271H11.6691C11.6691 28.8271 14.1968 28.8271 14.1968 26.3103V24.3819C14.1968 24.3819 14.1968 21.8652 11.6691 21.8652H2.52774C2.52774 21.8652 0 21.8652 0 19.3484V13.4493C0 13.4493 0 10.9326 2.52774 10.9326Z" fill="#FF7F32"/>
</svg>
