<svg width="43" height="59" viewBox="0 0 43 59" fill="none" xmlns="http://www.w3.org/2000/svg">
<path d="M17.5937 0.507705C18.9915 1.04572 20.1859 1.83525 21.2436 2.82498C21.8422 2.36957 22.402 1.90731 22.9979 1.49767C24.3737 0.551922 25.8924 0.0497866 27.5775 0.0616808C29.7166 0.0767794 31.856 0.0625271 33.9952 0.0662006C35.9045 0.069479 37.5824 0.732793 39.0397 1.93429C40.1598 2.85779 41.1269 3.92561 41.7429 5.26681C42.1489 6.15085 42.4333 7.0708 42.4894 8.04797C42.5254 8.67328 42.5565 9.29998 42.5567 9.92607C42.5605 23.2794 42.5611 36.6328 42.5582 49.9861C42.5577 52.6357 41.4983 54.8082 39.5672 56.5901C38.4078 57.66 37.0894 58.4247 35.5386 58.7439C35.0277 58.8491 34.5 58.9175 33.9793 58.9223C31.8572 58.942 29.7348 58.9305 27.6125 58.9305C25.6338 58.9306 23.8983 58.2563 22.3752 57.016C21.983 56.6966 21.6264 56.3335 21.2498 55.9871C20.9235 56.2876 20.6191 56.5815 20.3007 56.8592C18.7594 58.2034 16.9732 58.9215 14.92 58.9288C12.7977 58.9365 10.6752 58.9518 8.55325 58.9244C6.53995 58.8984 4.79011 58.1608 3.28128 56.835C2.42204 56.0801 1.65881 55.2448 1.09402 54.2418C0.520521 53.2235 0.156526 52.1368 0.0727613 50.9678C0.0292279 50.3603 0.00430193 49.75 0.00413401 49.141C0.000377723 35.7537 -0.00359626 22.3664 0.00581316 8.97903C0.00747987 6.59947 0.850852 4.55019 2.53703 2.84887C3.44262 1.93515 4.42526 1.14717 5.6294 0.663995C6.5655 0.288383 7.52803 0.0579746 8.54537 0.06248C10.6846 0.0719538 12.8239 0.0760144 14.9631 0.0602495C15.8574 0.0536589 16.7135 0.21803 17.5937 0.507705ZM2.65121 43.7771C2.65122 45.9176 2.64342 48.0581 2.6554 50.1985C2.6597 50.9673 2.83502 51.7044 3.14006 52.4165C3.55262 53.3796 4.23275 54.1334 4.99495 54.8125C6.06999 55.7703 7.32384 56.2954 8.79059 56.2833C10.7938 56.2668 12.7973 56.2682 14.8005 56.2827C16.3818 56.2941 17.7129 55.7121 18.8152 54.61C19.2922 54.133 19.7164 53.5994 20.1344 53.0678C20.7478 52.2878 21.7965 52.2417 22.3326 53.0395C22.7541 53.6668 23.2559 54.2118 23.7981 54.7239C24.8641 55.7309 26.1242 56.2799 27.6053 56.2794C29.6765 56.2786 31.7478 56.2711 33.819 56.2825C34.9056 56.2886 35.9082 56.0037 36.7888 55.3878C37.3402 55.0022 37.8523 54.5433 38.3188 54.0565C39.3715 52.9579 39.9067 51.6243 39.9072 50.0988C39.9112 36.3553 39.9095 22.6118 39.9097 8.86834C39.9097 8.20085 39.785 7.55511 39.5661 6.92723C39.2221 5.94061 38.5742 5.17262 37.8489 4.43951C36.6453 3.22286 35.189 2.66567 33.508 2.65264C31.6406 2.63816 29.7729 2.63966 27.9056 2.65629C27.4523 2.66032 26.9898 2.70754 26.5488 2.80943C24.7816 3.21769 23.4213 4.22206 22.423 5.72657C21.9912 6.37728 21.2496 6.58811 20.6153 6.19178C20.4093 6.06308 20.2413 5.8523 20.0968 5.64986C18.712 3.71063 16.8467 2.67502 14.4535 2.65269C12.6371 2.63574 10.8203 2.63833 9.00383 2.65381C8.04667 2.66196 7.12932 2.85864 6.26018 3.29353C5.53055 3.65862 4.96158 4.20406 4.39361 4.76681C3.22335 5.92631 2.65274 7.33031 2.65242 8.96821C2.65016 20.5372 2.65121 32.1062 2.65121 43.7771Z" fill="#FF7F32"/>
<path d="M27.1765 32.5057C27.1765 29.5896 27.1765 26.7245 27.1765 23.8594C27.144 23.8504 27.1115 23.8415 27.079 23.8326C25.3006 27.6254 23.5221 31.4183 21.7414 35.2161C21.4131 35.2161 21.1108 35.2161 20.7689 35.2161C18.9735 31.4288 17.1753 27.6353 15.377 23.8418C15.3396 23.8459 15.3023 23.85 15.2649 23.8541C15.2649 24.0268 15.2649 24.1996 15.2649 24.3723C15.2649 32.7963 15.2651 41.2203 15.2639 49.6443C15.2639 49.893 15.3049 50.1399 15.073 50.3478C14.8728 50.5273 14.6869 50.6326 14.4056 50.6305C12.6583 50.618 10.9109 50.6258 9.1635 50.6233C8.62987 50.6225 8.31738 50.3136 8.30868 49.793C8.30754 49.7251 8.30849 49.6571 8.30849 49.5892C8.30849 36.1719 8.30803 22.7546 8.31263 9.33734C8.3127 9.12602 8.32089 8.88346 8.42064 8.71063C8.5755 8.44233 8.82576 8.31387 9.18281 8.31868C10.9299 8.34222 12.6775 8.33471 14.4248 8.32596C14.9249 8.32346 15.2458 8.54011 15.4546 8.98974C16.24 10.6806 17.0371 12.366 17.8302 14.0533C18.8755 16.2772 19.921 18.5012 20.9674 20.7246C21.0381 20.8747 21.1172 21.0208 21.2239 21.2308C21.4444 20.7881 21.6447 20.401 21.832 20.0077C22.8235 17.9263 23.8127 15.8439 24.8007 13.7609C25.5489 12.1833 26.3018 10.6079 27.036 9.02386C27.2621 8.5361 27.5893 8.3139 28.1408 8.32118C29.837 8.34355 31.5337 8.32892 33.2302 8.32952C33.9591 8.32978 34.2004 8.56888 34.2005 9.29162C34.2008 16.8495 34.2007 24.4073 34.2007 31.9651C34.2007 37.8586 34.2008 43.752 34.2001 49.6454C34.2001 49.9131 34.2268 50.1697 33.9733 50.3866C33.7764 50.555 33.594 50.6297 33.3404 50.6285C31.576 50.6204 29.8117 50.6253 28.0473 50.6237C27.4245 50.6232 27.177 50.3676 27.1769 49.7273C27.1763 44.0038 27.1765 38.2802 27.1765 32.5057Z" fill="#FF7F32"/>
</svg>
