<svg preserveAspectRatio="none" width="25" height="10" viewBox="0 0 25 10" fill="none" xmlns="http://www.w3.org/2000/svg">
<path d="M23.9471 5.48924H1.05481C0.7825 5.48924 0.5625 5.26924 0.5625 4.99694C0.5625 4.72463 0.7825 4.50463 1.05481 4.50463H22.7579L19.7702 1.51693C19.5779 1.32463 19.5779 1.01232 19.7702 0.820012C19.9625 0.627704 20.2748 0.627704 20.4671 0.820012L24.2963 4.64924C24.4379 4.79078 24.4794 5.00155 24.4025 5.18617C24.3256 5.36924 24.1456 5.48924 23.9471 5.48924Z" fill="#ffffff"/>
<path d="M20.1169 9.32352C19.9908 9.32352 19.8646 9.27583 19.7692 9.17891C19.5769 8.9866 19.5769 8.67429 19.7692 8.48198L23.6031 4.64814C23.7954 4.45583 24.1077 4.45583 24.3 4.64814C24.4923 4.84044 24.4923 5.15275 24.3 5.34506L20.4662 9.17891C20.3692 9.27583 20.2431 9.32352 20.1169 9.32352Z" fill="#ffffff"/>
</svg>
