<svg width="325" height="122" viewBox="0 0 325 122" fill="none" xmlns="http://www.w3.org/2000/svg">
<path opacity="0.5" d="M0.282914 11.9424C0.0797975 11.8905 -0.0411579 11.681 0.0128796 11.4779C0.0647067 11.2749 0.272166 11.1538 0.475207 11.2079C0.557292 11.2295 28.3777 18.6355 42.6172 21.2411C49.5675 22.5158 63.3145 23.2632 75.5579 23.9287C87.7667 24.5919 98.502 25.1774 99.8178 26.3722C104.96 26.6639 109.581 27.0247 113.077 27.4632C119.05 28.2086 122.928 29.0015 126.074 29.6432C131.33 30.7148 134.51 31.3629 142.213 30.6759C154.583 29.5698 167.918 29.8701 167.957 29.8701C168.166 29.8744 168.332 30.0472 168.328 30.2568C168.326 30.3389 168.298 30.4145 168.253 30.4772C168.248 30.4815 167.903 30.946 167.391 31.6957C168.395 31.5077 169.015 31.2225 169.283 30.7991L169.354 30.6846C170.865 28.306 175.324 21.2822 187.005 22.2912C196.626 23.1187 199.046 24.4927 205.173 27.9667C206.506 28.725 208.018 29.5806 209.844 30.5679C211.888 31.6698 214.137 33.087 216.411 34.6836C218.477 35.3793 220.389 36.2392 221.916 37.207C229.994 42.3295 248.445 35.982 248.497 35.9648C248.609 35.9259 248.728 35.9432 248.821 36.0015C249.268 36.2456 258.063 41.1499 262.229 52.2569C265.387 60.6827 266.415 66.974 266.735 69.6378C268.764 69.1755 270.937 68.6872 273.26 68.1665C276.583 67.419 280.214 66.6023 284.278 65.6733C294.573 63.3141 300.821 62.7071 304.492 62.3484C306.371 62.1669 307.562 62.0502 308.236 61.8039C309.147 61.469 308.944 60.674 308.393 58.5157C308.314 58.196 308.223 57.8438 308.089 57.2972C306.998 52.8185 302.299 42.5066 297.58 33.9555C294.355 28.1136 291.151 23.1121 289.146 21.427C270.86 28.9691 254.04 35.4894 252.459 34.6533C252.215 34.5237 252.074 34.3466 252.031 34.124C251.923 33.5579 252.675 32.8256 254.045 32.0003C255.28 31.2549 257.065 30.3691 259.18 29.4229C268.811 25.1149 285.374 19.5409 288.247 20.0875C288.545 20.1437 288.887 20.3208 289.262 20.6017C312.125 11.1194 337.283 0.0902503 337.413 0.0318685C337.605 -0.0523506 337.83 0.0362142 337.914 0.228508C337.998 0.420802 337.91 0.645486 337.717 0.729781C337.588 0.785952 312.734 11.6833 289.876 21.1245C292.063 23.1834 295.171 28.0164 298.246 33.5904C302.99 42.1869 307.722 52.5788 308.828 57.1179C308.91 57.4571 309.026 57.913 309.132 58.3278C309.806 60.9744 310.055 61.9465 308.497 62.5169C307.737 62.7956 306.507 62.9166 304.563 63.1045C300.914 63.461 294.703 64.0659 284.447 66.4144C280.539 67.3089 276.825 68.1428 273.426 68.9076C271.067 69.4369 268.866 69.9317 266.818 70.3983C266.859 70.8175 266.872 71.0378 266.872 71.04C266.88 71.202 266.789 71.3446 266.651 71.4094C266.182 71.6449 246.319 81.637 245.634 77.7547C245.14 74.9483 251.884 73.032 265.99 69.8085C265.69 67.2441 264.69 60.9787 261.518 52.5204C257.655 42.2237 249.741 37.4015 248.583 36.7382C246.756 37.3453 229.459 42.8934 221.508 37.8509C220.707 37.3432 219.795 36.8657 218.812 36.4272C221.785 38.6567 224.693 41.1111 227.13 43.4876C231.457 47.7049 234.316 51.7211 233.516 53.9248C233.365 54.3353 233.058 54.6594 232.613 54.8992C231.436 55.5343 229.195 55.5819 226.4 55.1541C223.662 54.7328 220.359 53.8556 216.993 52.6328C209.546 49.9236 201.777 45.4989 199.089 40.5212C198.227 38.9268 197.966 37.6024 198.171 36.5222C198.417 35.2303 199.314 34.312 200.647 33.7115C201.913 33.1433 203.585 32.8667 205.465 32.8321C208.077 32.7846 211.106 33.2081 214.007 33.9664C212.439 32.9337 210.911 32.009 209.483 31.2378C207.677 30.2612 206.147 29.3948 204.797 28.6279C198.778 25.2144 196.4 23.8641 186.943 23.0496C175.72 22.0817 171.446 28.8137 169.999 31.093L169.925 31.2075C169.487 31.8945 168.489 32.2942 166.836 32.5232C164.852 35.5457 161.67 41.0787 163.334 43.2737C164.565 44.8983 167.272 45.7799 170.388 45.7043C173.3 45.633 176.547 44.7191 179.276 42.7898C180.993 41.5778 181.994 40.4652 182.758 39.614C184.716 37.4362 185.277 36.8119 191.013 39.7522C194.747 41.6664 205.056 48.7873 215.619 56.4332C227.342 64.9195 239.391 74.0647 243.104 77.461C246.237 80.3236 247.7 84.0677 247.836 87.2112C247.894 88.568 247.708 89.8188 247.302 90.8451C246.883 91.9037 246.231 92.7312 245.371 93.2065C244.457 93.7121 243.329 93.8114 242.022 93.3621C239.289 92.4201 233.778 89.1254 227.938 85.2539C230.548 88.4859 232.52 91.759 233.482 94.7448C234.471 97.8191 234.396 100.6 232.866 102.743C232.505 103.248 232.067 103.715 231.542 104.138C225.341 109.166 222.044 106.046 218.577 102.598C219.532 104 220.128 105.21 220.186 106.079C220.232 106.768 220.067 107.448 219.739 108.103C218.985 109.613 217.345 110.994 215.418 112.022C213.51 113.042 211.311 113.727 209.414 113.854C208.213 113.934 207.122 113.789 206.284 113.37C206.145 113.301 205.988 113.217 205.817 113.119C206.23 114.007 206.411 114.785 206.286 115.399C206.264 115.496 206.238 115.589 206.206 115.675C205.994 116.237 205.689 116.823 205.307 117.402C204.32 118.894 202.797 120.348 200.93 121.208C199.046 122.075 196.819 122.34 194.446 121.442C193.77 121.187 193.081 120.835 192.387 120.377C187.114 116.887 186.688 115.479 186.727 115.058L186.703 115.053C186.716 115.006 190.637 98.6315 186.124 100.628C184.912 101.166 183.367 102.192 181.745 103.49C179.239 105.495 176.558 108.14 174.641 110.6C172.792 112.979 171.669 115.14 172.172 116.276C172.211 116.362 172.256 116.44 172.31 116.509C172.321 116.52 172.33 116.533 172.34 116.544L172.427 116.563C174.35 116.995 176.177 117.406 177.655 117.89C180.611 118.86 182.266 117.914 183.175 117.393C183.538 117.186 183.804 117.034 184.07 117.034C184.666 117.034 184.845 117.566 184.845 119.255C184.845 119.839 184.698 120.307 184.43 120.675C183.951 121.334 183.117 121.632 182.088 121.662C181.131 121.688 179.995 121.483 178.82 121.124C176.156 120.312 173.267 118.691 171.932 117.231C167.263 116.181 162.121 114.975 159.989 112.234C158.11 111.57 156.109 110.762 154.277 109.857C151.097 108.284 148.403 106.398 147.664 104.428C147.616 104.305 147.575 104.177 147.536 104.045C146.81 101.552 147.543 97.603 149.643 93.8481C149.813 93.5413 149.995 93.2345 150.185 92.9321C149.338 93.066 148.288 93.4549 147.497 93.887C146.35 94.5135 145.054 92.9731 143.427 91.0459C142.109 89.4817 140.553 87.6346 138.801 86.5781C139.739 87.4747 140.575 88.4231 141.297 89.4147C143.036 91.8021 143.852 93.7702 143.894 95.1832C143.917 95.9652 143.71 96.5918 143.295 97.0433C142.88 97.4948 142.273 97.7563 141.495 97.8103C140.065 97.9053 138.004 97.2766 135.476 95.7881C133.143 94.4141 131.57 93.0681 130.693 91.8107C130.051 90.8903 129.773 90.0089 129.835 89.1879C129.9 88.3518 130.311 87.5956 131.043 86.9388C131.858 86.2086 133.076 85.6036 134.662 85.1542C135.005 85.057 135.342 84.9987 135.675 84.9728C133.718 83.5598 131.456 82.3305 128.945 81.3259C124.047 79.3664 118.214 78.2732 111.878 78.3704C98.7289 78.5735 93.8161 78.5735 93.8009 78.5735C93.5913 78.5735 93.4207 78.4028 93.4207 78.1911C93.4207 78.1306 93.4336 78.0744 93.4596 78.0247C93.6951 77.435 98.0959 66.341 99.8502 54.6421L99.9172 54.1948C101.734 42.0789 103.789 28.3729 109.518 29.222C110.739 29.4013 111.899 29.6563 113.193 29.9393C117.687 30.9223 123.81 32.2618 139.378 32.0284C145.736 31.9334 150.958 31.9787 155.169 32.0155C160.427 32.0608 164.085 32.0933 166.382 31.8426C166.71 31.3436 166.997 30.9266 167.216 30.6177C164.282 30.5722 152.92 30.4794 142.28 31.4322C134.465 32.13 131.244 31.4732 125.921 30.3865C122.803 29.7513 118.955 28.9649 112.984 28.2195C109.536 27.7875 104.999 27.4309 99.9517 27.1393C99.8113 30.8942 97.8582 51.4899 94.6241 66.7946C92.7466 75.685 90.4069 82.8318 87.6782 84.0114C83.2578 85.9233 57.3668 90.5813 35.8508 93.0183C20.9263 94.71 8.05417 95.3171 5.74466 93.1782C4.98204 92.4739 4.92152 91.856 5.4292 91.3094C6.87022 89.7517 14.5355 89.3823 22.7626 88.9847C32.2622 88.5267 42.5201 88.032 44.2593 85.8369C45.9271 83.7283 46.6207 71.081 47.3379 57.9626C48.1999 42.1653 49.1009 25.6982 52.1558 25.452C55.1654 25.2122 70.6278 25.2597 86.006 25.7673C90.0698 25.9012 94.1293 26.0676 97.949 26.2686C94.7235 25.7328 85.643 25.2381 75.519 24.6871C63.2541 24.0217 49.4833 23.272 42.4791 21.9888C28.2027 19.3745 0.362865 11.9641 0.282914 11.9424ZM93.8787 66.6411C97.1345 51.2306 99.0962 30.4987 99.1999 27.0982C95.0129 26.8648 90.5018 26.6747 85.9821 26.5256C70.6384 26.0201 55.2149 25.9725 52.2162 26.2124C49.8246 26.4025 48.9409 42.5325 48.0961 58.0015C47.3724 71.2429 46.6746 84.0092 44.8533 86.3079C42.9002 88.7751 32.463 89.2785 22.7992 89.7451C14.732 90.134 7.21579 90.4948 5.98428 91.8235C5.80929 92.0137 5.88276 92.2729 6.25866 92.6229C8.37809 94.5846 21.0298 93.9321 35.7684 92.262C57.2283 89.8315 83.007 85.2059 87.3776 83.3155C89.8342 82.2526 92.0487 75.3111 93.8787 66.6411ZM162.726 43.7315C160.905 41.3291 163.809 35.8891 165.872 32.6311C163.459 32.8472 159.954 32.8169 155.162 32.7758C150.956 32.7391 145.741 32.6937 139.389 32.7888C123.723 33.0243 117.559 31.674 113.033 30.6823C111.75 30.4014 110.598 30.1508 109.408 29.9737C104.43 29.2369 102.434 42.5411 100.671 54.3048L100.604 54.7521C99.0162 65.3383 95.2765 75.4341 94.3604 77.8085C95.9938 77.8042 101.332 77.7739 111.869 77.6119C118.309 77.5125 124.242 78.6251 129.228 80.6214C132.197 81.8075 134.83 83.3091 137.04 85.0525C139.825 85.5948 142.143 88.3429 144.008 90.5574C145.41 92.221 146.529 93.5496 147.134 93.2191C148.175 92.6509 149.658 92.1454 150.673 92.1237C150.688 92.1216 150.701 92.1216 150.716 92.1216C152.836 89.0451 155.912 86.2688 159.892 84.776C160.306 84.6204 160.732 84.48 161.166 84.3525C164.975 83.2442 167.767 83.3264 169.605 84.0544C170.603 84.4497 171.329 85.0352 171.791 85.7287C172.262 86.4352 172.461 87.2453 172.401 88.0772C172.314 89.2265 171.727 90.4191 170.668 91.4194C169.73 92.3073 168.54 94.0271 167.207 96.0277C168.696 94.4181 170.275 92.8842 171.837 91.549C174.944 88.9003 178.009 87.0272 180.252 86.8738C181.075 86.8197 181.797 86.9882 182.382 87.4247C183.177 88.0166 183.832 88.6734 184.348 89.3756C185.472 90.9009 185.953 92.6379 185.841 94.4159C185.731 96.1767 185.035 97.9699 183.804 99.6248C183.011 100.688 181.995 101.695 180.773 102.593C178.318 104.404 175.961 106.804 173.874 108.932C171.066 111.793 168.728 114.176 167.082 114.113C166.233 114.081 164.141 113.592 161.631 112.786C163.856 114.521 167.71 115.493 171.385 116.327C170.979 114.873 172.144 112.573 174.041 110.133C175.985 107.632 178.716 104.942 181.272 102.896C182.946 101.556 184.549 100.491 185.817 99.9316C191.746 97.3088 187.457 115.174 187.446 115.226H187.444C187.433 115.275 187.41 115.325 187.377 115.368C187.375 115.37 186.923 115.85 192.806 119.741C193.452 120.169 194.09 120.495 194.714 120.73C196.872 121.547 198.897 121.305 200.61 120.517C202.341 119.719 203.756 118.369 204.674 116.98C205.024 116.45 205.303 115.915 205.495 115.407C205.514 115.353 205.529 115.301 205.54 115.245C205.685 114.543 205.309 113.534 204.579 112.354C201.087 110.082 194.688 105.184 191.056 101.891C190.089 101.014 189.313 100.247 188.835 99.6723C188.177 98.8772 188.019 98.3004 188.535 98.0347C188.702 97.9505 188.941 97.9353 189.259 98.0001C189.453 98.0389 189.663 98.1038 189.89 98.188C192.167 99.05 196.455 102.334 200.068 105.875C202.101 107.869 203.924 109.958 205.071 111.771C205.704 112.181 206.234 112.497 206.623 112.691C207.333 113.045 208.288 113.164 209.362 113.093C211.157 112.974 213.244 112.324 215.061 111.352C216.859 110.39 218.38 109.124 219.06 107.763C219.328 107.227 219.462 106.679 219.425 106.128C219.333 104.73 217.585 102.235 215.159 99.493C213.664 98.322 211.529 96.7881 209.317 95.1958C204.473 91.711 199.26 87.9605 199.296 86.8348V86.8326C199.307 86.4351 199.575 86.2277 200.139 86.245C200.148 86.245 200.158 86.2471 200.167 86.2471C202.019 86.3508 207.577 90.7128 212.35 95.4334C213.519 96.5914 214.642 97.771 215.658 98.9204C215.96 99.158 216.237 99.3806 216.485 99.5858C217.356 100.314 218.164 101.118 218.961 101.908C222.234 105.166 225.302 108.219 231.062 103.548C231.533 103.168 231.926 102.751 232.246 102.302C233.624 100.374 233.674 97.8229 232.758 94.9776C231.82 92.063 229.876 88.8504 227.296 85.6703C226.758 85.007 226.194 84.346 225.607 83.6891C218.954 79.1759 212.285 74.2177 209.159 71.3939C204.836 67.4878 202.595 65.4246 205.508 66.777C206.238 67.1162 209.312 69.2832 215.658 73.8158C219.466 76.5359 223.096 79.7636 226.11 83.1145C226.581 83.4342 227.054 83.7518 227.525 84.0673C233.62 88.1419 239.468 91.6764 242.268 92.64C243.355 93.0138 244.275 92.9425 245.005 92.5385C245.701 92.1539 246.239 91.4604 246.593 90.5638C246.961 89.6327 247.131 88.4898 247.075 87.2432C246.948 84.2747 245.561 80.7337 242.592 78.0202C238.908 74.652 226.885 65.5284 215.174 57.0507C204.63 49.4177 194.355 42.3185 190.667 40.428C185.454 37.7534 184.977 38.2827 183.324 40.1213C182.533 41.0006 181.503 42.1478 179.714 43.4116C176.856 45.4316 173.455 46.3888 170.404 46.4621C167.054 46.5445 164.107 45.555 162.726 43.7315ZM209.669 70.8324C212.298 73.2068 217.47 77.1151 223.025 80.9931C220.631 78.6381 217.971 76.4021 215.217 74.4339C208.913 69.9315 205.864 67.7818 205.188 67.4685C203.682 66.7686 207.768 69.1149 209.669 70.8324ZM209.76 94.5802C210.57 95.1636 211.371 95.7404 212.136 96.2935C212.028 96.1855 211.92 96.0796 211.814 95.9738C207.128 91.3352 201.757 87.0575 200.117 87.0057H200.115C200.07 87.0036 200.057 86.7637 200.055 86.8566C200.033 87.5825 205.076 91.21 209.76 94.5802ZM191.566 101.33C194.664 104.138 199.783 108.12 203.345 110.607C202.302 109.271 200.971 107.826 199.534 106.417C195.989 102.939 191.81 99.7287 189.622 98.9013C189.43 98.8278 189.257 98.776 189.108 98.7436C188.965 98.7154 188.892 98.7047 188.879 98.7112C188.807 98.7479 189.144 98.8516 189.423 99.1865C189.883 99.7416 190.631 100.48 191.566 101.33ZM173.423 117.568C174.842 118.678 177.005 119.776 179.04 120.398C180.14 120.733 181.196 120.927 182.067 120.901C182.864 120.88 183.488 120.677 183.814 120.227C183.987 119.99 184.082 119.67 184.082 119.255C184.082 118.147 184.08 117.797 184.069 117.797C184.005 117.797 183.812 117.905 183.553 118.054C182.54 118.633 180.695 119.687 177.419 118.613C176.266 118.235 174.89 117.902 173.423 117.568ZM159.369 111.205C159.155 110.725 159.023 110.207 158.984 109.643C158.911 108.554 159.414 107.042 160.324 105.311C158.15 107.517 155.936 108.736 153.866 107.645C153.058 107.219 152.345 106.739 151.725 106.219C150.081 104.842 149.074 103.172 148.687 101.451C148.299 99.72 148.534 97.9377 149.375 96.3454C149.636 95.8463 149.958 95.3667 150.338 94.9152C151.008 94.1136 151.31 93.5692 151.351 93.2214C151.364 93.0982 151.334 93.0226 151.274 92.9837C151.228 92.9535 151.168 92.9298 151.099 92.9146C150.816 93.3445 150.55 93.7788 150.306 94.2174C148.303 97.7994 147.592 101.522 148.266 103.834C148.299 103.948 148.335 104.058 148.374 104.164C149.033 105.923 151.585 107.677 154.614 109.174C156.141 109.93 157.783 110.617 159.369 111.205ZM159.743 109.591C159.794 110.345 160.052 111.011 160.473 111.603C163.5 112.661 166.146 113.316 167.108 113.355C168.421 113.404 170.653 111.129 173.332 108.399C175.441 106.251 177.819 103.827 180.323 101.982C181.485 101.126 182.445 100.174 183.192 99.1712C184.335 97.6373 184.981 95.9824 185.083 94.3685C185.182 92.7677 184.748 91.2013 183.735 89.8251C183.261 89.1834 182.661 88.5806 181.928 88.034C181.498 87.7143 180.945 87.5911 180.304 87.6343C178.236 87.7748 175.322 89.5766 172.332 92.1281C169.305 94.7099 166.222 98.05 163.858 101.222C161.322 104.626 159.624 107.809 159.743 109.591ZM160.157 85.489C156.461 86.8739 153.572 89.4189 151.541 92.2664C151.593 92.2902 151.641 92.3161 151.686 92.3463C151.999 92.5472 152.159 92.8606 152.107 93.3077C152.049 93.796 151.695 94.4787 150.921 95.4034C150.576 95.816 150.284 96.2503 150.046 96.6997C149.292 98.1321 149.079 99.7308 149.429 101.284C149.781 102.848 150.701 104.369 152.213 105.635C152.795 106.124 153.464 106.573 154.22 106.971C157.777 108.846 162.318 102.012 165.948 96.5462C167.557 94.1222 168.994 91.9574 170.147 90.8686C171.061 90.0044 171.569 88.989 171.64 88.0211C171.69 87.3556 171.534 86.7097 171.161 86.1522C170.78 85.5818 170.171 85.0957 169.326 84.7609C167.628 84.0868 165.008 84.0242 161.378 85.0828C160.961 85.2038 160.555 85.3399 160.157 85.489ZM136.736 85.7785C136.131 85.6813 135.509 85.7051 134.869 85.8865C133.394 86.3057 132.274 86.8523 131.548 87.5026C130.967 88.0254 130.643 88.6109 130.596 89.2439C130.546 89.892 130.779 90.6072 131.315 91.3763C132.132 92.5472 133.625 93.8154 135.861 95.1333C138.25 96.5398 140.158 97.136 141.443 97.0497C142.02 97.0108 142.454 96.8336 142.735 96.5289C143.014 96.2243 143.152 95.7793 143.135 95.2046C143.096 93.9364 142.327 92.1173 140.683 89.8596C139.616 88.3948 138.287 87.0251 136.736 85.7785ZM226.6 44.0318C223.556 41.0655 219.773 37.9761 216.057 35.364C212.605 34.2125 208.712 33.532 205.478 33.5903C203.697 33.6227 202.127 33.8798 200.956 34.407C199.852 34.9018 199.113 35.6406 198.918 36.6625C198.746 37.5742 198.985 38.7301 199.759 40.1603C202.349 44.9566 209.948 49.2624 217.252 51.9176C220.566 53.1231 223.818 53.9851 226.514 54.3999C229.154 54.8061 231.228 54.7823 232.252 54.2292C232.531 54.0801 232.719 53.8922 232.801 53.6654C233.484 51.7879 230.725 48.0503 226.6 44.0318ZM266.094 70.8368C266.087 70.7633 266.081 70.6726 266.07 70.5667C252.5 73.6626 245.999 75.4473 246.384 77.625C246.866 80.3471 263.925 71.9213 266.094 70.8368ZM288.433 20.9473C288.318 20.8911 288.21 20.8543 288.109 20.8349C285.348 20.3099 269.03 25.8493 259.489 30.1162C257.409 31.0474 255.654 31.9181 254.438 32.6504C253.353 33.3051 252.74 33.7761 252.779 33.9813C252.781 33.9942 252.787 33.9661 252.813 33.9791C254.233 34.731 270.523 28.3642 288.433 20.9473Z" fill="white"/>
</svg>
