<svg width="142" height="81" viewBox="0 0 142 81" fill="none" xmlns="http://www.w3.org/2000/svg">
<path d="M71.1837 0H17.129C16.8057 0 16.5123 0.192554 16.3822 0.491113L0.0697191 37.9071C-0.1669 38.4501 0.227757 39.0594 0.816512 39.0594H34.9553C35.4058 39.0594 35.7708 39.4272 35.7708 39.8811V80.1771C35.7708 81.0667 36.9779 81.322 37.3331 80.5077L71.9301 1.15183C72.1671 0.609229 71.7725 0 71.1837 0Z" fill="#FF7F32"/>
<path d="M141.184 0H87.129C86.8052 0 86.5123 0.192554 86.3822 0.491113L70.0697 37.9071C69.8331 38.4501 70.2278 39.0594 70.8165 39.0594H104.955C105.406 39.0594 105.771 39.4272 105.771 39.8811V80.1771C105.771 81.0667 106.978 81.322 107.333 80.5077L141.93 1.15183C142.167 0.609229 141.772 0 141.184 0Z" fill="#FF7F32"/>
</svg>
