<svg width="84" height="48" viewBox="0 0 84 48" fill="none" xmlns="http://www.w3.org/2000/svg">
<path d="M41.4875 48H73.7702C73.9633 48 74.1385 47.8859 74.2162 47.709L83.9584 25.5365C84.0997 25.2147 83.864 24.8537 83.5124 24.8537H63.1239C62.8549 24.8537 62.6369 24.6358 62.6369 24.3668V0.487643C62.6369 -0.0395398 61.916 -0.190833 61.7039 0.291735L41.0418 47.3174C40.9002 47.639 41.1359 48 41.4875 48Z" fill="#FF7F32"/>
<path d="M0.4875 48H32.7702C32.9635 48 33.1385 47.8859 33.2162 47.709L42.9584 25.5365C43.0997 25.2147 42.864 24.8537 42.5124 24.8537H22.1239C21.8549 24.8537 21.6369 24.6358 21.6369 24.3668V0.487643C21.6369 -0.0395398 20.916 -0.190833 20.7039 0.291735L0.0417647 47.3174C-0.0998057 47.639 0.135882 48 0.4875 48Z" fill="#FF7F32"/>
</svg>
