<?xml version="1.0" standalone="no"?>
<!DOCTYPE svg PUBLIC "-//W3C//DTD SVG 20010904//EN"
 "http://www.w3.org/TR/2001/REC-SVG-20010904/DTD/svg10.dtd">
<svg version="1.0" xmlns="http://www.w3.org/2000/svg"
 width="944.000000pt" height="944.000000pt" viewBox="0 0 944.000000 944.000000"
 preserveAspectRatio="xMidYMid meet">
<metadata>
Created by potrace 1.14, written by Peter Selinger 2001-2017
</metadata>
<g transform="translate(0.000000,944.000000) scale(0.100000,-0.100000)"
fill="#000000" stroke="none">
<path d="M2520 9424 c-170 -28 -301 -69 -434 -137 -137 -70 -241 -149 -387
-296 -223 -224 -336 -432 -396 -727 -17 -85 -18 -252 -18 -3534 0 -3218 1
-3451 17 -3541 52 -288 178 -519 408 -749 232 -232 434 -346 720 -407 77 -16
145 -18 735 -18 582 0 659 2 737 18 257 52 455 156 673 354 l106 95 62 -59
c229 -217 446 -335 715 -390 78 -16 154 -18 732 -18 579 0 654 2 735 18 297
59 535 193 760 428 231 242 357 502 394 814 15 120 15 6626 1 6837 -24 347
-153 627 -404 881 -253 254 -509 389 -809 427 -47 6 -331 10 -677 10 -627 0
-699 -4 -850 -48 -173 -51 -307 -124 -516 -283 l-144 -109 -81 68 c-115 96
-237 176 -364 237 -122 59 -169 77 -295 108 -81 20 -113 21 -740 23 -360 1
-666 0 -680 -2z m1160 -414 c321 -29 575 -166 772 -419 115 -148 156 -176 249
-169 77 6 116 34 192 137 196 271 460 423 781 451 146 13 921 13 1058 0 263
-25 465 -128 656 -336 138 -149 210 -276 255 -452 l22 -87 0 -3405 c0 -3681 3
-3457 -52 -3615 -46 -130 -118 -240 -234 -356 -147 -147 -277 -234 -424 -286
l-80 -28 -647 -3 c-620 -3 -651 -2 -732 17 -102 24 -191 63 -277 121 -88 59
-257 227 -336 333 -76 102 -120 131 -198 130 -47 0 -106 -22 -145 -55 -9 -7
-59 -65 -111 -128 -204 -245 -346 -346 -559 -399 -82 -20 -108 -21 -700 -21
-580 0 -620 1 -697 20 -306 74 -609 356 -717 667 -54 152 -51 -44 -51 3598 0
3246 1 3394 18 3475 39 181 114 320 248 464 196 209 406 322 649 345 124 12
925 13 1060 1z"/>
<path d="M2680 8092 c-20 -10 -42 -32 -52 -52 -17 -33 -18 -212 -18 -3320 0
-2608 3 -3290 13 -3310 7 -13 28 -35 46 -47 l34 -23 459 0 c499 0 492 -1 537
56 l21 27 0 2098 c0 1673 3 2099 13 2099 6 -1 204 -407 439 -903 l427 -902 82
0 82 0 422 899 c232 495 427 902 433 904 9 3 12 -486 12 -2093 0 -1883 2
-2099 16 -2126 30 -58 38 -59 544 -59 501 0 494 -1 539 56 l21 27 0 3294 c0
2774 -2 3299 -14 3327 -25 61 -29 61 -551 61 -455 0 -471 -1 -505 -20 -45 -26
-49 -35 -544 -1080 -454 -958 -455 -960 -466 -949 -4 5 -203 423 -440 929
-238 506 -447 952 -466 991 -65 137 -45 133 -599 134 -409 0 -453 -2 -485 -18z"/>
</g>
</svg>
