<svg preserveAspectRatio="none" width="223" height="6" viewBox="0 0 223 6" fill="none" xmlns="http://www.w3.org/2000/svg">
<path d="M222.987 3.59038C222.929 3.25446 222.796 2.97051 222.616 2.79952C222.571 2.75722 222.524 2.72207 222.476 2.69454C222.437 2.66753 222.397 2.64644 222.356 2.63154L222.208 2.58256L221.989 2.52656C220.962 2.36559 220.026 2.3306 219.048 2.26761L216.162 2.14163L210.33 1.99466L195.681 1.81268L198.362 1.67971H198.853C201.888 1.53973 200.82 1.28078 201.739 1.07781C205.938 0.167972 202.622 -0.111982 190.068 0.0419911C187.334 0.0419911 184.439 0.0419911 181.651 0.0419911L157.785 0L134.038 0.153974L88.202 0.0699869L65.2883 0.0279958H53.8067C49.9921 0.0279958 46.1688 0.0279947 42.3458 0.0979828C37.9191 0.167971 33.4927 0.268287 29.0661 0.398931L22.4221 0.636895L19.0939 0.818858L18.2691 0.881849L17.8566 0.923839L17.6257 0.958835H17.4937H17.3947L17.2875 1.00783C17.4772 1.41376 16.6689 0.0419881 16.9576 3.17745C17.2545 3.59038 17.3164 3.50639 17.3411 3.54139H17.4236H17.5185H17.6505H17.8773H18.2897H19.1145C23.5768 3.66037 27.9814 3.64637 32.4148 3.66737H37.2772C31.5034 3.69537 25.7296 3.73735 19.9559 3.79335C13.9882 3.85633 9.05988 4.0593 5.59148 4.35325C2.12308 4.64721 0.122869 5.01113 0.0032692 5.42405C-0.223559 6.23591 11.4065 5.96297 18.2443 5.928C40.1297 5.732 62.0386 5.68535 83.9708 5.78802L149.784 5.94197C168.755 5.99096 198.329 5.94197 206.697 5.82299L211.233 5.74601C213.114 5.74601 215.011 5.74601 216.921 5.65502C217.875 5.62235 218.837 5.57106 219.807 5.50107C220.29 5.50107 220.772 5.43108 221.263 5.36807C221.511 5.36807 221.75 5.3121 222.022 5.25608C222.08 5.25608 222.167 5.22111 222.249 5.2001H222.306H222.34L222.434 5.1581C222.494 5.12335 222.552 5.08126 222.608 5.03213L222.69 4.95516C222.764 4.83618 223.065 4.79417 222.987 3.59038ZM106.625 3.76535C97.0403 3.79335 87.4267 3.79335 77.7844 3.76535H98.8175H111.751H106.625Z" fill="#FF7F32"/>
</svg>
