<svg preserveAspectRatio="none" width="140" height="167" viewBox="0 0 140 167" fill="none" xmlns="http://www.w3.org/2000/svg">
<path d="M7.5586 47.3657H51.7011C51.7011 47.3657 58.8143 47.3657 58.8143 40.2524V7.22657C58.8143 7.22657 58.8143 0.113281 65.9276 0.113281H132.308C132.308 0.113281 139.422 0.113281 139.422 7.22657V43.0321C139.422 43.0321 139.422 50.1454 132.308 50.1454H71.4885C71.4885 50.1454 64.3752 50.1454 64.3752 57.2587V84.629C64.3752 84.629 64.3752 91.7423 71.4885 91.7423H131.015C131.015 91.7423 138.128 91.7423 138.128 98.8556V129.231C138.128 129.231 138.128 136.345 131.015 136.345H71.4885C71.4885 136.345 64.3752 136.345 64.3752 143.458V159.773C64.3752 159.773 64.3752 166.887 57.2619 166.887H7.5586C7.5586 166.887 0.445312 166.887 0.445312 159.773V140.645C0.445312 140.645 0.445312 133.532 7.5586 133.532H54.4154C54.4154 133.532 61.5287 133.532 61.5287 126.419V101.732C61.5287 101.732 61.5287 94.6183 54.4154 94.6183H7.5586C7.5586 94.6183 0.445312 94.6183 0.445312 87.505V54.479C0.445312 54.479 0.445312 47.3657 7.5586 47.3657Z" fill="#FF7F32"/>
</svg>
