<svg preserveAspectRatio="none" width="205" height="149" viewBox="0 0 205 149" fill="none" xmlns="http://www.w3.org/2000/svg">
<path d="M11.9099 44.461H47.9336C47.9336 44.461 53.7263 44.461 53.7263 38.6683V11.5857C53.7263 11.5857 53.7263 5.79297 59.519 5.79297H152.274C152.274 5.79297 158.067 5.79297 158.067 11.5857V63.4773C158.067 63.4773 158.067 69.27 152.274 69.27H64.1855C64.1855 69.27 58.4328 69.27 58.4328 75.0227C58.4328 75.0227 58.4328 80.7754 64.1855 80.7754H192.739C192.739 80.7754 198.532 80.7754 198.532 86.5681V111.482C198.532 111.482 198.532 117.275 192.739 117.275H123.788C123.788 117.275 117.995 117.275 117.995 123.067V136.476C117.995 136.476 117.995 142.269 112.203 142.269H11.9099C11.9099 142.269 6.11719 142.269 6.11719 136.476V113.546C6.11719 113.546 6.11719 107.753 11.9099 107.753H50.312C50.312 107.753 56.1047 107.753 56.1047 101.961V88.9218C56.1047 88.9218 56.1047 83.1291 50.312 83.1291H11.9099C11.9099 83.1291 6.11719 83.1291 6.11719 77.3364V50.2537C6.11719 50.2537 6.11719 44.461 11.9099 44.461Z" fill="#FF7F32"/>
</svg>
