<svg width="365" height="476" viewBox="0 0 365 476" fill="none" xmlns="http://www.w3.org/2000/svg">
<g clip-path="url(#clip0_282_39850)">
<path d="M-393.89 43.19H-321.723C-321.723 43.19 -300.168 43.19 -300.168 21.6349V-28.8902C-300.168 -28.8902 -300.168 -50.4453 -278.612 -50.4453H125.957C125.957 -50.4453 147.512 -50.4453 147.512 -28.8902V81.7094C147.512 81.7094 147.512 103.265 125.957 103.265H-274.833C-274.833 103.265 -288.763 103.265 -288.763 117.194C-288.763 117.194 -288.763 131.124 -274.833 131.124H149.034C149.034 131.124 170.589 131.124 170.589 152.679V174.897C170.589 174.897 170.589 196.452 192.145 196.452H321.942C321.942 196.452 343.497 196.452 343.497 218.007V433.321C343.497 433.321 343.497 454.876 321.942 454.876H-393.89C-393.89 454.876 -415.445 454.876 -415.445 433.321V218.007C-415.445 218.007 -415.445 196.452 -393.89 196.452H-315.938C-315.938 196.452 -294.383 196.452 -294.383 174.897V158.38C-294.383 158.38 -294.383 136.825 -315.938 136.825H-393.89C-393.89 136.825 -415.445 136.825 -415.445 115.27V64.7452C-415.445 64.7452 -415.445 43.19 -393.89 43.19Z" fill="#FF7F32"/>
</g>
<defs>
<clipPath id="clip0_282_39850">
<rect width="802" height="476" fill="white" transform="translate(-437)"/>
</clipPath>
</defs>
</svg>
