<svg id="Layer_1" data-name="Layer 1" xmlns="http://www.w3.org/2000/svg" xmlns:xlink="http://www.w3.org/1999/xlink" viewBox="0 0 758.94 505.32"><defs><style>.cls-1{fill:none;}.cls-2{clip-path:url(#clip-path);}.cls-3{fill:#f57f37;}</style><clipPath id="clip-path" transform="translate(-21.23 326.44)"><rect class="cls-1" width="802" height="200"/></clipPath></defs><g class="cls-2"><path class="cls-3" d="M42.78,85.24H115s21.55,0,21.55,21.56v50.52s0,21.56,21.56,21.56H562.63s21.55,0,21.55-21.56V46.72s0-21.55-21.55-21.55H161.84s-13.93,0-13.93-13.93c0,0,0-13.93,13.93-13.93H585.71s21.55,0,21.55-21.56V-46.47S607.26-68,628.82-68H758.61s21.56,0,21.56-21.56V-304.89s0-21.55-21.56-21.55H42.78s-21.55,0-21.55,21.55V-89.58S21.23-68,42.78-68h78s21.56,0,21.56,21.55v16.52s0,21.56-21.56,21.56H42.78s-21.55,0-21.55,21.55V63.69S21.23,85.24,42.78,85.24Z" transform="translate(-21.23 326.44)"/></g></svg>